# FreeCAD v1.0 build0 Arch module
# https://www.freecad.org
mtllib STEP05.mtl
o HSC_1000HLX_STEP_WK_000_1-1000HLX_STEP_TP019 (Meshed)
usemtl color_cccce6
v -2573.0 1540.0 -855.008545
v -2727.0 1540.0 -855.008545
v -2573.0 1540.178833 -853.079163
v -2727.0 1540.178833 -853.079163
v -2573.0 1540.708984 -851.215515
v -2727.0 1540.708984 -851.215515
v -2573.0 1541.572754 -849.481018
v -2727.0 1541.572754 -849.481018
v -2573.0 1542.740356 -847.934753
v -2727.0 1542.740356 -847.934753
v -2573.0 1544.172363 -846.629333
v -2727.0 1544.172363 -846.629333
v -2573.0 1545.819702 -845.609314
v -2727.0 1545.819702 -845.609314
v -2727.0 1547.626587 -844.909363
v -2573.0 1547.626587 -844.909363
v -2727.0 1549.531128 -844.553345
v -2573.0 1549.531128 -844.553345
v -2727.0 1551.468872 -844.553345
v -2573.0 1551.468872 -844.553345
v -2727.0 1553.373413 -844.909363
v -2573.0 1553.373413 -844.909363
v -2727.0 1555.180298 -845.609314
v -2573.0 1555.180298 -845.609314
v -2727.0 1556.827637 -846.629333
v -2573.0 1556.827637 -846.629333
v -2727.0 1558.259644 -847.934753
v -2573.0 1558.259644 -847.934753
v -2727.0 1559.427246 -849.481018
v -2573.0 1559.427246 -849.481018
v -2727.0 1560.291016 -851.215515
v -2573.0 1560.291016 -851.215515
v -2727.0 1560.821167 -853.079163
v -2573.0 1560.821167 -853.079163
v -2727.0 1561.0 -855.008545
v -2573.0 1561.0 -855.008545
v -2727.0 1560.821167 -856.937927
v -2573.0 1560.821167 -856.937927
v -2727.0 1560.291016 -858.801575
v -2573.0 1560.291016 -858.801575
v -2727.0 1559.427246 -860.536072
v -2573.0 1559.427246 -860.536072
v -2727.0 1558.259644 -862.082336
v -2573.0 1558.259644 -862.082336
v -2727.0 1556.827637 -863.387695
v -2573.0 1556.827637 -863.387695
v -2727.0 1555.180298 -864.407776
v -2573.0 1555.180298 -864.407776
v -2727.0 1553.373413 -865.107727
v -2573.0 1553.373413 -865.107727
v -2727.0 1551.468872 -865.463745
v -2573.0 1551.468872 -865.463745
v -2727.0 1549.531128 -865.463745
v -2573.0 1549.531128 -865.463745
v -2727.0 1547.626587 -865.107727
v -2573.0 1547.626587 -865.107727
v -2727.0 1545.819702 -864.407776
v -2573.0 1545.819702 -864.407776
v -2573.0 1544.172363 -863.387695
v -2727.0 1544.172363 -863.387695
v -2573.0 1542.740356 -862.082336
v -2727.0 1542.740356 -862.082336
v -2727.0 1541.572754 -860.536072
v -2573.0 1541.572754 -860.536072
v -2727.0 1540.708984 -858.801575
v -2573.0 1540.708984 -858.801575
v -2727.0 1540.178833 -856.937927
v -2573.0 1540.178833 -856.937927
v -2573.0 1550.5 -820.008545
v -2727.0 1598.489868 -820.008545
v -2727.0 1550.5 -820.008545
v -2573.0 1598.489868 -820.008545
v -2727.0 1546.82959 -820.201538
v -2573.0 1546.82959 -820.201538
v -2727.0 1543.199707 -820.77832
v -2573.0 1543.199707 -820.77832
v -2727.0 1539.650269 -821.732666
v -2573.0 1539.650269 -821.732666
v -2727.0 1536.220459 -823.053955
v -2573.0 1536.220459 -823.053955
v -2727.0 1532.948242 -824.7276
v -2573.0 1532.948242 -824.7276
v -2727.0 1529.869507 -826.735229
v -2573.0 1529.869507 -826.735229
v -2727.0 1527.018188 -829.054626
v -2573.0 1527.018188 -829.054626
v -2727.0 1524.425903 -831.660217
v -2573.0 1524.425903 -831.660217
v -2727.0 1522.121216 -834.523315
v -2573.0 1522.121216 -834.523315
v -2727.0 1520.129395 -837.612305
v -2573.0 1520.129395 -837.612305
v -2727.0 1518.472534 -840.893127
v -2573.0 1518.472534 -840.893127
v -2727.0 1517.168945 -844.329651
v -2573.0 1517.168945 -844.329651
v -2727.0 1516.232788 -847.883911
v -2573.0 1516.232788 -847.883911
v -2727.0 1515.674561 -851.516724
v -2573.0 1515.674561 -851.516724
v -2727.0 1515.500488 -855.18811
v -2573.0 1515.500488 -855.18811
v -2727.0 1515.71228 -858.857422
v -2573.0 1515.71228 -858.857422
v -2727.0 1516.307739 -862.484375
v -2573.0 1516.307739 -862.484375
v -2727.0 1517.280273 -866.02887
v -2573.0 1517.280273 -866.02887
v -2727.0 1518.619141 -869.451782
v -2573.0 1518.619141 -869.451782
v -2727.0 1520.30957 -872.715454
v -2573.0 1520.30957 -872.715454
v -2727.0 1522.332886 -875.783875
v -2573.0 1522.332886 -875.783875
v -2727.0 1524.66687 -878.623169
v -2573.0 1524.66687 -878.623169
v -2727.0 1527.285767 -881.202026
v -2573.0 1527.285767 -881.202026
v -2573.0 1530.160645 -883.492004
v -2727.0 1530.160645 -883.492004
v -2727.0 1585.5 -923.008545
v -2573.0 1585.5 -923.008545
v -2727.0 1598.489868 -923.008545
v -2573.0 1598.489868 -923.008545
v -2562.0 1562.5 -930.008545
v -2529.0 1562.5 -930.008545
v -2529.0 1549.5 -930.008545
v -2562.0 1549.5 -930.008545
v -2529.0 1549.5 -924.008545
v -2562.0 1549.5 -924.008545
v -2562.0 1562.5 -924.008545
v -2529.0 1562.5 -924.008545
v -2562.0 1563.835693 -923.857971
v -2529.0 1563.835693 -923.857971
v -2562.0 1565.10437 -923.413818
v -2529.0 1565.10437 -923.413818
v -2562.0 1566.24231 -922.698364
v -2529.0 1566.24231 -922.698364
v -2562.0 1567.192505 -921.747559
v -2529.0 1567.192505 -921.747559
v -2562.0 1567.907104 -920.609131
v -2529.0 1567.907104 -920.609131
v -2562.0 1568.350342 -919.340149
v -2529.0 1568.350342 -919.340149
v -2529.0 1568.5 -918.004333
v -2562.0 1568.5 -918.004333
v -2562.0 1556.820068 -846.623657
v -2562.0 1558.253296 -847.927856
v -2562.0 1585.5 -815.008545
v -2562.0 1559.422485 -849.473267
v -2562.0 1555.171631 -845.605042
v -2562.0 1560.28772 -851.207214
v -2562.0 1585.5 -868.008545
v -2562.0 1553.364014 -844.906677
v -2562.0 1531.341675 -815.008545
v -2562.0 1560.81958 -853.070618
v -2562.0 1551.458862 -844.552429
v -2562.0 1561.0 -855.0
v -2562.0 1549.520996 -844.55426
v -2562.0 1547.616577 -844.912231
v -2562.0 1545.810303 -845.614075
v -2562.0 1544.163696 -846.635864
v -2562.0 1542.733032 -847.942871
v -2562.0 1561.0 -868.008545
v -2562.0 1541.566895 -849.490479
v -2562.0 1540.704956 -851.226074
v -2562.0 1540.176636 -853.090515
v -2562.0 1540.0 -888.438049
v -2562.0 1568.5 -900.008545
v -2562.0 1568.5 -888.438049
v -2562.0 1568.5 -940.008545
v -2562.0 1568.5 -928.400818
v -2562.0 1566.604248 -929.284851
v -2562.0 1564.58374 -929.826233
v -2562.0 1480.5 -878.208557
v -2562.0 1540.0 -855.020264
v -2562.0 1473.5 -940.008545
v -2562.0 1435.300049 -878.208557
v -2562.0 1123.5 -900.008545
v -2562.0 1123.5 -878.208557
v -2568.0 1568.5 -940.008545
v -2568.0 1473.5 -940.008545
v -2568.0 1568.5 -932.008545
v -2568.0 1568.5 -928.400818
v -2568.0 1568.5 -888.438049
v -2568.0 1540.0 -888.438049
v -2568.0 1540.0 -855.020264
v -2568.0 1561.0 -855.0
v -2568.0 1560.81958 -853.070618
v -2568.0 1560.28772 -851.207214
v -2568.0 1559.422485 -849.473267
v -2568.0 1558.253296 -847.927856
v -2568.0 1556.820068 -846.623657
v -2568.0 1555.171631 -845.605042
v -2568.0 1553.364014 -844.906677
v -2568.0 1551.458862 -844.552429
v -2568.0 1549.520996 -844.55426
v -2568.0 1547.616577 -844.912231
v -2568.0 1545.810303 -845.614075
v -2568.0 1544.163696 -846.635864
v -2568.0 1542.733032 -847.942871
v -2568.0 1541.566895 -849.490479
v -2568.0 1540.704956 -851.226074
v -2568.0 1540.176636 -853.090515
v -2568.0 1561.0 -868.008545
v -2568.0 1585.5 -868.008545
v -2568.0 1585.5 -815.008545
v -2568.0 1531.341675 -815.008545
v -2568.0 1480.5 -878.208557
v -2568.0 1435.300049 -878.208557
v -2540.0 1435.300049 -878.208557
v -2540.0 1123.5 -878.208557
v -2540.0 1435.300049 -875.008545
v -2760.0 1435.300049 -875.008545
v -2760.0 1120.300049 -875.008545
v -2540.0 1120.300049 -875.008545
v -2540.0 1120.300049 -900.008545
v -2760.0 1120.300049 -900.008545
v -2540.0 1123.5 -900.008545
v -2568.0 1123.5 -900.008545
v -2568.0 1574.5 -918.008545
v -2529.0 1574.5 -918.008545
v -2529.0 1574.317749 -920.092285
v -2568.0 1574.317749 -920.092285
v -2529.0 1573.776367 -922.112793
v -2568.0 1573.776367 -922.112793
v -2529.0 1572.892334 -924.008545
v -2568.0 1572.892334 -924.008545
v -2529.0 1571.692505 -925.721985
v -2568.0 1571.692505 -925.721985
v -2529.0 1570.213501 -927.20105
v -2568.0 1570.213501 -927.20105
v -2529.0 1568.5 -928.400818
v -2529.0 1566.604248 -929.284851
v -2529.0 1564.58374 -929.826233
v -2529.0 1574.5 -900.008545
v -2529.0 1568.5 -900.008545
v -2568.0 1568.5 -900.008545
v -2568.0 1123.5 -878.208557
v -2568.0 1574.5 -932.008545
v -2732.0 1568.5 -932.008545
v -2732.0 1574.5 -932.008545
v -2738.0 1435.300049 -878.208557
v -2760.0 1435.300049 -878.208557
v -2732.0 1435.300049 -878.208557
v -2760.0 1123.5 -878.208557
v -2760.0 1123.5 -900.008545
v -2738.0 1123.5 -900.008545
v -2732.0 1123.5 -900.008545
v -2732.0 1574.5 -930.008545
v -2732.0 1568.5 -930.008545
v -2771.0 1574.5 -930.008545
v -2771.0 1574.5 -900.008545
v -2771.0 1568.5 -924.008545
v -2771.0 1568.5 -900.008545
v -2771.0 1549.5 -930.008545
v -2771.0 1549.5 -924.008545
v -2738.0 1568.5 -900.008545
v -2732.0 1568.5 -900.008545
v -2732.0 1123.5 -878.208557
v -2732.0 1480.5 -878.208557
v -2738.0 1480.5 -878.208557
v -2738.0 1123.5 -878.208557
v -2738.0 1473.5 -940.008545
v -2732.0 1473.5 -940.008545
v -2738.0 1568.5 -940.008545
v -2732.0 1568.5 -940.008545
v -2738.0 1568.5 -930.008545
v -2738.0 1549.5 -930.008545
v -2738.0 1549.5 -924.008545
v -2738.0 1568.5 -924.008545
v -2738.0 1540.0 -855.020264
v -2738.0 1540.176636 -853.090515
v -2732.0 1540.0 -855.020264
v -2732.0 1540.176636 -853.090515
v -2738.0 1540.704956 -851.226074
v -2732.0 1540.704956 -851.226074
v -2738.0 1541.566895 -849.490479
v -2732.0 1541.566895 -849.490479
v -2738.0 1542.733032 -847.942871
v -2732.0 1542.733032 -847.942871
v -2738.0 1544.163696 -846.635864
v -2732.0 1544.163696 -846.635864
v -2738.0 1545.810303 -845.614075
v -2732.0 1545.810303 -845.614075
v -2738.0 1547.616577 -844.912231
v -2732.0 1547.616577 -844.912231
v -2738.0 1549.520996 -844.55426
v -2732.0 1549.520996 -844.55426
v -2738.0 1551.458862 -844.552429
v -2732.0 1551.458862 -844.552429
v -2738.0 1553.364014 -844.906677
v -2732.0 1553.364014 -844.906677
v -2738.0 1555.171631 -845.605042
v -2732.0 1555.171631 -845.605042
v -2738.0 1556.820068 -846.623657
v -2732.0 1556.820068 -846.623657
v -2738.0 1558.253296 -847.927856
v -2732.0 1558.253296 -847.927856
v -2738.0 1559.422485 -849.473267
v -2732.0 1559.422485 -849.473267
v -2738.0 1560.28772 -851.207214
v -2732.0 1560.28772 -851.207214
v -2738.0 1560.81958 -853.070618
v -2732.0 1560.81958 -853.070618
v -2738.0 1561.0 -855.0
v -2732.0 1561.0 -855.0
v -2738.0 1561.0 -868.008545
v -2732.0 1561.0 -868.008545
v -2738.0 1585.5 -868.008545
v -2732.0 1585.5 -868.008545
v -2738.0 1585.5 -815.008545
v -2732.0 1585.5 -815.008545
v -2738.0 1531.341675 -815.008545
v -2732.0 1531.341675 -815.008545
v -2738.0 1568.5 -888.438049
v -2732.0 1568.5 -888.438049
v -2732.0 1540.0 -888.438049
v -2738.0 1540.0 -888.438049
v -2550.0 1561.0 -855.008545
v -2750.0 1561.0 -855.008545
v -2750.0 1560.821167 -853.079163
v -2550.0 1560.821167 -853.079163
v -2750.0 1560.291016 -851.215515
v -2550.0 1560.291016 -851.215515
v -2750.0 1559.427246 -849.481018
v -2550.0 1559.427246 -849.481018
v -2750.0 1558.259644 -847.934753
v -2550.0 1558.259644 -847.934753
v -2750.0 1556.827637 -846.629333
v -2550.0 1556.827637 -846.629333
v -2750.0 1555.180298 -845.609314
v -2550.0 1555.180298 -845.609314
v -2750.0 1553.373413 -844.909363
v -2550.0 1553.373413 -844.909363
v -2750.0 1551.468872 -844.553345
v -2550.0 1551.468872 -844.553345
v -2550.0 1549.531128 -844.553345
v -2750.0 1549.531128 -844.553345
v -2750.0 1547.626587 -844.909363
v -2550.0 1547.626587 -844.909363
v -2550.0 1545.819702 -845.609314
v -2750.0 1545.819702 -845.609314
v -2550.0 1544.172363 -846.629333
v -2750.0 1544.172363 -846.629333
v -2550.0 1542.740356 -847.934753
v -2750.0 1542.740356 -847.934753
v -2550.0 1541.572754 -849.481018
v -2750.0 1541.572754 -849.481018
v -2750.0 1540.708984 -851.215515
v -2550.0 1540.708984 -851.215515
v -2550.0 1540.178833 -853.079163
v -2750.0 1540.178833 -853.079163
v -2550.0 1540.0 -855.008545
v -2750.0 1540.0 -855.008545
v -2550.0 1540.178833 -856.937927
v -2750.0 1540.178833 -856.937927
v -2550.0 1540.708984 -858.801575
v -2750.0 1540.708984 -858.801575
v -2550.0 1541.572754 -860.536072
v -2750.0 1541.572754 -860.536072
v -2550.0 1542.740356 -862.082336
v -2750.0 1542.740356 -862.082336
v -2550.0 1544.172363 -863.387695
v -2750.0 1544.172363 -863.387695
v -2550.0 1545.819702 -864.407776
v -2750.0 1545.819702 -864.407776
v -2550.0 1547.626587 -865.107727
v -2750.0 1547.626587 -865.107727
v -2750.0 1549.531128 -865.463745
v -2550.0 1549.531128 -865.463745
v -2750.0 1551.468872 -865.463745
v -2550.0 1551.468872 -865.463745
v -2550.0 1553.373413 -865.107727
v -2750.0 1553.373413 -865.107727
v -2750.0 1555.180298 -864.407776
v -2550.0 1555.180298 -864.407776
v -2750.0 1556.827637 -863.387695
v -2550.0 1556.827637 -863.387695
v -2750.0 1558.259644 -862.082336
v -2550.0 1558.259644 -862.082336
v -2750.0 1559.427246 -860.536072
v -2550.0 1559.427246 -860.536072
v -2750.0 1560.291016 -858.801575
v -2550.0 1560.291016 -858.801575
v -2750.0 1560.821167 -856.937927
v -2550.0 1560.821167 -856.937927
vn 0.0 0.995732 -0.092294
vn 0.0 0.961839 -0.273614
vn 0.0 0.995732 -0.092294
vn 0.0 0.895144 -0.445777
vn 0.0 0.961839 -0.273614
vn 0.0 0.798038 -0.602608
vn 0.0 0.895144 -0.445777
vn 0.0 0.673688 -0.739016
vn 0.0 0.798038 -0.602608
vn 0.0 0.526444 -0.85021
vn 0.0 0.673688 -0.739016
vn 0.0 0.526444 -0.85021
vn 0.0 0.361224 -0.932479
vn 0.0 0.361224 -0.932479
vn 0.0 0.183748 -0.982973
vn 0.0 0.183748 -0.982973
vn 0.0 0.0 -1.0
vn 0.0 0.0 -1.0
vn 0.0 -0.183748 -0.982973
vn 0.0 -0.183748 -0.982973
vn 0.0 -0.361224 -0.932479
vn 0.0 -0.361224 -0.932479
vn 0.0 -0.526444 -0.85021
vn 0.0 -0.526444 -0.85021
vn 0.0 -0.673688 -0.739016
vn 0.0 -0.673688 -0.739016
vn 0.0 -0.798038 -0.602608
vn 0.0 -0.798038 -0.602608
vn 0.0 -0.895144 -0.445777
vn 0.0 -0.895144 -0.445777
vn 0.0 -0.961839 -0.273614
vn 0.0 -0.961839 -0.273614
vn 0.0 -0.995732 -0.092294
vn 0.0 -0.995732 -0.092294
vn 0.0 -0.995732 0.092294
vn 0.0 -0.995732 0.092294
vn 0.0 -0.961839 0.273614
vn 0.0 -0.961839 0.273614
vn 0.0 -0.895144 0.445777
vn 0.0 -0.895144 0.445777
vn 0.0 -0.798038 0.602608
vn 0.0 -0.798038 0.602608
vn 0.0 -0.673671 0.739031
vn 0.0 -0.673671 0.739031
vn 0.0 -0.526466 0.850196
vn 0.0 -0.526466 0.850196
vn 0.0 -0.361224 0.932479
vn 0.0 -0.361224 0.932479
vn 0.0 -0.183748 0.982973
vn 0.0 -0.183748 0.982973
vn 0.0 0.0 1.0
vn -0.0 0.0 1.0
vn 0.0 0.183748 0.982973
vn -0.0 0.183748 0.982973
vn 0.0 0.361224 0.932479
vn 0.0 0.526466 0.850196
vn -0.0 0.361224 0.932479
vn 0.0 0.673671 0.739031
vn 0.0 0.526466 0.850196
vn 0.0 0.673671 0.739031
vn 0.0 0.798038 0.602608
vn -0.0 0.798038 0.602608
vn 0.0 0.895144 0.445777
vn -0.0 0.895144 0.445777
vn -0.0 0.961839 0.273614
vn 0.0 0.961839 0.273614
vn 0.0 0.995732 0.092294
vn 0.0 0.995732 0.092294
vn 0.0 0.0 1.0
vn 0.0 0.0 1.0
vn 0.0 -0.052508 0.998621
vn 0.0 -0.15693 0.98761
vn 0.0 -0.052508 0.998621
vn 0.0 -0.259651 0.965703
vn 0.0 -0.15693 0.98761
vn 0.0 -0.359484 0.933151
vn 0.0 -0.259651 0.965703
vn 0.0 -0.455365 0.890305
vn 0.0 -0.359484 0.933151
vn 0.0 -0.546222 0.837641
vn 0.0 -0.455365 0.890305
vn 0.0 -0.631035 0.775754
vn 0.0 -0.546222 0.837641
vn 0.0 -0.708915 0.705294
vn 0.0 -0.631035 0.775754
vn 0.0 -0.778979 0.62705
vn 0.0 -0.708915 0.705294
vn 0.0 -0.84043 0.54192
vn 0.0 -0.778979 0.62705
vn 0.0 -0.89263 0.45079
vn 0.0 -0.84043 0.54192
vn 0.0 -0.93499 0.354673
vn 0.0 -0.89263 0.45079
vn 0.0 -0.93499 0.354673
vn 0.0 -0.967019 0.254703
vn 0.0 -0.967019 0.254703
vn 0.0 -0.988399 0.15188
vn 0.0 -0.988399 0.15188
vn 0.0 -0.998878 0.04736
vn -0.0 -0.998338 -0.057624
vn 0.0 -0.998878 0.04736
vn -0.0 -0.98679 -0.162007
vn -0.0 -0.998338 -0.057624
vn -0.0 -0.964358 -0.2646
vn -0.0 -0.98679 -0.162007
vn -0.0 -0.931292 -0.364274
vn -0.0 -0.964358 -0.2646
vn -0.0 -0.88796 -0.459922
vn -0.0 -0.931292 -0.364274
vn -0.0 -0.83484 -0.550493
vn -0.0 -0.88796 -0.459922
vn -0.0 -0.772498 -0.635017
vn -0.0 -0.83484 -0.550493
vn -0.0 -0.701639 -0.712533
vn -0.0 -0.772498 -0.635017
vn -0.0 -0.701639 -0.712533
vn -0.0 -0.623047 -0.782184
vn 0.0 -0.623047 -0.782184
vn -0.0 -0.581125 -0.813814
vn 0.0 -0.581125 -0.813814
vn 0.0 0.0 -1.0
vn 0.0 0.0 -1.0
vn 0.0 1.0 0.0
vn 0.0 1.0 -0.0
vn 1.0 -0.0 0.0
vn 1.0 0.0 0.0
vn 1.0 0.0 0.0
vn 1.0 -0.0 0.0
vn 1.0 0.0 0.0
vn 1.0 -0.0 0.0
vn 1.0 -0.0 0.0
vn 1.0 0.0 0.0
vn 1.0 -0.0 0.0
vn 1.0 -0.0 0.0
vn 1.0 0.0 0.0
vn 1.0 0.0 0.0
vn 1.0 -0.0 0.0
vn 1.0 0.0 0.0
vn 1.0 -0.0 0.0
vn 1.0 0.0 0.0
vn 1.0 -0.0 0.0
vn 1.0 0.0 0.0
vn 1.0 0.0 0.0
vn 1.0 -0.0 0.0
vn 1.0 0.0 0.0
vn 1.0 -0.0 0.0
vn 1.0 -0.0 0.0
vn 1.0 -0.0 0.0
vn 1.0 0.0 0.0
vn 1.0 -0.0 0.0
vn 1.0 -0.0 0.0
vn 1.0 0.0 0.0
vn 1.0 -0.0 0.0
vn 1.0 0.0 0.0
vn 1.0 -0.0 0.0
vn 1.0 -0.0 0.0
vn 1.0 0.0 0.0
vn 1.0 -0.0 0.0
vn 1.0 -0.0 0.0
vn 1.0 0.0 0.0
vn 1.0 0.0 0.0
vn 1.0 0.0 0.0
vn 1.0 0.0 0.0
vn 1.0 0.0 0.0
vn 1.0 0.0 0.0
vn 1.0 -0.0 0.0
vn 1.0 0.0 0.0
vn 1.0 0.0 0.0
vn 1.0 -0.0 0.0
vn 1.0 0.0 0.0
vn 1.0 0.0 0.0
vn 1.0 -0.0 0.0
vn 1.0 0.0 0.0
vn 1.0 0.0 0.0
vn 1.0 0.0 0.0
vn 1.0 -0.0 0.0
vn 1.0 0.0 0.0
vn 1.0 -0.0 0.0
vn 1.0 0.0 0.0
vn 1.0 0.0 0.0
vn 1.0 0.0 0.0
vn 1.0 -0.0 0.0
vn 1.0 0.0 0.0
vn 1.0 0.0 0.0
vn 1.0 -0.0 0.0
vn 1.0 0.0 0.0
vn -1.0 0.0 0.0
vn -1.0 0.0 0.0
vn -1.0 0.0 0.0
vn -1.0 0.0 0.0
vn -1.0 0.0 0.0
vn -1.0 0.0 0.0
vn -1.0 0.0 0.0
vn -1.0 0.0 0.0
vn -1.0 0.0 0.0
vn -1.0 0.0 0.0
vn -1.0 0.0 0.0
vn -1.0 0.0 0.0
vn -1.0 0.0 0.0
vn -1.0 0.0 0.0
vn -1.0 0.0 0.0
vn -1.0 0.0 0.0
vn -1.0 0.0 0.0
vn -1.0 0.0 0.0
vn -1.0 0.0 0.0
vn -1.0 0.0 0.0
vn -1.0 0.0 0.0
vn -1.0 0.0 0.0
vn -1.0 0.0 0.0
vn -1.0 0.0 0.0
vn -1.0 0.0 0.0
vn -1.0 0.0 0.0
vn -1.0 0.0 0.0
vn -1.0 0.0 0.0
vn -1.0 0.0 0.0
vn -1.0 0.0 0.0
vn -1.0 0.0 0.0
vn -1.0 0.0 0.0
vn -1.0 0.0 0.0
vn -1.0 0.0 0.0
vn -1.0 0.0 0.0
vn -1.0 0.0 0.0
vn -1.0 0.0 0.0
vn -1.0 0.0 0.0
vn -1.0 0.0 0.0
vn -1.0 0.0 0.0
vn -1.0 0.0 0.0
vn -1.0 0.0 0.0
vn -1.0 0.0 0.0
vn -1.0 0.0 0.0
vn -1.0 0.0 0.0
vn -1.0 0.0 0.0
vn -1.0 0.0 0.0
vn -1.0 0.0 0.0
vn -1.0 0.0 0.0
vn -1.0 0.0 0.0
vn -1.0 0.0 0.0
vn -1.0 0.0 0.0
vn -1.0 0.0 0.0
vn -1.0 0.0 0.0
vn -1.0 0.0 0.0
vn -1.0 0.0 0.0
vn -1.0 0.0 0.0
vn -1.0 0.0 0.0
vn -1.0 0.0 0.0
vn -1.0 0.0 0.0
vn -1.0 0.0 0.0
vn -1.0 0.0 0.0
vn 0.0 0.0 -1.0
vn 0.0 0.0 -1.0
vn 0.0 -1.0 0.0
vn 0.0 -1.0 0.0
vn -0.0 0.0 1.0
vn 0.0 0.0 1.0
vn 0.0 -0.112021 0.993706
vn 0.0 -0.330427 0.943831
vn 0.0 -0.112021 0.993706
vn 0.0 -0.532266 0.846577
vn 0.0 -0.330427 0.943831
vn 0.0 -0.707334 0.70688
vn 0.0 -0.532266 0.846577
vn 0.0 -0.846966 0.531647
vn 0.0 -0.707334 0.70688
vn 0.0 -0.944068 0.32975
vn 0.0 -0.846966 0.531647
vn 0.0 -0.944068 0.32975
vn 0.0 -0.993783 0.111339
vn 0.0 -0.993783 0.111339
vn 1.0 -0.0 0.0
vn 1.0 0.0 -0.0
vn 1.0 -0.0 0.0
vn 1.0 -0.0 0.0
vn 1.0 0.0 -0.0
vn 1.0 0.0 -0.0
vn 1.0 -0.0 0.0
vn 1.0 -0.0 -0.0
vn 1.0 -0.0 -0.0
vn 1.0 -0.0 -0.0
vn 1.0 0.0 -0.0
vn 1.0 0.0 -0.0
vn 1.0 0.0 -0.0
vn 1.0 0.0 -0.0
vn 1.0 0.0 -0.0
vn 1.0 0.0 0.0
vn 1.0 0.0 -0.0
vn 1.0 0.0 -0.0
vn 1.0 0.0 -0.0
vn 1.0 -0.0 0.0
vn 1.0 0.0 0.0
vn 1.0 0.0 0.0
vn 1.0 0.0 0.0
vn 1.0 0.0 0.0
vn 1.0 0.0 0.0
vn 1.0 0.0 0.0
vn 1.0 0.0 -0.0
vn 1.0 0.0 0.0
vn 1.0 0.0 0.0
vn 1.0 0.0 0.0
vn 1.0 0.0 0.0
vn 1.0 0.0 -0.0
vn 1.0 -0.0 0.0
vn 1.0 -0.0 0.0
vn 1.0 0.0 0.0
vn 1.0 0.0 0.0
vn 1.0 0.0 0.0
vn 1.0 0.0 0.0
vn 1.0 0.0 0.0
vn 1.0 0.0 -0.0
vn 1.0 0.0 0.0
vn 1.0 -0.0 0.0
vn 1.0 0.0 0.0
vn 0.0 0.0 -1.0
vn 0.0 0.0 -1.0
vn 0.0 1.0 0.0
vn -0.0 1.0 0.0
vn -0.0 1.0 0.0
vn 0.0 -0.0 1.0
vn 0.0 0.0 1.0
vn -0.0 1.0 0.0
vn 0.0 1.0 0.0
vn 0.0 -0.995656 -0.093106
vn 0.0 -0.961598 -0.274463
vn 0.0 -0.995656 -0.093106
vn 0.0 -0.894786 -0.446495
vn 0.0 -0.961598 -0.274463
vn 0.0 -0.797483 -0.603341
vn 0.0 -0.894786 -0.446495
vn 0.0 -0.67303 -0.739615
vn 0.0 -0.797483 -0.603341
vn 0.0 -0.67303 -0.739615
vn 0.0 -0.525666 -0.850691
vn -0.0 -0.525666 -0.850691
vn 0.0 -0.360384 -0.932804
vn -0.0 -0.360384 -0.932804
vn 0.0 -0.182809 -0.983149
vn -0.0 -0.182809 -0.983149
vn 0.0 0.000945 -1.0
vn 0.0 0.000945 -1.0
vn 0.0 0.184734 -0.982789
vn 0.0 0.184734 -0.982789
vn 0.0 0.362179 -0.932109
vn 0.0 0.362179 -0.932109
vn 0.0 0.527273 -0.849696
vn 0.0 0.527273 -0.849696
vn 0.0 0.67448 -0.738293
vn 0.0 0.67448 -0.738293
vn 0.0 0.798652 -0.601793
vn 0.0 0.798652 -0.601793
vn 0.0 0.895633 -0.444793
vn 0.0 0.895633 -0.444793
vn 0.0 0.962118 -0.272632
vn 0.0 0.962118 -0.272632
vn 0.0 0.995837 -0.091152
vn 0.0 0.995837 -0.091152
vn 0.0 -1.0 0.0
vn 0.0 -1.0 0.0
vn 0.0 -0.0 -1.0
vn 0.0 0.0 -1.0
vn -0.0 1.0 0.0
vn 0.0 1.0 0.0
vn 0.0 0.0 1.0
vn 0.0 0.0 1.0
vn 0.0 -0.779172 0.62681
vn 0.0 -0.779172 0.62681
vn 0.0 0.0 1.0
vn 0.0 0.0 1.0
vn 0.0 0.0 -1.0
vn 0.0 0.0 -1.0
vn 0.0 0.0 1.0
vn 0.0 0.0 1.0
vn 0.0 -1.0 0.0
vn -0.0 -1.0 -0.0
vn 1.0 0.0 0.0
vn 1.0 0.0 0.0
vn 1.0 -0.0 0.0
vn 1.0 0.0 0.0
vn 0.0 1.0 0.0
vn 0.0 1.0 -0.0
vn 0.0 -0.113547 -0.993533
vn 0.0 -0.113547 -0.993533
vn 0.0 0.996197 -0.087131
vn 0.0 0.965927 -0.258814
vn 0.0 0.996197 -0.087131
vn 0.0 0.906302 -0.42263
vn 0.0 0.965927 -0.258814
vn 0.0 0.819137 -0.573597
vn 0.0 0.906302 -0.42263
vn 0.0 0.707121 -0.707092
vn 0.0 0.819137 -0.573597
vn 0.0 0.707121 -0.707092
vn 0.0 0.42263 -0.906302
vn 0.0 0.573564 -0.819161
vn 0.0 0.573564 -0.819161
vn 0.0 0.573564 -0.819161
vn 0.0 0.258814 -0.965927
vn 0.0 0.42263 -0.906302
vn 0.0 0.08716 -0.996194
vn 0.0 0.258814 -0.965927
vn 0.0 0.08716 -0.996194
vn 1.0 0.0 0.0
vn 1.0 0.0 -0.0
vn 1.0 0.0 0.0
vn 1.0 0.0 -0.0
vn 1.0 0.0 0.0
vn 1.0 0.0 0.0
vn 1.0 0.0 0.0
vn 1.0 0.0 -0.0
vn 1.0 0.0 0.0
vn 1.0 0.0 0.0
vn 1.0 0.0 0.0
vn 1.0 0.0 -0.0
vn 1.0 0.0 0.0
vn 1.0 0.0 0.0
vn 1.0 0.0 0.0
vn 1.0 0.0 -0.0
vn 1.0 0.0 0.0
vn 1.0 0.0 0.0
vn 1.0 0.0 0.0
vn 1.0 0.0 -0.0
vn 0.0 -1.0 0.0
vn 0.0 -1.0 0.0
vn 0.0 1.0 0.0
vn -0.0 1.0 0.0
vn -1.0 -0.0 0.0
vn -1.0 -0.0 0.0
vn -1.0 0.0 0.0
vn -1.0 -0.0 0.0
vn -1.0 0.0 0.0
vn -1.0 -0.0 0.0
vn -1.0 -0.0 0.0
vn -1.0 0.0 0.0
vn -1.0 -0.0 0.0
vn -1.0 -0.0 0.0
vn -1.0 -0.0 0.0
vn -1.0 0.0 0.0
vn -1.0 -0.0 0.0
vn -1.0 0.0 0.0
vn -1.0 0.0 0.0
vn -1.0 0.0 0.0
vn -1.0 0.0 0.0
vn -1.0 0.0 0.0
vn -1.0 0.0 0.0
vn -1.0 0.0 0.0
vn -1.0 -0.0 0.0
vn -1.0 0.0 0.0
vn -1.0 0.0 0.0
vn -1.0 0.0 0.0
vn -1.0 0.0 0.0
vn -1.0 0.0 0.0
vn -1.0 0.0 0.0
vn -1.0 0.0 0.0
vn -1.0 -0.0 0.0
vn -1.0 0.0 0.0
vn -1.0 0.0 0.0
vn 1.0 0.0 0.0
vn 1.0 0.0 0.0
vn 1.0 0.0 0.0
vn 1.0 0.0 0.0
vn 1.0 0.0 -0.0
vn 1.0 0.0 0.0
vn 1.0 0.0 0.0
vn 0.0 0.0 -1.0
vn 0.0 0.0 -1.0
vn 0.0 1.0 0.0
vn 0.0 1.0 0.0
vn 0.0 1.0 0.0
vn 0.0 1.0 0.0
vn 0.0 1.0 0.0
vn 0.0 1.0 -0.0
vn -1.0 0.0 0.0
vn -1.0 0.0 0.0
vn -1.0 0.0 0.0
vn -1.0 0.0 0.0
vn -0.0 0.0 -1.0
vn -0.0 0.0 -1.0
vn 0.0 0.0 -1.0
vn 0.0 0.0 -1.0
vn 0.0 0.0 -1.0
vn -0.0 0.0 -1.0
vn -1.0 0.0 -0.0
vn -1.0 -0.0 0.0
vn 0.0 1.0 0.0
vn 0.0 1.0 0.0
vn 0.0 1.0 0.0
vn 0.0 1.0 -0.0
vn 0.0 1.0 0.0
vn 0.0 1.0 -0.0
vn -1.0 0.0 0.0
vn -1.0 -0.0 0.0
vn -1.0 0.0 0.0
vn -1.0 0.0 0.0
vn 0.0 0.0 1.0
vn 0.0 0.0 1.0
vn 0.0 0.0 1.0
vn 0.0 0.0 1.0
vn 0.0 0.0 1.0
vn 0.0 0.0 1.0
vn 0.0 1.0 0.0
vn 0.0 1.0 -0.0
vn 0.0 0.0 -1.0
vn 0.0 0.0 -1.0
vn 0.0 -1.0 0.0
vn -0.0 -1.0 0.0
vn 0.0 -1.0 -0.0
vn -0.0 -1.0 -0.0
vn 0.0 0.0 1.0
vn 0.0 0.0 1.0
vn 0.0 0.0 -1.0
vn 0.0 0.0 -1.0
vn 0.0 1.0 0.0
vn 0.0 1.0 -0.0
vn -0.0 -0.113547 -0.993533
vn 0.0 -0.113547 -0.993533
vn 0.0 0.0 -1.0
vn 0.0 0.0 -1.0
vn 0.0 1.0 -0.0
vn 0.0 1.0 0.0
vn 0.0 1.0 -0.0
vn -0.0 0.0 -1.0
vn -0.0 0.0 -1.0
vn 0.0 0.0 -1.0
vn 0.0 0.0 -1.0
vn -0.0 -1.0 0.0
vn 0.0 -1.0 -0.0
vn 0.0 0.0 1.0
vn 0.0 0.0 1.0
vn -0.0 -1.0 0.0
vn 0.0 -1.0 -0.0
vn 0.0 0.995837 -0.091152
vn 0.0 0.995837 -0.091152
vn 0.0 0.962118 -0.272632
vn 0.0 0.962118 -0.272632
vn 0.0 0.895633 -0.444793
vn 0.0 0.895633 -0.444793
vn 0.0 0.798652 -0.601793
vn 0.0 0.798652 -0.601793
vn 0.0 0.67448 -0.738293
vn 0.0 0.67448 -0.738293
vn 0.0 0.527273 -0.849696
vn 0.0 0.527273 -0.849696
vn 0.0 0.362179 -0.932109
vn 0.0 0.362179 -0.932109
vn 0.0 0.184734 -0.982789
vn 0.0 0.184734 -0.982789
vn 0.0 0.000945 -1.0
vn 0.0 0.000945 -1.0
vn 0.0 -0.182809 -0.983149
vn 0.0 -0.182809 -0.983149
vn 0.0 -0.360384 -0.932804
vn 0.0 -0.360384 -0.932804
vn 0.0 -0.525666 -0.850691
vn 0.0 -0.525666 -0.850691
vn 0.0 -0.67303 -0.739615
vn 0.0 -0.67303 -0.739615
vn 0.0 -0.797483 -0.603341
vn 0.0 -0.797483 -0.603341
vn 0.0 -0.894786 -0.446495
vn 0.0 -0.894786 -0.446495
vn 0.0 -0.961598 -0.274463
vn 0.0 -0.961598 -0.274463
vn 0.0 -0.995656 -0.093106
vn 0.0 -0.995656 -0.093106
vn -0.0 -1.0 0.0
vn 0.0 -1.0 -0.0
vn 0.0 0.0 -1.0
vn 0.0 0.0 -1.0
vn 0.0 1.0 0.0
vn 0.0 1.0 -0.0
vn 0.0 0.0 1.0
vn 0.0 0.0 1.0
vn 0.0 -0.779172 0.62681
vn 0.0 -0.779172 0.62681
vn 0.0 1.0 -0.0
vn 0.0 1.0 0.0
vn 1.0 0.0 -0.0
vn 1.0 0.0 0.0
vn 1.0 0.0 -0.0
vn 1.0 0.0 -0.0
vn 1.0 0.0 0.0
vn 1.0 0.0 -0.0
vn 1.0 0.0 -0.0
vn 1.0 0.0 -0.0
vn 1.0 0.0 -0.0
vn 1.0 0.0 -0.0
vn 1.0 0.0 -0.0
vn 1.0 0.0 -0.0
vn 1.0 0.0 -0.0
vn 1.0 0.0 -0.0
vn 1.0 0.0 -0.0
vn 1.0 0.0 0.0
vn 1.0 0.0 0.0
vn 1.0 0.0 0.0
vn 1.0 0.0 0.0
vn 1.0 0.0 0.0
vn 1.0 0.0 0.0
vn 1.0 0.0 -0.0
vn 1.0 0.0 -0.0
vn 1.0 0.0 -0.0
vn 1.0 0.0 -0.0
vn 1.0 0.0 0.0
vn 1.0 0.0 0.0
vn 1.0 0.0 -0.0
vn 1.0 0.0 0.0
vn 1.0 0.0 -0.0
vn 1.0 0.0 -0.0
vn 0.0 1.0 0.0
vn 0.0 1.0 -0.0
vn -1.0 -0.0 0.0
vn -1.0 0.0 0.0
vn -1.0 -0.0 0.0
vn -1.0 -0.0 0.0
vn -1.0 0.0 -0.0
vn -1.0 -0.0 0.0
vn -1.0 0.0 0.0
vn -1.0 -0.0 0.0
vn -1.0 -0.0 0.0
vn -1.0 0.0 -0.0
vn -1.0 -0.0 0.0
vn -1.0 -0.0 0.0
vn -1.0 -0.0 0.0
vn -1.0 -0.0 0.0
vn -1.0 -0.0 0.0
vn -1.0 -0.0 0.0
vn -1.0 -0.0 0.0
vn -1.0 0.0 0.0
vn -1.0 0.0 0.0
vn -1.0 -0.0 -0.0
vn -1.0 0.0 -0.0
vn -1.0 -0.0 0.0
vn -1.0 -0.0 -0.0
vn -1.0 0.0 0.0
vn -1.0 0.0 0.0
vn -1.0 0.0 0.0
vn -1.0 0.0 0.0
vn -1.0 0.0 0.0
vn -1.0 0.0 0.0
vn -1.0 0.0 0.0
vn -1.0 0.0 0.0
vn -1.0 0.0 -0.0
vn -1.0 -0.0 0.0
vn 0.0 0.0 1.0
vn 0.0 0.0 1.0
vn 0.0 0.995732 0.092294
vn 0.0 0.961839 0.273614
vn 0.0 0.995732 0.092294
vn 0.0 0.895144 0.445777
vn 0.0 0.961839 0.273614
vn 0.0 0.798038 0.602608
vn 0.0 0.895144 0.445777
vn 0.0 0.673688 0.739016
vn 0.0 0.798038 0.602608
vn 0.0 0.526444 0.85021
vn 0.0 0.673688 0.739016
vn 0.0 0.361224 0.932479
vn 0.0 0.526444 0.85021
vn 0.0 0.183748 0.982973
vn 0.0 0.361224 0.932479
vn 0.0 0.183748 0.982973
vn 0.0 -0.183748 0.982973
vn 0.0 0.0 1.0
vn 0.0 -0.0 1.0
vn 0.0 -0.183748 0.982973
vn 0.0 -0.361224 0.932479
vn 0.0 -0.361224 0.932479
vn 0.0 -0.526444 0.85021
vn 0.0 -0.526444 0.85021
vn 0.0 -0.673688 0.739016
vn 0.0 -0.673688 0.739016
vn 0.0 -0.895144 0.445777
vn 0.0 -0.798038 0.602608
vn 0.0 -0.798038 0.602608
vn 0.0 -0.895144 0.445777
vn 0.0 -0.961839 0.273614
vn 0.0 -0.961839 0.273614
vn 0.0 -0.995732 0.092294
vn 0.0 -0.995732 0.092294
vn -0.0 -0.995732 -0.092294
vn 0.0 -0.995732 -0.092294
vn -0.0 -0.961839 -0.273614
vn 0.0 -0.961839 -0.273614
vn -0.0 -0.895144 -0.445777
vn 0.0 -0.895144 -0.445777
vn -0.0 -0.798038 -0.602608
vn 0.0 -0.798038 -0.602608
vn -0.0 -0.673671 -0.739031
vn 0.0 -0.673671 -0.739031
vn -0.0 -0.526466 -0.850196
vn 0.0 -0.526466 -0.850196
vn -0.0 -0.183748 -0.982973
vn -0.0 -0.361224 -0.932479
vn 0.0 -0.361224 -0.932479
vn 0.0 0.0 -1.0
vn -0.0 -0.183748 -0.982973
vn -0.0 -0.0 -1.0
vn 0.0 0.361224 -0.932479
vn 0.0 0.183748 -0.982973
vn 0.0 0.183748 -0.982973
vn 0.0 0.526466 -0.850196
vn 0.0 0.361224 -0.932479
vn 0.0 0.673671 -0.739031
vn 0.0 0.526466 -0.850196
vn 0.0 0.798038 -0.602608
vn 0.0 0.673671 -0.739031
vn 0.0 0.895144 -0.445777
vn 0.0 0.798038 -0.602608
vn 0.0 0.961839 -0.273614
vn 0.0 0.895144 -0.445777
vn 0.0 0.995732 -0.092294
vn 0.0 0.961839 -0.273614
vn 0.0 0.995732 -0.092294
vn 1.0 0.0 0.0
vn 1.0 0.0 0.0
vn 1.0 0.0 0.0
vn 1.0 0.0 0.0
vn 1.0 0.0 0.0
vn 1.0 -0.0 0.0
vn 1.0 0.0 0.0
vn 1.0 0.0 0.0
vn 1.0 0.0 0.0
vn 1.0 -0.0 0.0
vn 1.0 0.0 0.0
vn 1.0 0.0 0.0
vn 1.0 0.0 0.0
vn 1.0 0.0 0.0
vn 1.0 0.0 0.0
vn 1.0 -0.0 0.0
vn 1.0 0.0 0.0
vn 1.0 0.0 0.0
vn 1.0 -0.0 0.0
vn 1.0 0.0 0.0
vn 1.0 0.0 0.0
vn 1.0 0.0 0.0
vn 1.0 0.0 0.0
vn 1.0 0.0 0.0
vn 1.0 0.0 0.0
vn 1.0 0.0 0.0
vn 1.0 -0.0 0.0
vn 1.0 0.0 0.0
vn 1.0 0.0 0.0
vn 1.0 0.0 0.0
vn 1.0 -0.0 0.0
vn 1.0 0.0 0.0
vn -1.0 0.0 0.0
vn -1.0 0.0 0.0
vn -1.0 0.0 0.0
vn -1.0 0.0 0.0
vn -1.0 0.0 0.0
vn -1.0 0.0 0.0
vn -1.0 0.0 0.0
vn -1.0 0.0 0.0
vn -1.0 0.0 0.0
vn -1.0 0.0 0.0
vn -1.0 0.0 0.0
vn -1.0 0.0 0.0
vn -1.0 0.0 0.0
vn -1.0 0.0 0.0
vn -1.0 0.0 0.0
vn -1.0 0.0 0.0
vn -1.0 0.0 0.0
vn -1.0 0.0 0.0
vn -1.0 0.0 0.0
vn -1.0 0.0 0.0
vn -1.0 0.0 0.0
vn -1.0 0.0 0.0
vn -1.0 0.0 0.0
vn -1.0 0.0 0.0
vn -1.0 0.0 0.0
vn -1.0 0.0 0.0
vn -1.0 0.0 0.0
vn -1.0 0.0 0.0
vn -1.0 0.0 0.0
vn -1.0 0.0 0.0
vn -1.0 0.0 0.0
vn -1.0 0.0 0.0
f 1//1 2//1 3//1 
f 3//2 4//2 5//2 
f 2//3 4//3 3//3 
f 5//4 6//4 7//4 
f 4//5 6//5 5//5 
f 7//6 8//6 9//6 
f 6//7 8//7 7//7 
f 9//8 10//8 11//8 
f 8//9 10//9 9//9 
f 11//10 12//10 13//10 
f 10//11 12//11 11//11 
f 12//12 14//12 13//12 
f 13//13 15//13 16//13 
f 14//14 15//14 13//14 
f 16//15 17//15 18//15 
f 15//16 17//16 16//16 
f 18//17 19//17 20//17 
f 17//18 19//18 18//18 
f 20//19 21//19 22//19 
f 19//20 21//20 20//20 
f 22//21 23//21 24//21 
f 21//22 23//22 22//22 
f 24//23 25//23 26//23 
f 23//24 25//24 24//24 
f 26//25 27//25 28//25 
f 25//26 27//26 26//26 
f 28//27 29//27 30//27 
f 27//28 29//28 28//28 
f 30//29 31//29 32//29 
f 29//30 31//30 30//30 
f 31//31 33//31 32//31 
f 32//32 33//32 34//32 
f 33//33 35//33 34//33 
f 34//34 35//34 36//34 
f 35//35 37//35 36//35 
f 36//36 37//36 38//36 
f 38//37 39//37 40//37 
f 37//38 39//38 38//38 
f 40//39 41//39 42//39 
f 39//40 41//40 40//40 
f 42//41 43//41 44//41 
f 41//42 43//42 42//42 
f 44//43 45//43 46//43 
f 43//44 45//44 44//44 
f 46//45 47//45 48//45 
f 45//46 47//46 46//46 
f 48//47 49//47 50//47 
f 47//48 49//48 48//48 
f 50//49 51//49 52//49 
f 49//50 51//50 50//50 
f 52//51 53//51 54//51 
f 51//52 53//52 52//52 
f 54//53 55//53 56//53 
f 53//54 55//54 54//54 
f 56//55 57//55 58//55 
f 58//56 57//56 59//56 
f 55//57 57//57 56//57 
f 59//58 60//58 61//58 
f 57//59 60//59 59//59 
f 60//60 62//60 61//60 
f 61//61 63//61 64//61 
f 62//62 63//62 61//62 
f 64//63 65//63 66//63 
f 63//64 65//64 64//64 
f 65//65 67//65 66//65 
f 66//66 67//66 68//66 
f 68//67 67//67 1//67 
f 67//68 2//68 1//68 
f 69//69 70//69 71//69 
f 72//70 70//70 69//70 
f 69//71 71//71 73//71 
f 74//72 73//72 75//72 
f 74//73 69//73 73//73 
f 76//74 75//74 77//74 
f 76//75 74//75 75//75 
f 78//76 77//76 79//76 
f 78//77 76//77 77//77 
f 80//78 79//78 81//78 
f 80//79 78//79 79//79 
f 82//80 81//80 83//80 
f 82//81 80//81 81//81 
f 84//82 83//82 85//82 
f 84//83 82//83 83//83 
f 86//84 85//84 87//84 
f 86//85 84//85 85//85 
f 88//86 87//86 89//86 
f 88//87 86//87 87//87 
f 90//88 89//88 91//88 
f 90//89 88//89 89//89 
f 92//90 91//90 93//90 
f 92//91 90//91 91//91 
f 94//92 93//92 95//92 
f 94//93 92//93 93//93 
f 96//94 94//94 95//94 
f 96//95 95//95 97//95 
f 98//96 96//96 97//96 
f 98//97 97//97 99//97 
f 100//98 98//98 99//98 
f 100//99 99//99 101//99 
f 102//100 101//100 103//100 
f 102//101 100//101 101//101 
f 104//102 103//102 105//102 
f 104//103 102//103 103//103 
f 106//104 105//104 107//104 
f 106//105 104//105 105//105 
f 108//106 107//106 109//106 
f 108//107 106//107 107//107 
f 110//108 109//108 111//108 
f 110//109 108//109 109//109 
f 112//110 111//110 113//110 
f 112//111 110//111 111//111 
f 114//112 113//112 115//112 
f 114//113 112//113 113//113 
f 116//114 115//114 117//114 
f 116//115 114//115 115//115 
f 118//116 116//116 117//116 
f 119//117 117//117 120//117 
f 119//118 118//118 117//118 
f 119//119 120//119 121//119 
f 119//120 121//120 122//120 
f 122//121 121//121 123//121 
f 122//122 123//122 124//122 
f 124//123 123//123 70//123 
f 124//124 70//124 72//124 
f 46//125 122//125 44//125 
f 42//126 122//126 124//126 
f 42//127 44//127 122//127 
f 48//128 122//128 46//128 
f 40//129 42//129 124//129 
f 50//130 122//130 48//130 
f 38//131 124//131 72//131 
f 38//132 40//132 124//132 
f 36//133 38//133 72//133 
f 34//134 36//134 72//134 
f 119//135 50//135 52//135 
f 119//136 52//136 54//136 
f 119//137 122//137 50//137 
f 56//138 119//138 54//138 
f 32//139 34//139 72//139 
f 58//140 119//140 56//140 
f 30//141 32//141 72//141 
f 59//142 119//142 58//142 
f 59//143 118//143 119//143 
f 28//144 30//144 72//144 
f 61//145 118//145 59//145 
f 26//146 28//146 72//146 
f 116//147 118//147 61//147 
f 114//148 116//148 61//148 
f 114//149 61//149 64//149 
f 112//150 114//150 64//150 
f 110//151 112//151 64//151 
f 110//152 64//152 66//152 
f 108//153 110//153 66//153 
f 108//154 66//154 68//154 
f 106//155 108//155 68//155 
f 104//156 106//156 68//156 
f 104//157 68//157 1//157 
f 102//158 104//158 1//158 
f 69//159 26//159 72//159 
f 69//160 18//160 20//160 
f 69//161 20//161 22//161 
f 69//162 22//162 24//162 
f 69//163 24//163 26//163 
f 100//164 1//164 3//164 
f 100//165 102//165 1//165 
f 74//166 18//166 69//166 
f 98//167 100//167 3//167 
f 76//168 16//168 18//168 
f 76//169 18//169 74//169 
f 96//170 3//170 5//170 
f 96//171 98//171 3//171 
f 78//172 16//172 76//172 
f 94//173 5//173 7//173 
f 94//174 96//174 5//174 
f 80//175 13//175 16//175 
f 80//176 16//176 78//176 
f 92//177 94//177 7//177 
f 82//178 13//178 80//178 
f 82//179 11//179 13//179 
f 90//180 7//180 9//180 
f 90//181 92//181 7//181 
f 84//182 11//182 82//182 
f 88//183 90//183 9//183 
f 86//184 9//184 11//184 
f 86//185 11//185 84//185 
f 86//186 88//186 9//186 
f 25//187 71//187 70//187 
f 25//188 70//188 27//188 
f 29//189 27//189 70//189 
f 23//190 71//190 25//190 
f 31//191 29//191 70//191 
f 21//192 71//192 23//192 
f 33//193 31//193 70//193 
f 19//194 71//194 21//194 
f 35//195 33//195 70//195 
f 17//196 75//196 73//196 
f 17//197 73//197 71//197 
f 17//198 71//198 19//198 
f 37//199 35//199 70//199 
f 15//200 79//200 77//200 
f 15//201 77//201 75//201 
f 15//202 75//202 17//202 
f 14//203 81//203 79//203 
f 14//204 79//204 15//204 
f 12//205 81//205 14//205 
f 12//206 85//206 83//206 
f 12//207 83//207 81//207 
f 10//208 85//208 12//208 
f 87//209 85//209 10//209 
f 89//210 87//210 10//210 
f 89//211 10//211 8//211 
f 91//212 89//212 8//212 
f 93//213 91//213 8//213 
f 93//214 8//214 6//214 
f 123//215 37//215 70//215 
f 123//216 41//216 39//216 
f 123//217 39//217 37//217 
f 95//218 93//218 6//218 
f 95//219 6//219 4//219 
f 97//220 95//220 4//220 
f 99//221 4//221 2//221 
f 99//222 97//222 4//222 
f 121//223 41//223 123//223 
f 121//224 49//224 47//224 
f 121//225 47//225 45//225 
f 121//226 45//226 43//226 
f 121//227 43//227 41//227 
f 101//228 99//228 2//228 
f 103//229 2//229 67//229 
f 103//230 101//230 2//230 
f 105//231 103//231 67//231 
f 107//232 67//232 65//232 
f 107//233 105//233 67//233 
f 109//234 65//234 63//234 
f 109//235 107//235 65//235 
f 111//236 109//236 63//236 
f 120//237 49//237 121//237 
f 120//238 60//238 57//238 
f 120//239 57//239 55//239 
f 120//240 55//240 53//240 
f 120//241 53//241 51//241 
f 120//242 51//242 49//242 
f 113//243 63//243 62//243 
f 113//244 111//244 63//244 
f 117//245 62//245 60//245 
f 117//246 60//246 120//246 
f 115//247 113//247 62//247 
f 115//248 62//248 117//248 
f 125//249 126//249 127//249 
f 125//250 127//250 128//250 
f 128//251 127//251 129//251 
f 128//252 129//252 130//252 
f 131//253 129//253 132//253 
f 130//254 129//254 131//254 
f 131//255 132//255 133//255 
f 133//256 134//256 135//256 
f 132//257 134//257 133//257 
f 135//258 136//258 137//258 
f 134//259 136//259 135//259 
f 137//260 138//260 139//260 
f 136//261 138//261 137//261 
f 139//262 140//262 141//262 
f 138//263 140//263 139//263 
f 141//264 142//264 143//264 
f 140//265 142//265 141//265 
f 142//266 144//266 143//266 
f 143//267 145//267 146//267 
f 144//268 145//268 143//268 
f 147//269 148//269 149//269 
f 150//270 149//270 148//270 
f 151//271 147//271 149//271 
f 152//272 153//272 149//272 
f 152//273 149//273 150//273 
f 154//274 149//274 155//274 
f 154//275 151//275 149//275 
f 156//276 153//276 152//276 
f 157//277 154//277 155//277 
f 158//278 153//278 156//278 
f 159//279 157//279 155//279 
f 160//280 159//280 155//280 
f 161//281 160//281 155//281 
f 162//282 161//282 155//282 
f 163//283 162//283 155//283 
f 164//284 153//284 158//284 
f 165//285 163//285 155//285 
f 166//286 165//286 155//286 
f 167//287 166//287 155//287 
f 168//288 169//288 170//288 
f 139//289 141//289 143//289 
f 137//290 139//290 143//290 
f 137//291 143//291 146//291 
f 135//292 137//292 146//292 
f 133//293 135//293 146//293 
f 131//294 133//294 146//294 
f 171//295 172//295 173//295 
f 171//296 173//296 174//296 
f 171//297 174//297 125//297 
f 130//298 131//298 146//298 
f 130//299 146//299 169//299 
f 130//300 169//300 168//300 
f 128//301 171//301 125//301 
f 175//302 168//302 176//302 
f 175//303 176//303 167//303 
f 175//304 167//304 155//304 
f 177//305 128//305 130//305 
f 177//306 171//306 128//306 
f 177//307 130//307 168//307 
f 177//308 175//308 178//308 
f 177//309 168//309 175//309 
f 179//310 177//310 178//310 
f 179//311 178//311 180//311 
f 181//312 171//312 177//312 
f 181//313 177//313 182//313 
f 183//314 171//314 181//314 
f 183//315 172//315 171//315 
f 184//316 172//316 183//316 
f 168//317 170//317 185//317 
f 186//318 168//318 185//318 
f 187//319 176//319 168//319 
f 187//320 168//320 186//320 
f 188//321 158//321 189//321 
f 189//322 156//322 190//322 
f 158//323 156//323 189//323 
f 190//324 152//324 191//324 
f 156//325 152//325 190//325 
f 191//326 150//326 192//326 
f 152//327 150//327 191//327 
f 192//328 148//328 193//328 
f 150//329 148//329 192//329 
f 148//330 147//330 193//330 
f 193//331 151//331 194//331 
f 147//332 151//332 193//332 
f 194//333 154//333 195//333 
f 151//334 154//334 194//334 
f 195//335 157//335 196//335 
f 154//336 157//336 195//336 
f 196//337 159//337 197//337 
f 157//338 159//338 196//338 
f 197//339 160//339 198//339 
f 159//340 160//340 197//340 
f 198//341 161//341 199//341 
f 160//342 161//342 198//342 
f 199//343 162//343 200//343 
f 161//344 162//344 199//344 
f 200//345 163//345 201//345 
f 162//346 163//346 200//346 
f 201//347 165//347 202//347 
f 163//348 165//348 201//348 
f 202//349 166//349 203//349 
f 165//350 166//350 202//350 
f 166//351 167//351 203//351 
f 203//352 167//352 204//352 
f 167//353 176//353 204//353 
f 204//354 176//354 187//354 
f 205//355 164//355 158//355 
f 205//356 158//356 188//356 
f 153//357 164//357 205//357 
f 206//358 153//358 205//358 
f 207//359 149//359 153//359 
f 207//360 153//360 206//360 
f 208//361 155//361 149//361 
f 208//362 149//362 207//362 
f 209//363 175//363 155//363 
f 209//364 155//364 208//364 
f 210//365 178//365 175//365 
f 210//366 175//366 209//366 
f 180//367 178//367 211//367 
f 212//368 180//368 211//368 
f 213//369 214//369 215//369 
f 213//370 215//370 216//370 
f 217//371 215//371 218//371 
f 216//372 215//372 217//372 
f 212//373 217//373 219//373 
f 212//374 211//374 213//374 
f 216//375 212//375 213//375 
f 216//376 217//376 212//376 
f 219//377 179//377 180//377 
f 219//378 180//378 212//378 
f 182//379 179//379 220//379 
f 182//380 177//380 179//380 
f 221//381 222//381 223//381 
f 224//382 223//382 225//382 
f 224//383 221//383 223//383 
f 226//384 225//384 227//384 
f 226//385 224//385 225//385 
f 228//386 227//386 229//386 
f 228//387 226//387 227//387 
f 230//388 229//388 231//388 
f 230//389 228//389 229//389 
f 232//390 230//390 231//390 
f 172//391 233//391 234//391 
f 172//392 231//392 233//392 
f 172//393 232//393 231//393 
f 184//394 232//394 172//394 
f 173//395 234//395 235//395 
f 173//396 172//396 234//396 
f 174//397 235//397 126//397 
f 174//398 173//398 235//398 
f 125//399 174//399 126//399 
f 145//400 236//400 237//400 
f 126//401 132//401 129//401 
f 126//402 129//402 127//402 
f 222//403 236//403 145//403 
f 235//404 134//404 132//404 
f 235//405 132//405 126//405 
f 223//406 145//406 144//406 
f 223//407 222//407 145//407 
f 234//408 136//408 134//408 
f 234//409 134//409 235//409 
f 225//410 144//410 142//410 
f 225//411 223//411 144//411 
f 233//412 138//412 136//412 
f 233//413 136//413 234//413 
f 227//414 142//414 140//414 
f 227//415 225//415 142//415 
f 231//416 138//416 233//416 
f 229//417 140//417 138//417 
f 229//418 138//418 231//418 
f 229//419 227//419 140//419 
f 169//420 145//420 237//420 
f 146//421 145//421 169//421 
f 170//422 169//422 238//422 
f 185//423 170//423 238//423 
f 210//424 220//424 239//424 
f 200//425 201//425 208//425 
f 202//426 208//426 201//426 
f 199//427 200//427 208//427 
f 203//428 208//428 202//428 
f 198//429 199//429 208//429 
f 204//430 209//430 208//430 
f 204//431 208//431 203//431 
f 197//432 198//432 208//432 
f 187//433 209//433 204//433 
f 196//434 197//434 208//434 
f 195//435 196//435 208//435 
f 207//436 195//436 208//436 
f 194//437 195//437 207//437 
f 193//438 194//438 207//438 
f 192//439 193//439 207//439 
f 191//440 192//440 207//440 
f 190//441 191//441 207//441 
f 182//442 210//442 209//442 
f 182//443 220//443 210//443 
f 186//444 182//444 209//444 
f 186//445 209//445 187//445 
f 206//446 205//446 188//446 
f 206//447 188//447 189//447 
f 206//448 189//448 190//448 
f 206//449 190//449 207//449 
f 238//450 186//450 185//450 
f 184//451 186//451 238//451 
f 183//452 182//452 186//452 
f 183//453 186//453 184//453 
f 181//454 182//454 183//454 
f 183//455 232//455 184//455 
f 240//456 228//456 230//456 
f 240//457 230//457 232//457 
f 240//458 232//458 183//458 
f 240//459 221//459 224//459 
f 240//460 224//460 226//460 
f 240//461 226//461 228//461 
f 183//462 241//462 242//462 
f 183//463 242//463 240//463 
f 243//464 244//464 214//464 
f 245//465 243//465 214//465 
f 210//466 245//466 214//466 
f 213//467 178//467 210//467 
f 213//468 210//468 214//468 
f 211//469 178//469 213//469 
f 246//470 214//470 244//470 
f 215//471 214//471 246//471 
f 218//472 246//472 247//472 
f 218//473 215//473 246//473 
f 248//474 218//474 247//474 
f 249//475 218//475 248//475 
f 217//476 179//476 219//476 
f 217//477 220//477 179//477 
f 217//478 218//478 220//478 
f 220//479 218//479 249//479 
f 250//480 242//480 241//480 
f 250//481 241//481 251//481 
f 250//482 252//482 253//482 
f 221//483 250//483 253//483 
f 240//484 242//484 250//484 
f 240//485 250//485 221//485 
f 236//486 221//486 253//486 
f 222//487 221//487 236//487 
f 254//488 255//488 253//488 
f 254//489 256//489 257//489 
f 252//490 256//490 254//490 
f 252//491 254//491 253//491 
f 258//492 253//492 255//492 
f 259//493 253//493 258//493 
f 236//494 238//494 169//494 
f 236//495 169//495 237//495 
f 236//496 253//496 259//496 
f 236//497 259//497 238//497 
f 239//498 249//498 260//498 
f 220//499 249//499 239//499 
f 239//500 260//500 245//500 
f 239//501 245//501 210//501 
f 183//502 251//502 241//502 
f 184//503 259//503 251//503 
f 184//504 251//504 183//504 
f 238//505 259//505 184//505 
f 261//506 262//506 243//506 
f 261//507 243//507 245//507 
f 246//508 244//508 243//508 
f 263//509 246//509 243//509 
f 263//510 247//510 246//510 
f 248//511 247//511 263//511 
f 249//512 248//512 264//512 
f 249//513 264//513 265//513 
f 264//514 266//514 267//514 
f 265//515 264//515 267//515 
f 241//516 268//516 251//516 
f 266//517 268//517 241//517 
f 267//518 266//518 241//518 
f 268//519 256//519 252//519 
f 250//520 268//520 252//520 
f 251//521 268//521 250//521 
f 269//522 256//522 268//522 
f 270//523 257//523 256//523 
f 270//524 256//524 269//524 
f 270//525 254//525 257//525 
f 271//526 254//526 270//526 
f 258//527 255//527 254//527 
f 258//528 254//528 271//528 
f 272//529 273//529 274//529 
f 274//530 273//530 275//530 
f 275//531 276//531 277//531 
f 273//532 276//532 275//532 
f 277//533 278//533 279//533 
f 276//534 278//534 277//534 
f 279//535 280//535 281//535 
f 278//536 280//536 279//536 
f 281//537 282//537 283//537 
f 280//538 282//538 281//538 
f 283//539 284//539 285//539 
f 282//540 284//540 283//540 
f 285//541 286//541 287//541 
f 284//542 286//542 285//542 
f 287//543 288//543 289//543 
f 286//544 288//544 287//544 
f 289//545 290//545 291//545 
f 288//546 290//546 289//546 
f 291//547 292//547 293//547 
f 290//548 292//548 291//548 
f 293//549 294//549 295//549 
f 292//550 294//550 293//550 
f 295//551 296//551 297//551 
f 294//552 296//552 295//552 
f 297//553 298//553 299//553 
f 296//554 298//554 297//554 
f 299//555 300//555 301//555 
f 298//556 300//556 299//556 
f 301//557 302//557 303//557 
f 300//558 302//558 301//558 
f 302//559 304//559 303//559 
f 303//560 304//560 305//560 
f 304//561 306//561 305//561 
f 305//562 306//562 307//562 
f 307//563 306//563 308//563 
f 307//564 308//564 309//564 
f 308//565 310//565 311//565 
f 309//566 308//566 311//566 
f 311//567 310//567 312//567 
f 311//568 312//568 313//568 
f 313//569 312//569 314//569 
f 313//570 314//570 315//570 
f 315//571 314//571 262//571 
f 315//572 262//572 261//572 
f 259//573 316//573 317//573 
f 259//574 258//574 316//574 
f 287//575 289//575 315//575 
f 291//576 315//576 289//576 
f 285//577 287//577 315//577 
f 293//578 313//578 315//578 
f 293//579 315//579 291//579 
f 283//580 285//580 315//580 
f 295//581 313//581 293//581 
f 281//582 283//582 315//582 
f 297//583 313//583 295//583 
f 279//584 281//584 315//584 
f 299//585 313//585 297//585 
f 277//586 279//586 315//586 
f 301//587 313//587 299//587 
f 275//588 277//588 315//588 
f 303//589 313//589 301//589 
f 245//590 260//590 249//590 
f 261//591 274//591 275//591 
f 261//592 275//592 315//592 
f 311//593 303//593 305//593 
f 311//594 305//594 307//594 
f 311//595 307//595 309//595 
f 311//596 313//596 303//596 
f 318//597 274//597 261//597 
f 259//598 317//598 318//598 
f 265//599 261//599 245//599 
f 265//600 245//600 249//600 
f 265//601 318//601 261//601 
f 251//602 259//602 318//602 
f 241//603 318//603 265//603 
f 241//604 251//604 318//604 
f 267//605 241//605 265//605 
f 319//606 272//606 274//606 
f 318//607 319//607 274//607 
f 243//608 248//608 263//608 
f 264//609 248//609 243//609 
f 262//610 264//610 243//610 
f 319//611 264//611 262//611 
f 272//612 319//612 262//612 
f 273//613 262//613 314//613 
f 273//614 272//614 262//614 
f 276//615 273//615 314//615 
f 270//616 264//616 319//616 
f 270//617 269//617 264//617 
f 278//618 276//618 314//618 
f 280//619 278//619 314//619 
f 282//620 280//620 314//620 
f 284//621 282//621 314//621 
f 286//622 284//622 314//622 
f 288//623 286//623 314//623 
f 290//624 288//624 314//624 
f 292//625 290//625 314//625 
f 266//626 264//626 269//626 
f 268//627 266//627 269//627 
f 258//628 271//628 270//628 
f 258//629 270//629 319//629 
f 316//630 258//630 319//630 
f 310//631 308//631 306//631 
f 310//632 306//632 304//632 
f 310//633 304//633 302//633 
f 312//634 302//634 300//634 
f 312//635 300//635 298//635 
f 312//636 298//636 296//636 
f 312//637 296//637 294//637 
f 312//638 294//638 292//638 
f 312//639 310//639 302//639 
f 312//640 292//640 314//640 
f 317//641 316//641 319//641 
f 317//642 319//642 318//642 
f 320//643 321//643 322//643 
f 323//644 322//644 324//644 
f 323//645 320//645 322//645 
f 325//646 324//646 326//646 
f 325//647 323//647 324//647 
f 327//648 326//648 328//648 
f 327//649 325//649 326//649 
f 329//650 328//650 330//650 
f 329//651 327//651 328//651 
f 331//652 330//652 332//652 
f 331//653 329//653 330//653 
f 333//654 332//654 334//654 
f 333//655 331//655 332//655 
f 335//656 334//656 336//656 
f 335//657 333//657 334//657 
f 337//658 335//658 336//658 
f 338//659 339//659 340//659 
f 338//660 336//660 339//660 
f 338//661 337//661 336//661 
f 341//662 338//662 340//662 
f 342//663 340//663 343//663 
f 342//664 341//664 340//664 
f 344//665 343//665 345//665 
f 344//666 342//666 343//666 
f 346//667 345//667 347//667 
f 346//668 344//668 345//668 
f 348//669 349//669 350//669 
f 348//670 347//670 349//670 
f 348//671 346//671 347//671 
f 351//672 348//672 350//672 
f 352//673 351//673 350//673 
f 352//674 350//674 353//674 
f 354//675 353//675 355//675 
f 354//676 352//676 353//676 
f 356//677 355//677 357//677 
f 356//678 354//678 355//678 
f 358//679 357//679 359//679 
f 358//680 356//680 357//680 
f 360//681 359//681 361//681 
f 360//682 358//682 359//682 
f 362//683 361//683 363//683 
f 362//684 360//684 361//684 
f 364//685 363//685 365//685 
f 364//686 362//686 363//686 
f 366//687 365//687 367//687 
f 366//688 364//688 365//688 
f 368//689 369//689 370//689 
f 368//690 367//690 369//690 
f 368//691 366//691 367//691 
f 371//692 370//692 372//692 
f 371//693 368//693 370//693 
f 373//694 371//694 372//694 
f 374//695 375//695 376//695 
f 374//696 372//696 375//696 
f 374//697 373//697 372//697 
f 377//698 376//698 378//698 
f 377//699 374//699 376//699 
f 379//700 378//700 380//700 
f 379//701 377//701 378//701 
f 381//702 380//702 382//702 
f 381//703 379//703 380//703 
f 383//704 382//704 384//704 
f 383//705 381//705 382//705 
f 385//706 384//706 386//706 
f 385//707 383//707 384//707 
f 387//708 386//708 321//708 
f 387//709 385//709 386//709 
f 320//710 387//710 321//710 
f 383//711 379//711 381//711 
f 374//712 377//712 379//712 
f 368//713 371//713 373//713 
f 364//714 366//714 368//714 
f 364//715 373//715 374//715 
f 364//716 374//716 379//716 
f 364//717 368//717 373//717 
f 329//718 323//718 325//718 
f 329//719 325//719 327//719 
f 362//720 379//720 383//720 
f 362//721 364//721 379//721 
f 333//722 329//722 331//722 
f 356//723 358//723 360//723 
f 356//724 360//724 362//724 
f 356//725 383//725 385//725 
f 356//726 385//726 387//726 
f 356//727 362//727 383//727 
f 338//728 333//728 335//728 
f 338//729 335//729 337//729 
f 352//730 354//730 356//730 
f 352//731 387//731 320//731 
f 352//732 356//732 387//732 
f 351//733 320//733 323//733 
f 351//734 352//734 320//734 
f 342//735 338//735 341//735 
f 342//736 333//736 338//736 
f 348//737 323//737 329//737 
f 348//738 351//738 323//738 
f 346//739 342//739 344//739 
f 346//740 329//740 333//740 
f 346//741 348//741 329//741 
f 346//742 333//742 342//742 
f 326//743 330//743 328//743 
f 324//744 330//744 326//744 
f 339//745 336//745 334//745 
f 339//746 334//746 332//746 
f 339//747 332//747 330//747 
f 386//748 322//748 321//748 
f 343//749 340//749 339//749 
f 382//750 386//750 384//750 
f 347//751 345//751 343//751 
f 347//752 330//752 324//752 
f 347//753 343//753 339//753 
f 347//754 339//754 330//754 
f 353//755 350//755 349//755 
f 353//756 349//756 347//756 
f 353//757 324//757 322//757 
f 353//758 347//758 324//758 
f 370//759 375//759 372//759 
f 357//760 355//760 353//760 
f 359//761 382//761 380//761 
f 359//762 322//762 386//762 
f 359//763 386//763 382//763 
f 359//764 353//764 322//764 
f 359//765 357//765 353//765 
f 367//766 380//766 378//766 
f 367//767 378//767 376//767 
f 367//768 376//768 375//768 
f 367//769 370//769 369//769 
f 367//770 375//770 370//770 
f 363//771 367//771 365//771 
f 363//772 361//772 359//772 
f 363//773 359//773 380//773 
f 363//774 380//774 367//774 
