# FreeCAD v1.0 build0 Arch module
# https://www.freecad.org
mtllib CATWALK.mtl
o SCX1200-3_CATWALK_000_1-HSC_SCX1200-3_CATWALK006 (Meshed)
usemtl color_cccce6
v -1622.0 -2217.0 65.0
v -1622.0 -2217.0 125.0
v -1693.5 -2217.0 125.0
v -1693.5 -2217.0 65.0
v -1693.5 -2274.0 125.0
v -1693.5 -2274.0 65.0
v -1750.5 -2274.0 125.0
v -1750.5 -2274.0 65.0
v -1750.5 -2217.0 125.0
v -1750.5 -2217.0 65.0
v -2068.5 -2217.0 125.0
v -2068.5 -2217.0 65.0
v -2068.5 -2274.0 125.0
v -2068.5 -2274.0 65.0
v -2125.5 -2274.0 125.0
v -2125.5 -2274.0 65.0
v -2125.5 -2217.0 125.0
v -2125.5 -2217.0 65.0
v -2443.5 -2217.0 125.0
v -2443.5 -2217.0 65.0
v -2443.5 -2274.0 125.0
v -2443.5 -2274.0 65.0
v -2500.5 -2274.0 125.0
v -2500.5 -2274.0 65.0
v -2500.5 -2217.0 125.0
v -2500.5 -2217.0 65.0
v -2595.5 -2217.0 125.0
v -2595.5 -2217.0 65.0
v -2595.5 -2274.0 125.0
v -2595.5 -2274.0 65.0
v -2652.5 -2274.0 125.0
v -2652.5 -2274.0 65.0
v -2652.5 -2217.0 125.0
v -2652.5 -2217.0 65.0
v -3435.5 -2217.0 125.0
v -3435.5 -2217.0 65.0
v -3435.5 -2274.0 125.0
v -3435.5 -2274.0 65.0
v -3492.5 -2274.0 125.0
v -3492.5 -2274.0 65.0
v -3492.5 -2217.0 125.0
v -3492.5 -2217.0 65.0
v -3564.0 -1620.0 65.0
v -3564.0 -1620.0 125.0
v -3540.5 -1620.0 125.0
v -3540.5 -1620.0 65.0
v -3540.5 -1590.0 65.0
v -3540.5 -1590.0 125.0
v -3528.5 -1590.0 125.0
v -3528.5 -1590.0 65.0
v -3528.5 -1620.0 65.0
v -3528.5 -1620.0 125.0
v -1657.5 -1620.0 125.0
v -1657.5 -1620.0 65.0
v -1657.5 -1590.0 65.0
v -1657.5 -1590.0 125.0
v -1645.5 -1590.0 125.0
v -1645.5 -1590.0 65.0
v -1645.5 -1620.0 65.0
v -1645.5 -1620.0 125.0
v -1622.0 -1620.0 125.0
v -1622.0 -1620.0 65.0
v -3564.0 -2217.0 125.0
v -3564.0 -2217.0 65.0
v -3564.5 2027.0 65.0
v -3564.5 2027.0 125.0
v -3493.0 2027.0 125.0
v -3493.0 2027.0 65.0
v -3493.0 2084.0 125.0
v -3493.0 2084.0 65.0
v -3436.0 2084.0 125.0
v -3436.0 2084.0 65.0
v -3436.0 2027.0 125.0
v -3436.0 2027.0 65.0
v -2743.0 2027.0 125.0
v -2743.0 2027.0 65.0
v -2743.0 2084.0 65.0
v -2743.0 2084.0 125.0
v -2686.0 2084.0 125.0
v -2686.0 2084.0 65.0
v -2686.0 2027.0 65.0
v -2686.0 2027.0 125.0
v -2559.0 2027.0 125.0
v -2559.0 2027.0 65.0
v -2559.0 2084.0 65.0
v -2559.0 2084.0 125.0
v -2502.0 2084.0 125.0
v -2502.0 2084.0 65.0
v -2502.0 2027.0 65.0
v -2502.0 2027.0 125.0
v -2184.0 2027.0 125.0
v -2184.0 2027.0 65.0
v -2184.0 2084.0 125.0
v -2184.0 2084.0 65.0
v -2127.124756 2084.0 125.0
v -2127.124756 2084.0 65.0
v -2127.124756 2027.0 125.0
v -2127.124756 2027.0 65.0
v -1809.0 2027.0 125.0
v -1809.0 2027.0 65.0
v -1809.0 2084.0 125.0
v -1809.0 2084.0 65.0
v -1752.0 2084.0 125.0
v -1752.0 2084.0 65.0
v -1752.0 2027.0 125.0
v -1752.0 2027.0 65.0
v -3541.0 1400.0 65.0
v -3541.0 1400.0 125.0
v -3541.0 1430.0 125.0
v -3541.0 1430.0 65.0
v -3564.5 1430.0 125.0
v -3564.5 1430.0 65.0
v -1680.5 1430.0 65.0
v -1680.5 1430.0 125.0
v -1704.0 1430.0 125.0
v -1704.0 1430.0 65.0
v -1704.0 1400.0 65.0
v -1704.0 1400.0 125.0
v -1719.0 1400.0 125.0
v -1719.0 1400.0 65.0
v -1719.0 1430.0 65.0
v -1719.0 1430.0 125.0
v -3529.0 1430.0 125.0
v -3529.0 1430.0 65.0
v -3529.0 1400.0 125.0
v -3529.0 1400.0 65.0
v -1680.5 2027.0 125.0
v -1680.5 2027.0 65.0
v -1664.5 2027.0 65.0
v -1664.5 2027.0 125.0
v -1593.0 2027.0 125.0
v -1593.0 2027.0 65.0
v -1593.0 2084.0 125.0
v -1593.0 2084.0 65.0
v -1536.0 2084.0 125.0
v -1536.0 2084.0 65.0
v -1536.0 2027.0 125.0
v -1536.0 2027.0 65.0
v -843.0 2027.0 125.0
v -843.0 2027.0 65.0
v -843.0 2084.0 125.0
v -843.0 2084.0 65.0
v -786.0 2084.0 125.0
v -786.0 2084.0 65.0
v -786.0 2027.0 125.0
v -786.0 2027.0 65.0
v -659.0 2027.0 125.0
v -659.0 2027.0 65.0
v -659.0 2084.0 125.0
v -659.0 2084.0 65.0
v -602.0 2084.0 125.0
v -602.0 2084.0 65.0
v -602.0 2027.0 125.0
v -602.0 2027.0 65.0
v 91.0 2027.0 125.0
v 91.0 2027.0 65.0
v 91.0 2084.0 125.0
v 91.0 2084.0 65.0
v 148.0 2084.0 65.0
v 148.0 2084.0 125.0
v 148.0 2027.0 125.0
v 148.0 2027.0 65.0
v -1641.0 1400.0 65.0
v -1641.0 1400.0 125.0
v -1641.0 1430.0 125.0
v -1641.0 1430.0 65.0
v -1664.5 1430.0 125.0
v -1664.5 1430.0 65.0
v 219.5 1430.0 65.0
v 219.5 1430.0 125.0
v 196.0 1430.0 125.0
v 196.0 1430.0 65.0
v 196.0 1400.0 65.0
v 196.0 1400.0 125.0
v 181.0 1400.0 125.0
v 181.0 1400.0 65.0
v 181.0 1430.0 65.0
v 181.0 1430.0 125.0
v -1629.0 1430.0 125.0
v -1629.0 1430.0 65.0
v -1629.0 1400.0 125.0
v -1629.0 1400.0 65.0
v 219.5 2027.0 125.0
v 219.5 2027.0 65.0
v 235.5 2027.0 65.0
v 235.5 2027.0 125.0
v 307.0 2027.0 125.0
v 307.0 2027.0 65.0
v 307.0 2084.0 125.0
v 307.0 2084.0 65.0
v 364.0 2084.0 125.0
v 364.0 2084.0 65.0
v 364.0 2027.0 125.0
v 364.0 2027.0 65.0
v 1057.0 2027.0 125.0
v 1057.0 2027.0 65.0
v 1057.0 2084.0 125.0
v 1057.0 2084.0 65.0
v 1114.0 2084.0 125.0
v 1114.0 2084.0 65.0
v 1114.0 2027.0 125.0
v 1114.0 2027.0 65.0
v 1241.0 2027.0 125.0
v 1241.0 2027.0 65.0
v 1241.0 2084.0 125.0
v 1241.0 2084.0 65.0
v 1298.0 2084.0 125.0
v 1298.0 2084.0 65.0
v 1298.0 2027.0 125.0
v 1298.0 2027.0 65.0
v 1991.0 2027.0 125.0
v 1991.0 2027.0 65.0
v 1991.0 2084.0 125.0
v 1991.0 2084.0 65.0
v 2048.0 2084.0 125.0
v 2048.0 2084.0 65.0
v 2048.0 2027.0 125.0
v 2048.0 2027.0 65.0
v 259.0 1400.0 65.0
v 259.0 1400.0 125.0
v 259.0 1430.0 125.0
v 259.0 1430.0 65.0
v 235.5 1430.0 125.0
v 235.5 1430.0 65.0
v 2119.5 1430.0 65.0
v 2119.5 1430.0 125.0
v 2096.0 1430.0 125.0
v 2096.0 1430.0 65.0
v 2096.0 1400.0 65.0
v 2096.0 1400.0 125.0
v 2081.0 1400.0 125.0
v 2081.0 1400.0 65.0
v 2081.0 1430.0 65.0
v 2081.0 1430.0 125.0
v 271.0 1430.0 125.0
v 271.0 1430.0 65.0
v 271.0 1400.0 125.0
v 271.0 1400.0 65.0
v 2119.5 2027.0 125.0
v 2119.5 2027.0 65.0
v -1606.0 -2217.0 125.0
v -1606.0 -2217.0 65.0
v -1584.5 -2217.0 65.0
v -1584.5 -2217.0 125.0
v -1584.5 -2274.0 65.0
v -1584.5 -2274.0 125.0
v -1527.5 -2274.0 65.0
v -1527.5 -2274.0 125.0
v -1527.5 -2217.0 125.0
v -1527.5 -2217.0 65.0
v -532.5 -2217.0 65.0
v -532.5 -2217.0 125.0
v -532.5 -2274.0 65.0
v -532.5 -2274.0 125.0
v -475.5 -2274.0 65.0
v -475.5 -2274.0 125.0
v -475.5 -2217.0 125.0
v -475.5 -2217.0 65.0
v -372.5 -2217.0 65.0
v -372.5 -2217.0 125.0
v -372.5 -2274.0 65.0
v -372.5 -2274.0 125.0
v -315.5 -2274.0 65.0
v -315.5 -2274.0 125.0
v -315.5 -2217.0 125.0
v -315.5 -2217.0 65.0
v 377.5 -2217.0 65.0
v 377.5 -2217.0 125.0
v 377.5 -2274.0 65.0
v 377.5 -2274.0 125.0
v 434.5 -2274.0 65.0
v 434.5 -2274.0 125.0
v 434.5 -2217.0 125.0
v 434.5 -2217.0 65.0
v 524.0 -1620.0 125.0
v 524.0 -1620.0 65.0
v 500.5 -1620.0 65.0
v 500.5 -1620.0 125.0
v 500.5 -1590.0 65.0
v 500.5 -1590.0 125.0
v 488.5 -1590.0 65.0
v 488.5 -1590.0 125.0
v 488.5 -1620.0 125.0
v 488.5 -1620.0 65.0
v -1570.5 -1620.0 65.0
v -1570.5 -1620.0 125.0
v -1570.5 -1590.0 65.0
v -1570.5 -1590.0 125.0
v -1582.5 -1590.0 65.0
v -1582.5 -1590.0 125.0
v -1582.5 -1620.0 125.0
v -1582.5 -1620.0 65.0
v -1606.0 -1620.0 65.0
v -1606.0 -1620.0 125.0
v 524.0 -2217.0 65.0
v 524.0 -2217.0 125.0
v 2480.0 -2310.0 125.0
v 2318.5 -2310.0 125.0
v 2318.5 -2310.0 65.0
v 2480.0 -2310.0 65.0
v 2318.5 -2367.0 125.0
v 2318.5 -2367.0 65.0
v 2261.5 -2367.0 125.0
v 2261.5 -2367.0 65.0
v 2261.5 -2310.0 65.0
v 2261.5 -2310.0 125.0
v 1568.5 -2310.0 125.0
v 1568.5 -2310.0 65.0
v 1568.5 -2367.0 125.0
v 1568.5 -2367.0 65.0
v 1511.5 -2367.0 125.0
v 1511.5 -2367.0 65.0
v 1511.5 -2310.0 65.0
v 1511.5 -2310.0 125.0
v 993.5 -2310.0 125.0
v 993.5 -2310.0 65.0
v 993.5 -2367.0 125.0
v 993.5 -2367.0 65.0
v 936.5 -2367.0 125.0
v 936.5 -2367.0 65.0
v 936.5 -2310.0 65.0
v 936.5 -2310.0 125.0
v 618.5 -2310.0 125.0
v 618.5 -2310.0 65.0
v 618.5 -2367.0 125.0
v 618.5 -2367.0 65.0
v 561.5 -2367.0 125.0
v 561.5 -2367.0 65.0
v 561.5 -2310.0 65.0
v 561.5 -2310.0 125.0
v 2456.5 -1750.0 65.0
v 2456.5 -1750.0 125.0
v 2456.5 -1780.0 125.0
v 2456.5 -1780.0 65.0
v 2480.0 -1780.0 65.0
v 2480.0 -1780.0 125.0
v 563.5 -1780.0 65.0
v 540.0 -1780.0 125.0
v 563.5 -1780.0 125.0
v 540.0 -1780.0 65.0
v 563.5 -1750.0 65.0
v 563.5 -1750.0 125.0
v 575.5 -1750.0 125.0
v 575.5 -1750.0 65.0
v 575.5 -1780.0 125.0
v 575.5 -1780.0 65.0
v 2444.5 -1780.0 125.0
v 2444.5 -1780.0 65.0
v 2444.5 -1750.0 65.0
v 2444.5 -1750.0 125.0
v 540.0 -2310.0 125.0
v 540.0 -2310.0 65.0
vn 0.0 -1.0 0.0
vn 0.0 -1.0 0.0
vn 1.0 0.0 -0.0
vn 1.0 0.0 0.0
vn 0.0 -1.0 0.0
vn 0.0 -1.0 0.0
vn -1.0 0.0 0.0
vn -1.0 0.0 0.0
vn 0.0 -1.0 0.0
vn 0.0 -1.0 0.0
vn 1.0 0.0 -0.0
vn 1.0 0.0 0.0
vn 0.0 -1.0 0.0
vn 0.0 -1.0 0.0
vn -1.0 0.0 0.0
vn -1.0 0.0 0.0
vn 0.0 -1.0 0.0
vn 0.0 -1.0 0.0
vn 1.0 0.0 -0.0
vn 1.0 0.0 0.0
vn 0.0 -1.0 0.0
vn 0.0 -1.0 0.0
vn -1.0 0.0 0.0
vn -1.0 0.0 0.0
vn 0.0 -1.0 0.0
vn 0.0 -1.0 0.0
vn 1.0 0.0 -0.0
vn 1.0 0.0 0.0
vn 0.0 -1.0 0.0
vn 0.0 -1.0 0.0
vn -1.0 0.0 0.0
vn -1.0 0.0 0.0
vn 0.0 -1.0 0.0
vn 0.0 -1.0 0.0
vn 1.0 0.0 -0.0
vn 1.0 0.0 0.0
vn 0.0 -1.0 0.0
vn 0.0 -1.0 0.0
vn -1.0 0.0 0.0
vn -1.0 0.0 0.0
vn 0.0 1.0 0.0
vn 0.0 1.0 0.0
vn -1.0 0.0 0.0
vn -1.0 0.0 0.0
vn 0.0 1.0 0.0
vn 0.0 1.0 0.0
vn 1.0 0.0 0.0
vn 1.0 0.0 -0.0
vn 0.0 1.0 0.0
vn 0.0 1.0 0.0
vn -1.0 0.0 0.0
vn -1.0 0.0 0.0
vn 0.0 1.0 0.0
vn 0.0 1.0 0.0
vn 1.0 0.0 0.0
vn 1.0 0.0 -0.0
vn 0.0 1.0 0.0
vn 0.0 1.0 0.0
vn 1.0 0.0 -0.0
vn 1.0 0.0 0.0
vn 0.0 -1.0 0.0
vn 0.0 -1.0 0.0
vn -1.0 0.0 0.0
vn -1.0 0.0 0.0
vn 0.0 0.0 -1.0
vn 0.0 0.0 -1.0
vn 0.0 0.0 -1.0
vn 0.0 0.0 -1.0
vn 0.0 0.0 -1.0
vn 0.0 0.0 -1.0
vn 0.0 0.0 -1.0
vn 0.0 0.0 -1.0
vn 0.0 0.0 -1.0
vn -0.0 0.0 -1.0
vn 0.0 0.0 -1.0
vn 0.0 0.0 -1.0
vn 0.0 0.0 -1.0
vn 0.0 0.0 -1.0
vn 0.0 0.0 -1.0
vn 0.0 0.0 -1.0
vn 0.0 0.0 -1.0
vn 0.0 0.0 -1.0
vn 0.0 0.0 -1.0
vn 0.0 0.0 -1.0
vn -0.0 0.0 -1.0
vn 0.0 0.0 -1.0
vn 0.0 0.0 -1.0
vn 0.0 0.0 -1.0
vn 0.0 0.0 -1.0
vn 0.0 0.0 -1.0
vn 0.0 0.0 -1.0
vn 0.0 0.0 -1.0
vn 0.0 0.0 -1.0
vn 0.0 0.0 -1.0
vn 0.0 0.0 1.0
vn 0.0 0.0 1.0
vn 0.0 -0.0 1.0
vn 0.0 0.0 1.0
vn 0.0 0.0 1.0
vn 0.0 0.0 1.0
vn 0.0 0.0 1.0
vn 0.0 0.0 1.0
vn 0.0 0.0 1.0
vn 0.0 0.0 1.0
vn 0.0 0.0 1.0
vn 0.0 0.0 1.0
vn 0.0 0.0 1.0
vn 0.0 -0.0 1.0
vn 0.0 0.0 1.0
vn 0.0 0.0 1.0
vn 0.0 0.0 1.0
vn 0.0 0.0 1.0
vn 0.0 0.0 1.0
vn 0.0 -0.0 1.0
vn -0.0 0.0 1.0
vn 0.0 -0.0 1.0
vn 0.0 0.0 1.0
vn 0.0 0.0 1.0
vn 0.0 0.0 1.0
vn 0.0 0.0 1.0
vn 0.0 0.0 1.0
vn 0.0 0.0 1.0
vn 0.0 0.0 1.0
vn 0.0 0.0 1.0
vn 0.0 1.0 0.0
vn 0.0 1.0 0.0
vn -1.0 0.0 0.0
vn -1.0 0.0 0.0
vn 0.0 1.0 0.0
vn 0.0 1.0 0.0
vn 1.0 0.0 -0.0
vn 1.0 0.0 0.0
vn 0.0 1.0 0.0
vn 0.0 1.0 0.0
vn -1.0 0.0 0.0
vn -1.0 0.0 0.0
vn 0.0 1.0 0.0
vn 0.0 1.0 0.0
vn 1.0 0.0 0.0
vn 1.0 0.0 -0.0
vn 0.0 1.0 0.0
vn 0.0 1.0 0.0
vn -1.0 0.0 0.0
vn -1.0 0.0 0.0
vn 0.0 1.0 0.0
vn 0.0 1.0 0.0
vn 1.0 0.0 0.0
vn 1.0 0.0 -0.0
vn 0.0 1.0 0.0
vn 0.0 1.0 0.0
vn -1.0 0.0 0.0
vn -1.0 0.0 0.0
vn 0.0 1.0 0.0
vn 0.0 1.0 0.0
vn 1.0 0.0 -0.0
vn 1.0 0.0 0.0
vn 0.0 1.0 0.0
vn 0.0 1.0 0.0
vn -1.0 0.0 0.0
vn -1.0 0.0 0.0
vn 0.0 1.0 0.0
vn 0.0 1.0 0.0
vn 1.0 0.0 -0.0
vn 1.0 0.0 0.0
vn -1.0 0.0 0.0
vn -1.0 0.0 0.0
vn 0.0 -1.0 0.0
vn 0.0 -1.0 0.0
vn 0.0 -1.0 0.0
vn 0.0 -1.0 0.0
vn 1.0 0.0 0.0
vn 1.0 0.0 -0.0
vn 0.0 -1.0 0.0
vn 0.0 -1.0 0.0
vn -1.0 0.0 0.0
vn -1.0 0.0 0.0
vn 0.0 -1.0 0.0
vn 0.0 -1.0 0.0
vn 1.0 0.0 -0.0
vn 1.0 0.0 0.0
vn 0.0 -1.0 0.0
vn 0.0 -1.0 0.0
vn -1.0 0.0 0.0
vn -1.0 0.0 0.0
vn 0.0 1.0 0.0
vn 0.0 1.0 0.0
vn 1.0 0.0 -0.0
vn 1.0 0.0 0.0
vn 0.0 0.0 -1.0
vn 0.0 0.0 -1.0
vn 0.0 0.0 -1.0
vn 0.0 0.0 -1.0
vn 0.0 0.0 -1.0
vn 0.0 0.0 -1.0
vn 0.0 0.0 -1.0
vn 0.0 0.0 -1.0
vn 0.0 0.0 -1.0
vn 0.0 0.0 -1.0
vn 0.0 0.0 -1.0
vn 0.0 0.0 -1.0
vn 0.0 0.0 -1.0
vn 0.0 0.0 -1.0
vn 0.0 0.0 -1.0
vn 0.0 0.0 -1.0
vn 0.0 0.0 -1.0
vn 0.0 0.0 -1.0
vn 0.0 0.0 -1.0
vn 0.0 0.0 -1.0
vn 0.0 0.0 -1.0
vn 0.0 0.0 -1.0
vn 0.0 0.0 -1.0
vn 0.0 0.0 -1.0
vn 0.0 0.0 -1.0
vn 0.0 0.0 -1.0
vn 0.0 0.0 -1.0
vn -0.0 0.0 -1.0
vn -0.0 0.0 -1.0
vn -0.0 0.0 -1.0
vn 0.0 0.0 1.0
vn -0.0 0.0 1.0
vn 0.0 0.0 1.0
vn 0.0 0.0 1.0
vn -0.0 0.0 1.0
vn -0.0 0.0 1.0
vn -0.0 0.0 1.0
vn 0.0 0.0 1.0
vn -0.0 0.0 1.0
vn -0.0 0.0 1.0
vn -0.0 0.0 1.0
vn 0.0 0.0 1.0
vn -0.0 0.0 1.0
vn -0.0 0.0 1.0
vn 0.0 0.0 1.0
vn -0.0 0.0 1.0
vn 0.0 0.0 1.0
vn -0.0 0.0 1.0
vn 0.0 0.0 1.0
vn -0.0 0.0 1.0
vn -0.0 0.0 1.0
vn -0.0 0.0 1.0
vn 0.0 0.0 1.0
vn 0.0 0.0 1.0
vn 0.0 0.0 1.0
vn -0.0 0.0 1.0
vn 0.0 0.0 1.0
vn 0.0 0.0 1.0
vn 0.0 0.0 1.0
vn 0.0 0.0 1.0
vn 0.0 1.0 0.0
vn 0.0 1.0 0.0
vn -1.0 0.0 0.0
vn -1.0 0.0 0.0
vn 0.0 1.0 0.0
vn 0.0 1.0 0.0
vn 1.0 0.0 -0.0
vn 1.0 0.0 0.0
vn 0.0 1.0 0.0
vn 0.0 1.0 0.0
vn -1.0 0.0 0.0
vn -1.0 0.0 0.0
vn 0.0 1.0 0.0
vn 0.0 1.0 0.0
vn 1.0 0.0 -0.0
vn 1.0 0.0 0.0
vn 0.0 1.0 0.0
vn 0.0 1.0 0.0
vn -1.0 0.0 0.0
vn -1.0 0.0 0.0
vn 0.0 1.0 0.0
vn 0.0 1.0 0.0
vn 1.0 0.0 -0.0
vn 1.0 0.0 0.0
vn 0.0 1.0 0.0
vn 0.0 1.0 0.0
vn -1.0 0.0 0.0
vn -1.0 0.0 0.0
vn 0.0 1.0 -0.0
vn 0.0 1.0 0.0
vn 1.0 0.0 -0.0
vn 1.0 0.0 0.0
vn -1.0 0.0 0.0
vn -1.0 0.0 0.0
vn 0.0 -1.0 0.0
vn 0.0 -1.0 0.0
vn 0.0 -1.0 0.0
vn 0.0 -1.0 0.0
vn 1.0 0.0 0.0
vn 1.0 0.0 -0.0
vn 0.0 -1.0 0.0
vn 0.0 -1.0 0.0
vn -1.0 0.0 0.0
vn -1.0 0.0 0.0
vn 0.0 -1.0 0.0
vn 0.0 -1.0 0.0
vn 1.0 0.0 -0.0
vn 1.0 0.0 0.0
vn 0.0 -1.0 0.0
vn 0.0 -1.0 0.0
vn -1.0 0.0 0.0
vn -1.0 0.0 0.0
vn 0.0 1.0 0.0
vn 0.0 1.0 0.0
vn 1.0 0.0 -0.0
vn 1.0 0.0 0.0
vn 0.0 0.0 -1.0
vn 0.0 0.0 -1.0
vn 0.0 0.0 -1.0
vn 0.0 0.0 -1.0
vn 0.0 0.0 -1.0
vn 0.0 0.0 -1.0
vn 0.0 0.0 -1.0
vn 0.0 0.0 -1.0
vn 0.0 0.0 -1.0
vn 0.0 0.0 -1.0
vn 0.0 0.0 -1.0
vn 0.0 0.0 -1.0
vn 0.0 0.0 -1.0
vn 0.0 0.0 -1.0
vn 0.0 0.0 -1.0
vn 0.0 0.0 -1.0
vn 0.0 0.0 -1.0
vn 0.0 0.0 -1.0
vn 0.0 0.0 -1.0
vn 0.0 0.0 -1.0
vn 0.0 0.0 -1.0
vn 0.0 0.0 -1.0
vn 0.0 0.0 -1.0
vn 0.0 0.0 -1.0
vn 0.0 0.0 -1.0
vn 0.0 0.0 -1.0
vn 0.0 0.0 1.0
vn -0.0 0.0 1.0
vn 0.0 0.0 1.0
vn 0.0 0.0 1.0
vn -0.0 0.0 1.0
vn 0.0 0.0 1.0
vn -0.0 0.0 1.0
vn -0.0 0.0 1.0
vn -0.0 0.0 1.0
vn 0.0 0.0 1.0
vn -0.0 0.0 1.0
vn 0.0 0.0 1.0
vn -0.0 0.0 1.0
vn -0.0 0.0 1.0
vn 0.0 0.0 1.0
vn -0.0 0.0 1.0
vn -0.0 0.0 1.0
vn -0.0 0.0 1.0
vn 0.0 0.0 1.0
vn 0.0 0.0 1.0
vn 0.0 0.0 1.0
vn -0.0 0.0 1.0
vn 0.0 0.0 1.0
vn 0.0 0.0 1.0
vn 0.0 0.0 1.0
vn 0.0 0.0 1.0
vn 0.0 1.0 0.0
vn 0.0 1.0 0.0
vn -1.0 0.0 0.0
vn -1.0 0.0 0.0
vn 0.0 1.0 0.0
vn 0.0 1.0 0.0
vn 1.0 0.0 -0.0
vn 1.0 0.0 0.0
vn 0.0 1.0 0.0
vn 0.0 1.0 0.0
vn -1.0 0.0 0.0
vn -1.0 0.0 0.0
vn 0.0 1.0 0.0
vn 0.0 1.0 0.0
vn 1.0 0.0 -0.0
vn 1.0 0.0 0.0
vn 0.0 1.0 0.0
vn 0.0 1.0 0.0
vn -1.0 0.0 0.0
vn -1.0 0.0 0.0
vn 0.0 1.0 0.0
vn 0.0 1.0 0.0
vn 1.0 0.0 -0.0
vn 1.0 0.0 0.0
vn 0.0 1.0 0.0
vn 0.0 1.0 0.0
vn -1.0 0.0 0.0
vn -1.0 0.0 0.0
vn 0.0 1.0 0.0
vn 0.0 1.0 0.0
vn 1.0 0.0 -0.0
vn 1.0 0.0 0.0
vn -1.0 0.0 0.0
vn -1.0 0.0 0.0
vn 0.0 -1.0 0.0
vn 0.0 -1.0 0.0
vn 0.0 -1.0 0.0
vn 0.0 -1.0 0.0
vn 1.0 0.0 0.0
vn 1.0 0.0 -0.0
vn 0.0 -1.0 0.0
vn 0.0 -1.0 0.0
vn -1.0 0.0 0.0
vn -1.0 0.0 0.0
vn 0.0 -1.0 0.0
vn 0.0 -1.0 0.0
vn 1.0 0.0 -0.0
vn 1.0 0.0 0.0
vn 0.0 -1.0 0.0
vn 0.0 -1.0 0.0
vn -1.0 0.0 0.0
vn -1.0 0.0 0.0
vn 0.0 1.0 0.0
vn 0.0 1.0 0.0
vn 1.0 0.0 -0.0
vn 1.0 0.0 0.0
vn 0.0 0.0 -1.0
vn 0.0 0.0 -1.0
vn 0.0 0.0 -1.0
vn 0.0 0.0 -1.0
vn 0.0 0.0 -1.0
vn 0.0 0.0 -1.0
vn 0.0 0.0 -1.0
vn 0.0 0.0 -1.0
vn 0.0 0.0 -1.0
vn 0.0 0.0 -1.0
vn 0.0 0.0 -1.0
vn 0.0 0.0 -1.0
vn 0.0 0.0 -1.0
vn 0.0 0.0 -1.0
vn 0.0 0.0 -1.0
vn 0.0 0.0 -1.0
vn 0.0 0.0 -1.0
vn 0.0 0.0 -1.0
vn 0.0 0.0 -1.0
vn 0.0 0.0 -1.0
vn 0.0 0.0 -1.0
vn 0.0 0.0 -1.0
vn 0.0 0.0 -1.0
vn 0.0 0.0 -1.0
vn 0.0 0.0 -1.0
vn 0.0 0.0 -1.0
vn 0.0 0.0 1.0
vn -0.0 0.0 1.0
vn 0.0 0.0 1.0
vn 0.0 0.0 1.0
vn -0.0 0.0 1.0
vn -0.0 0.0 1.0
vn -0.0 0.0 1.0
vn 0.0 0.0 1.0
vn -0.0 0.0 1.0
vn -0.0 0.0 1.0
vn 0.0 0.0 1.0
vn 0.0 0.0 1.0
vn -0.0 0.0 1.0
vn -0.0 0.0 1.0
vn 0.0 0.0 1.0
vn -0.0 0.0 1.0
vn -0.0 0.0 1.0
vn -0.0 0.0 1.0
vn 0.0 0.0 1.0
vn 0.0 0.0 1.0
vn 0.0 0.0 1.0
vn -0.0 0.0 1.0
vn 0.0 0.0 1.0
vn 0.0 0.0 1.0
vn 0.0 0.0 1.0
vn 0.0 0.0 1.0
vn 0.0 -1.0 0.0
vn 0.0 -1.0 0.0
vn -1.0 0.0 -0.0
vn -1.0 -0.0 0.0
vn 0.0 -1.0 0.0
vn 0.0 -1.0 0.0
vn 1.0 0.0 0.0
vn 1.0 -0.0 0.0
vn 0.0 -1.0 0.0
vn 0.0 -1.0 0.0
vn -1.0 0.0 -0.0
vn -1.0 -0.0 0.0
vn 0.0 -1.0 0.0
vn 0.0 -1.0 0.0
vn 1.0 0.0 0.0
vn 1.0 -0.0 0.0
vn 0.0 -1.0 0.0
vn 0.0 -1.0 0.0
vn -1.0 0.0 -0.0
vn -1.0 -0.0 0.0
vn 0.0 -1.0 0.0
vn 0.0 -1.0 0.0
vn 1.0 0.0 0.0
vn 1.0 -0.0 0.0
vn 0.0 -1.0 0.0
vn 0.0 -1.0 0.0
vn -1.0 0.0 -0.0
vn -1.0 -0.0 0.0
vn 0.0 -1.0 0.0
vn 0.0 -1.0 0.0
vn 1.0 0.0 0.0
vn 1.0 -0.0 0.0
vn 0.0 1.0 0.0
vn 0.0 1.0 0.0
vn 1.0 0.0 0.0
vn 1.0 -0.0 0.0
vn 0.0 1.0 0.0
vn 0.0 1.0 0.0
vn -1.0 0.0 0.0
vn -1.0 -0.0 -0.0
vn 0.0 1.0 0.0
vn 0.0 1.0 0.0
vn 1.0 0.0 0.0
vn 1.0 -0.0 0.0
vn 0.0 1.0 0.0
vn 0.0 1.0 0.0
vn -1.0 0.0 0.0
vn -1.0 -0.0 -0.0
vn 0.0 1.0 0.0
vn 0.0 1.0 0.0
vn -1.0 0.0 0.0
vn -1.0 -0.0 -0.0
vn 0.0 -1.0 0.0
vn 0.0 -1.0 0.0
vn 1.0 0.0 0.0
vn 1.0 -0.0 0.0
vn 0.0 -0.0 1.0
vn 0.0 0.0 1.0
vn 0.0 -0.0 1.0
vn 0.0 0.0 1.0
vn 0.0 0.0 1.0
vn -0.0 0.0 1.0
vn 0.0 0.0 1.0
vn 0.0 0.0 1.0
vn 0.0 0.0 1.0
vn 0.0 -0.0 1.0
vn 0.0 0.0 1.0
vn 0.0 0.0 1.0
vn 0.0 0.0 1.0
vn 0.0 0.0 1.0
vn 0.0 0.0 1.0
vn 0.0 -0.0 1.0
vn -0.0 0.0 1.0
vn 0.0 -0.0 1.0
vn 0.0 0.0 1.0
vn 0.0 0.0 1.0
vn 0.0 0.0 1.0
vn 0.0 0.0 1.0
vn 0.0 0.0 1.0
vn 0.0 0.0 1.0
vn 0.0 0.0 1.0
vn 0.0 0.0 1.0
vn 0.0 0.0 -1.0
vn 0.0 0.0 -1.0
vn 0.0 0.0 -1.0
vn 0.0 0.0 -1.0
vn 0.0 0.0 -1.0
vn 0.0 0.0 -1.0
vn 0.0 0.0 -1.0
vn 0.0 0.0 -1.0
vn 0.0 0.0 -1.0
vn 0.0 0.0 -1.0
vn 0.0 0.0 -1.0
vn 0.0 0.0 -1.0
vn 0.0 0.0 -1.0
vn 0.0 0.0 -1.0
vn 0.0 0.0 -1.0
vn 0.0 0.0 -1.0
vn 0.0 0.0 -1.0
vn 0.0 0.0 -1.0
vn 0.0 0.0 -1.0
vn 0.0 0.0 -1.0
vn 0.0 0.0 -1.0
vn 0.0 0.0 -1.0
vn 0.0 0.0 -1.0
vn 0.0 0.0 -1.0
vn 0.0 0.0 -1.0
vn 0.0 0.0 -1.0
vn -0.0 -1.0 0.0
vn 0.0 -1.0 0.0
vn 1.0 0.0 -0.0
vn 1.0 0.0 0.0
vn 0.0 -1.0 0.0
vn 0.0 -1.0 0.0
vn -1.0 0.0 0.0
vn -1.0 0.0 0.0
vn -0.0 -1.0 0.0
vn 0.0 -1.0 0.0
vn 1.0 0.0 -0.0
vn 1.0 0.0 0.0
vn 0.0 -1.0 0.0
vn 0.0 -1.0 0.0
vn -1.0 0.0 0.0
vn -1.0 0.0 0.0
vn -0.0 -1.0 0.0
vn 0.0 -1.0 0.0
vn 1.0 0.0 -0.0
vn 1.0 0.0 0.0
vn 0.0 -1.0 0.0
vn 0.0 -1.0 0.0
vn -1.0 0.0 0.0
vn -1.0 0.0 0.0
vn 0.0 -1.0 0.0
vn 0.0 -1.0 0.0
vn 1.0 0.0 -0.0
vn 1.0 0.0 0.0
vn 0.0 -1.0 0.0
vn 0.0 -1.0 0.0
vn -1.0 0.0 0.0
vn -1.0 0.0 0.0
vn 1.0 0.0 -0.0
vn 1.0 0.0 0.0
vn 0.0 1.0 -0.0
vn 0.0 1.0 0.0
vn 0.0 1.0 -0.0
vn 0.0 1.0 0.0
vn -1.0 0.0 0.0
vn -1.0 0.0 0.0
vn 0.0 1.0 0.0
vn 0.0 1.0 0.0
vn 1.0 0.0 -0.0
vn 1.0 0.0 0.0
vn -0.0 1.0 0.0
vn 0.0 1.0 0.0
vn -1.0 0.0 0.0
vn -1.0 0.0 0.0
vn 0.0 1.0 0.0
vn 0.0 1.0 0.0
vn 1.0 0.0 0.0
vn 1.0 0.0 -0.0
vn 0.0 -1.0 0.0
vn 0.0 -1.0 0.0
vn -1.0 0.0 0.0
vn -1.0 0.0 0.0
vn 0.0 -0.0 -1.0
vn -0.0 0.0 -1.0
vn 0.0 -0.0 -1.0
vn -0.0 0.0 -1.0
vn 0.0 0.0 -1.0
vn -0.0 0.0 -1.0
vn 0.0 0.0 -1.0
vn 0.0 -0.0 -1.0
vn 0.0 0.0 -1.0
vn -0.0 0.0 -1.0
vn -0.0 0.0 -1.0
vn 0.0 -0.0 -1.0
vn 0.0 -0.0 -1.0
vn -0.0 0.0 -1.0
vn 0.0 -0.0 -1.0
vn -0.0 0.0 -1.0
vn 0.0 -0.0 -1.0
vn 0.0 0.0 -1.0
vn 0.0 0.0 -1.0
vn -0.0 -0.0 -1.0
vn -0.0 -0.0 -1.0
vn -0.0 0.0 -1.0
vn 0.0 -0.0 -1.0
vn 0.0 0.0 -1.0
vn 0.0 0.0 -1.0
vn 0.0 0.0 -1.0
vn 0.0 -0.0 1.0
vn 0.0 0.0 1.0
vn 0.0 -0.0 1.0
vn 0.0 0.0 1.0
vn 0.0 0.0 1.0
vn 0.0 0.0 1.0
vn 0.0 0.0 1.0
vn 0.0 -0.0 1.0
vn 0.0 0.0 1.0
vn 0.0 0.0 1.0
vn 0.0 0.0 1.0
vn 0.0 -0.0 1.0
vn 0.0 0.0 1.0
vn 0.0 -0.0 1.0
vn 0.0 0.0 1.0
vn 0.0 -0.0 1.0
vn 0.0 -0.0 1.0
vn 0.0 -0.0 1.0
vn 0.0 0.0 1.0
vn 0.0 -0.0 1.0
vn 0.0 -0.0 1.0
vn 0.0 0.0 1.0
vn 0.0 0.0 1.0
vn 0.0 0.0 1.0
vn 0.0 0.0 1.0
vn 0.0 0.0 1.0
f 1//1 2//1 3//1 
f 1//2 3//2 4//2 
f 4//3 3//3 5//3 
f 4//4 5//4 6//4 
f 6//5 5//5 7//5 
f 6//6 7//6 8//6 
f 8//7 7//7 9//7 
f 8//8 9//8 10//8 
f 10//9 9//9 11//9 
f 10//10 11//10 12//10 
f 12//11 11//11 13//11 
f 12//12 13//12 14//12 
f 14//13 13//13 15//13 
f 14//14 15//14 16//14 
f 16//15 15//15 17//15 
f 16//16 17//16 18//16 
f 18//17 17//17 19//17 
f 18//18 19//18 20//18 
f 20//19 19//19 21//19 
f 20//20 21//20 22//20 
f 22//21 21//21 23//21 
f 22//22 23//22 24//22 
f 24//23 23//23 25//23 
f 24//24 25//24 26//24 
f 26//25 25//25 27//25 
f 26//26 27//26 28//26 
f 28//27 27//27 29//27 
f 28//28 29//28 30//28 
f 30//29 29//29 31//29 
f 30//30 31//30 32//30 
f 32//31 31//31 33//31 
f 32//32 33//32 34//32 
f 34//33 33//33 35//33 
f 34//34 35//34 36//34 
f 36//35 35//35 37//35 
f 36//36 37//36 38//36 
f 38//37 37//37 39//37 
f 38//38 39//38 40//38 
f 40//39 39//39 41//39 
f 40//40 41//40 42//40 
f 43//41 44//41 45//41 
f 43//42 45//42 46//42 
f 47//43 45//43 48//43 
f 46//44 45//44 47//44 
f 47//45 48//45 49//45 
f 47//46 49//46 50//46 
f 51//47 49//47 52//47 
f 50//48 49//48 51//48 
f 51//49 52//49 53//49 
f 51//50 53//50 54//50 
f 55//51 53//51 56//51 
f 54//52 53//52 55//52 
f 55//53 56//53 57//53 
f 55//54 57//54 58//54 
f 59//55 57//55 60//55 
f 58//56 57//56 59//56 
f 59//57 60//57 61//57 
f 59//58 61//58 62//58 
f 62//59 61//59 2//59 
f 62//60 2//60 1//60 
f 42//61 41//61 63//61 
f 42//62 63//62 64//62 
f 64//63 63//63 44//63 
f 64//64 44//64 43//64 
f 46//65 47//65 50//65 
f 51//66 46//66 50//66 
f 64//67 43//67 46//67 
f 64//68 46//68 51//68 
f 42//69 64//69 51//69 
f 36//70 42//70 51//70 
f 38//71 40//71 42//71 
f 38//72 42//72 36//72 
f 34//73 36//73 51//73 
f 28//74 32//74 34//74 
f 30//75 32//75 28//75 
f 22//76 24//76 26//76 
f 22//77 26//77 20//77 
f 54//78 55//78 58//78 
f 59//79 54//79 58//79 
f 18//80 20//80 54//80 
f 12//81 18//81 54//81 
f 14//82 16//82 18//82 
f 14//83 18//83 12//83 
f 10//84 12//84 54//84 
f 4//85 8//85 10//85 
f 4//86 10//86 54//86 
f 6//87 8//87 4//87 
f 1//88 59//88 62//88 
f 1//89 54//89 59//89 
f 1//90 4//90 54//90 
f 51//91 54//91 34//91 
f 34//92 54//92 28//92 
f 28//93 54//93 26//93 
f 26//94 54//94 20//94 
f 53//95 60//95 57//95 
f 53//96 57//96 56//96 
f 2//97 61//97 60//97 
f 2//98 60//98 53//98 
f 3//99 2//99 53//99 
f 9//100 3//100 53//100 
f 7//101 5//101 3//101 
f 7//102 3//102 9//102 
f 11//103 9//103 53//103 
f 17//104 11//104 53//104 
f 15//105 13//105 11//105 
f 15//106 11//106 17//106 
f 19//107 17//107 53//107 
f 21//108 19//108 25//108 
f 23//109 21//109 25//109 
f 31//110 29//110 27//110 
f 31//111 27//111 33//111 
f 45//112 52//112 49//112 
f 45//113 49//113 48//113 
f 35//114 33//114 52//114 
f 41//115 37//115 35//115 
f 41//116 35//116 52//116 
f 39//117 37//117 41//117 
f 63//118 45//118 44//118 
f 63//119 52//119 45//119 
f 63//120 41//120 52//120 
f 53//121 52//121 33//121 
f 53//122 33//122 27//122 
f 53//123 27//123 25//123 
f 53//124 25//124 19//124 
f 65//125 66//125 67//125 
f 65//126 67//126 68//126 
f 68//127 67//127 69//127 
f 68//128 69//128 70//128 
f 70//129 69//129 71//129 
f 70//130 71//130 72//130 
f 72//131 71//131 73//131 
f 72//132 73//132 74//132 
f 74//133 73//133 75//133 
f 74//134 75//134 76//134 
f 77//135 75//135 78//135 
f 76//136 75//136 77//136 
f 77//137 78//137 79//137 
f 77//138 79//138 80//138 
f 81//139 79//139 82//139 
f 80//140 79//140 81//140 
f 81//141 82//141 83//141 
f 81//142 83//142 84//142 
f 85//143 83//143 86//143 
f 84//144 83//144 85//144 
f 85//145 86//145 87//145 
f 85//146 87//146 88//146 
f 89//147 87//147 90//147 
f 88//148 87//148 89//148 
f 89//149 90//149 91//149 
f 89//150 91//150 92//150 
f 92//151 91//151 93//151 
f 92//152 93//152 94//152 
f 94//153 93//153 95//153 
f 94//154 95//154 96//154 
f 96//155 95//155 97//155 
f 96//156 97//156 98//156 
f 98//157 97//157 99//157 
f 98//158 99//158 100//158 
f 100//159 99//159 101//159 
f 100//160 101//160 102//160 
f 102//161 101//161 103//161 
f 102//162 103//162 104//162 
f 104//163 103//163 105//163 
f 104//164 105//164 106//164 
f 107//165 108//165 109//165 
f 107//166 109//166 110//166 
f 110//167 109//167 111//167 
f 110//168 111//168 112//168 
f 113//169 114//169 115//169 
f 113//170 115//170 116//170 
f 117//171 115//171 118//171 
f 116//172 115//172 117//172 
f 117//173 118//173 119//173 
f 117//174 119//174 120//174 
f 121//175 119//175 122//175 
f 120//176 119//176 121//176 
f 121//177 122//177 123//177 
f 121//178 123//178 124//178 
f 124//179 123//179 125//179 
f 124//180 125//180 126//180 
f 126//181 125//181 108//181 
f 126//182 108//182 107//182 
f 112//183 111//183 66//183 
f 112//184 66//184 65//184 
f 106//185 105//185 127//185 
f 106//186 127//186 128//186 
f 128//187 127//187 114//187 
f 128//188 114//188 113//188 
f 102//189 104//189 106//189 
f 100//190 102//190 106//190 
f 92//191 94//191 96//191 
f 92//192 96//192 98//192 
f 116//193 128//193 113//193 
f 121//194 98//194 100//194 
f 121//195 106//195 128//195 
f 121//196 100//196 106//196 
f 121//197 92//197 98//197 
f 121//198 128//198 116//198 
f 120//199 116//199 117//199 
f 120//200 121//200 116//200 
f 89//201 85//201 88//201 
f 89//202 92//202 121//202 
f 84//203 85//203 89//203 
f 76//204 77//204 80//204 
f 76//205 80//205 81//205 
f 68//206 70//206 72//206 
f 68//207 72//207 74//207 
f 124//208 65//208 68//208 
f 124//209 74//209 76//209 
f 124//210 68//210 74//210 
f 110//211 65//211 124//211 
f 112//212 65//212 110//212 
f 107//213 124//213 126//213 
f 107//214 110//214 124//214 
f 121//215 124//215 89//215 
f 89//216 124//216 84//216 
f 84//217 124//217 81//217 
f 81//218 124//218 76//218 
f 115//219 119//219 118//219 
f 122//220 119//220 115//220 
f 127//221 115//221 114//221 
f 127//222 122//222 115//222 
f 105//223 122//223 127//223 
f 99//224 122//224 105//224 
f 101//225 105//225 103//225 
f 101//226 99//226 105//226 
f 97//227 122//227 99//227 
f 91//228 122//228 97//228 
f 93//229 97//229 95//229 
f 93//230 91//230 97//230 
f 90//231 122//231 91//231 
f 86//232 90//232 87//232 
f 86//233 83//233 90//233 
f 78//234 82//234 79//234 
f 78//235 75//235 82//235 
f 109//236 125//236 123//236 
f 109//237 108//237 125//237 
f 73//238 123//238 75//238 
f 67//239 123//239 73//239 
f 69//240 73//240 71//240 
f 69//241 67//241 73//241 
f 66//242 111//242 109//242 
f 66//243 109//243 123//243 
f 66//244 123//244 67//244 
f 123//245 122//245 90//245 
f 123//246 90//246 83//246 
f 123//247 83//247 82//247 
f 123//248 82//248 75//248 
f 129//249 130//249 131//249 
f 129//250 131//250 132//250 
f 132//251 131//251 133//251 
f 132//252 133//252 134//252 
f 134//253 133//253 135//253 
f 134//254 135//254 136//254 
f 136//255 135//255 137//255 
f 136//256 137//256 138//256 
f 138//257 137//257 139//257 
f 138//258 139//258 140//258 
f 140//259 139//259 141//259 
f 140//260 141//260 142//260 
f 142//261 141//261 143//261 
f 142//262 143//262 144//262 
f 144//263 143//263 145//263 
f 144//264 145//264 146//264 
f 146//265 145//265 147//265 
f 146//266 147//266 148//266 
f 148//267 147//267 149//267 
f 148//268 149//268 150//268 
f 150//269 149//269 151//269 
f 150//270 151//270 152//270 
f 152//271 151//271 153//271 
f 152//272 153//272 154//272 
f 154//273 153//273 155//273 
f 154//274 155//274 156//274 
f 156//275 155//275 157//275 
f 156//276 157//276 158//276 
f 159//277 157//277 160//277 
f 158//278 157//278 159//278 
f 159//279 160//279 161//279 
f 159//280 161//280 162//280 
f 163//281 164//281 165//281 
f 163//282 165//282 166//282 
f 166//283 165//283 167//283 
f 166//284 167//284 168//284 
f 169//285 170//285 171//285 
f 169//286 171//286 172//286 
f 173//287 171//287 174//287 
f 172//288 171//288 173//288 
f 173//289 174//289 175//289 
f 173//290 175//290 176//290 
f 177//291 175//291 178//291 
f 176//292 175//292 177//292 
f 177//293 178//293 179//293 
f 177//294 179//294 180//294 
f 180//295 179//295 181//295 
f 180//296 181//296 182//296 
f 182//297 181//297 164//297 
f 182//298 164//298 163//298 
f 167//299 130//299 129//299 
f 168//300 167//300 129//300 
f 162//301 161//301 183//301 
f 162//302 183//302 184//302 
f 184//303 183//303 170//303 
f 184//304 170//304 169//304 
f 156//305 158//305 159//305 
f 156//306 159//306 162//306 
f 172//307 184//307 169//307 
f 177//308 162//308 184//308 
f 177//309 156//309 162//309 
f 177//310 184//310 172//310 
f 176//311 172//311 173//311 
f 176//312 177//312 172//312 
f 154//313 156//313 177//313 
f 148//314 150//314 152//314 
f 148//315 152//315 154//315 
f 140//316 142//316 144//316 
f 140//317 144//317 146//317 
f 132//318 134//318 136//318 
f 132//319 136//319 138//319 
f 180//320 129//320 132//320 
f 180//321 138//321 140//321 
f 180//322 132//322 138//322 
f 166//323 129//323 180//323 
f 168//324 129//324 166//324 
f 163//325 180//325 182//325 
f 163//326 166//326 180//326 
f 177//327 180//327 140//327 
f 177//328 140//328 146//328 
f 177//329 146//329 148//329 
f 177//330 148//330 154//330 
f 171//331 175//331 174//331 
f 178//332 175//332 171//332 
f 183//333 171//333 170//333 
f 183//334 178//334 171//334 
f 161//335 178//335 183//335 
f 155//336 161//336 160//336 
f 155//337 178//337 161//337 
f 157//338 155//338 160//338 
f 153//339 178//339 155//339 
f 147//340 153//340 151//340 
f 149//341 147//341 151//341 
f 139//342 145//342 143//342 
f 141//343 139//343 143//343 
f 165//344 181//344 179//344 
f 165//345 164//345 181//345 
f 137//346 179//346 139//346 
f 131//347 179//347 137//347 
f 133//348 137//348 135//348 
f 133//349 131//349 137//349 
f 130//350 167//350 165//350 
f 130//351 165//351 179//351 
f 130//352 179//352 131//352 
f 179//353 178//353 153//353 
f 179//354 153//354 147//354 
f 179//355 147//355 145//355 
f 179//356 145//356 139//356 
f 185//357 186//357 187//357 
f 185//358 187//358 188//358 
f 188//359 187//359 189//359 
f 188//360 189//360 190//360 
f 190//361 189//361 191//361 
f 190//362 191//362 192//362 
f 192//363 191//363 193//363 
f 192//364 193//364 194//364 
f 194//365 193//365 195//365 
f 194//366 195//366 196//366 
f 196//367 195//367 197//367 
f 196//368 197//368 198//368 
f 198//369 197//369 199//369 
f 198//370 199//370 200//370 
f 200//371 199//371 201//371 
f 200//372 201//372 202//372 
f 202//373 201//373 203//373 
f 202//374 203//374 204//374 
f 204//375 203//375 205//375 
f 204//376 205//376 206//376 
f 206//377 205//377 207//377 
f 206//378 207//378 208//378 
f 208//379 207//379 209//379 
f 208//380 209//380 210//380 
f 210//381 209//381 211//381 
f 210//382 211//382 212//382 
f 212//383 211//383 213//383 
f 212//384 213//384 214//384 
f 214//385 213//385 215//385 
f 214//386 215//386 216//386 
f 216//387 215//387 217//387 
f 216//388 217//388 218//388 
f 219//389 220//389 221//389 
f 219//390 221//390 222//390 
f 222//391 221//391 223//391 
f 222//392 223//392 224//392 
f 225//393 226//393 227//393 
f 225//394 227//394 228//394 
f 229//395 227//395 230//395 
f 228//396 227//396 229//396 
f 229//397 230//397 231//397 
f 229//398 231//398 232//398 
f 233//399 231//399 234//399 
f 232//400 231//400 233//400 
f 233//401 234//401 235//401 
f 233//402 235//402 236//402 
f 236//403 235//403 237//403 
f 236//404 237//404 238//404 
f 238//405 237//405 220//405 
f 238//406 220//406 219//406 
f 223//407 186//407 185//407 
f 224//408 223//408 185//408 
f 218//409 217//409 239//409 
f 218//410 239//410 240//410 
f 240//411 239//411 226//411 
f 240//412 226//412 225//412 
f 214//413 216//413 218//413 
f 212//414 214//414 218//414 
f 228//415 240//415 225//415 
f 233//416 218//416 240//416 
f 233//417 212//417 218//417 
f 233//418 240//418 228//418 
f 232//419 228//419 229//419 
f 232//420 233//420 228//420 
f 210//421 212//421 233//421 
f 204//422 206//422 208//422 
f 204//423 208//423 210//423 
f 196//424 198//424 200//424 
f 196//425 200//425 202//425 
f 194//426 190//426 192//426 
f 188//427 190//427 194//427 
f 236//428 185//428 188//428 
f 236//429 194//429 196//429 
f 236//430 188//430 194//430 
f 222//431 185//431 236//431 
f 224//432 185//432 222//432 
f 219//433 236//433 238//433 
f 219//434 222//434 236//434 
f 233//435 236//435 196//435 
f 233//436 196//436 202//436 
f 233//437 202//437 204//437 
f 233//438 204//438 210//438 
f 227//439 231//439 230//439 
f 234//440 231//440 227//440 
f 239//441 227//441 226//441 
f 239//442 234//442 227//442 
f 217//443 234//443 239//443 
f 211//444 234//444 217//444 
f 213//445 217//445 215//445 
f 213//446 211//446 217//446 
f 209//447 234//447 211//447 
f 205//448 209//448 207//448 
f 205//449 203//449 209//449 
f 195//450 201//450 199//450 
f 197//451 195//451 199//451 
f 221//452 237//452 235//452 
f 221//453 220//453 237//453 
f 193//454 235//454 195//454 
f 187//455 235//455 193//455 
f 189//456 193//456 191//456 
f 189//457 187//457 193//457 
f 186//458 223//458 221//458 
f 186//459 221//459 235//459 
f 186//460 235//460 187//460 
f 235//461 234//461 209//461 
f 235//462 209//462 203//462 
f 235//463 203//463 201//463 
f 235//464 201//464 195//464 
f 241//465 242//465 243//465 
f 241//466 243//466 244//466 
f 244//467 243//467 245//467 
f 244//468 245//468 246//468 
f 246//469 245//469 247//469 
f 246//470 247//470 248//470 
f 249//471 247//471 250//471 
f 248//472 247//472 249//472 
f 249//473 250//473 251//473 
f 249//474 251//474 252//474 
f 252//475 251//475 253//475 
f 252//476 253//476 254//476 
f 254//477 253//477 255//477 
f 254//478 255//478 256//478 
f 257//479 255//479 258//479 
f 256//480 255//480 257//480 
f 257//481 258//481 259//481 
f 257//482 259//482 260//482 
f 260//483 259//483 261//483 
f 260//484 261//484 262//484 
f 262//485 261//485 263//485 
f 262//486 263//486 264//486 
f 265//487 263//487 266//487 
f 264//488 263//488 265//488 
f 265//489 266//489 267//489 
f 265//490 267//490 268//490 
f 268//491 267//491 269//491 
f 268//492 269//492 270//492 
f 270//493 269//493 271//493 
f 270//494 271//494 272//494 
f 273//495 271//495 274//495 
f 272//496 271//496 273//496 
f 275//497 276//497 277//497 
f 275//498 277//498 278//498 
f 278//499 277//499 279//499 
f 278//500 279//500 280//500 
f 280//501 279//501 281//501 
f 280//502 281//502 282//502 
f 283//503 281//503 284//503 
f 282//504 281//504 283//504 
f 283//505 284//505 285//505 
f 283//506 285//506 286//506 
f 286//507 285//507 287//507 
f 286//508 287//508 288//508 
f 288//509 287//509 289//509 
f 288//510 289//510 290//510 
f 291//511 289//511 292//511 
f 290//512 289//512 291//512 
f 291//513 292//513 293//513 
f 291//514 293//514 294//514 
f 293//515 242//515 241//515 
f 294//516 293//516 241//516 
f 273//517 274//517 295//517 
f 273//518 295//518 296//518 
f 296//519 295//519 276//519 
f 296//520 276//520 275//520 
f 278//521 280//521 282//521 
f 283//522 278//522 282//522 
f 296//523 275//523 278//523 
f 296//524 278//524 283//524 
f 273//525 296//525 283//525 
f 268//526 272//526 273//526 
f 268//527 273//527 283//527 
f 270//528 272//528 268//528 
f 265//529 268//529 283//529 
f 264//530 265//530 260//530 
f 262//531 264//531 260//531 
f 254//532 256//532 257//532 
f 254//533 257//533 252//533 
f 291//534 286//534 288//534 
f 291//535 288//535 290//535 
f 249//536 252//536 286//536 
f 244//537 248//537 249//537 
f 244//538 291//538 294//538 
f 244//539 286//539 291//539 
f 244//540 249//540 286//540 
f 241//541 244//541 294//541 
f 246//542 248//542 244//542 
f 283//543 286//543 252//543 
f 283//544 252//544 257//544 
f 283//545 257//545 260//545 
f 283//546 260//546 265//546 
f 285//547 292//547 289//547 
f 285//548 289//548 287//548 
f 243//549 293//549 292//549 
f 243//550 242//550 293//550 
f 243//551 292//551 285//551 
f 250//552 243//552 285//552 
f 247//553 245//553 243//553 
f 247//554 243//554 250//554 
f 251//555 250//555 285//555 
f 255//556 253//556 251//556 
f 255//557 251//557 258//557 
f 263//558 261//558 259//558 
f 263//559 259//559 266//559 
f 277//560 284//560 281//560 
f 277//561 281//561 279//561 
f 267//562 266//562 284//562 
f 274//563 267//563 284//563 
f 271//564 269//564 267//564 
f 271//565 267//565 274//565 
f 295//566 277//566 276//566 
f 295//567 284//567 277//567 
f 295//568 274//568 284//568 
f 285//569 284//569 251//569 
f 251//570 284//570 258//570 
f 258//571 284//571 259//571 
f 259//572 284//572 266//572 
f 297//573 298//573 299//573 
f 300//574 297//574 299//574 
f 299//575 298//575 301//575 
f 299//576 301//576 302//576 
f 302//577 301//577 303//577 
f 302//578 303//578 304//578 
f 305//579 303//579 306//579 
f 304//580 303//580 305//580 
f 306//581 307//581 308//581 
f 305//582 306//582 308//582 
f 308//583 307//583 309//583 
f 308//584 309//584 310//584 
f 310//585 309//585 311//585 
f 310//586 311//586 312//586 
f 313//587 311//587 314//587 
f 312//588 311//588 313//588 
f 314//589 315//589 316//589 
f 313//590 314//590 316//590 
f 316//591 315//591 317//591 
f 316//592 317//592 318//592 
f 318//593 317//593 319//593 
f 318//594 319//594 320//594 
f 321//595 319//595 322//595 
f 320//596 319//596 321//596 
f 321//597 322//597 323//597 
f 321//598 323//598 324//598 
f 324//599 323//599 325//599 
f 324//600 325//600 326//600 
f 326//601 325//601 327//601 
f 326//602 327//602 328//602 
f 329//603 327//603 330//603 
f 328//604 327//604 329//604 
f 331//605 332//605 333//605 
f 331//606 333//606 334//606 
f 335//607 333//607 336//607 
f 334//608 333//608 335//608 
f 337//609 338//609 339//609 
f 340//610 338//610 337//610 
f 341//611 339//611 342//611 
f 337//612 339//612 341//612 
f 341//613 342//613 343//613 
f 341//614 343//614 344//614 
f 344//615 343//615 345//615 
f 344//616 345//616 346//616 
f 345//617 347//617 348//617 
f 346//618 345//618 348//618 
f 349//619 347//619 350//619 
f 348//620 347//620 349//620 
f 349//621 350//621 332//621 
f 349//622 332//622 331//622 
f 336//623 297//623 300//623 
f 335//624 336//624 300//624 
f 329//625 330//625 351//625 
f 329//626 351//626 352//626 
f 352//627 351//627 338//627 
f 352//628 338//628 340//628 
f 324//629 326//629 328//629 
f 324//630 328//630 329//630 
f 316//631 318//631 320//631 
f 316//632 320//632 321//632 
f 340//633 329//633 352//633 
f 337//634 329//634 340//634 
f 346//635 321//635 324//635 
f 346//636 324//636 329//636 
f 346//637 316//637 321//637 
f 346//638 329//638 337//638 
f 344//639 337//639 341//639 
f 344//640 346//640 337//640 
f 308//641 310//641 312//641 
f 308//642 312//642 313//642 
f 299//643 302//643 304//643 
f 299//644 304//644 305//644 
f 348//645 300//645 299//645 
f 348//646 305//646 308//646 
f 348//647 299//647 305//647 
f 334//648 300//648 348//648 
f 335//649 300//649 334//649 
f 331//650 348//650 349//650 
f 331//651 334//651 348//651 
f 346//652 348//652 308//652 
f 346//653 308//653 313//653 
f 346//654 313//654 316//654 
f 345//655 343//655 342//655 
f 345//656 342//656 339//656 
f 330//657 339//657 338//657 
f 330//658 338//658 351//658 
f 330//659 345//659 339//659 
f 323//660 330//660 327//660 
f 323//661 345//661 330//661 
f 325//662 323//662 327//662 
f 322//663 345//663 323//663 
f 315//664 345//664 322//664 
f 319//665 315//665 322//665 
f 317//666 315//666 319//666 
f 309//667 314//667 311//667 
f 309//668 307//668 314//668 
f 333//669 350//669 347//669 
f 333//670 332//670 350//670 
f 306//671 347//671 307//671 
f 298//672 347//672 306//672 
f 301//673 306//673 303//673 
f 301//674 298//674 306//674 
f 297//675 336//675 333//675 
f 297//676 333//676 347//676 
f 297//677 347//677 298//677 
f 347//678 345//678 307//678 
f 307//679 345//679 314//679 
f 314//680 345//680 315//680 
