# FreeCAD v1.0 build0 Arch module
# https://www.freecad.org
mtllib CATWALK.mtl
o HSC_1500HLX_CATWALK_WK_000_1-1500HLX_CATWALK_WK006 (Meshed)
usemtl color_cccce6
v 2480.0 -2340.0 126.0
v 540.0 -2340.0 126.0
v 540.0 -2340.0 66.0
v 2480.0 -2340.0 66.0
v 2456.5 -1750.0 66.0
v 2456.5 -1750.0 126.0
v 2456.5 -1780.0 126.0
v 2456.5 -1780.0 66.0
v 2480.0 -1780.0 126.0
v 2480.0 -1780.0 66.0
v 540.0 -1780.0 66.0
v 540.0 -1780.0 126.0
v 563.5 -1780.0 126.0
v 563.5 -1780.0 66.0
v 563.5 -1750.0 126.0
v 563.5 -1750.0 66.0
v 575.5 -1750.0 126.0
v 575.5 -1750.0 66.0
v 575.5 -1780.0 126.0
v 575.5 -1780.0 66.0
v 2444.5 -1780.0 126.0
v 2444.5 -1780.0 66.0
v 2444.5 -1750.0 126.0
v 2444.5 -1750.0 66.0
v -3541.0 1400.0 66.0
v -3541.0 1400.0 126.0
v -3541.0 1480.0 126.0
v -3541.0 1480.0 66.0
v -3564.5 1480.0 66.0
v -3564.5 1480.0 126.0
v -1704.0 1480.0 66.0
v -1680.5 1480.0 126.0
v -1704.0 1480.0 126.0
v -1680.5 1480.0 66.0
v -1704.0 1400.0 126.0
v -1704.0 1400.0 66.0
v -1719.0 1400.0 126.0
v -1719.0 1400.0 66.0
v -1719.0 1480.0 126.0
v -1719.0 1480.0 66.0
v -3529.0 1480.0 126.0
v -3529.0 1480.0 66.0
v -3529.0 1400.0 126.0
v -3529.0 1400.0 66.0
v -3564.5 2000.0 126.0
v -3564.5 2000.0 66.0
v -1680.5 2000.0 126.0
v -1680.5 2000.0 66.0
v -1664.5 2000.0 126.0
v 219.5 2000.0 126.0
v 219.5 2000.0 66.0
v -1664.5 2000.0 66.0
v -1641.0 1400.0 66.0
v -1641.0 1400.0 126.0
v -1641.0 1480.0 126.0
v -1641.0 1480.0 66.0
v -1664.5 1480.0 126.0
v -1664.5 1480.0 66.0
v 219.5 1480.0 66.0
v 219.5 1480.0 126.0
v 196.0 1480.0 126.0
v 196.0 1480.0 66.0
v 196.0 1400.0 126.0
v 196.0 1400.0 66.0
v 181.0 1400.0 126.0
v 181.0 1400.0 66.0
v 181.0 1480.0 126.0
v 181.0 1480.0 66.0
v -1629.0 1480.0 126.0
v -1629.0 1480.0 66.0
v -1629.0 1400.0 126.0
v -1629.0 1400.0 66.0
v 235.5 2000.0 65.0
v 235.5 2000.0 125.0
v 2119.5 2000.0 125.0
v 2119.5 2000.0 65.0
v 259.0 1400.0 65.0
v 259.0 1400.0 125.0
v 259.0 1480.0 125.0
v 259.0 1480.0 65.0
v 235.5 1480.0 125.0
v 235.5 1480.0 65.0
v 2096.0 1480.0 65.0
v 2119.5 1480.0 125.0
v 2096.0 1480.0 125.0
v 2119.5 1480.0 65.0
v 2096.0 1400.0 125.0
v 2096.0 1400.0 65.0
v 2081.0 1400.0 125.0
v 2081.0 1400.0 65.0
v 2081.0 1480.0 125.0
v 2081.0 1480.0 65.0
v 271.0 1480.0 125.0
v 271.0 1480.0 65.0
v 271.0 1400.0 125.0
v 271.0 1400.0 65.0
v -1622.5 -2190.0 66.0
v -1622.5 -2190.0 126.0
v -3564.5 -2190.0 126.0
v -3564.5 -2190.0 66.0
v -3564.5 -1670.0 66.0
v -3564.5 -1670.0 126.0
v -3541.0 -1670.0 126.0
v -3541.0 -1670.0 66.0
v -3541.0 -1590.0 126.0
v -3541.0 -1590.0 66.0
v -3529.0 -1590.0 126.0
v -3529.0 -1590.0 66.0
v -3529.0 -1670.0 126.0
v -3529.0 -1670.0 66.0
v -1658.0 -1670.0 126.0
v -1658.0 -1670.0 66.0
v -1658.0 -1590.0 126.0
v -1658.0 -1590.0 66.0
v -1646.0 -1590.0 126.0
v -1646.0 -1590.0 66.0
v -1646.0 -1670.0 126.0
v -1646.0 -1670.0 66.0
v -1622.5 -1670.0 126.0
v -1622.5 -1670.0 66.0
v 524.0 -2190.0 66.0
v 524.0 -2190.0 126.0
v -1606.0 -2190.0 126.0
v -1606.0 -2190.0 66.0
v 386.0 -1670.0 66.0
v 386.0 -1670.0 126.0
v 524.0 -1670.0 126.0
v 524.0 -1670.0 66.0
v 386.0 -1590.0 126.0
v 386.0 -1590.0 66.0
v 374.0 -1590.0 66.0
v 374.0 -1590.0 126.0
v 374.0 -1670.0 126.0
v 374.0 -1670.0 66.0
v -1570.5 -1670.0 66.0
v -1570.5 -1670.0 126.0
v -1570.5 -1590.0 66.0
v -1570.5 -1590.0 126.0
v -1582.5 -1590.0 66.0
v -1582.5 -1590.0 126.0
v -1582.5 -1670.0 66.0
v -1582.5 -1670.0 126.0
v -1606.0 -1670.0 66.0
v -1606.0 -1670.0 126.0
vn -0.0 -1.0 0.0
vn 0.0 -1.0 0.0
vn 1.0 0.0 -0.0
vn 1.0 0.0 0.0
vn 0.0 1.0 0.0
vn 0.0 1.0 0.0
vn 0.0 1.0 0.0
vn 0.0 1.0 0.0
vn -1.0 0.0 0.0
vn -1.0 0.0 0.0
vn 0.0 1.0 0.0
vn 0.0 1.0 0.0
vn 1.0 0.0 -0.0
vn 1.0 0.0 0.0
vn 0.0 1.0 0.0
vn 0.0 1.0 0.0
vn -1.0 0.0 0.0
vn -1.0 0.0 0.0
vn 0.0 1.0 0.0
vn 0.0 1.0 0.0
vn 1.0 0.0 -0.0
vn 1.0 0.0 0.0
vn -1.0 0.0 0.0
vn -1.0 0.0 0.0
vn 0.0 -0.0 1.0
vn 0.0 0.0 1.0
vn 0.0 0.0 1.0
vn 0.0 0.0 1.0
vn 0.0 0.0 1.0
vn 0.0 0.0 1.0
vn 0.0 -0.0 1.0
vn 0.0 -0.0 1.0
vn 0.0 0.0 1.0
vn 0.0 0.0 1.0
vn -0.0 0.0 -1.0
vn -0.0 0.0 -1.0
vn -0.0 0.0 -1.0
vn 0.0 -0.0 -1.0
vn 0.0 -0.0 -1.0
vn -0.0 0.0 -1.0
vn -0.0 -0.0 -1.0
vn -0.0 -0.0 -1.0
vn -0.0 0.0 -1.0
vn 0.0 -0.0 -1.0
vn -1.0 0.0 0.0
vn -1.0 0.0 0.0
vn 0.0 -1.0 0.0
vn 0.0 -1.0 0.0
vn 0.0 -1.0 0.0
vn 0.0 -1.0 0.0
vn 1.0 0.0 -0.0
vn 1.0 0.0 0.0
vn 0.0 -1.0 0.0
vn 0.0 -1.0 0.0
vn -1.0 0.0 0.0
vn -1.0 0.0 0.0
vn 0.0 -1.0 0.0
vn 0.0 -1.0 0.0
vn 1.0 0.0 -0.0
vn 1.0 0.0 0.0
vn 0.0 -1.0 0.0
vn 0.0 -1.0 0.0
vn -1.0 0.0 0.0
vn -1.0 0.0 0.0
vn 0.0 1.0 0.0
vn 0.0 1.0 0.0
vn 1.0 0.0 -0.0
vn 1.0 0.0 0.0
vn 0.0 0.0 -1.0
vn 0.0 0.0 -1.0
vn 0.0 0.0 -1.0
vn 0.0 0.0 -1.0
vn 0.0 0.0 -1.0
vn 0.0 0.0 -1.0
vn 0.0 0.0 -1.0
vn 0.0 0.0 -1.0
vn 0.0 0.0 -1.0
vn 0.0 0.0 -1.0
vn 0.0 0.0 1.0
vn -0.0 0.0 1.0
vn 0.0 0.0 1.0
vn 0.0 0.0 1.0
vn -0.0 0.0 1.0
vn 0.0 0.0 1.0
vn 0.0 0.0 1.0
vn 0.0 0.0 1.0
vn -0.0 0.0 1.0
vn 0.0 0.0 1.0
vn -0.0 1.0 0.0
vn 0.0 1.0 0.0
vn -1.0 0.0 0.0
vn -1.0 0.0 0.0
vn 0.0 -1.0 0.0
vn 0.0 -1.0 0.0
vn 0.0 -1.0 0.0
vn 0.0 -1.0 0.0
vn 1.0 0.0 -0.0
vn 1.0 0.0 0.0
vn 0.0 -1.0 0.0
vn 0.0 -1.0 0.0
vn -1.0 0.0 0.0
vn -1.0 0.0 0.0
vn 0.0 -1.0 0.0
vn 0.0 -1.0 0.0
vn 1.0 0.0 -0.0
vn 1.0 0.0 0.0
vn 0.0 -1.0 0.0
vn 0.0 -1.0 0.0
vn -1.0 0.0 0.0
vn -1.0 0.0 0.0
vn 1.0 0.0 -0.0
vn 1.0 0.0 0.0
vn 0.0 0.0 -1.0
vn 0.0 0.0 -1.0
vn 0.0 0.0 -1.0
vn 0.0 0.0 -1.0
vn 0.0 0.0 -1.0
vn 0.0 0.0 -1.0
vn 0.0 0.0 -1.0
vn 0.0 0.0 -1.0
vn 0.0 0.0 -1.0
vn 0.0 0.0 -1.0
vn 0.0 0.0 1.0
vn -0.0 0.0 1.0
vn 0.0 0.0 1.0
vn 0.0 0.0 1.0
vn -0.0 0.0 1.0
vn 0.0 0.0 1.0
vn 0.0 0.0 1.0
vn 0.0 0.0 1.0
vn -0.0 0.0 1.0
vn 0.0 0.0 1.0
vn 0.0 1.0 0.0
vn 0.0 1.0 0.0
vn -1.0 0.0 0.0
vn -1.0 0.0 0.0
vn 0.0 -1.0 0.0
vn 0.0 -1.0 0.0
vn 0.0 -1.0 0.0
vn 0.0 -1.0 0.0
vn 1.0 0.0 -0.0
vn 1.0 0.0 0.0
vn 0.0 -1.0 0.0
vn 0.0 -1.0 0.0
vn -1.0 0.0 0.0
vn -1.0 0.0 0.0
vn 0.0 -1.0 0.0
vn 0.0 -1.0 0.0
vn 1.0 0.0 -0.0
vn 1.0 0.0 0.0
vn 0.0 -1.0 0.0
vn 0.0 -1.0 0.0
vn -1.0 0.0 0.0
vn -1.0 0.0 0.0
vn 1.0 0.0 -0.0
vn 1.0 0.0 0.0
vn 0.0 0.0 -1.0
vn 0.0 0.0 -1.0
vn 0.0 0.0 -1.0
vn 0.0 0.0 -1.0
vn 0.0 0.0 -1.0
vn 0.0 0.0 -1.0
vn 0.0 0.0 -1.0
vn 0.0 0.0 -1.0
vn 0.0 0.0 -1.0
vn 0.0 0.0 -1.0
vn 0.0 0.0 1.0
vn -0.0 0.0 1.0
vn 0.0 0.0 1.0
vn 0.0 0.0 1.0
vn -0.0 0.0 1.0
vn 0.0 0.0 1.0
vn 0.0 0.0 1.0
vn 0.0 0.0 1.0
vn -0.0 0.0 1.0
vn 0.0 0.0 1.0
vn 0.0 -1.0 0.0
vn 0.0 -1.0 0.0
vn 0.0 1.0 0.0
vn 0.0 1.0 0.0
vn -1.0 0.0 0.0
vn -1.0 0.0 0.0
vn 0.0 1.0 0.0
vn 0.0 1.0 0.0
vn 1.0 0.0 -0.0
vn 1.0 0.0 0.0
vn 0.0 1.0 0.0
vn 0.0 1.0 0.0
vn -1.0 0.0 0.0
vn -1.0 0.0 0.0
vn 0.0 1.0 0.0
vn 0.0 1.0 0.0
vn 1.0 0.0 -0.0
vn 1.0 0.0 0.0
vn 0.0 1.0 0.0
vn 0.0 1.0 0.0
vn 1.0 0.0 -0.0
vn 1.0 0.0 0.0
vn -1.0 0.0 0.0
vn -1.0 0.0 0.0
vn 0.0 0.0 -1.0
vn 0.0 0.0 -1.0
vn 0.0 0.0 -1.0
vn 0.0 0.0 -1.0
vn 0.0 0.0 -1.0
vn 0.0 0.0 -1.0
vn 0.0 0.0 -1.0
vn 0.0 0.0 -1.0
vn 0.0 0.0 -1.0
vn 0.0 0.0 -1.0
vn 0.0 0.0 1.0
vn 0.0 0.0 1.0
vn 0.0 -0.0 1.0
vn 0.0 0.0 1.0
vn 0.0 0.0 1.0
vn 0.0 0.0 1.0
vn 0.0 0.0 1.0
vn 0.0 0.0 1.0
vn 0.0 0.0 1.0
vn 0.0 0.0 1.0
vn 0.0 -1.0 0.0
vn 0.0 -1.0 0.0
vn 0.0 1.0 0.0
vn 0.0 1.0 0.0
vn 1.0 0.0 0.0
vn 1.0 0.0 -0.0
vn 0.0 1.0 0.0
vn 0.0 1.0 0.0
vn -1.0 0.0 0.0
vn -1.0 0.0 0.0
vn 0.0 1.0 0.0
vn 0.0 1.0 0.0
vn 1.0 0.0 -0.0
vn 1.0 0.0 0.0
vn 0.0 1.0 0.0
vn 0.0 1.0 0.0
vn -1.0 0.0 0.0
vn -1.0 0.0 0.0
vn 0.0 1.0 0.0
vn 0.0 1.0 0.0
vn -1.0 0.0 0.0
vn -1.0 0.0 0.0
vn 1.0 0.0 -0.0
vn 1.0 0.0 0.0
vn 0.0 -0.0 1.0
vn 0.0 0.0 1.0
vn 0.0 0.0 1.0
vn 0.0 0.0 1.0
vn 0.0 0.0 1.0
vn 0.0 0.0 1.0
vn 0.0 -0.0 1.0
vn 0.0 -0.0 1.0
vn 0.0 0.0 1.0
vn 0.0 0.0 1.0
vn -0.0 0.0 -1.0
vn -0.0 0.0 -1.0
vn 0.0 0.0 -1.0
vn -0.0 -0.0 -1.0
vn 0.0 -0.0 -1.0
vn -0.0 0.0 -1.0
vn -0.0 -0.0 -1.0
vn -0.0 0.0 -1.0
vn 0.0 -0.0 -1.0
vn -0.0 -0.0 -1.0
f 1//1 2//1 3//1 
f 4//2 1//2 3//2 
f 5//3 6//3 7//3 
f 5//4 7//4 8//4 
f 8//5 7//5 9//5 
f 8//6 9//6 10//6 
f 11//7 12//7 13//7 
f 11//8 13//8 14//8 
f 14//9 13//9 15//9 
f 14//10 15//10 16//10 
f 16//11 15//11 17//11 
f 16//12 17//12 18//12 
f 18//13 17//13 19//13 
f 18//14 19//14 20//14 
f 20//15 19//15 21//15 
f 20//16 21//16 22//16 
f 22//17 21//17 23//17 
f 22//18 23//18 24//18 
f 24//19 23//19 6//19 
f 24//20 6//20 5//20 
f 10//21 9//21 1//21 
f 10//22 1//22 4//22 
f 3//23 2//23 12//23 
f 3//24 12//24 11//24 
f 19//25 17//25 15//25 
f 19//26 15//26 13//26 
f 2//27 13//27 12//27 
f 2//28 19//28 13//28 
f 21//29 19//29 2//29 
f 7//30 23//30 21//30 
f 7//31 6//31 23//31 
f 1//32 9//32 7//32 
f 1//33 7//33 21//33 
f 1//34 21//34 2//34 
f 14//35 3//35 11//35 
f 20//36 3//36 14//36 
f 18//37 14//37 16//37 
f 18//38 20//38 14//38 
f 22//39 4//39 3//39 
f 22//40 3//40 20//40 
f 8//41 4//41 22//41 
f 10//42 4//42 8//42 
f 5//43 22//43 24//43 
f 5//44 8//44 22//44 
f 25//45 26//45 27//45 
f 25//46 27//46 28//46 
f 29//47 27//47 30//47 
f 28//48 27//48 29//48 
f 31//49 32//49 33//49 
f 34//50 32//50 31//50 
f 31//51 33//51 35//51 
f 31//52 35//52 36//52 
f 36//53 35//53 37//53 
f 36//54 37//54 38//54 
f 38//55 37//55 39//55 
f 38//56 39//56 40//56 
f 40//57 39//57 41//57 
f 40//58 41//58 42//58 
f 42//59 41//59 43//59 
f 42//60 43//60 44//60 
f 25//61 43//61 26//61 
f 44//62 43//62 25//62 
f 29//63 30//63 45//63 
f 29//64 45//64 46//64 
f 46//65 45//65 47//65 
f 46//66 47//66 48//66 
f 48//67 47//67 32//67 
f 48//68 32//68 34//68 
f 31//69 48//69 34//69 
f 40//70 48//70 31//70 
f 38//71 31//71 36//71 
f 38//72 40//72 31//72 
f 46//73 48//73 40//73 
f 42//74 46//74 40//74 
f 28//75 46//75 42//75 
f 29//76 46//76 28//76 
f 44//77 28//77 42//77 
f 25//78 28//78 44//78 
f 33//79 37//79 35//79 
f 39//80 37//80 33//80 
f 47//81 33//81 32//81 
f 47//82 39//82 33//82 
f 27//83 43//83 41//83 
f 27//84 26//84 43//84 
f 45//85 41//85 39//85 
f 45//86 30//86 27//86 
f 45//87 39//87 47//87 
f 45//88 27//88 41//88 
f 49//89 50//89 51//89 
f 52//90 49//90 51//90 
f 53//91 54//91 55//91 
f 53//92 55//92 56//92 
f 56//93 55//93 57//93 
f 56//94 57//94 58//94 
f 59//95 60//95 61//95 
f 59//96 61//96 62//96 
f 62//97 61//97 63//97 
f 62//98 63//98 64//98 
f 64//99 63//99 65//99 
f 64//100 65//100 66//100 
f 66//101 65//101 67//101 
f 66//102 67//102 68//102 
f 68//103 67//103 69//103 
f 68//104 69//104 70//104 
f 70//105 69//105 71//105 
f 70//106 71//106 72//106 
f 72//107 71//107 54//107 
f 72//108 54//108 53//108 
f 58//109 57//109 49//109 
f 58//110 49//110 52//110 
f 51//111 50//111 60//111 
f 51//112 60//112 59//112 
f 62//113 51//113 59//113 
f 68//114 51//114 62//114 
f 64//115 68//115 62//115 
f 66//116 68//116 64//116 
f 52//117 51//117 68//117 
f 70//118 52//118 68//118 
f 56//119 52//119 70//119 
f 58//120 52//120 56//120 
f 72//121 56//121 70//121 
f 53//122 56//122 72//122 
f 67//123 65//123 63//123 
f 67//124 63//124 61//124 
f 50//125 61//125 60//125 
f 50//126 67//126 61//126 
f 55//127 71//127 69//127 
f 55//128 54//128 71//128 
f 49//129 69//129 67//129 
f 49//130 57//130 55//130 
f 49//131 67//131 50//131 
f 49//132 55//132 69//132 
f 73//133 74//133 75//133 
f 73//134 75//134 76//134 
f 77//135 78//135 79//135 
f 77//136 79//136 80//136 
f 80//137 79//137 81//137 
f 80//138 81//138 82//138 
f 83//139 84//139 85//139 
f 86//140 84//140 83//140 
f 83//141 85//141 87//141 
f 83//142 87//142 88//142 
f 88//143 87//143 89//143 
f 88//144 89//144 90//144 
f 90//145 89//145 91//145 
f 90//146 91//146 92//146 
f 92//147 91//147 93//147 
f 92//148 93//148 94//148 
f 94//149 93//149 95//149 
f 94//150 95//150 96//150 
f 96//151 95//151 78//151 
f 96//152 78//152 77//152 
f 82//153 81//153 74//153 
f 82//154 74//154 73//154 
f 76//155 75//155 84//155 
f 76//156 84//156 86//156 
f 83//157 76//157 86//157 
f 92//158 76//158 83//158 
f 90//159 83//159 88//159 
f 90//160 92//160 83//160 
f 73//161 76//161 92//161 
f 94//162 73//162 92//162 
f 80//163 73//163 94//163 
f 82//164 73//164 80//164 
f 77//165 94//165 96//165 
f 77//166 80//166 94//166 
f 91//167 89//167 87//167 
f 91//168 87//168 85//168 
f 75//169 85//169 84//169 
f 75//170 91//170 85//170 
f 79//171 95//171 93//171 
f 79//172 78//172 95//172 
f 74//173 93//173 91//173 
f 74//174 81//174 79//174 
f 74//175 91//175 75//175 
f 74//176 79//176 93//176 
f 97//177 98//177 99//177 
f 97//178 99//178 100//178 
f 101//179 102//179 103//179 
f 101//180 103//180 104//180 
f 104//181 103//181 105//181 
f 104//182 105//182 106//182 
f 106//183 105//183 107//183 
f 106//184 107//184 108//184 
f 108//185 107//185 109//185 
f 108//186 109//186 110//186 
f 110//187 109//187 111//187 
f 110//188 111//188 112//188 
f 112//189 111//189 113//189 
f 112//190 113//190 114//190 
f 114//191 113//191 115//191 
f 114//192 115//192 116//192 
f 116//193 115//193 117//193 
f 116//194 117//194 118//194 
f 118//195 117//195 119//195 
f 118//196 119//196 120//196 
f 120//197 119//197 98//197 
f 120//198 98//198 97//198 
f 100//199 99//199 102//199 
f 100//200 102//200 101//200 
f 104//201 106//201 108//201 
f 110//202 104//202 108//202 
f 100//203 101//203 104//203 
f 100//204 104//204 110//204 
f 112//205 114//205 116//205 
f 118//206 112//206 116//206 
f 97//207 110//207 112//207 
f 97//208 118//208 120//208 
f 97//209 100//209 110//209 
f 97//210 112//210 118//210 
f 111//211 117//211 115//211 
f 111//212 115//212 113//212 
f 98//213 119//213 117//213 
f 98//214 117//214 111//214 
f 103//215 109//215 107//215 
f 103//216 107//216 105//216 
f 99//217 111//217 109//217 
f 99//218 103//218 102//218 
f 99//219 98//219 111//219 
f 99//220 109//220 103//220 
f 121//221 122//221 123//221 
f 121//222 123//222 124//222 
f 125//223 126//223 127//223 
f 125//224 127//224 128//224 
f 129//225 126//225 125//225 
f 130//226 129//226 125//226 
f 131//227 132//227 129//227 
f 131//228 129//228 130//228 
f 133//229 132//229 131//229 
f 134//230 133//230 131//230 
f 135//231 136//231 133//231 
f 135//232 133//232 134//232 
f 137//233 138//233 136//233 
f 137//234 136//234 135//234 
f 139//235 140//235 138//235 
f 139//236 138//236 137//236 
f 141//237 142//237 140//237 
f 141//238 140//238 139//238 
f 143//239 144//239 142//239 
f 143//240 142//240 141//240 
f 124//241 123//241 144//241 
f 124//242 144//242 143//242 
f 128//243 127//243 122//243 
f 128//244 122//244 121//244 
f 136//245 138//245 140//245 
f 136//246 140//246 142//246 
f 123//247 142//247 144//247 
f 123//248 136//248 142//248 
f 133//249 129//249 132//249 
f 133//250 136//250 123//250 
f 126//251 129//251 133//251 
f 122//252 127//252 126//252 
f 122//253 133//253 123//253 
f 122//254 126//254 133//254 
f 141//255 124//255 143//255 
f 135//256 124//256 141//256 
f 139//257 135//257 141//257 
f 137//258 135//258 139//258 
f 134//259 121//259 124//259 
f 134//260 124//260 135//260 
f 125//261 121//261 134//261 
f 130//262 134//262 131//262 
f 130//263 125//263 134//263 
f 128//264 121//264 125//264 
