# FreeCAD v1.0 build0 Arch module
# https://www.freecad.org
mtllib WIRE.mtl
o COMPOUND094 (Meshed)
usemtl color_cccce6
v 13669.595703 -332.5 74419.492188
v -4007.94043 -332.5 6016.811035
v -4008.12085 -329.776672 6016.85791
v 13669.415039 -329.776672 74419.539062
v 13668.87793 -327.104065 74419.679688
v -4008.658447 -327.104065 6016.996582
v 13667.993164 -324.531982 74419.90625
v -4009.543457 -324.531982 6017.225586
v 13666.777344 -322.108307 74420.226562
v -4010.759277 -322.108307 6017.539551
v 13665.25293 -319.878235 74420.617188
v -4012.283447 -319.878235 6017.933594
v 13663.449219 -317.88327 74421.085938
v -4014.087402 -317.88327 6018.399902
v 13661.398438 -316.160614 74421.617188
v -4016.137451 -316.160614 6018.929688
v 13659.140625 -314.74231 74422.195312
v -4018.395508 -314.74231 6019.513184
v 13656.716797 -313.654785 74422.820312
v -4020.81958 -313.654785 6020.139648
v 13654.171875 -312.918304 74423.484375
v -4023.364502 -312.918304 6020.797363
v 13651.553711 -312.546631 74424.15625
v -4025.982666 -312.546631 6021.474121
v 13648.910156 -312.546631 74424.84375
v -4028.625732 -312.546631 6022.156738
v 13646.291992 -312.918304 74425.515625
v -4031.243896 -312.918304 6022.833496
v 13643.74707 -313.654785 74426.171875
v -4033.788818 -313.654785 6023.491211
v 13641.323242 -314.74231 74426.804688
v -4036.212891 -314.74231 6024.117676
v 13639.06543 -316.160614 74427.382812
v -4038.470947 -316.160614 6024.701172
v 13637.015625 -317.88327 74427.914062
v -4040.520996 -317.88327 6025.230957
v 13635.210938 -319.878235 74428.382812
v -4042.324951 -319.878235 6025.697266
v 13633.6875 -322.108307 74428.773438
v -4043.849121 -322.108307 6026.091309
v 13632.47168 -324.531982 74429.085938
v -4045.064941 -324.531982 6026.405273
v 13631.585938 -327.104065 74429.320312
v -4045.949951 -327.104065 6026.634277
v 13631.048828 -329.776672 74429.460938
v -4046.487549 -329.776672 6026.772949
v 13630.868164 -332.5 74429.507812
v -4046.667969 -332.5 6026.819824
v -4046.487549 -335.223328 6026.772949
v 13631.048828 -335.223328 74429.460938
v -4045.949951 -337.895935 6026.634277
v 13631.585938 -337.895935 74429.320312
v -4045.064941 -340.468018 6026.405273
v 13632.47168 -340.468018 74429.085938
v -4043.849121 -342.891693 6026.091309
v 13633.6875 -342.891693 74428.773438
v -4042.324951 -345.121765 6025.697266
v 13635.210938 -345.121765 74428.382812
v -4040.520996 -347.11673 6025.230957
v 13637.015625 -347.11673 74427.914062
v -4038.470947 -348.839386 6024.701172
v 13639.06543 -348.839386 74427.382812
v -4036.212891 -350.25769 6024.117676
v 13641.323242 -350.25769 74426.804688
v -4033.788818 -351.345215 6023.491211
v 13643.74707 -351.345215 74426.171875
v -4031.243896 -352.081696 6022.833496
v 13646.291992 -352.081696 74425.515625
v 13648.910156 -352.453369 74424.84375
v -4028.625732 -352.453369 6022.156738
v -4025.982666 -352.453369 6021.474121
v 13651.553711 -352.453369 74424.15625
v 13654.171875 -352.081696 74423.484375
v -4023.364502 -352.081696 6020.797363
v -4020.81958 -351.345215 6020.139648
v 13656.716797 -351.345215 74422.820312
v 13659.140625 -350.25769 74422.195312
v -4018.395508 -350.25769 6019.513184
v 13661.398438 -348.839386 74421.617188
v -4016.137451 -348.839386 6018.929688
v 13663.449219 -347.11673 74421.085938
v -4014.087402 -347.11673 6018.399902
v 13665.25293 -345.121765 74420.617188
v -4012.283447 -345.121765 6017.933594
v 13666.777344 -342.891693 74420.226562
v -4010.759277 -342.891693 6017.539551
v 13667.993164 -340.468018 74419.90625
v -4009.543457 -340.468018 6017.225586
v -4008.658447 -337.895935 6016.996582
v 13668.87793 -337.895935 74419.679688
v 13669.415039 -335.223328 74419.539062
v -4008.12085 -335.223328 6016.85791
v 13669.595703 502.5 74419.492188
v -4007.94043 502.5 6016.811035
v -4008.12085 505.223328 6016.85791
v 13669.415039 505.223328 74419.539062
v -4008.658447 507.895935 6016.996582
v 13668.87793 507.895935 74419.679688
v -4009.543457 510.468018 6017.225586
v 13667.993164 510.468018 74419.90625
v -4010.759277 512.891663 6017.539551
v 13666.777344 512.891663 74420.226562
v -4012.283447 515.121765 6017.933594
v 13665.25293 515.121765 74420.617188
v -4014.087402 517.116699 6018.399902
v 13663.449219 517.116699 74421.085938
v -4016.137451 518.839417 6018.929688
v 13661.398438 518.839417 74421.617188
v -4018.395508 520.25769 6019.513184
v 13659.140625 520.25769 74422.195312
v -4020.81958 521.345215 6020.139648
v 13656.716797 521.345215 74422.820312
v -4023.364502 522.081665 6020.797363
v 13654.171875 522.081665 74423.484375
v -4025.982666 522.453369 6021.474121
v 13651.553711 522.453369 74424.15625
v -4028.625732 522.453369 6022.156738
v 13648.910156 522.453369 74424.84375
v -4031.243896 522.081665 6022.833496
v 13646.291992 522.081665 74425.515625
v -4033.788818 521.345215 6023.491211
v 13643.74707 521.345215 74426.171875
v -4036.212891 520.25769 6024.117676
v 13641.323242 520.25769 74426.804688
v -4038.470947 518.839417 6024.701172
v 13639.06543 518.839417 74427.382812
v 13637.015625 517.116699 74427.914062
v -4040.520996 517.116699 6025.230957
v -4042.324951 515.121765 6025.697266
v 13635.210938 515.121765 74428.382812
v -4043.849121 512.891663 6026.091309
v 13633.6875 512.891663 74428.773438
v -4045.064941 510.468018 6026.405273
v 13632.47168 510.468018 74429.085938
v -4045.949951 507.895935 6026.634277
v 13631.585938 507.895935 74429.320312
v -4046.487549 505.223328 6026.772949
v 13631.048828 505.223328 74429.460938
v -4046.667969 502.5 6026.819824
v 13630.868164 502.5 74429.507812
v -4046.487549 499.776672 6026.772949
v 13631.048828 499.776672 74429.460938
v -4045.949951 497.104065 6026.634277
v 13631.585938 497.104065 74429.320312
v -4045.064941 494.531982 6026.405273
v 13632.47168 494.531982 74429.085938
v -4043.849121 492.108307 6026.091309
v 13633.6875 492.108307 74428.773438
v -4042.324951 489.878235 6025.697266
v 13635.210938 489.878235 74428.382812
v -4040.520996 487.88327 6025.230957
v 13637.015625 487.88327 74427.914062
v -4038.470947 486.160614 6024.701172
v 13639.06543 486.160614 74427.382812
v -4036.212891 484.74231 6024.117676
v 13641.323242 484.74231 74426.804688
v -4033.788818 483.654785 6023.491211
v 13643.74707 483.654785 74426.171875
v -4031.243896 482.918304 6022.833496
v 13646.291992 482.918304 74425.515625
v 13648.910156 482.546631 74424.84375
v -4028.625732 482.546631 6022.156738
v -4025.982666 482.546631 6021.474121
v 13651.553711 482.546631 74424.15625
v 13654.171875 482.918304 74423.484375
v -4023.364502 482.918304 6020.797363
v -4020.81958 483.654785 6020.139648
v 13656.716797 483.654785 74422.820312
v 13659.140625 484.74231 74422.195312
v -4018.395508 484.74231 6019.513184
v 13661.398438 486.160614 74421.617188
v -4016.137451 486.160614 6018.929688
v 13663.449219 487.88327 74421.085938
v -4014.087402 487.88327 6018.399902
v 13665.25293 489.878235 74420.617188
v -4012.283447 489.878235 6017.933594
v 13666.777344 492.108307 74420.226562
v -4010.759277 492.108307 6017.539551
v 13667.993164 494.531982 74419.90625
v -4009.543457 494.531982 6017.225586
v -4008.658447 497.104065 6016.996582
v 13668.87793 497.104065 74419.679688
v 13669.415039 499.776672 74419.539062
v -4008.12085 499.776672 6016.85791
vn 0.965882 0.069023 -0.249616
vn 0.965925 0.068376 -0.249627
vn 0.947881 0.203748 -0.244964
vn 0.947952 0.203399 -0.244982
vn 0.9124 0.334555 -0.235795
vn 0.912379 0.334617 -0.235789
vn 0.859687 0.459977 -0.222172
vn 0.859433 0.460482 -0.222106
vn 0.790941 0.576742 -0.204405
vn 0.791065 0.57656 -0.204438
vn 0.70739 0.682773 -0.182813
vn 0.707508 0.682643 -0.182844
vn 0.611241 0.77552 -0.157965
vn 0.610832 0.775864 -0.157859
vn 0.502863 0.854541 -0.129957
vn 0.503317 0.854256 -0.130074
vn 0.38595 0.917112 -0.099742
vn 0.385809 0.917175 -0.099706
vn 0.261186 0.962926 -0.067499
vn 0.261068 0.96296 -0.067469
vn 0.13171 0.990704 -0.034038
vn 0.131889 0.990678 -0.034085
vn 0.0 1.0 0.0
vn 0.0 1.0 0.0
vn -0.131889 0.990678 0.034085
vn -0.131796 0.990691 0.034061
vn -0.261248 0.962908 0.067515
vn -0.261186 0.962926 0.067499
vn -0.38595 0.917112 0.099742
vn -0.385556 0.917289 0.09964
vn -0.502578 0.85472 0.129883
vn -0.503317 0.854256 0.130074
vn -0.610926 0.775785 0.157884
vn -0.610996 0.775726 0.157902
vn -0.708031 0.682063 0.182979
vn -0.707341 0.682827 0.1828
vn -0.790638 0.577185 0.204327
vn -0.791223 0.576328 0.204478
vn -0.859687 0.459977 0.222172
vn -0.859716 0.459918 0.222179
vn -0.9124 0.334555 0.235795
vn -0.912054 0.33556 0.235705
vn -0.947881 0.203748 0.244964
vn -0.947952 0.203399 0.244982
vn -0.965969 0.067702 0.249639
vn -0.965925 0.068376 0.249627
vn -0.965969 -0.067702 0.249639
vn -0.947881 -0.203748 0.244964
vn -0.965925 -0.068376 0.249627
vn -0.9124 -0.334555 0.235795
vn -0.947952 -0.203399 0.244982
vn -0.859687 -0.459977 0.222172
vn -0.912054 -0.33556 0.235705
vn -0.790638 -0.577185 0.204327
vn -0.859716 -0.459918 0.222179
vn -0.708031 -0.682063 0.182979
vn -0.791223 -0.576328 0.204478
vn -0.610926 -0.775785 0.157884
vn -0.707341 -0.682827 0.1828
vn -0.502578 -0.85472 0.129883
vn -0.610996 -0.775726 0.157902
vn -0.38595 -0.917112 0.099742
vn -0.503317 -0.854256 0.130074
vn -0.261186 -0.962926 0.067499
vn -0.385556 -0.917289 0.09964
vn -0.261248 -0.962908 0.067515
vn 0.0 -1.0 0.0
vn -0.13171 -0.990704 0.034038
vn -0.131889 -0.990678 0.034085
vn -0.0 -1.0 0.0
vn 0.131889 -0.990678 -0.034085
vn 0.261186 -0.962926 -0.067499
vn 0.131796 -0.990691 -0.034061
vn 0.261068 -0.96296 -0.067469
vn 0.385809 -0.917175 -0.099706
vn 0.385715 -0.917217 -0.099682
vn 0.502863 -0.854541 -0.129957
vn 0.503317 -0.854256 -0.130074
vn 0.611241 -0.77552 -0.157965
vn 0.610832 -0.775864 -0.157859
vn 0.707711 -0.682418 -0.182896
vn 0.707508 -0.682643 -0.182844
vn 0.791243 -0.576299 -0.204484
vn 0.791065 -0.57656 -0.204438
vn 0.9124 -0.334555 -0.235795
vn 0.859949 -0.459453 -0.22224
vn 0.859433 -0.460482 -0.222106
vn 0.912379 -0.334617 -0.235789
vn 0.947881 -0.203748 -0.244964
vn 0.947952 -0.203399 -0.244982
vn 0.965882 -0.069023 -0.249616
vn 0.965925 -0.068376 -0.249627
vn 0.239616 0.014252 0.970763
vn 0.256545 -0.004977 0.966519
vn 0.246822 0.001131 0.96906
vn 0.249075 0.000475 0.968484
vn 0.245714 0.003712 0.969335
vn 0.254333 -0.000226 0.967117
vn 0.251625 -0.023485 0.96754
vn 0.250281 -0.002148 0.968171
vn 0.248772 0.009113 0.968519
vn 0.252211 7.6e-05 0.967672
vn 0.244686 -0.02837 0.969187
vn 0.250873 -0.000517 0.96802
vn 0.250557 0.000292 0.968102
vn 0.250602 -0.000391 0.96809
vn 0.2503 0.000211 0.968168
vn 0.233761 -0.008095 0.97226
vn 0.239937 -0.013712 0.970692
vn 0.250237 0.001302 0.968184
vn 0.260665 0.00897 0.965388
vn 0.247925 -0.001755 0.968778
vn 0.239616 -0.014252 0.970763
vn 0.269232 0.007783 0.963044
vn 0.24434 -0.019558 0.969492
vn 0.244169 -0.002953 0.969728
vn 0.252194 0.000645 0.967677
vn 0.250722 -0.000549 0.968059
vn 0.24877 -0.001188 0.968562
vn 0.25031 0.000106 0.968166
vn 0.246935 -0.012108 0.968956
vn 0.250792 0.002037 0.968039
vn 0.249654 -0.00067 0.968335
vn 0.251144 -0.0 0.96795
vn 0.253281 0.0 0.967393
vn 0.25169 -0.005946 0.96779
vn 0.244686 0.02837 0.969187
vn 0.251622 -0.00543 0.96781
vn 0.253759 -0.009706 0.967219
vn 0.230012 0.01322 0.973098
vn 0.250279 0.000261 0.968174
vn 0.250222 5.1e-05 0.968188
vn 0.250444 0.0002 0.968131
vn 0.249828 0.001197 0.968289
vn 0.252265 -0.000714 0.967658
vn 0.254541 -0.002376 0.967059
vn -0.250162 -0.000101 -0.968204
vn -0.250057 -0.000189 -0.968231
vn -0.248941 -0.000178 -0.968519
vn -0.250165 -0.000118 -0.968203
vn -0.250141 -0.000293 -0.968209
vn -0.250062 -0.00149 -0.968229
vn -0.250298 -0.000286 -0.968169
vn -0.250215 0.00013 -0.96819
vn -0.251544 -0.00038 -0.967846
vn -0.250162 0.000101 -0.968204
vn -0.250222 0.000102 -0.968188
vn -0.250204 2.7e-05 -0.968193
vn -0.250211 8e-06 -0.968191
vn -0.250103 0.000145 -0.968219
vn -0.250014 0.000243 -0.968242
vn -0.250213 -3.9e-05 -0.968191
vn -0.250207 1.4e-05 -0.968192
vn -0.251043 -0.000541 -0.967976
vn -0.250207 -1.6e-05 -0.968193
vn -0.250279 -0.000154 -0.968174
vn -0.250221 -0.000105 -0.968189
vn -0.251544 -0.00038 -0.967846
vn -0.250214 3e-06 -0.96819
vn -0.250206 7e-06 -0.968193
vn -0.250267 -0.00013 -0.968177
vn -0.250298 -0.000286 -0.968169
vn -0.250235 -3.7e-05 -0.968185
vn -0.25022 8.8e-05 -0.968189
vn -0.25022 -8.8e-05 -0.968189
vn -0.250298 0.000286 -0.968169
vn -0.250062 -0.000889 -0.968229
vn -0.250214 -4e-06 -0.96819
vn -0.251544 0.00038 -0.967846
vn -0.250206 -9.4e-05 -0.968192
vn -0.250195 9e-05 -0.968195
vn -0.250206 7e-06 -0.968193
vn -0.250279 0.000154 -0.968174
vn -0.250204 3.7e-05 -0.968193
vn -0.250174 -5e-05 -0.968201
vn -0.250722 0.00037 -0.968059
vn -0.250162 -0.000101 -0.968204
vn -0.250213 -2e-06 -0.968191
vn -0.250195 -1.5e-05 -0.968196
vn -0.250204 6.6e-05 -0.968193
vn 0.965882 0.069023 -0.249616
vn 0.947881 0.203748 -0.244964
vn 0.965925 0.068376 -0.249627
vn 0.9124 0.334555 -0.235795
vn 0.947952 0.203399 -0.244982
vn 0.859947 0.459458 -0.222239
vn 0.912379 0.334617 -0.235789
vn 0.791247 0.576294 -0.204485
vn 0.859431 0.460487 -0.222106
vn 0.707706 0.682424 -0.182895
vn 0.791069 0.576554 -0.204439
vn 0.611254 0.775509 -0.157968
vn 0.707503 0.682648 -0.182842
vn 0.502855 0.854546 -0.129955
vn 0.610845 0.775853 -0.157863
vn 0.385715 0.917217 -0.099682
vn 0.503309 0.854261 -0.130072
vn 0.261176 0.962929 -0.067497
vn 0.385809 0.917175 -0.099706
vn 0.131807 0.99069 -0.034063
vn 0.261058 0.962963 -0.067466
vn 0.0 1.0 0.0
vn 0.1319 0.990677 -0.034087
vn 0.0 1.0 0.0
vn -0.13172 0.990702 0.034041
vn -0.1319 0.990677 0.034087
vn -0.261176 0.962929 0.067497
vn -0.261238 0.962911 0.067513
vn -0.385715 0.917217 0.099682
vn -0.50257 0.854725 0.129881
vn -0.385556 0.917289 0.09964
vn -0.503309 0.854261 0.130072
vn -0.708026 0.682069 0.182978
vn -0.610939 0.775774 0.157887
vn -0.611009 0.775715 0.157905
vn -0.790641 0.577179 0.204328
vn -0.707336 0.682833 0.182799
vn -0.859947 0.459458 0.222239
vn -0.791227 0.576323 0.204479
vn -0.9124 0.334555 0.235795
vn -0.859714 0.459922 0.222179
vn -0.947881 0.203748 0.244964
vn -0.912054 0.33556 0.235705
vn -0.965969 0.067702 0.249639
vn -0.947952 0.203399 0.244982
vn -0.965925 0.068376 0.249627
vn -0.965969 -0.067702 0.249639
vn -0.947881 -0.203748 0.244964
vn -0.965925 -0.068376 0.249627
vn -0.9124 -0.334555 0.235795
vn -0.947952 -0.203399 0.244982
vn -0.859687 -0.459977 0.222172
vn -0.912054 -0.33556 0.235705
vn -0.790638 -0.577185 0.204327
vn -0.859716 -0.459918 0.222179
vn -0.708031 -0.682063 0.182979
vn -0.791223 -0.576328 0.204478
vn -0.610926 -0.775785 0.157884
vn -0.707341 -0.682827 0.1828
vn -0.502578 -0.85472 0.129883
vn -0.610996 -0.775726 0.157902
vn -0.38595 -0.917112 0.099742
vn -0.503317 -0.854256 0.130074
vn -0.261186 -0.962926 0.067499
vn -0.385556 -0.917289 0.09964
vn -0.261248 -0.962908 0.067515
vn 0.0 -1.0 0.0
vn -0.13171 -0.990704 0.034038
vn -0.131889 -0.990678 0.034085
vn -0.0 -1.0 0.0
vn 0.131889 -0.990678 -0.034085
vn 0.261186 -0.962926 -0.067499
vn 0.131796 -0.990691 -0.034061
vn 0.261068 -0.96296 -0.067469
vn 0.385809 -0.917175 -0.099706
vn 0.385715 -0.917217 -0.099682
vn 0.502863 -0.854541 -0.129957
vn 0.503317 -0.854256 -0.130074
vn 0.611241 -0.77552 -0.157965
vn 0.610832 -0.775864 -0.157859
vn 0.707711 -0.682418 -0.182896
vn 0.707508 -0.682643 -0.182844
vn 0.791243 -0.576299 -0.204484
vn 0.791065 -0.57656 -0.204438
vn 0.9124 -0.334555 -0.235795
vn 0.859949 -0.459453 -0.22224
vn 0.859433 -0.460482 -0.222106
vn 0.912379 -0.334617 -0.235789
vn 0.947881 -0.203748 -0.244964
vn 0.947952 -0.203399 -0.244982
vn 0.965882 -0.069023 -0.249616
vn 0.965925 -0.068376 -0.249627
vn 0.239618 0.014249 0.970763
vn 0.245514 0.005674 0.969376
vn 0.242807 0.00405 0.970066
vn 0.233761 0.008095 0.97226
vn 0.254333 -0.000226 0.967117
vn 0.251625 -0.023483 0.96754
vn 0.250281 -0.002149 0.968171
vn 0.248772 0.009113 0.968519
vn 0.252211 7.6e-05 0.967672
vn 0.244685 -0.028375 0.969187
vn 0.250513 -0.000594 0.968113
vn 0.233761 -0.008095 0.97226
vn 0.252316 6.8e-05 0.967645
vn 0.260665 0.00897 0.965388
vn 0.250104 -0.000145 0.968219
vn 0.250538 -8.3e-05 0.968107
vn 0.250088 -0.000248 0.968223
vn 0.252577 0.002154 0.967574
vn 0.261683 0.009829 0.965104
vn 0.252245 0.001874 0.967662
vn 0.244725 -0.005375 0.969578
vn 0.249757 0.000161 0.968309
vn 0.26384 0.026989 0.964189
vn 0.250644 -0.000139 0.968079
vn 0.250477 -0.000103 0.968122
vn 0.250335 -0.000161 0.968159
vn 0.248426 0.000634 0.968651
vn 0.247468 -0.008187 0.968862
vn 0.249207 0.000408 0.96845
vn 0.251144 -0.0 0.96795
vn 0.253281 -0.0 0.967393
vn 0.251625 -0.023485 0.96754
vn 0.248067 -0.0 0.968743
vn 0.251407 0.000236 0.967882
vn 0.253281 -0.0 0.967393
vn 0.250653 -0.000184 0.968077
vn 0.249903 0.003534 0.968264
vn 0.257496 -0.018679 0.966099
vn 0.269232 -0.007783 0.963044
vn 0.250763 -0.0 0.968048
vn 0.249413 -9.6e-05 0.968397
vn 0.247801 0.001859 0.968809
vn 0.239937 0.013712 0.970692
vn 0.261684 -0.00983 0.965103
vn -0.250136 -8.8e-05 -0.968211
vn -0.251043 0.000541 -0.967976
vn -0.250274 7e-06 -0.968175
vn -0.250147 -7.3e-05 -0.968208
vn -0.24972 -0.000289 -0.968318
vn -0.250233 4.4e-05 -0.968186
vn -0.248941 -0.000178 -0.968519
vn -0.250194 -0.0005 -0.968196
vn -0.250062 0.00149 -0.968229
vn -0.250194 -6.9e-05 -0.968196
vn -0.251544 -0.00038 -0.967846
vn -0.249831 0.000115 -0.968289
vn -0.2503 1.5e-05 -0.968168
vn -0.250243 -8.3e-05 -0.968183
vn -0.250279 -0.000154 -0.968174
vn -0.250204 1e-05 -0.968193
vn -0.251043 -0.000541 -0.967976
vn -0.250014 0.000243 -0.968242
vn -0.250304 -7.8e-05 -0.968167
vn -0.250279 -0.000154 -0.968174
vn -0.250194 1.5e-05 -0.968196
vn -0.250197 1.2e-05 -0.968195
vn -0.250326 -5.8e-05 -0.968162
vn -0.250464 -0.00012 -0.968126
vn -0.249797 0.000125 -0.968298
vn -0.251544 -0.00038 -0.967846
vn -0.25025 -4.7e-05 -0.968181
vn -0.250298 -0.000286 -0.968169
vn -0.250233 -0.0 -0.968186
vn -0.250203 2.2e-05 -0.968193
vn -0.250217 -1e-06 -0.96819
vn -0.250062 3.7e-05 -0.96823
vn -0.250205 -5e-06 -0.968193
vn -0.250617 6e-05 -0.968086
vn -0.248941 -0.000178 -0.968519
vn -0.250683 6.4e-05 -0.968069
vn -0.250279 0.000154 -0.968174
vn -0.250243 8.3e-05 -0.968183
vn -0.250284 0.00018 -0.968172
vn -0.25023 1e-05 -0.968186
vn -0.251043 0.000541 -0.967976
vn -0.250166 -9e-06 -0.968203
vn -0.250215 -2.2e-05 -0.96819
vn -0.250014 -0.000243 -0.968242
f 1//1 2//1 3//1 
f 4//2 1//2 3//2 
f 5//3 3//3 6//3 
f 5//4 4//4 3//4 
f 7//5 6//5 8//5 
f 7//6 5//6 6//6 
f 9//7 8//7 10//7 
f 9//8 7//8 8//8 
f 11//9 10//9 12//9 
f 11//10 9//10 10//10 
f 13//11 12//11 14//11 
f 13//12 11//12 12//12 
f 15//13 14//13 16//13 
f 15//14 13//14 14//14 
f 17//15 16//15 18//15 
f 17//16 15//16 16//16 
f 19//17 18//17 20//17 
f 19//18 17//18 18//18 
f 21//19 20//19 22//19 
f 21//20 19//20 20//20 
f 23//21 22//21 24//21 
f 23//22 21//22 22//22 
f 25//23 24//23 26//23 
f 25//24 23//24 24//24 
f 27//25 25//25 26//25 
f 27//26 26//26 28//26 
f 29//27 27//27 28//27 
f 29//28 28//28 30//28 
f 31//29 30//29 32//29 
f 31//30 29//30 30//30 
f 33//31 32//31 34//31 
f 33//32 31//32 32//32 
f 35//33 34//33 36//33 
f 35//34 33//34 34//34 
f 37//35 36//35 38//35 
f 37//36 35//36 36//36 
f 39//37 38//37 40//37 
f 39//38 37//38 38//38 
f 41//39 40//39 42//39 
f 41//40 39//40 40//40 
f 43//41 42//41 44//41 
f 43//42 41//42 42//42 
f 45//43 44//43 46//43 
f 45//44 43//44 44//44 
f 47//45 46//45 48//45 
f 47//46 45//46 46//46 
f 47//47 48//47 49//47 
f 50//48 49//48 51//48 
f 50//49 47//49 49//49 
f 52//50 51//50 53//50 
f 52//51 50//51 51//51 
f 54//52 53//52 55//52 
f 54//53 52//53 53//53 
f 56//54 55//54 57//54 
f 56//55 54//55 55//55 
f 58//56 57//56 59//56 
f 58//57 56//57 57//57 
f 60//58 59//58 61//58 
f 60//59 58//59 59//59 
f 62//60 61//60 63//60 
f 62//61 60//61 61//61 
f 64//62 63//62 65//62 
f 64//63 62//63 63//63 
f 66//64 65//64 67//64 
f 66//65 64//65 65//65 
f 68//66 66//66 67//66 
f 69//67 70//67 71//67 
f 69//68 67//68 70//68 
f 69//69 68//69 67//69 
f 72//70 69//70 71//70 
f 73//71 72//71 71//71 
f 73//72 74//72 75//72 
f 73//73 71//73 74//73 
f 76//74 73//74 75//74 
f 77//75 76//75 75//75 
f 77//76 75//76 78//76 
f 79//77 78//77 80//77 
f 79//78 77//78 78//78 
f 81//79 80//79 82//79 
f 81//80 79//80 80//80 
f 83//81 82//81 84//81 
f 83//82 81//82 82//82 
f 85//83 84//83 86//83 
f 85//84 83//84 84//84 
f 87//85 88//85 89//85 
f 87//86 86//86 88//86 
f 87//87 85//87 86//87 
f 90//88 87//88 89//88 
f 91//89 89//89 92//89 
f 91//90 90//90 89//90 
f 1//91 92//91 2//91 
f 1//92 91//92 92//92 
f 31//93 33//93 35//93 
f 41//94 35//94 37//94 
f 41//95 37//95 39//95 
f 41//96 31//96 35//96 
f 43//97 31//97 41//97 
f 47//98 43//98 45//98 
f 23//99 25//99 27//99 
f 23//100 27//100 29//100 
f 23//101 29//101 31//101 
f 50//102 43//102 47//102 
f 19//103 21//103 23//103 
f 19//104 50//104 52//104 
f 19//105 23//105 31//105 
f 19//106 31//106 43//106 
f 19//107 43//107 50//107 
f 56//108 52//108 54//108 
f 13//109 15//109 17//109 
f 13//110 17//110 19//110 
f 60//111 56//111 58//111 
f 60//112 52//112 56//112 
f 64//113 60//113 62//113 
f 5//114 7//114 9//114 
f 68//115 64//115 66//115 
f 4//116 9//116 11//116 
f 4//117 11//117 13//117 
f 4//118 5//118 9//118 
f 4//119 13//119 19//119 
f 4//120 19//120 52//120 
f 69//121 64//121 68//121 
f 69//122 60//122 64//122 
f 69//123 52//123 60//123 
f 91//124 1//124 4//124 
f 90//125 91//125 4//125 
f 76//126 69//126 72//126 
f 76//127 72//127 73//127 
f 79//128 69//128 76//128 
f 79//129 76//129 77//129 
f 83//130 85//130 87//130 
f 81//131 4//131 52//131 
f 81//132 52//132 69//132 
f 81//133 90//133 4//133 
f 81//134 69//134 79//134 
f 81//135 83//135 87//135 
f 81//136 87//136 90//136 
f 36//137 40//137 38//137 
f 34//138 40//138 36//138 
f 44//139 48//139 46//139 
f 30//140 24//140 32//140 
f 28//141 24//141 30//141 
f 26//142 24//142 28//142 
f 22//143 20//143 24//143 
f 24//144 20//144 32//144 
f 49//145 53//145 51//145 
f 55//146 59//146 57//146 
f 40//147 12//147 42//147 
f 32//148 12//148 34//148 
f 18//149 12//149 20//149 
f 16//150 12//150 18//150 
f 14//151 12//151 16//151 
f 34//152 12//152 40//152 
f 20//153 12//153 32//153 
f 10//154 8//154 12//154 
f 12//155 8//155 42//155 
f 61//156 65//156 63//156 
f 42//157 3//157 44//157 
f 6//158 3//158 8//158 
f 44//159 3//159 48//159 
f 8//160 3//160 42//160 
f 61//161 70//161 65//161 
f 65//162 70//162 67//162 
f 59//163 70//163 61//163 
f 3//164 2//164 48//164 
f 2//165 92//165 48//165 
f 71//166 75//166 74//166 
f 70//167 75//167 71//167 
f 92//168 88//168 48//168 
f 89//169 88//169 92//169 
f 53//170 88//170 55//170 
f 48//171 88//171 49//171 
f 49//172 88//172 53//172 
f 75//173 80//173 78//173 
f 59//174 82//174 70//174 
f 70//175 82//175 75//175 
f 86//176 82//176 88//176 
f 84//177 82//177 86//177 
f 88//178 82//178 55//178 
f 75//179 82//179 80//179 
f 55//180 82//180 59//180 
f 93//181 94//181 95//181 
f 96//182 95//182 97//182 
f 96//183 93//183 95//183 
f 98//184 97//184 99//184 
f 98//185 96//185 97//185 
f 100//186 99//186 101//186 
f 100//187 98//187 99//187 
f 102//188 101//188 103//188 
f 102//189 100//189 101//189 
f 104//190 103//190 105//190 
f 104//191 102//191 103//191 
f 106//192 105//192 107//192 
f 106//193 104//193 105//193 
f 108//194 107//194 109//194 
f 108//195 106//195 107//195 
f 110//196 109//196 111//196 
f 110//197 108//197 109//197 
f 112//198 111//198 113//198 
f 112//199 110//199 111//199 
f 114//200 113//200 115//200 
f 114//201 112//201 113//201 
f 116//202 115//202 117//202 
f 116//203 114//203 115//203 
f 118//204 116//204 117//204 
f 118//205 117//205 119//205 
f 120//206 118//206 119//206 
f 120//207 119//207 121//207 
f 122//208 120//208 121//208 
f 122//209 121//209 123//209 
f 124//210 123//210 125//210 
f 124//211 122//211 123//211 
f 126//212 124//212 125//212 
f 127//213 128//213 129//213 
f 127//214 125//214 128//214 
f 127//215 126//215 125//215 
f 130//216 129//216 131//216 
f 130//217 127//217 129//217 
f 132//218 131//218 133//218 
f 132//219 130//219 131//219 
f 134//220 133//220 135//220 
f 134//221 132//221 133//221 
f 136//222 135//222 137//222 
f 136//223 134//223 135//223 
f 138//224 137//224 139//224 
f 138//225 136//225 137//225 
f 140//226 138//226 139//226 
f 140//227 139//227 141//227 
f 142//228 141//228 143//228 
f 142//229 140//229 141//229 
f 144//230 143//230 145//230 
f 144//231 142//231 143//231 
f 146//232 145//232 147//232 
f 146//233 144//233 145//233 
f 148//234 147//234 149//234 
f 148//235 146//235 147//235 
f 150//236 149//236 151//236 
f 150//237 148//237 149//237 
f 152//238 151//238 153//238 
f 152//239 150//239 151//239 
f 154//240 153//240 155//240 
f 154//241 152//241 153//241 
f 156//242 155//242 157//242 
f 156//243 154//243 155//243 
f 158//244 157//244 159//244 
f 158//245 156//245 157//245 
f 160//246 158//246 159//246 
f 161//247 162//247 163//247 
f 161//248 159//248 162//248 
f 161//249 160//249 159//249 
f 164//250 161//250 163//250 
f 165//251 164//251 163//251 
f 165//252 166//252 167//252 
f 165//253 163//253 166//253 
f 168//254 165//254 167//254 
f 169//255 168//255 167//255 
f 169//256 167//256 170//256 
f 171//257 170//257 172//257 
f 171//258 169//258 170//258 
f 173//259 172//259 174//259 
f 173//260 171//260 172//260 
f 175//261 174//261 176//261 
f 175//262 173//262 174//262 
f 177//263 176//263 178//263 
f 177//264 175//264 176//264 
f 179//265 180//265 181//265 
f 179//266 178//266 180//266 
f 179//267 177//267 178//267 
f 182//268 179//268 181//268 
f 183//269 181//269 184//269 
f 183//270 182//270 181//270 
f 93//271 184//271 94//271 
f 93//272 183//272 184//272 
f 124//273 126//273 127//273 
f 124//274 127//274 130//274 
f 136//275 130//275 132//275 
f 136//276 132//276 134//276 
f 140//277 136//277 138//277 
f 116//278 118//278 120//278 
f 116//279 120//279 122//279 
f 116//280 122//280 124//280 
f 142//281 136//281 140//281 
f 112//282 114//282 116//282 
f 148//283 142//283 144//283 
f 148//284 144//284 146//284 
f 148//285 136//285 142//285 
f 152//286 148//286 150//286 
f 154//287 124//287 130//287 
f 154//288 130//288 136//288 
f 154//289 136//289 148//289 
f 154//290 148//290 152//290 
f 102//291 104//291 106//291 
f 102//292 106//292 108//292 
f 100//293 102//293 108//293 
f 158//294 110//294 112//294 
f 158//295 154//295 156//295 
f 158//296 116//296 124//296 
f 158//297 112//297 116//297 
f 158//298 124//298 154//298 
f 161//299 108//299 110//299 
f 161//300 158//300 160//300 
f 161//301 110//301 158//301 
f 183//302 93//302 96//302 
f 183//303 96//303 98//303 
f 165//304 161//304 164//304 
f 182//305 98//305 100//305 
f 182//306 100//306 108//306 
f 182//307 183//307 98//307 
f 169//308 108//308 161//308 
f 169//309 161//309 165//309 
f 169//310 165//310 168//310 
f 177//311 179//311 182//311 
f 173//312 182//312 108//312 
f 173//313 108//313 169//313 
f 173//314 177//314 182//314 
f 173//315 169//315 171//315 
f 173//316 175//316 177//316 
f 125//317 123//317 128//317 
f 129//318 133//318 131//318 
f 128//319 135//319 129//319 
f 123//320 135//320 128//320 
f 129//321 135//321 133//321 
f 121//322 119//322 123//322 
f 135//323 139//323 137//323 
f 117//324 113//324 119//324 
f 115//325 113//325 117//325 
f 119//326 113//326 123//326 
f 141//327 145//327 143//327 
f 139//328 145//328 141//328 
f 135//329 145//329 139//329 
f 111//330 107//330 113//330 
f 109//331 107//331 111//331 
f 113//332 107//332 123//332 
f 145//333 149//333 147//333 
f 149//334 153//334 151//334 
f 145//335 153//335 149//335 
f 153//336 157//336 155//336 
f 145//337 157//337 153//337 
f 105//338 95//338 107//338 
f 103//339 95//339 105//339 
f 101//340 95//340 103//340 
f 99//341 95//341 101//341 
f 97//342 95//342 99//342 
f 145//343 162//343 157//343 
f 157//344 162//344 159//344 
f 123//345 162//345 135//345 
f 135//346 162//346 145//346 
f 95//347 163//347 107//347 
f 123//348 163//348 162//348 
f 107//349 163//349 123//349 
f 94//350 181//350 95//350 
f 184//351 181//351 94//351 
f 181//352 180//352 95//352 
f 167//353 172//353 170//353 
f 166//354 172//354 167//354 
f 163//355 172//355 166//355 
f 95//356 176//356 163//356 
f 178//357 176//357 180//357 
f 180//358 176//358 95//358 
f 163//359 176//359 172//359 
f 176//360 174//360 172//360 
