# FreeCAD v1.0 build0 Arch module
# https://www.freecad.org
mtllib WIRE.mtl
o COMPOUND209 (Meshed)
usemtl color_cccce6
v 30383.111328 -175.0 52380.75
v 30374.363281 -162.197495 52386.988281
v 30372.525391 -162.0 52388.296875
v 30376.146484 -162.783997 52385.714844
v 30377.818359 -163.741669 52384.523438
v 30379.330078 -165.041428 52383.445312
v 30380.634766 -166.643768 52382.515625
v 30381.693359 -168.5 52381.761719
v 30382.474609 -170.553741 52381.207031
v 30382.951172 -172.742569 52380.867188
v 30370.6875 -162.197495 52389.605469
v 30368.904297 -162.783997 52390.878906
v 30367.232422 -163.741669 52392.070312
v 30365.720703 -165.041428 52393.148438
v 30364.416016 -166.643768 52394.078125
v 30363.357422 -168.5 52394.832031
v 30362.578125 -170.553741 52395.386719
v 30362.099609 -172.742569 52395.726562
v 30361.939453 -175.0 52395.839844
v 30382.474609 -179.446259 52381.207031
v 30382.951172 -177.257431 52380.867188
v 30381.693359 -181.5 52381.761719
v 30380.634766 -183.356232 52382.515625
v 30379.330078 -184.958572 52383.445312
v 30377.818359 -186.258331 52384.523438
v 30376.146484 -187.216003 52385.714844
v 30374.363281 -187.802505 52386.988281
v 30372.525391 -188.0 52388.296875
v 30370.6875 -187.802505 52389.605469
v 30362.099609 -177.257431 52395.726562
v 30368.904297 -187.216003 52390.878906
v 30362.578125 -179.446259 52395.386719
v 30367.232422 -186.258331 52392.070312
v 30363.357422 -181.5 52394.832031
v 30365.720703 -184.958572 52393.148438
v 30364.416016 -183.356232 52394.078125
v -3470.906006 -175.0 4923.71875
v -3470.745117 -172.742569 4923.604492
v -3470.267578 -170.553741 4923.26416
v -3469.487793 -168.5 4922.708008
v -3468.429199 -166.643768 4921.953613
v -3467.124268 -165.041428 4921.023926
v -3465.612793 -163.741669 4919.946289
v -3463.940186 -162.783997 4918.754395
v -3462.157715 -162.197495 4917.484375
v -3460.31958 -162.0 4916.173828
v -3458.481201 -162.197495 4914.86377
v -3456.69873 -162.783997 4913.59375
v -3455.026123 -163.741669 4912.401855
v -3453.514648 -165.041428 4911.324219
v -3452.209717 -166.643768 4910.394531
v -3451.151367 -168.5 4909.640137
v -3450.371338 -170.553741 4909.083984
v -3449.893799 -172.742569 4908.743652
v -3449.73291 -175.0 4908.629395
v -3449.893799 -177.257431 4908.743652
v -3450.371338 -179.446259 4909.083984
v -3451.151367 -181.5 4909.640137
v -3452.209717 -183.356232 4910.394531
v -3453.514648 -184.958572 4911.324219
v -3455.026123 -186.258331 4912.401855
v -3456.69873 -187.216003 4913.59375
v -3458.481201 -187.802505 4914.86377
v -3460.31958 -188.0 4916.173828
v -3462.157715 -187.802505 4917.484375
v -3463.940186 -187.216003 4918.754395
v -3465.612793 -186.258331 4919.946289
v -3467.124268 -184.958572 4921.023926
v -3468.429199 -183.356232 4921.953613
v -3469.487793 -181.5 4922.708008
v -3470.267578 -179.446259 4923.26416
v -3470.745117 -177.257431 4923.604492
v -3455.026123 503.741669 4912.401855
v -3452.209717 506.643768 4910.394531
v -3453.514648 505.041412 4911.324219
v -3450.371338 510.553741 4909.083984
v -3451.151367 508.5 4909.640137
v -3458.481201 502.19751 4914.86377
v -3456.69873 502.783997 4913.59375
v -3449.893799 512.742554 4908.743652
v -3462.157715 502.19751 4917.484375
v -3460.31958 502.0 4916.173828
v -3463.940186 502.783997 4918.754395
v -3468.429199 506.643768 4921.953613
v -3465.612793 503.741669 4919.946289
v -3467.124268 505.041412 4921.023926
v -3470.267578 510.553741 4923.26416
v -3469.487793 508.5 4922.708008
v -3470.745117 512.742554 4923.604492
v -3470.906006 515.0 4923.71875
v -3449.73291 515.0 4908.629395
v -3455.026123 526.258301 4912.401855
v -3453.514648 524.958557 4911.324219
v -3452.209717 523.356262 4910.394531
v -3449.893799 517.257446 4908.743652
v -3462.157715 527.80249 4917.484375
v -3460.31958 528.0 4916.173828
v -3458.481201 527.80249 4914.86377
v -3470.745117 517.257446 4923.604492
v -3463.940186 527.216003 4918.754395
v -3456.69873 527.216003 4913.59375
v -3470.267578 519.446289 4923.26416
v -3450.371338 519.446289 4909.083984
v -3465.612793 526.258301 4919.946289
v -3469.487793 521.5 4922.708008
v -3468.429199 523.356262 4921.953613
v -3451.151367 521.5 4909.640137
v -3467.124268 524.958557 4921.023926
v 30361.939453 515.0 52395.839844
v 30362.099609 512.742554 52395.726562
v 30362.578125 510.553741 52395.386719
v 30363.357422 508.5 52394.832031
v 30364.416016 506.643768 52394.078125
v 30365.720703 505.041412 52393.148438
v 30367.232422 503.741669 52392.070312
v 30368.904297 502.783997 52390.878906
v 30370.6875 502.19751 52389.605469
v 30372.525391 502.0 52388.296875
v 30374.363281 502.19751 52386.988281
v 30376.146484 502.783997 52385.714844
v 30377.818359 503.741669 52384.523438
v 30379.330078 505.041412 52383.445312
v 30380.634766 506.643768 52382.515625
v 30381.693359 508.5 52381.761719
v 30382.474609 510.553741 52381.207031
v 30382.951172 512.742554 52380.867188
v 30383.111328 515.0 52380.75
v 30382.951172 517.257446 52380.867188
v 30382.474609 519.446289 52381.207031
v 30381.693359 521.5 52381.761719
v 30380.634766 523.356262 52382.515625
v 30379.330078 524.958557 52383.445312
v 30377.818359 526.258301 52384.523438
v 30376.146484 527.216003 52385.714844
v 30374.363281 527.80249 52386.988281
v 30372.525391 528.0 52388.296875
v 30370.6875 527.80249 52389.605469
v 30368.904297 527.216003 52390.878906
v 30367.232422 526.258301 52392.070312
v 30365.720703 524.958557 52393.148438
v 30364.416016 523.356262 52394.078125
v 30363.357422 521.5 52394.832031
v 30362.578125 519.446289 52395.386719
v 30362.099609 517.257446 52395.726562
vn 0.579962 -0.000659 0.814643
vn 0.581313 0.000734 0.813679
vn 0.580279 -0.000156 0.814418
vn 0.580737 0.000169 0.814091
vn 0.580204 -0.000136 0.814471
vn 0.579658 -0.00038 0.81486
vn 0.576363 -0.001462 0.817193
vn 0.575725 -0.0016 0.817642
vn 0.580049 -0.000553 0.814582
vn 0.580978 0.000807 0.813919
vn 0.58041 -0.00019 0.814324
vn 0.580563 0.000137 0.814215
vn 0.580449 -0.000164 0.814297
vn 0.580417 -0.000272 0.814319
vn 0.580411 -0.0003 0.814324
vn 0.58039 -0.000447 0.814339
vn 0.580399 -0.000313 0.814332
vn 0.575725 0.0016 0.817642
vn 0.576363 0.001462 0.817193
vn 0.579658 0.00038 0.81486
vn 0.580204 0.000136 0.814471
vn 0.580737 -0.000169 0.814091
vn 0.580279 0.000156 0.814418
vn 0.581314 -0.000734 0.813679
vn 0.579962 0.000659 0.814643
vn 0.580049 0.000553 0.814582
vn 0.580399 0.000313 0.814332
vn 0.580978 -0.000807 0.813919
vn 0.58039 0.000447 0.814339
vn 0.58041 0.00019 0.814324
vn 0.580411 0.0003 0.814324
vn 0.580563 -0.000137 0.814215
vn 0.580417 0.000272 0.814319
vn 0.580449 0.000164 0.814297
vn -0.811314 0.086245 0.578214
vn -0.811255 0.087082 0.578172
vn -0.786621 0.258724 0.560616
vn -0.786608 0.258782 0.560607
vn -0.738398 0.421702 0.526248
vn -0.738034 0.422661 0.525988
vn -0.667053 0.573616 0.475401
vn -0.575732 0.707228 0.410318
vn -0.66705 0.573621 0.475399
vn -0.57585 0.707084 0.410401
vn -0.466863 0.819348 0.332728
vn -0.344257 0.906251 0.245348
vn -0.467082 0.81916 0.332884
vn -0.344145 0.906316 0.245268
vn -0.210545 0.965999 0.150053
vn -0.210788 0.96592 0.150226
vn -0.071117 0.996179 0.050684
vn 0.070911 0.996202 -0.050538
vn -0.070971 0.996195 0.05058
vn 0.070974 0.996195 -0.050582
vn 0.210545 0.965999 -0.150053
vn 0.344257 0.906251 -0.245348
vn 0.210788 0.96592 -0.150226
vn 0.466863 0.819348 -0.332728
vn 0.344145 0.906315 -0.245268
vn 0.575732 0.707228 -0.410318
vn 0.467082 0.81916 -0.332884
vn 0.57585 0.707084 -0.410401
vn 0.667083 0.573562 -0.475423
vn 0.667053 0.573616 -0.475401
vn 0.738006 0.422733 -0.525969
vn 0.738096 0.422498 -0.526032
vn 0.786608 0.258782 -0.560607
vn 0.786621 0.258724 -0.560616
vn 0.811246 0.087207 -0.578166
vn 0.811255 0.087082 -0.578172
vn 0.811246 -0.087207 -0.578166
vn 0.786621 -0.258724 -0.560616
vn 0.811255 -0.087082 -0.578172
vn 0.738096 -0.422498 -0.526032
vn 0.786608 -0.258782 -0.560607
vn 0.667053 -0.573616 -0.475401
vn 0.738006 -0.422733 -0.525969
vn 0.575732 -0.707228 -0.410318
vn 0.667083 -0.573562 -0.475423
vn 0.466863 -0.819348 -0.332728
vn 0.57585 -0.707084 -0.410401
vn 0.344257 -0.906251 -0.245348
vn 0.467082 -0.81916 -0.332884
vn 0.210545 -0.965999 -0.150053
vn 0.344145 -0.906315 -0.245268
vn 0.071048 -0.996187 -0.050635
vn 0.210788 -0.96592 -0.150226
vn -0.071117 -0.996179 0.050684
vn 0.070974 -0.996195 -0.050582
vn -0.210545 -0.965999 0.150053
vn -0.070971 -0.996195 0.05058
vn -0.344257 -0.906251 0.245348
vn -0.210788 -0.96592 0.150226
vn -0.466863 -0.819348 0.332728
vn -0.344145 -0.906316 0.245268
vn -0.575732 -0.707228 0.410318
vn -0.467082 -0.81916 0.332884
vn -0.667053 -0.573616 0.475401
vn -0.57585 -0.707084 0.410401
vn -0.66705 -0.573621 0.475399
vn -0.738398 -0.421702 0.526248
vn -0.738034 -0.422661 0.525988
vn -0.786621 -0.258724 0.560616
vn -0.786608 -0.258782 0.560607
vn -0.811314 -0.086245 0.578214
vn -0.811255 -0.087082 0.578172
vn -0.580337 1.4e-05 -0.814377
vn -0.580257 9.6e-05 -0.814434
vn -0.580307 5.3e-05 -0.814398
vn -0.580629 -0.000175 -0.814168
vn -0.580174 8.5e-05 -0.814493
vn -0.580518 -6.9e-05 -0.814247
vn -0.580848 -0.000177 -0.814012
vn -0.581029 -0.000216 -0.813883
vn -0.580517 -0.000208 -0.814248
vn -0.580301 0.000108 -0.814402
vn -0.580341 3.8e-05 -0.814373
vn -0.580436 -0.000163 -0.814306
vn -0.580332 0.000109 -0.81438
vn -0.580362 1e-05 -0.814359
vn -0.580397 -0.000151 -0.814334
vn -0.580375 1e-06 -0.814349
vn -0.580365 0.000145 -0.814357
vn -0.581029 0.000216 -0.813883
vn -0.580848 0.000177 -0.814012
vn -0.580518 6.9e-05 -0.814247
vn -0.580174 -8.5e-05 -0.814493
vn -0.580629 0.000175 -0.814168
vn -0.580307 -5.3e-05 -0.814398
vn -0.580257 -9.6e-05 -0.814434
vn -0.580337 -1.4e-05 -0.814377
vn -0.580517 0.000208 -0.814248
vn -0.580365 -0.000145 -0.814357
vn -0.580301 -0.000108 -0.814402
vn -0.580375 -1e-06 -0.814349
vn -0.580341 -3.8e-05 -0.814373
vn -0.580397 0.000151 -0.814334
vn -0.580436 0.000163 -0.814306
vn -0.580362 -1e-05 -0.814359
vn -0.580332 -0.000109 -0.81438
vn -0.581195 0.00117 -0.813763
vn -0.580238 -0.000173 -0.814447
vn -0.580211 -0.000306 -0.814466
vn -0.580376 2e-06 -0.814348
vn -0.580229 -0.000246 -0.814453
vn -0.580276 -0.000146 -0.81442
vn -0.580434 0.001365 -0.814306
vn -0.580435 -0.000721 -0.814306
vn -0.581195 -0.00117 -0.813763
vn -0.58024 0.000229 -0.814445
vn -0.580385 -2.6e-05 -0.814342
vn -0.579732 0.000531 -0.814807
vn -0.580386 1.3e-05 -0.814342
vn -0.580361 5.6e-05 -0.814359
vn -0.580576 -6.7e-05 -0.814206
vn -0.580365 0.000145 -0.814357
vn -0.580386 -0.000147 -0.814342
vn -0.581195 -0.00117 -0.813763
vn -0.580365 -0.000145 -0.814357
vn -0.580434 -0.001365 -0.814306
vn -0.580386 0.000147 -0.814342
vn -0.580357 -0.000366 -0.814362
vn -0.580435 0.000721 -0.814306
vn -0.580386 -5e-06 -0.814341
vn -0.580386 5e-06 -0.814342
vn -0.580348 -5.5e-05 -0.814369
vn -0.580357 8e-05 -0.814362
vn -0.580386 -0.000156 -0.814341
vn -0.580362 0.000101 -0.814359
vn -0.580365 6.3e-05 -0.814357
vn -0.581195 0.00117 -0.813763
vn -0.580365 4.7e-05 -0.814357
vn -0.580348 -7.1e-05 -0.814369
vn -0.580374 2.1e-05 -0.81435
vn -0.811314 -0.086245 0.578214
vn -0.811291 -0.086572 0.578198
vn -0.786423 -0.259629 0.560475
vn -0.786562 -0.258994 0.560574
vn -0.737491 -0.424088 0.525601
vn -0.738205 -0.422209 0.526111
vn -0.667053 -0.573616 0.475401
vn -0.575735 -0.707225 0.41032
vn -0.667098 -0.573537 0.475433
vn -0.575888 -0.707037 0.410429
vn -0.466859 -0.819351 0.332725
vn -0.344257 -0.906251 0.245348
vn -0.466997 -0.819233 0.332823
vn -0.344266 -0.906246 0.245354
vn -0.21054 -0.966001 0.150049
vn -0.071054 -0.996186 0.050639
vn -0.210551 -0.965997 0.150058
vn -0.071018 -0.99619 0.050614
vn 0.070917 -0.996201 -0.050542
vn 0.071018 -0.99619 -0.050614
vn 0.21054 -0.966001 -0.150049
vn 0.344257 -0.906251 -0.245348
vn 0.210551 -0.965997 -0.150058
vn 0.466859 -0.819351 -0.332725
vn 0.344266 -0.906246 -0.245355
vn 0.466997 -0.819233 -0.332823
vn 0.575735 -0.707225 -0.41032
vn 0.575888 -0.707037 -0.410429
vn 0.667098 -0.573537 -0.475433
vn 0.667053 -0.573616 -0.475401
vn 0.738096 -0.422498 -0.526032
vn 0.786423 -0.259629 -0.560475
vn 0.737986 -0.422786 -0.525955
vn 0.786705 -0.258339 -0.560675
vn 0.811314 -0.086245 -0.578214
vn 0.81122 -0.087565 -0.578147
vn 0.811314 0.086245 -0.578214
vn 0.81122 0.087565 -0.578147
vn 0.786424 0.259626 -0.560475
vn 0.786705 0.258336 -0.560676
vn 0.738094 0.422503 -0.526031
vn 0.737984 0.422791 -0.525953
vn 0.667056 0.573609 -0.475403
vn 0.667101 0.57353 -0.475435
vn 0.575724 0.707238 -0.410312
vn 0.575877 0.70705 -0.410421
vn 0.466859 0.819351 -0.332725
vn 0.466997 0.819233 -0.332823
vn 0.344266 0.906246 -0.245354
vn 0.344275 0.906241 -0.245361
vn 0.210737 0.965936 -0.15019
vn 0.210551 0.965997 -0.150058
vn 0.071054 0.996186 -0.050639
vn 0.071018 0.99619 -0.050614
vn -0.071054 0.996186 0.050639
vn -0.071018 0.99619 0.050614
vn -0.210737 0.965936 0.15019
vn -0.210551 0.965997 0.150058
vn -0.344266 0.906246 0.245354
vn -0.344275 0.906241 0.245361
vn -0.466859 0.819351 0.332725
vn -0.466997 0.819233 0.332823
vn -0.575724 0.707238 0.410312
vn -0.575877 0.70705 0.410421
vn -0.667101 0.57353 0.475435
vn -0.667056 0.573609 0.475403
vn -0.738203 0.422214 0.526109
vn -0.738094 0.422503 0.526031
vn -0.786562 0.258991 0.560574
vn -0.786621 0.258722 0.560616
vn -0.811291 0.086572 0.578198
vn -0.811314 0.086245 0.578214
vn 0.579783 0.000247 0.814771
vn 0.580642 0.000433 0.814159
vn 0.58058 0.000412 0.814203
vn 0.580692 0.000462 0.814123
vn 0.581007 0.000643 0.813898
vn 0.580425 0.00023 0.814313
vn 0.581383 0.001054 0.813629
vn 0.579981 -0.000391 0.81463
vn 0.580033 -0.000328 0.814593
vn 0.580937 0.000996 0.813948
vn 0.580351 -3.3e-05 0.814367
vn 0.58049 0.000264 0.814267
vn 0.580366 -6.3e-05 0.814356
vn 0.580327 -0.000195 0.814384
vn 0.580209 -0.000737 0.814467
vn 0.580328 9.2e-05 0.814383
vn 0.580399 0.001096 0.814332
vn 0.580399 -0.001096 0.814331
vn 0.580328 -9.2e-05 0.814383
vn 0.580209 0.000737 0.814467
vn 0.580327 0.000195 0.814384
vn 0.580366 6.3e-05 0.814356
vn 0.58049 -0.000264 0.814267
vn 0.580351 3.3e-05 0.814367
vn 0.580937 -0.000996 0.813948
vn 0.580033 0.000328 0.814593
vn 0.579981 0.000391 0.81463
vn 0.581383 -0.001054 0.813629
vn 0.579783 -0.000247 0.814771
vn 0.580425 -0.00023 0.814313
vn 0.580642 -0.000433 0.814159
vn 0.581007 -0.000643 0.813898
vn 0.58058 -0.000412 0.814203
vn 0.580692 -0.000462 0.814124
f 1//1 2//1 3//1 
f 1//2 4//2 2//2 
f 1//3 5//3 4//3 
f 1//4 6//4 5//4 
f 1//5 7//5 6//5 
f 1//6 8//6 7//6 
f 1//7 9//7 8//7 
f 1//8 10//8 9//8 
f 11//9 1//9 3//9 
f 12//10 1//10 11//10 
f 13//11 1//11 12//11 
f 14//12 1//12 13//12 
f 15//13 1//13 14//13 
f 16//14 1//14 15//14 
f 17//15 1//15 16//15 
f 18//16 1//16 17//16 
f 19//17 1//17 18//17 
f 20//18 21//18 1//18 
f 22//19 20//19 1//19 
f 23//20 22//20 1//20 
f 24//21 23//21 1//21 
f 25//22 24//22 1//22 
f 26//23 25//23 1//23 
f 27//24 26//24 1//24 
f 28//25 27//25 1//25 
f 29//26 28//26 1//26 
f 30//27 1//27 19//27 
f 31//28 29//28 1//28 
f 32//29 1//29 30//29 
f 33//30 31//30 1//30 
f 34//31 1//31 32//31 
f 35//32 33//32 1//32 
f 36//33 1//33 34//33 
f 36//34 35//34 1//34 
f 37//35 19//35 18//35 
f 38//36 37//36 18//36 
f 39//37 18//37 17//37 
f 39//38 38//38 18//38 
f 40//39 17//39 16//39 
f 40//40 39//40 17//40 
f 41//41 16//41 15//41 
f 41//42 15//42 14//42 
f 41//43 40//43 16//43 
f 42//44 41//44 14//44 
f 43//45 14//45 13//45 
f 43//46 13//46 12//46 
f 43//47 42//47 14//47 
f 44//48 43//48 12//48 
f 45//49 12//49 11//49 
f 45//50 44//50 12//50 
f 46//51 11//51 3//51 
f 46//52 3//52 2//52 
f 46//53 45//53 11//53 
f 47//54 46//54 2//54 
f 48//55 2//55 4//55 
f 48//56 4//56 5//56 
f 48//57 47//57 2//57 
f 49//58 5//58 6//58 
f 49//59 48//59 5//59 
f 50//60 6//60 7//60 
f 50//61 49//61 6//61 
f 51//62 50//62 7//62 
f 52//63 51//63 7//63 
f 52//64 7//64 8//64 
f 53//65 52//65 8//65 
f 53//66 8//66 9//66 
f 54//67 53//67 9//67 
f 54//68 9//68 10//68 
f 54//69 10//69 1//69 
f 55//70 54//70 1//70 
f 55//71 1//71 21//71 
f 56//72 21//72 20//72 
f 56//73 55//73 21//73 
f 57//74 20//74 22//74 
f 57//75 56//75 20//75 
f 58//76 22//76 23//76 
f 58//77 57//77 22//77 
f 59//78 23//78 24//78 
f 59//79 58//79 23//79 
f 60//80 24//80 25//80 
f 60//81 59//81 24//81 
f 61//82 25//82 26//82 
f 61//83 60//83 25//83 
f 62//84 26//84 27//84 
f 62//85 61//85 26//85 
f 63//86 27//86 28//86 
f 63//87 62//87 27//87 
f 64//88 28//88 29//88 
f 64//89 63//89 28//89 
f 65//90 29//90 31//90 
f 65//91 64//91 29//91 
f 66//92 31//92 33//92 
f 66//93 65//93 31//93 
f 67//94 33//94 35//94 
f 67//95 66//95 33//95 
f 68//96 35//96 36//96 
f 68//97 67//97 35//97 
f 69//98 36//98 34//98 
f 69//99 68//99 36//99 
f 70//100 69//100 34//100 
f 70//101 34//101 32//101 
f 71//102 70//102 32//102 
f 71//103 32//103 30//103 
f 72//104 71//104 30//104 
f 72//105 30//105 19//105 
f 37//106 72//106 19//106 
f 47//107 55//107 46//107 
f 48//108 55//108 47//108 
f 49//109 55//109 48//109 
f 50//110 55//110 49//110 
f 51//111 55//111 50//111 
f 52//112 55//112 51//112 
f 53//113 55//113 52//113 
f 54//114 55//114 53//114 
f 55//115 45//115 46//115 
f 55//116 44//116 45//116 
f 55//117 43//117 44//117 
f 55//118 42//118 43//118 
f 55//119 41//119 42//119 
f 55//120 40//120 41//120 
f 55//121 39//121 40//121 
f 55//122 38//122 39//122 
f 55//123 37//123 38//123 
f 56//124 57//124 55//124 
f 57//125 58//125 55//125 
f 58//126 59//126 55//126 
f 59//127 60//127 55//127 
f 60//128 61//128 55//128 
f 61//129 62//129 55//129 
f 62//130 63//130 55//130 
f 63//131 64//131 55//131 
f 64//132 65//132 55//132 
f 55//133 72//133 37//133 
f 65//134 66//134 55//134 
f 55//135 71//135 72//135 
f 66//136 67//136 55//136 
f 55//137 70//137 71//137 
f 67//138 68//138 55//138 
f 55//139 69//139 70//139 
f 68//140 69//140 55//140 
f 73//141 74//141 75//141 
f 76//142 77//142 74//142 
f 78//143 73//143 79//143 
f 78//144 80//144 76//144 
f 78//145 74//145 73//145 
f 78//146 76//146 74//146 
f 81//147 78//147 82//147 
f 83//148 78//148 81//148 
f 84//149 85//149 86//149 
f 84//150 83//150 85//150 
f 84//151 78//151 83//151 
f 87//152 84//152 88//152 
f 89//153 80//153 78//153 
f 89//154 78//154 84//154 
f 89//155 84//155 87//155 
f 90//156 91//156 80//156 
f 90//157 80//157 89//157 
f 92//158 93//158 94//158 
f 90//159 95//159 91//159 
f 96//160 97//160 98//160 
f 99//161 95//161 90//161 
f 100//162 98//162 101//162 
f 100//163 96//163 98//163 
f 102//164 103//164 95//164 
f 102//165 95//165 99//165 
f 104//166 101//166 92//166 
f 104//167 100//167 101//167 
f 105//168 103//168 102//168 
f 106//169 107//169 103//169 
f 106//170 94//170 107//170 
f 106//171 108//171 104//171 
f 106//172 92//172 94//172 
f 106//173 104//173 92//173 
f 106//174 103//174 105//174 
f 109//175 90//175 89//175 
f 110//176 109//176 89//176 
f 111//177 89//177 87//177 
f 111//178 110//178 89//178 
f 112//179 87//179 88//179 
f 112//180 111//180 87//180 
f 113//181 88//181 84//181 
f 113//182 84//182 86//182 
f 113//183 112//183 88//183 
f 114//184 113//184 86//184 
f 115//185 86//185 85//185 
f 115//186 85//186 83//186 
f 115//187 114//187 86//187 
f 116//188 115//188 83//188 
f 117//189 83//189 81//189 
f 117//190 81//190 82//190 
f 117//191 116//191 83//191 
f 118//192 117//192 82//192 
f 119//193 82//193 78//193 
f 119//194 118//194 82//194 
f 120//195 78//195 79//195 
f 120//196 79//196 73//196 
f 120//197 119//197 78//197 
f 121//198 73//198 75//198 
f 121//199 120//199 73//199 
f 122//200 121//200 75//200 
f 123//201 75//201 74//201 
f 123//202 122//202 75//202 
f 124//203 123//203 74//203 
f 124//204 74//204 77//204 
f 124//205 77//205 76//205 
f 125//206 76//206 80//206 
f 125//207 124//207 76//207 
f 126//208 125//208 80//208 
f 126//209 80//209 91//209 
f 127//210 126//210 91//210 
f 128//211 91//211 95//211 
f 128//212 127//212 91//212 
f 129//213 95//213 103//213 
f 129//214 128//214 95//214 
f 130//215 103//215 107//215 
f 130//216 129//216 103//216 
f 131//217 107//217 94//217 
f 131//218 130//218 107//218 
f 132//219 94//219 93//219 
f 132//220 131//220 94//220 
f 133//221 93//221 92//221 
f 133//222 132//222 93//222 
f 134//223 92//223 101//223 
f 134//224 133//224 92//224 
f 135//225 101//225 98//225 
f 135//226 134//226 101//226 
f 136//227 98//227 97//227 
f 136//228 135//228 98//228 
f 137//229 97//229 96//229 
f 137//230 136//230 97//230 
f 138//231 96//231 100//231 
f 138//232 137//232 96//232 
f 139//233 100//233 104//233 
f 139//234 138//234 100//234 
f 140//235 104//235 108//235 
f 140//236 139//236 104//236 
f 141//237 108//237 106//237 
f 141//238 140//238 108//238 
f 142//239 141//239 106//239 
f 142//240 106//240 105//240 
f 143//241 142//241 105//241 
f 143//242 105//242 102//242 
f 144//243 143//243 102//243 
f 144//244 102//244 99//244 
f 109//245 144//245 99//245 
f 109//246 99//246 90//246 
f 111//247 109//247 110//247 
f 112//248 109//248 111//248 
f 113//249 109//249 112//249 
f 114//250 109//250 113//250 
f 115//251 109//251 114//251 
f 116//252 109//252 115//252 
f 117//253 109//253 116//253 
f 118//254 109//254 117//254 
f 119//255 109//255 118//255 
f 120//256 109//256 119//256 
f 121//257 109//257 120//257 
f 122//258 109//258 121//258 
f 123//259 109//259 122//259 
f 124//260 109//260 123//260 
f 125//261 109//261 124//261 
f 126//262 109//262 125//262 
f 127//263 109//263 126//263 
f 128//264 109//264 127//264 
f 129//265 109//265 128//265 
f 130//266 109//266 129//266 
f 131//267 109//267 130//267 
f 132//268 109//268 131//268 
f 133//269 109//269 132//269 
f 134//270 109//270 133//270 
f 135//271 109//271 134//271 
f 135//272 136//272 109//272 
f 136//273 137//273 109//273 
f 137//274 138//274 109//274 
f 109//275 143//275 144//275 
f 138//276 139//276 109//276 
f 109//277 142//277 143//277 
f 139//278 140//278 109//278 
f 109//279 141//279 142//279 
f 140//280 141//280 109//280 
