# FreeCAD v1.0 build0 Arch module
# https://www.freecad.org
mtllib CATWALK.mtl
o SCX2000-3_CATWALK_000_1-HSC_SCX2000-3_CATWALK_MODEL (Meshed)
usemtl color_cccce6
v 929.000061 1298.699951 61.5
v 929.000061 1298.699951 26.989449
v 941.000061 1298.699951 26.989449
v 941.000061 1298.699951 61.5
v 929.000061 1501.249268 26.989449
v 941.000061 1501.249268 26.989449
v 941.000061 1509.543457 26.792788
v 929.000061 1509.543457 26.792788
v 941.000061 1517.81897 26.203243
v 929.000061 1517.81897 26.203243
v 941.000061 1526.057251 25.222141
v 929.000061 1526.057251 25.222141
v 941.000061 1534.239746 23.85169
v 929.000061 1534.239746 23.85169
v 929.000061 1542.348145 22.094965
v 941.000061 1542.348145 22.094965
v 941.000061 2220.199951 1.5
v 929.000061 2220.199951 1.5
v 929.000061 2220.199951 41.5
v 941.000061 2220.199951 41.5
v 929.000061 2215.199951 41.5
v 941.000061 2215.199951 41.5
v 929.000061 2215.199951 61.5
v 941.000061 2215.199951 61.5
v 929.000061 1574.722778 14.272992
v 941.000061 1574.722778 14.272992
v 941.000061 1576.836914 13.593047
v 929.000061 1576.836914 13.593047
v 941.000061 1578.827637 12.608391
v 929.000061 1578.827637 12.608391
v 941.000061 1580.651001 11.340609
v 929.000061 1580.651001 11.340609
v 941.000061 1582.267334 9.81749
v 929.000061 1582.267334 9.81749
v 941.000061 1583.640991 8.072424
v 929.000061 1583.640991 8.072424
v 941.000061 1584.741943 6.143663
v 929.000061 1584.741943 6.143663
v 941.000061 1585.546021 4.073488
v 929.000061 1585.546021 4.073488
v 929.000061 1586.035645 1.907278
v 941.000061 1586.035645 1.907278
v 929.000061 1586.199951 -0.307481
v 941.000061 1586.199951 -0.307481
v 929.000061 1586.199951 -26.500004
v 941.000061 1586.199951 -26.500004
v 929.000061 1631.199951 -26.500004
v 941.000061 1631.199951 -26.500004
v 929.000061 1691.199951 1.5
v 941.000061 1691.199951 1.5
v -719.999939 1298.699951 61.5
v -731.999939 1298.699951 61.5
v -731.999939 1298.699951 26.989449
v -719.999939 1298.699951 26.989449
v -731.999939 1501.249268 26.989449
v -719.999939 1501.249268 26.989449
v -719.999939 1509.543457 26.792788
v -731.999939 1509.543457 26.792788
v -719.999939 1517.81897 26.203243
v -731.999939 1517.81897 26.203243
v -719.999939 1526.057251 25.222141
v -731.999939 1526.057251 25.222141
v -719.999939 1534.239746 23.85169
v -731.999939 1534.239746 23.85169
v -731.999939 1542.348145 22.094965
v -719.999939 1542.348145 22.094965
v -719.999939 2220.199951 1.5
v -731.999939 2220.199951 1.5
v -731.999939 2220.199951 41.5
v -719.999939 2220.199951 41.5
v -731.999939 2215.199951 41.5
v -719.999939 2215.199951 41.5
v -731.999939 2215.199951 61.5
v -719.999939 2215.199951 61.5
v -731.999939 1574.722778 14.272992
v -719.999939 1574.722778 14.272992
v -731.999939 1576.836914 13.593047
v -719.999939 1576.836914 13.593047
v -731.999939 1578.827637 12.608391
v -719.999939 1578.827637 12.608391
v -731.999939 1580.651001 11.340609
v -719.999939 1580.651001 11.340609
v -731.999939 1582.267334 9.81749
v -719.999939 1582.267334 9.81749
v -731.999939 1583.640991 8.072424
v -719.999939 1583.640991 8.072424
v -731.999939 1584.741943 6.143663
v -719.999939 1584.741943 6.143663
v -731.999939 1585.546021 4.073488
v -719.999939 1585.546021 4.073488
v -731.999939 1586.035645 1.907278
v -719.999939 1586.035645 1.907278
v -731.999939 1586.199951 -0.307481
v -719.999939 1586.199951 -0.307481
v -731.999939 1586.199951 -26.500004
v -719.999939 1586.199951 -26.500004
v -731.999939 1631.199951 -26.500004
v -719.999939 1631.199951 -26.500004
v -731.999939 1691.199951 1.5
v -719.999939 1691.199951 1.5
v -750.015381 2220.199951 21.499998
v -755.499939 2220.199951 63.099998
v -750.015381 2220.199951 63.099998
v -755.499939 2220.199951 21.499998
v -750.015381 2273.015381 63.099998
v -750.015381 2273.015381 21.499998
v -701.984497 2273.015381 63.099998
v -701.984497 2273.015381 21.499998
v -701.984497 2220.199951 63.099998
v -701.984497 2220.199951 21.499998
v -19.730782 2220.199951 63.099998
v -19.730782 2220.199951 21.499998
v -19.730782 2273.015381 63.099998
v -19.730782 2273.015381 21.499998
v 28.300066 2273.015381 63.099998
v 28.300066 2273.015381 21.499998
v 28.300066 2220.199951 63.099998
v 28.300066 2220.199951 21.499998
v 181.039017 2220.199951 63.099998
v 181.039017 2220.199951 21.499998
v 181.039017 2273.01416 63.099998
v 181.039017 2273.01416 21.499998
v 230.039017 2273.01416 63.099998
v 230.039017 2273.01416 21.499998
v 230.039017 2220.199951 63.099998
v 230.039017 2220.199951 21.499998
v 911.269226 2220.199951 63.099998
v 911.269226 2220.199951 21.499998
v 911.269226 2273.010498 63.099998
v 911.269226 2273.010498 21.499998
v 959.300049 2273.010498 63.099998
v 959.300049 2273.010498 21.499998
v 959.300049 2220.199951 63.099998
v 959.300049 2220.199951 21.499998
v 964.5 1700.199829 21.499998
v 964.5 1700.199829 63.099998
v 947.000061 1680.199951 63.099998
v 947.000061 1680.199951 21.499998
v 947.000061 1570.199951 63.099998
v 947.000061 1570.199951 21.499998
v -737.999939 1570.199951 21.499998
v -737.999939 1570.199951 63.099998
v -737.999939 1680.199951 63.099998
v -737.999939 1680.199951 21.499998
v -755.499939 1700.199951 21.499998
v -755.499939 1700.199951 63.099998
v 964.5 2220.199951 21.499998
v 964.5 2220.199951 63.099998
v 964.5 2220.199951 76.5
v 964.5 2224.699951 76.5
v -755.499939 2224.699951 76.5
v -755.499939 2220.199951 76.5
v -755.499939 2224.699951 1.5
v -755.499939 2220.199951 1.5
v 964.5 2224.699951 1.5
v 964.5 2220.199951 1.5
v -2675.015381 2220.199951 21.499998
v -2680.215332 2220.199951 63.099998
v -2675.015381 2220.199951 63.099998
v -2680.215332 2220.199951 21.499998
v -2675.015381 2273.015381 63.099998
v -2675.015381 2273.015381 21.499998
v -2626.984619 2273.015381 63.099998
v -2626.984619 2273.015381 21.499998
v -2626.984619 2220.199951 63.099998
v -2626.984619 2220.199951 21.499998
v -1945.015381 2220.199951 63.099998
v -1945.015381 2220.199951 21.499998
v -1945.015381 2273.015381 63.099998
v -1945.015381 2273.015381 21.499998
v -1896.984619 2273.015381 63.099998
v -1896.984619 2273.015381 21.499998
v -1896.984619 2220.199951 63.099998
v -1896.984619 2220.199951 21.499998
v -1579.446289 2220.199951 63.099998
v -1579.446289 2220.199951 21.499998
v -1579.446289 2272.993896 63.099998
v -1579.446289 2272.993896 21.499998
v -1531.415405 2272.993896 63.099998
v -1531.415405 2272.993896 21.499998
v -1531.415405 2220.199951 63.099998
v -1531.415405 2220.199951 21.499998
v -849.446289 2220.199951 63.099998
v -849.446289 2220.199951 21.499998
v -849.446289 2273.015381 63.099998
v -849.446289 2273.015381 21.499998
v -801.415405 2273.015381 63.099998
v -801.415405 2273.015381 21.499998
v -801.415405 2220.199951 63.099998
v -801.415405 2220.199951 21.499998
v -796.215454 1700.199829 21.499998
v -796.215454 1700.199829 63.099998
v -813.715393 1680.199951 63.099998
v -813.715393 1680.199951 21.499998
v -813.715393 1570.199951 63.099998
v -813.715393 1570.199951 21.499998
v -2662.715332 1570.199951 21.499998
v -2662.715332 1570.199951 63.099998
v -2662.715332 1680.199951 63.099998
v -2662.715332 1680.199951 21.499998
v -2680.215332 1700.199951 63.099998
v -2680.215332 1700.199951 21.499998
v -796.215454 2220.199951 63.099998
v -796.215454 2220.199951 21.499998
v -796.215454 2220.199951 76.5
v -796.215454 2224.699951 76.5
v -2680.215332 2224.699951 76.5
v -2680.215332 2220.199951 76.5
v -2680.215332 2224.699951 1.5
v -2680.215332 2220.199951 1.5
v -796.215454 2224.699951 1.5
v -796.215454 2220.199951 1.5
v -2644.715332 1298.699951 61.5
v -2656.715332 1298.699951 61.5
v -2656.715332 1298.699951 26.989449
v -2644.715332 1298.699951 26.989449
v -2656.715332 1501.249268 26.989449
v -2644.715332 1501.249268 26.989449
v -2656.715332 1509.543457 26.792788
v -2644.715332 1509.543457 26.792788
v -2656.715332 1517.81897 26.203243
v -2644.715332 1517.81897 26.203243
v -2656.715332 1526.057251 25.222141
v -2644.715332 1526.057251 25.222141
v -2656.715332 1534.239746 23.85169
v -2644.715332 1534.239746 23.85169
v -2656.715332 1542.348145 22.094965
v -2644.715332 1542.348145 22.094965
v -2644.715332 2220.199951 1.5
v -2656.715332 2220.199951 1.5
v -2656.715332 2220.199951 41.5
v -2644.715332 2220.199951 41.5
v -2656.715332 2215.199951 41.5
v -2644.715332 2215.199951 41.5
v -2656.715332 2215.199951 61.5
v -2644.715332 2215.199951 61.5
v -2656.715332 1574.722778 14.272992
v -2644.715332 1574.722778 14.272992
v -2656.715332 1576.836914 13.593047
v -2644.715332 1576.836914 13.593047
v -2656.715332 1578.827637 12.608391
v -2644.715332 1578.827637 12.608391
v -2656.715332 1580.651001 11.340609
v -2644.715332 1580.651001 11.340609
v -2656.715332 1582.267334 9.81749
v -2644.715332 1582.267334 9.81749
v -2656.715332 1583.640991 8.072424
v -2644.715332 1583.640991 8.072424
v -2656.715332 1584.741943 6.143663
v -2644.715332 1584.741943 6.143663
v -2656.715332 1585.546021 4.073488
v -2644.715332 1585.546021 4.073488
v -2656.715332 1586.035645 1.907278
v -2644.715332 1586.035645 1.907278
v -2656.715332 1586.199951 -0.307481
v -2644.715332 1586.199951 -0.307481
v -2656.715332 1586.199951 -26.500004
v -2644.715332 1586.199951 -26.500004
v -2656.715332 1631.199951 -26.500004
v -2644.715332 1631.199951 -26.500004
v -2656.715332 1691.199951 1.5
v -2644.715332 1691.199951 1.5
v -831.715393 1298.699951 61.5
v -831.715393 1298.699951 26.989449
v -819.715393 1298.699951 26.989449
v -819.715393 1298.699951 61.5
v -831.715393 1501.249268 26.989449
v -819.715393 1501.249268 26.989449
v -819.715393 1509.543457 26.792788
v -831.715393 1509.543457 26.792788
v -819.715393 1517.81897 26.203243
v -831.715393 1517.81897 26.203243
v -819.715393 1526.057251 25.222141
v -831.715393 1526.057251 25.222141
v -819.715393 1534.239746 23.85169
v -831.715393 1534.239746 23.85169
v -831.715393 1542.348145 22.094965
v -819.715393 1542.348145 22.094965
v -819.715393 2220.199951 1.5
v -831.715393 2220.199951 1.5
v -831.715393 2220.199951 41.5
v -819.715393 2220.199951 41.5
v -831.715393 2215.199951 41.5
v -819.715393 2215.199951 41.5
v -831.715393 2215.199951 61.5
v -819.715393 2215.199951 61.5
v -831.715393 1574.722778 14.272992
v -819.715393 1574.722778 14.272992
v -819.715393 1576.836914 13.593047
v -831.715393 1576.836914 13.593047
v -819.715393 1578.827637 12.608391
v -831.715393 1578.827637 12.608391
v -819.715393 1580.651001 11.340609
v -831.715393 1580.651001 11.340609
v -819.715393 1582.267334 9.81749
v -831.715393 1582.267334 9.81749
v -819.715393 1583.640991 8.072424
v -831.715393 1583.640991 8.072424
v -819.715393 1584.741943 6.143663
v -831.715393 1584.741943 6.143663
v -819.715393 1585.546021 4.073488
v -831.715393 1585.546021 4.073488
v -831.715393 1586.035645 1.907278
v -819.715393 1586.035645 1.907278
v -831.715393 1586.199951 -0.307481
v -819.715393 1586.199951 -0.307481
v -831.715393 1586.199951 -26.500004
v -819.715393 1586.199951 -26.500004
v -831.715393 1631.199951 -26.500004
v -819.715393 1631.199951 -26.500004
v -831.715393 1691.199951 1.5
v -819.715393 1691.199951 1.5
v -2656.999756 -1298.699951 61.5
v -2644.999756 -1298.699951 61.5
v -2656.999756 -1298.699951 26.989449
v -2644.999756 -1298.699951 26.989449
v -2656.999756 -1501.249268 26.989449
v -2644.999756 -1501.249268 26.989449
v -2656.999756 -1509.543457 26.792788
v -2644.999756 -1509.543457 26.792788
v -2656.999756 -1517.81897 26.203243
v -2644.999756 -1517.81897 26.203243
v -2656.999756 -1526.057251 25.222141
v -2644.999756 -1526.057251 25.222141
v -2656.999756 -1534.239746 23.85169
v -2644.999756 -1534.239746 23.85169
v -2644.999756 -1542.348145 22.094965
v -2656.999756 -1542.348145 22.094965
v -2656.999756 -2220.199951 1.5
v -2644.999756 -2220.199951 1.5
v -2656.999756 -2220.199951 41.5
v -2644.999756 -2220.199951 41.5
v -2656.999756 -2215.199951 41.5
v -2644.999756 -2215.199951 41.5
v -2656.999756 -2215.199951 61.5
v -2644.999756 -2215.199951 61.5
v -2656.999756 -1574.722778 14.272992
v -2644.999756 -1574.722778 14.272992
v -2644.999756 -1576.836914 13.593047
v -2656.999756 -1576.836914 13.593047
v -2644.999756 -1578.827637 12.608391
v -2656.999756 -1578.827637 12.608391
v -2644.999756 -1580.651001 11.340609
v -2656.999756 -1580.651001 11.340609
v -2644.999756 -1582.267334 9.81749
v -2656.999756 -1582.267334 9.81749
v -2644.999756 -1583.640991 8.072424
v -2656.999756 -1583.640991 8.072424
v -2644.999756 -1584.741943 6.143663
v -2656.999756 -1584.741943 6.143663
v -2644.999756 -1585.546021 4.073488
v -2656.999756 -1585.546021 4.073488
v -2644.999756 -1586.035645 1.907278
v -2656.999756 -1586.035645 1.907278
v -2644.999756 -1586.199951 -0.307481
v -2656.999756 -1586.199951 -0.307481
v -2656.999756 -1586.199951 -26.500004
v -2644.999756 -1586.199951 -26.500004
v -2656.999756 -1631.199951 -26.500004
v -2644.999756 -1631.199951 -26.500004
v -2656.999756 -1691.199951 1.5
v -2644.999756 -1691.199951 1.5
v -2680.499756 -2220.199951 63.099998
v -2680.499756 -2220.199951 21.499998
v -2675.015381 -2220.199951 63.099998
v -2675.015381 -2220.199951 21.499998
v -2675.015381 -2273.015381 63.099998
v -2675.015381 -2273.015381 21.499998
v -2626.984375 -2273.015381 63.099998
v -2626.984375 -2273.015381 21.499998
v -2626.984375 -2220.199951 63.099998
v -2626.984375 -2220.199951 21.499998
v -1944.730713 -2220.199951 63.099998
v -1944.730713 -2220.199951 21.499998
v -1944.730713 -2273.015381 63.099998
v -1944.730713 -2273.015381 21.499998
v -1896.699829 -2273.015381 63.099998
v -1896.699829 -2273.015381 21.499998
v -1896.699829 -2220.199951 63.099998
v -1896.699829 -2220.199951 21.499998
v -1743.960938 -2220.199951 63.099998
v -1743.960938 -2220.199951 21.499998
v -1743.960938 -2273.01416 63.099998
v -1743.960938 -2273.01416 21.499998
v -1694.960938 -2273.01416 63.099998
v -1694.960938 -2273.01416 21.499998
v -1694.960938 -2220.199951 63.099998
v -1694.960938 -2220.199951 21.499998
v -1013.730713 -2220.199951 63.099998
v -1013.730713 -2220.199951 21.499998
v -1013.730713 -2273.010498 63.099998
v -1013.730713 -2273.010498 21.499998
v -965.69989 -2273.010498 63.099998
v -965.69989 -2273.010498 21.499998
v -965.69989 -2220.199951 63.099998
v -965.69989 -2220.199951 21.499998
v -960.499939 -1700.199829 63.099998
v -960.499939 -1700.199829 21.499998
v -977.999878 -1680.199951 63.099998
v -977.999878 -1680.199951 21.499998
v -977.999878 -1570.199951 63.099998
v -977.999878 -1570.199951 21.499998
v -2662.999756 -1680.199951 63.099998
v -2662.999756 -1570.199951 63.099998
v -2662.999756 -1680.199951 21.499998
v -2662.999756 -1570.199951 21.499998
v -2680.499756 -1700.199951 63.099998
v -2680.499756 -1700.199951 21.499998
v -960.499939 -2220.199951 21.499998
v -960.499939 -2220.199951 63.099998
v -960.499939 -2224.699951 76.5
v -960.499939 -2220.199951 76.5
v -2680.499756 -2224.699951 76.5
v -2680.499756 -2220.199951 76.5
v -2680.499756 -2224.699951 1.5
v -2680.499756 -2220.199951 1.5
v -960.499939 -2224.699951 1.5
v -960.499939 -2220.199951 1.5
v -995.999878 -1298.699951 26.989449
v -995.999878 -1298.699951 61.5
v -983.999878 -1298.699951 26.989449
v -983.999878 -1298.699951 61.5
v -995.999878 -1501.249268 26.989449
v -983.999878 -1501.249268 26.989449
v -995.999878 -1509.543457 26.792788
v -983.999878 -1509.543457 26.792788
v -995.999878 -1517.81897 26.203243
v -983.999878 -1517.81897 26.203243
v -995.999878 -1526.057251 25.222141
v -983.999878 -1526.057251 25.222141
v -995.999878 -1534.239746 23.85169
v -983.999878 -1534.239746 23.85169
v -983.999878 -1542.348145 22.094965
v -995.999878 -1542.348145 22.094965
v -995.999878 -2220.199951 1.5
v -983.999878 -2220.199951 1.5
v -995.999878 -2220.199951 41.5
v -983.999878 -2220.199951 41.5
v -995.999878 -2215.199951 41.5
v -983.999878 -2215.199951 41.5
v -995.999878 -2215.199951 61.5
v -983.999878 -2215.199951 61.5
v -995.999878 -1574.722778 14.272992
v -983.999878 -1574.722778 14.272992
v -995.999878 -1576.836914 13.593047
v -983.999878 -1576.836914 13.593047
v -995.999878 -1578.827637 12.608391
v -983.999878 -1578.827637 12.608391
v -995.999878 -1580.651001 11.340609
v -983.999878 -1580.651001 11.340609
v -995.999878 -1582.267334 9.81749
v -983.999878 -1582.267334 9.81749
v -995.999878 -1583.640991 8.072424
v -983.999878 -1583.640991 8.072424
v -995.999878 -1584.741943 6.143663
v -983.999878 -1584.741943 6.143663
v -995.999878 -1585.546021 4.073488
v -983.999878 -1585.546021 4.073488
v -995.999878 -1586.035645 1.907278
v -983.999878 -1586.035645 1.907278
v -983.999878 -1586.199951 -0.307481
v -995.999878 -1586.199951 -0.307481
v -995.999878 -1586.199951 -26.500004
v -983.999878 -1586.199951 -26.500004
v -995.999878 -1631.199951 -26.500004
v -983.999878 -1631.199951 -26.500004
v -995.999878 -1691.199951 1.5
v -983.999878 -1691.199951 1.5
v -895.999939 -1298.699951 61.5
v -883.999939 -1298.699951 61.5
v -895.999939 -1298.699951 26.989449
v -883.999939 -1298.699951 26.989449
v -895.999939 -1501.249268 26.989449
v -883.999939 -1501.249268 26.989449
v -895.999939 -1509.543457 26.792788
v -883.999939 -1509.543457 26.792788
v -895.999939 -1517.81897 26.203243
v -883.999939 -1517.81897 26.203243
v -895.999939 -1526.057251 25.222141
v -883.999939 -1526.057251 25.222141
v -895.999939 -1534.239746 23.85169
v -883.999939 -1534.239746 23.85169
v -883.999939 -1542.348145 22.094965
v -895.999939 -1542.348145 22.094965
v -895.999939 -2220.199951 1.5
v -883.999939 -2220.199951 1.5
v -895.999939 -2220.199951 41.5
v -883.999939 -2220.199951 41.5
v -895.999939 -2215.199951 41.5
v -883.999939 -2215.199951 41.5
v -895.999939 -2215.199951 61.5
v -883.999939 -2215.199951 61.5
v -895.999939 -1574.722778 14.272992
v -883.999939 -1574.722778 14.272992
v -883.999939 -1576.836914 13.593047
v -895.999939 -1576.836914 13.593047
v -883.999939 -1578.827637 12.608391
v -895.999939 -1578.827637 12.608391
v -883.999939 -1580.651001 11.340609
v -895.999939 -1580.651001 11.340609
v -883.999939 -1582.267334 9.81749
v -895.999939 -1582.267334 9.81749
v -883.999939 -1583.640991 8.072424
v -895.999939 -1583.640991 8.072424
v -883.999939 -1584.741943 6.143663
v -895.999939 -1584.741943 6.143663
v -883.999939 -1585.546021 4.073488
v -895.999939 -1585.546021 4.073488
v -883.999939 -1586.035645 1.907278
v -895.999939 -1586.035645 1.907278
v -883.999939 -1586.199951 -0.307481
v -895.999939 -1586.199951 -0.307481
v -895.999939 -1586.199951 -26.500004
v -883.999939 -1586.199951 -26.500004
v -895.999939 -1631.199951 -26.500004
v -883.999939 -1631.199951 -26.500004
v -895.999939 -1691.199951 1.5
v -883.999939 -1691.199951 1.5
v -919.499939 -2220.199951 63.099998
v -919.499939 -2220.199951 21.499998
v -914.015381 -2220.199951 63.099998
v -914.015381 -2220.199951 21.499998
v -914.015381 -2273.015381 63.099998
v -914.015381 -2273.015381 21.499998
v -865.984497 -2273.015381 63.099998
v -865.984497 -2273.015381 21.499998
v -865.984497 -2220.199951 63.099998
v -865.984497 -2220.199951 21.499998
v -183.730789 -2220.199951 63.099998
v -183.730789 -2220.199951 21.499998
v -183.730789 -2273.015381 63.099998
v -183.730789 -2273.015381 21.499998
v -135.699936 -2273.015381 63.099998
v -135.699936 -2273.015381 21.499998
v -135.699936 -2220.199951 63.099998
v -135.699936 -2220.199951 21.499998
v 17.039015 -2220.199951 63.099998
v 17.039015 -2220.199951 21.499998
v 17.039015 -2273.01416 63.099998
v 17.039015 -2273.01416 21.499998
v 66.039017 -2273.01416 63.099998
v 66.039017 -2273.01416 21.499998
v 66.039017 -2220.199951 63.099998
v 66.039017 -2220.199951 21.499998
v 747.269226 -2220.199951 63.099998
v 747.269226 -2220.199951 21.499998
v 747.269226 -2273.010498 63.099998
v 747.269226 -2273.010498 21.499998
v 795.300049 -2273.010498 63.099998
v 795.300049 -2273.010498 21.499998
v 795.300049 -2220.199951 63.099998
v 795.300049 -2220.199951 21.499998
v 800.5 -1700.199829 63.099998
v 800.5 -1700.199829 21.499998
v 783.000061 -1680.199951 63.099998
v 783.000061 -1680.199951 21.499998
v 783.000061 -1570.199951 63.099998
v 783.000061 -1570.199951 21.499998
v -901.999939 -1680.199951 63.099998
v -901.999939 -1570.199951 63.099998
v -901.999939 -1680.199951 21.499998
v -901.999939 -1570.199951 21.499998
v -919.499939 -1700.199951 63.099998
v -919.499939 -1700.199951 21.499998
v 800.5 -2220.199951 21.499998
v 800.5 -2220.199951 63.099998
v 800.5 -2224.699951 76.5
v 800.5 -2220.199951 76.5
v -919.499939 -2224.699951 76.5
v -919.499939 -2220.199951 76.5
v -919.499939 -2224.699951 1.5
v -919.499939 -2220.199951 1.5
v 800.5 -2224.699951 1.5
v 800.5 -2220.199951 1.5
v 765.000061 -1298.699951 26.989449
v 765.000061 -1298.699951 61.5
v 777.000061 -1298.699951 26.989449
v 777.000061 -1298.699951 61.5
v 765.000061 -1501.249268 26.989449
v 777.000061 -1501.249268 26.989449
v 765.000061 -1509.543457 26.792788
v 777.000061 -1509.543457 26.792788
v 765.000061 -1517.81897 26.203243
v 777.000061 -1517.81897 26.203243
v 765.000061 -1526.057251 25.222141
v 777.000061 -1526.057251 25.222141
v 765.000061 -1534.239746 23.85169
v 777.000061 -1534.239746 23.85169
v 777.000061 -1542.348145 22.094965
v 765.000061 -1542.348145 22.094965
v 765.000061 -2220.199951 1.5
v 777.000061 -2220.199951 1.5
v 765.000061 -2220.199951 41.5
v 777.000061 -2220.199951 41.5
v 765.000061 -2215.199951 41.5
v 777.000061 -2215.199951 41.5
v 765.000061 -2215.199951 61.5
v 777.000061 -2215.199951 61.5
v 765.000061 -1574.722778 14.272992
v 777.000061 -1574.722778 14.272992
v 765.000061 -1576.836914 13.593047
v 777.000061 -1576.836914 13.593047
v 765.000061 -1578.827637 12.608391
v 777.000061 -1578.827637 12.608391
v 765.000061 -1580.651001 11.340609
v 777.000061 -1580.651001 11.340609
v 765.000061 -1582.267334 9.81749
v 777.000061 -1582.267334 9.81749
v 765.000061 -1583.640991 8.072424
v 777.000061 -1583.640991 8.072424
v 765.000061 -1584.741943 6.143663
v 777.000061 -1584.741943 6.143663
v 765.000061 -1585.546021 4.073488
v 777.000061 -1585.546021 4.073488
v 765.000061 -1586.035645 1.907278
v 777.000061 -1586.035645 1.907278
v 777.000061 -1586.199951 -0.307481
v 765.000061 -1586.199951 -0.307481
v 765.000061 -1586.199951 -26.500004
v 777.000061 -1586.199951 -26.500004
v 765.000061 -1631.199951 -26.500004
v 777.000061 -1631.199951 -26.500004
v 765.000061 -1691.199951 1.5
v 777.000061 -1691.199951 1.5
vn 0.0 -1.0 0.0
vn -0.0 -1.0 -0.0
vn 0.0 0.0 -1.0
vn 0.0 0.0 -1.0
vn -0.0 -0.023704 -0.999719
vn -0.0 -0.07106 -0.997472
vn 0.0 -0.023704 -0.999719
vn -0.0 -0.118255 -0.992983
vn 0.0 -0.07106 -0.997472
vn -0.0 -0.165185 -0.986263
vn 0.0 -0.118255 -0.992983
vn 0.0 -0.165185 -0.986263
vn 0.0 -0.211742 -0.977325
vn 0.0 -0.211742 -0.977325
vn 0.0 1.0 0.0
vn 0.0 1.0 -0.0
vn 0.0 0.0 1.0
vn 0.0 0.0 1.0
vn 0.0 1.0 0.0
vn 0.0 1.0 -0.0
vn 0.0 0.0 1.0
vn 0.0 0.0 1.0
vn 0.0 -0.234851 -0.972031
vn -0.0 -0.234851 -0.972031
vn -0.0 -0.306173 -0.951976
vn -0.0 -0.443353 -0.896347
vn 0.0 -0.306173 -0.951976
vn -0.0 -0.570869 -0.821041
vn 0.0 -0.443353 -0.896347
vn -0.0 -0.68581 -0.727781
vn 0.0 -0.570869 -0.821041
vn -0.0 -0.785764 -0.618527
vn 0.0 -0.68581 -0.727781
vn -0.0 -0.868475 -0.495733
vn 0.0 -0.785764 -0.618527
vn -0.0 -0.932155 -0.362059
vn 0.0 -0.868475 -0.495733
vn 0.0 -0.932155 -0.362059
vn 0.0 -0.975394 -0.220466
vn 0.0 -0.975394 -0.220466
vn 0.0 -0.997259 -0.073984
vn 0.0 -0.997259 -0.073984
vn 0.0 -1.0 0.0
vn -0.0 -1.0 -0.0
vn 0.0 0.0 -1.0
vn 0.0 0.0 -1.0
vn 0.0 0.422886 -0.906183
vn 0.0 0.422886 -0.906183
vn 0.0 0.0 -1.0
vn 0.0 0.0 -1.0
vn 1.0 0.0 0.0
vn 1.0 0.0 0.0
vn 1.0 0.0 0.0
vn 1.0 0.0 0.0
vn 1.0 0.0 0.0
vn 1.0 0.0 0.0
vn 1.0 0.0 0.0
vn 1.0 0.0 0.0
vn 1.0 0.0 0.0
vn 1.0 0.0 0.0
vn 1.0 0.0 0.0
vn 1.0 0.0 0.0
vn 1.0 0.0 0.0
vn 1.0 0.0 0.0
vn 1.0 0.0 0.0
vn 1.0 0.0 0.0
vn 1.0 0.0 0.0
vn 1.0 0.0 0.0
vn 1.0 0.0 0.0
vn 1.0 0.0 0.0
vn 1.0 0.0 0.0
vn 1.0 0.0 0.0
vn 1.0 0.0 0.0
vn -1.0 0.0 0.0
vn -1.0 0.0 0.0
vn -1.0 0.0 0.0
vn -1.0 0.0 0.0
vn -1.0 0.0 0.0
vn -1.0 0.0 0.0
vn -1.0 0.0 0.0
vn -1.0 0.0 0.0
vn -1.0 0.0 0.0
vn -1.0 0.0 0.0
vn -1.0 0.0 0.0
vn -1.0 0.0 0.0
vn -1.0 0.0 0.0
vn -1.0 0.0 0.0
vn -1.0 0.0 0.0
vn -1.0 0.0 0.0
vn -1.0 0.0 0.0
vn -1.0 0.0 0.0
vn -1.0 0.0 0.0
vn -1.0 0.0 0.0
vn -1.0 0.0 0.0
vn -1.0 0.0 0.0
vn -1.0 0.0 0.0
vn -0.0 -1.0 0.0
vn 0.0 -1.0 -0.0
vn 0.0 0.0 -1.0
vn 0.0 0.0 -1.0
vn -0.0 -0.023704 -0.999719
vn -0.0 -0.07106 -0.997472
vn 0.0 -0.023704 -0.999719
vn -0.0 -0.118255 -0.992983
vn 0.0 -0.07106 -0.997472
vn -0.0 -0.165185 -0.986263
vn 0.0 -0.118255 -0.992983
vn 0.0 -0.165185 -0.986263
vn 0.0 -0.211742 -0.977325
vn 0.0 -0.211742 -0.977325
vn 0.0 1.0 0.0
vn 0.0 1.0 -0.0
vn 0.0 0.0 1.0
vn 0.0 0.0 1.0
vn 0.0 1.0 0.0
vn 0.0 1.0 -0.0
vn 0.0 0.0 1.0
vn 0.0 0.0 1.0
vn 0.0 -0.234851 -0.972031
vn -0.0 -0.234851 -0.972031
vn 0.0 -0.306173 -0.951976
vn 0.0 -0.306173 -0.951976
vn 0.0 -0.443353 -0.896347
vn 0.0 -0.443353 -0.896347
vn 0.0 -0.570869 -0.821041
vn 0.0 -0.570869 -0.821041
vn 0.0 -0.68581 -0.727781
vn 0.0 -0.68581 -0.727781
vn 0.0 -0.785764 -0.618527
vn 0.0 -0.785764 -0.618527
vn 0.0 -0.868475 -0.495733
vn 0.0 -0.868475 -0.495733
vn 0.0 -0.932155 -0.362059
vn 0.0 -0.932155 -0.362059
vn 0.0 -0.975394 -0.220466
vn 0.0 -0.975394 -0.220466
vn 0.0 -0.997259 -0.073984
vn 0.0 -0.997259 -0.073984
vn -0.0 -1.0 0.0
vn 0.0 -1.0 -0.0
vn 0.0 0.0 -1.0
vn 0.0 0.0 -1.0
vn 0.0 0.422886 -0.906183
vn 0.0 0.422886 -0.906183
vn 0.0 0.0 -1.0
vn 0.0 0.0 -1.0
vn 1.0 0.0 0.0
vn 1.0 0.0 0.0
vn 1.0 0.0 0.0
vn 1.0 0.0 0.0
vn 1.0 0.0 0.0
vn 1.0 0.0 0.0
vn 1.0 0.0 0.0
vn 1.0 0.0 0.0
vn 1.0 0.0 0.0
vn 1.0 0.0 0.0
vn 1.0 0.0 0.0
vn 1.0 0.0 0.0
vn 1.0 0.0 0.0
vn 1.0 0.0 0.0
vn 1.0 0.0 0.0
vn 1.0 0.0 0.0
vn 1.0 0.0 0.0
vn 1.0 0.0 0.0
vn 1.0 0.0 0.0
vn 1.0 0.0 0.0
vn 1.0 0.0 0.0
vn 1.0 0.0 0.0
vn 1.0 0.0 0.0
vn -1.0 0.0 0.0
vn -1.0 0.0 0.0
vn -1.0 0.0 0.0
vn -1.0 0.0 0.0
vn -1.0 0.0 0.0
vn -1.0 0.0 0.0
vn -1.0 0.0 0.0
vn -1.0 0.0 0.0
vn -1.0 0.0 0.0
vn -1.0 0.0 0.0
vn -1.0 0.0 0.0
vn -1.0 0.0 0.0
vn -1.0 0.0 0.0
vn -1.0 0.0 0.0
vn -1.0 0.0 0.0
vn -1.0 0.0 0.0
vn -1.0 0.0 0.0
vn -1.0 0.0 0.0
vn -1.0 0.0 0.0
vn -1.0 0.0 0.0
vn -1.0 0.0 0.0
vn -1.0 0.0 0.0
vn -1.0 0.0 0.0
vn 0.0 1.0 -0.0
vn 0.0 1.0 0.0
vn -1.0 0.0 0.0
vn -1.0 0.0 0.0
vn 0.0 1.0 0.0
vn 0.0 1.0 0.0
vn 1.0 0.0 -0.0
vn 1.0 0.0 0.0
vn 0.0 1.0 0.0
vn 0.0 1.0 0.0
vn -1.0 0.0 0.0
vn -1.0 0.0 0.0
vn 0.0 1.0 0.0
vn 0.0 1.0 0.0
vn 1.0 0.0 -0.0
vn 1.0 0.0 0.0
vn 0.0 1.0 0.0
vn 0.0 1.0 0.0
vn -1.0 0.0 0.0
vn -1.0 0.0 0.0
vn -0.0 1.0 0.0
vn 0.0 1.0 0.0
vn 1.0 0.0 -0.0
vn 1.0 0.0 0.0
vn 0.0 1.0 0.0
vn 0.0 1.0 0.0
vn -1.0 0.0 0.0
vn -1.0 0.0 0.0
vn -0.0 1.0 0.0
vn 0.0 1.0 0.0
vn 1.0 0.0 -0.0
vn 1.0 0.0 0.0
vn 0.752576 -0.658506 0.0
vn 0.752576 -0.658506 0.0
vn 1.0 0.0 -0.0
vn 1.0 0.0 0.0
vn -1.0 0.0 0.0
vn -1.0 0.0 0.0
vn -0.752577 -0.658505 0.0
vn -0.752577 -0.658505 0.0
vn -0.0 -1.0 0.0
vn 0.0 -1.0 0.0
vn -1.0 0.0 0.0
vn -1.0 0.0 0.0
vn 0.0 1.0 -0.0
vn 0.0 1.0 0.0
vn 1.0 0.0 -0.0
vn 1.0 0.0 0.0
vn -0.0 0.0 -1.0
vn 0.0 0.0 -1.0
vn -0.0 0.0 -1.0
vn 0.0 0.0 -1.0
vn -0.0 0.0 -1.0
vn 0.0 -0.0 -1.0
vn -0.0 0.0 -1.0
vn 0.0 0.0 -1.0
vn -0.0 -0.0 -1.0
vn -0.0 -0.0 -1.0
vn 0.0 0.0 -1.0
vn -0.0 -0.0 -1.0
vn -0.0 0.0 -1.0
vn 0.0 -0.0 -1.0
vn 0.0 0.0 -1.0
vn -0.0 -0.0 -1.0
vn -0.0 -0.0 -1.0
vn -0.0 -0.0 -1.0
vn -0.0 0.0 -1.0
vn 0.0 -0.0 -1.0
vn -0.0 0.0 -1.0
vn 0.0 -0.0 -1.0
vn 0.0 0.0 1.0
vn 0.0 0.0 1.0
vn 0.0 -0.0 1.0
vn 0.0 0.0 1.0
vn 0.0 0.0 1.0
vn 0.0 0.0 1.0
vn 0.0 0.0 1.0
vn 0.0 -0.0 1.0
vn 0.0 0.0 1.0
vn 0.0 0.0 1.0
vn 0.0 -0.0 1.0
vn 0.0 0.0 1.0
vn 0.0 -0.0 1.0
vn 0.0 0.0 1.0
vn 0.0 0.0 1.0
vn 0.0 0.0 1.0
vn 0.0 0.0 1.0
vn 0.0 0.0 1.0
vn 0.0 -0.0 1.0
vn 0.0 -0.0 1.0
vn 0.0 0.0 1.0
vn 0.0 0.0 1.0
vn 0.0 -0.0 1.0
vn 0.0 0.0 1.0
vn -1.0 0.0 -0.0
vn -1.0 0.0 0.0
vn 0.0 0.0 -1.0
vn 0.0 0.0 -1.0
vn 1.0 0.0 -0.0
vn 1.0 0.0 0.0
vn 0.0 -1.0 0.0
vn 0.0 -1.0 0.0
vn 0.0 1.0 0.0
vn 0.0 1.0 0.0
vn 0.0 1.0 -0.0
vn 0.0 1.0 0.0
vn -1.0 0.0 0.0
vn -1.0 0.0 0.0
vn 0.0 1.0 0.0
vn 0.0 1.0 0.0
vn 1.0 0.0 -0.0
vn 1.0 0.0 0.0
vn 0.0 1.0 0.0
vn 0.0 1.0 0.0
vn -1.0 0.0 0.0
vn -1.0 0.0 0.0
vn 0.0 1.0 0.0
vn 0.0 1.0 0.0
vn 1.0 0.0 -0.0
vn 1.0 0.0 0.0
vn -0.0 1.0 0.0
vn 0.0 1.0 0.0
vn -1.0 0.0 0.0
vn -1.0 0.0 0.0
vn 0.0 1.0 0.0
vn 0.0 1.0 0.0
vn 1.0 0.0 -0.0
vn 1.0 0.0 0.0
vn 0.0 1.0 0.0
vn 0.0 1.0 0.0
vn -1.0 0.0 0.0
vn -1.0 0.0 0.0
vn 0.0 1.0 0.0
vn 0.0 1.0 0.0
vn 1.0 0.0 -0.0
vn 1.0 0.0 0.0
vn 0.752576 -0.658506 0.0
vn 0.752576 -0.658506 0.0
vn 1.0 0.0 0.0
vn 1.0 0.0 -0.0
vn -1.0 0.0 0.0
vn -1.0 0.0 0.0
vn -0.752577 -0.658505 0.0
vn -0.752577 -0.658505 0.0
vn 0.0 -1.0 0.0
vn 0.0 -1.0 0.0
vn -1.0 0.0 0.0
vn -1.0 0.0 0.0
vn 0.0 1.0 0.0
vn 0.0 1.0 0.0
vn 1.0 0.0 -0.0
vn 1.0 0.0 0.0
vn -0.0 0.0 -1.0
vn 0.0 0.0 -1.0
vn -0.0 0.0 -1.0
vn 0.0 0.0 -1.0
vn -0.0 0.0 -1.0
vn -0.0 0.0 -1.0
vn -0.0 0.0 -1.0
vn 0.0 -0.0 -1.0
vn 0.0 -0.0 -1.0
vn -0.0 0.0 -1.0
vn 0.0 0.0 -1.0
vn -0.0 -0.0 -1.0
vn -0.0 0.0 -1.0
vn 0.0 -0.0 -1.0
vn 0.0 0.0 -1.0
vn -0.0 -0.0 -1.0
vn -0.0 -0.0 -1.0
vn -0.0 -0.0 -1.0
vn -0.0 0.0 -1.0
vn 0.0 -0.0 -1.0
vn 0.0 0.0 -1.0
vn -0.0 -0.0 -1.0
vn 0.0 0.0 1.0
vn 0.0 -0.0 1.0
vn 0.0 0.0 1.0
vn 0.0 0.0 1.0
vn 0.0 -0.0 1.0
vn 0.0 0.0 1.0
vn 0.0 0.0 1.0
vn 0.0 -0.0 1.0
vn 0.0 0.0 1.0
vn 0.0 0.0 1.0
vn 0.0 0.0 1.0
vn 0.0 0.0 1.0
vn 0.0 -0.0 1.0
vn 0.0 -0.0 1.0
vn 0.0 0.0 1.0
vn 0.0 0.0 1.0
vn 0.0 0.0 1.0
vn 0.0 0.0 1.0
vn 0.0 -0.0 1.0
vn 0.0 -0.0 1.0
vn 0.0 0.0 1.0
vn 0.0 0.0 1.0
vn 0.0 -0.0 1.0
vn 0.0 0.0 1.0
vn -1.0 0.0 -0.0
vn -1.0 0.0 0.0
vn 0.0 0.0 -1.0
vn 0.0 0.0 -1.0
vn 1.0 0.0 -0.0
vn 1.0 0.0 0.0
vn 0.0 -1.0 0.0
vn 0.0 -1.0 0.0
vn 0.0 1.0 0.0
vn 0.0 1.0 0.0
vn -0.0 -1.0 0.0
vn 0.0 -1.0 -0.0
vn 0.0 0.0 -1.0
vn 0.0 0.0 -1.0
vn 0.0 -0.023704 -0.999719
vn 0.0 -0.023704 -0.999719
vn 0.0 -0.07106 -0.997472
vn 0.0 -0.07106 -0.997472
vn 0.0 -0.118255 -0.992983
vn 0.0 -0.118255 -0.992983
vn 0.0 -0.165185 -0.986263
vn 0.0 -0.165185 -0.986263
vn 0.0 -0.211742 -0.977325
vn 0.0 -0.211742 -0.977325
vn 0.0 1.0 0.0
vn 0.0 1.0 -0.0
vn 0.0 0.0 1.0
vn 0.0 0.0 1.0
vn 0.0 1.0 0.0
vn 0.0 1.0 -0.0
vn 0.0 0.0 1.0
vn 0.0 0.0 1.0
vn 0.0 -0.234851 -0.972031
vn -0.0 -0.234851 -0.972031
vn 0.0 -0.306173 -0.951976
vn 0.0 -0.306173 -0.951976
vn 0.0 -0.443353 -0.896347
vn 0.0 -0.443353 -0.896347
vn 0.0 -0.570869 -0.821041
vn 0.0 -0.570869 -0.821041
vn 0.0 -0.68581 -0.727781
vn 0.0 -0.68581 -0.727781
vn 0.0 -0.785764 -0.618527
vn 0.0 -0.785764 -0.618527
vn 0.0 -0.868475 -0.495733
vn 0.0 -0.868475 -0.495733
vn 0.0 -0.932155 -0.362059
vn 0.0 -0.932155 -0.362059
vn 0.0 -0.975394 -0.220466
vn 0.0 -0.975394 -0.220466
vn 0.0 -0.997259 -0.073984
vn 0.0 -0.997259 -0.073984
vn -0.0 -1.0 0.0
vn 0.0 -1.0 -0.0
vn 0.0 0.0 -1.0
vn 0.0 0.0 -1.0
vn 0.0 0.422886 -0.906183
vn 0.0 0.422886 -0.906183
vn 0.0 0.0 -1.0
vn 0.0 0.0 -1.0
vn 1.0 0.0 0.0
vn 1.0 0.0 0.0
vn 1.0 0.0 0.0
vn 1.0 0.0 0.0
vn 1.0 0.0 0.0
vn 1.0 0.0 0.0
vn 1.0 0.0 0.0
vn 1.0 0.0 0.0
vn 1.0 0.0 0.0
vn 1.0 0.0 0.0
vn 1.0 0.0 0.0
vn 1.0 0.0 0.0
vn 1.0 0.0 0.0
vn 1.0 0.0 0.0
vn 1.0 0.0 0.0
vn 1.0 0.0 0.0
vn 1.0 0.0 0.0
vn 1.0 0.0 0.0
vn 1.0 0.0 0.0
vn 1.0 0.0 0.0
vn 1.0 0.0 0.0
vn 1.0 0.0 0.0
vn 1.0 0.0 0.0
vn -1.0 0.0 0.0
vn -1.0 0.0 0.0
vn -1.0 0.0 0.0
vn -1.0 0.0 0.0
vn -1.0 0.0 0.0
vn -1.0 0.0 0.0
vn -1.0 0.0 0.0
vn -1.0 0.0 0.0
vn -1.0 0.0 0.0
vn -1.0 0.0 0.0
vn -1.0 0.0 0.0
vn -1.0 0.0 0.0
vn -1.0 0.0 0.0
vn -1.0 0.0 0.0
vn -1.0 0.0 0.0
vn -1.0 0.0 0.0
vn -1.0 0.0 0.0
vn -1.0 0.0 0.0
vn -1.0 0.0 0.0
vn -1.0 0.0 0.0
vn -1.0 0.0 0.0
vn -1.0 0.0 0.0
vn -1.0 0.0 0.0
vn 0.0 -1.0 0.0
vn -0.0 -1.0 -0.0
vn 0.0 0.0 -1.0
vn 0.0 0.0 -1.0
vn -0.0 -0.023704 -0.999719
vn -0.0 -0.07106 -0.997472
vn 0.0 -0.023704 -0.999719
vn -0.0 -0.118255 -0.992983
vn 0.0 -0.07106 -0.997472
vn -0.0 -0.165185 -0.986263
vn 0.0 -0.118255 -0.992983
vn 0.0 -0.165185 -0.986263
vn 0.0 -0.211742 -0.977325
vn 0.0 -0.211742 -0.977325
vn 0.0 1.0 0.0
vn 0.0 1.0 -0.0
vn 0.0 0.0 1.0
vn 0.0 0.0 1.0
vn 0.0 1.0 0.0
vn 0.0 1.0 -0.0
vn 0.0 0.0 1.0
vn 0.0 0.0 1.0
vn 0.0 -0.234851 -0.972031
vn -0.0 -0.234851 -0.972031
vn -0.0 -0.306173 -0.951976
vn -0.0 -0.443353 -0.896347
vn 0.0 -0.306173 -0.951976
vn -0.0 -0.570869 -0.821041
vn 0.0 -0.443353 -0.896347
vn -0.0 -0.68581 -0.727781
vn 0.0 -0.570869 -0.821041
vn -0.0 -0.785764 -0.618527
vn 0.0 -0.68581 -0.727781
vn -0.0 -0.868475 -0.495733
vn 0.0 -0.785764 -0.618527
vn -0.0 -0.932155 -0.362059
vn 0.0 -0.868475 -0.495733
vn 0.0 -0.932155 -0.362059
vn 0.0 -0.975394 -0.220466
vn 0.0 -0.975394 -0.220466
vn 0.0 -0.997259 -0.073984
vn 0.0 -0.997259 -0.073984
vn 0.0 -1.0 0.0
vn -0.0 -1.0 -0.0
vn 0.0 0.0 -1.0
vn 0.0 0.0 -1.0
vn 0.0 0.422886 -0.906183
vn 0.0 0.422886 -0.906183
vn 0.0 0.0 -1.0
vn 0.0 0.0 -1.0
vn 1.0 0.0 0.0
vn 1.0 0.0 0.0
vn 1.0 0.0 0.0
vn 1.0 0.0 0.0
vn 1.0 0.0 0.0
vn 1.0 0.0 0.0
vn 1.0 0.0 0.0
vn 1.0 0.0 0.0
vn 1.0 0.0 0.0
vn 1.0 0.0 0.0
vn 1.0 0.0 0.0
vn 1.0 0.0 0.0
vn 1.0 0.0 0.0
vn 1.0 0.0 0.0
vn 1.0 0.0 0.0
vn 1.0 0.0 0.0
vn 1.0 0.0 0.0
vn 1.0 0.0 0.0
vn 1.0 0.0 0.0
vn 1.0 0.0 0.0
vn 1.0 0.0 0.0
vn 1.0 0.0 0.0
vn 1.0 0.0 0.0
vn -1.0 0.0 0.0
vn -1.0 0.0 0.0
vn -1.0 0.0 0.0
vn -1.0 0.0 0.0
vn -1.0 0.0 0.0
vn -1.0 0.0 0.0
vn -1.0 0.0 0.0
vn -1.0 0.0 0.0
vn -1.0 0.0 0.0
vn -1.0 0.0 0.0
vn -1.0 0.0 0.0
vn -1.0 0.0 0.0
vn -1.0 0.0 0.0
vn -1.0 0.0 0.0
vn -1.0 0.0 0.0
vn -1.0 0.0 0.0
vn -1.0 0.0 0.0
vn -1.0 0.0 0.0
vn -1.0 0.0 0.0
vn -1.0 0.0 0.0
vn -1.0 0.0 0.0
vn -1.0 0.0 0.0
vn -1.0 0.0 0.0
vn -0.0 1.0 0.0
vn 0.0 1.0 0.0
vn 0.0 0.0 -1.0
vn 0.0 0.0 -1.0
vn 0.0 0.023704 -0.999719
vn 0.0 0.07106 -0.997472
vn 0.0 0.023704 -0.999719
vn 0.0 0.118255 -0.992983
vn 0.0 0.07106 -0.997472
vn 0.0 0.165185 -0.986263
vn 0.0 0.118255 -0.992983
vn 0.0 0.165185 -0.986263
vn 0.0 0.211742 -0.977325
vn 0.0 0.211742 -0.977325
vn 0.0 -1.0 0.0
vn 0.0 -1.0 0.0
vn 0.0 0.0 1.0
vn -0.0 0.0 1.0
vn 0.0 -1.0 0.0
vn 0.0 -1.0 0.0
vn 0.0 0.0 1.0
vn -0.0 0.0 1.0
vn 0.0 0.234851 -0.972031
vn 0.0 0.234851 -0.972031
vn 0.0 0.306173 -0.951976
vn 0.0 0.306173 -0.951976
vn 0.0 0.443353 -0.896347
vn 0.0 0.443353 -0.896347
vn 0.0 0.570869 -0.821041
vn 0.0 0.570869 -0.821041
vn 0.0 0.68581 -0.727781
vn 0.0 0.68581 -0.727781
vn 0.0 0.785764 -0.618527
vn 0.0 0.785764 -0.618527
vn 0.0 0.868475 -0.495733
vn 0.0 0.868475 -0.495733
vn 0.0 0.932155 -0.362059
vn 0.0 0.932155 -0.362059
vn 0.0 0.975394 -0.220466
vn 0.0 0.975394 -0.220466
vn 0.0 0.997259 -0.073984
vn 0.0 0.997259 -0.073984
vn -0.0 1.0 0.0
vn 0.0 1.0 0.0
vn 0.0 0.0 -1.0
vn 0.0 0.0 -1.0
vn 0.0 -0.422886 -0.906183
vn 0.0 -0.422886 -0.906183
vn 0.0 0.0 -1.0
vn 0.0 0.0 -1.0
vn 1.0 0.0 0.0
vn 1.0 0.0 0.0
vn 1.0 0.0 0.0
vn 1.0 0.0 0.0
vn 1.0 0.0 0.0
vn 1.0 0.0 0.0
vn 1.0 0.0 0.0
vn 1.0 0.0 0.0
vn 1.0 0.0 0.0
vn 1.0 0.0 0.0
vn 1.0 0.0 0.0
vn 1.0 0.0 0.0
vn 1.0 0.0 0.0
vn 1.0 0.0 0.0
vn 1.0 0.0 0.0
vn 1.0 0.0 0.0
vn 1.0 0.0 0.0
vn 1.0 0.0 0.0
vn 1.0 0.0 0.0
vn 1.0 0.0 0.0
vn 1.0 0.0 0.0
vn 1.0 0.0 0.0
vn 1.0 0.0 0.0
vn -1.0 0.0 0.0
vn -1.0 0.0 0.0
vn -1.0 0.0 -0.0
vn -1.0 0.0 0.0
vn -1.0 0.0 0.0
vn -1.0 0.0 0.0
vn -1.0 0.0 0.0
vn -1.0 0.0 0.0
vn -1.0 0.0 0.0
vn -1.0 0.0 0.0
vn -1.0 0.0 0.0
vn -1.0 0.0 0.0
vn -1.0 0.0 0.0
vn -1.0 0.0 0.0
vn -1.0 0.0 0.0
vn -1.0 0.0 0.0
vn -1.0 0.0 0.0
vn -1.0 0.0 0.0
vn -1.0 0.0 0.0
vn -1.0 0.0 0.0
vn -1.0 0.0 0.0
vn -1.0 0.0 0.0
vn -1.0 0.0 0.0
vn 0.0 -1.0 0.0
vn 0.0 -1.0 -0.0
vn -1.0 0.0 0.0
vn -1.0 0.0 -0.0
vn 0.0 -1.0 0.0
vn 0.0 -1.0 -0.0
vn 1.0 0.0 0.0
vn 1.0 0.0 0.0
vn 0.0 -1.0 0.0
vn 0.0 -1.0 -0.0
vn -1.0 -0.0 -0.0
vn -1.0 0.0 0.0
vn -0.0 -1.0 -0.0
vn 0.0 -1.0 0.0
vn 1.0 -0.0 0.0
vn 1.0 0.0 0.0
vn 0.0 -1.0 0.0
vn 0.0 -1.0 -0.0
vn -1.0 -0.0 -0.0
vn -1.0 0.0 0.0
vn 0.0 -1.0 0.0
vn 0.0 -1.0 -0.0
vn 1.0 0.0 0.0
vn 1.0 0.0 0.0
vn 0.0 -1.0 0.0
vn 0.0 -1.0 -0.0
vn -1.0 -0.0 -0.0
vn -1.0 0.0 0.0
vn 0.0 -1.0 0.0
vn 0.0 -1.0 -0.0
vn 1.0 -0.0 0.0
vn 1.0 0.0 0.0
vn 0.752576 0.658506 0.0
vn 0.752576 0.658506 0.0
vn 1.0 -0.0 0.0
vn 1.0 0.0 0.0
vn -1.0 0.0 0.0
vn -1.0 0.0 -0.0
vn -0.752577 0.658505 0.0
vn -0.752577 0.658505 0.0
vn -0.0 1.0 0.0
vn 0.0 1.0 0.0
vn -1.0 -0.0 -0.0
vn -1.0 0.0 0.0
vn 0.0 -1.0 0.0
vn 0.0 -1.0 0.0
vn 1.0 -0.0 0.0
vn 1.0 0.0 0.0
vn 0.0 0.0 -1.0
vn 0.0 -0.0 -1.0
vn 0.0 0.0 -1.0
vn 0.0 0.0 -1.0
vn 0.0 0.0 -1.0
vn -0.0 0.0 -1.0
vn 0.0 0.0 -1.0
vn 0.0 0.0 -1.0
vn -0.0 -0.0 -1.0
vn 0.0 0.0 -1.0
vn -0.0 0.0 -1.0
vn 0.0 0.0 -1.0
vn -0.0 0.0 -1.0
vn 0.0 -0.0 -1.0
vn -0.0 0.0 -1.0
vn 0.0 0.0 -1.0
vn 0.0 0.0 -1.0
vn 0.0 -0.0 -1.0
vn 0.0 0.0 -1.0
vn -0.0 -0.0 -1.0
vn -0.0 0.0 -1.0
vn 0.0 -0.0 -1.0
vn 0.0 0.0 1.0
vn 0.0 0.0 1.0
vn -0.0 0.0 1.0
vn 0.0 -0.0 1.0
vn 0.0 -0.0 1.0
vn -0.0 0.0 1.0
vn 0.0 -0.0 1.0
vn 0.0 -0.0 1.0
vn 0.0 0.0 1.0
vn 0.0 -0.0 1.0
vn 0.0 -0.0 1.0
vn 0.0 0.0 1.0
vn 0.0 -0.0 1.0
vn 0.0 0.0 1.0
vn 0.0 -0.0 1.0
vn 0.0 -0.0 1.0
vn 0.0 -0.0 1.0
vn 0.0 -0.0 1.0
vn 0.0 -0.0 1.0
vn 0.0 -0.0 1.0
vn 0.0 -0.0 1.0
vn 0.0 0.0 1.0
vn 0.0 -0.0 1.0
vn 0.0 0.0 1.0
vn -1.0 0.0 0.0
vn -1.0 0.0 0.0
vn 0.0 0.0 -1.0
vn 0.0 0.0 -1.0
vn 1.0 -0.0 0.0
vn 1.0 0.0 0.0
vn 0.0 1.0 0.0
vn 0.0 1.0 -0.0
vn 0.0 -1.0 -0.0
vn 0.0 -1.0 0.0
vn 0.0 1.0 0.0
vn -0.0 1.0 0.0
vn 0.0 0.0 -1.0
vn 0.0 0.0 -1.0
vn 0.0 0.023704 -0.999719
vn 0.0 0.07106 -0.997472
vn 0.0 0.023704 -0.999719
vn 0.0 0.118255 -0.992983
vn 0.0 0.07106 -0.997472
vn 0.0 0.165185 -0.986263
vn 0.0 0.118255 -0.992983
vn 0.0 0.165185 -0.986263
vn 0.0 0.211742 -0.977325
vn 0.0 0.211742 -0.977325
vn 0.0 -1.0 0.0
vn 0.0 -1.0 0.0
vn 0.0 0.0 1.0
vn -0.0 0.0 1.0
vn 0.0 -1.0 0.0
vn 0.0 -1.0 0.0
vn 0.0 0.0 1.0
vn -0.0 0.0 1.0
vn 0.0 0.234851 -0.972031
vn 0.0 0.234851 -0.972031
vn 0.0 0.306173 -0.951976
vn 0.0 0.443353 -0.896347
vn 0.0 0.306173 -0.951976
vn 0.0 0.570869 -0.821041
vn 0.0 0.443353 -0.896347
vn 0.0 0.68581 -0.727781
vn 0.0 0.570869 -0.821041
vn 0.0 0.785764 -0.618527
vn 0.0 0.68581 -0.727781
vn 0.0 0.868475 -0.495733
vn 0.0 0.785764 -0.618527
vn 0.0 0.932155 -0.362059
vn 0.0 0.868475 -0.495733
vn 0.0 0.975394 -0.220466
vn 0.0 0.932155 -0.362059
vn 0.0 0.975394 -0.220466
vn 0.0 0.997259 -0.073984
vn 0.0 0.997259 -0.073984
vn 0.0 1.0 0.0
vn -0.0 1.0 0.0
vn 0.0 0.0 -1.0
vn 0.0 0.0 -1.0
vn 0.0 -0.422886 -0.906183
vn 0.0 -0.422886 -0.906183
vn 0.0 0.0 -1.0
vn 0.0 0.0 -1.0
vn 1.0 0.0 0.0
vn 1.0 0.0 0.0
vn 1.0 0.0 0.0
vn 1.0 0.0 0.0
vn 1.0 0.0 0.0
vn 1.0 0.0 0.0
vn 1.0 0.0 0.0
vn 1.0 0.0 0.0
vn 1.0 0.0 0.0
vn 1.0 0.0 0.0
vn 1.0 0.0 0.0
vn 1.0 0.0 0.0
vn 1.0 0.0 0.0
vn 1.0 0.0 0.0
vn 1.0 0.0 0.0
vn 1.0 0.0 0.0
vn 1.0 0.0 0.0
vn 1.0 0.0 0.0
vn 1.0 0.0 0.0
vn 1.0 0.0 0.0
vn 1.0 0.0 0.0
vn 1.0 0.0 0.0
vn 1.0 0.0 0.0
vn -1.0 0.0 0.0
vn -1.0 0.0 0.0
vn -1.0 0.0 -0.0
vn -1.0 0.0 0.0
vn -1.0 0.0 0.0
vn -1.0 0.0 0.0
vn -1.0 0.0 0.0
vn -1.0 0.0 0.0
vn -1.0 0.0 0.0
vn -1.0 0.0 0.0
vn -1.0 0.0 0.0
vn -1.0 0.0 0.0
vn -1.0 0.0 0.0
vn -1.0 0.0 0.0
vn -1.0 0.0 0.0
vn -1.0 0.0 0.0
vn -1.0 0.0 0.0
vn -1.0 0.0 0.0
vn -1.0 0.0 0.0
vn -1.0 0.0 0.0
vn -1.0 0.0 0.0
vn -1.0 0.0 0.0
vn -1.0 0.0 0.0
vn -0.0 1.0 0.0
vn 0.0 1.0 0.0
vn 0.0 0.0 -1.0
vn 0.0 0.0 -1.0
vn 0.0 0.023704 -0.999719
vn 0.0 0.07106 -0.997472
vn 0.0 0.023704 -0.999719
vn 0.0 0.118255 -0.992983
vn 0.0 0.07106 -0.997472
vn 0.0 0.165185 -0.986263
vn 0.0 0.118255 -0.992983
vn 0.0 0.165185 -0.986263
vn 0.0 0.211742 -0.977325
vn 0.0 0.211742 -0.977325
vn 0.0 -1.0 0.0
vn 0.0 -1.0 0.0
vn 0.0 0.0 1.0
vn -0.0 0.0 1.0
vn 0.0 -1.0 0.0
vn 0.0 -1.0 0.0
vn 0.0 0.0 1.0
vn -0.0 0.0 1.0
vn 0.0 0.234851 -0.972031
vn 0.0 0.234851 -0.972031
vn 0.0 0.306173 -0.951976
vn 0.0 0.306173 -0.951976
vn 0.0 0.443353 -0.896347
vn 0.0 0.443353 -0.896347
vn 0.0 0.570869 -0.821041
vn 0.0 0.570869 -0.821041
vn 0.0 0.68581 -0.727781
vn 0.0 0.68581 -0.727781
vn 0.0 0.785764 -0.618527
vn 0.0 0.785764 -0.618527
vn 0.0 0.868475 -0.495733
vn 0.0 0.868475 -0.495733
vn 0.0 0.932155 -0.362059
vn 0.0 0.932155 -0.362059
vn 0.0 0.975394 -0.220466
vn 0.0 0.975394 -0.220466
vn 0.0 0.997259 -0.073984
vn 0.0 0.997259 -0.073984
vn -0.0 1.0 0.0
vn 0.0 1.0 0.0
vn 0.0 0.0 -1.0
vn 0.0 0.0 -1.0
vn 0.0 -0.422886 -0.906183
vn 0.0 -0.422886 -0.906183
vn 0.0 0.0 -1.0
vn 0.0 0.0 -1.0
vn 1.0 0.0 0.0
vn 1.0 0.0 0.0
vn 1.0 0.0 0.0
vn 1.0 0.0 0.0
vn 1.0 0.0 0.0
vn 1.0 0.0 0.0
vn 1.0 0.0 0.0
vn 1.0 0.0 0.0
vn 1.0 0.0 0.0
vn 1.0 0.0 0.0
vn 1.0 0.0 0.0
vn 1.0 0.0 0.0
vn 1.0 0.0 0.0
vn 1.0 0.0 0.0
vn 1.0 0.0 0.0
vn 1.0 0.0 0.0
vn 1.0 0.0 0.0
vn 1.0 0.0 0.0
vn 1.0 0.0 0.0
vn 1.0 0.0 0.0
vn 1.0 0.0 0.0
vn 1.0 0.0 0.0
vn 1.0 0.0 0.0
vn -1.0 0.0 0.0
vn -1.0 0.0 0.0
vn -1.0 0.0 -0.0
vn -1.0 0.0 0.0
vn -1.0 0.0 0.0
vn -1.0 0.0 0.0
vn -1.0 0.0 0.0
vn -1.0 0.0 0.0
vn -1.0 0.0 0.0
vn -1.0 0.0 0.0
vn -1.0 0.0 0.0
vn -1.0 0.0 0.0
vn -1.0 0.0 0.0
vn -1.0 0.0 0.0
vn -1.0 0.0 0.0
vn -1.0 0.0 0.0
vn -1.0 0.0 0.0
vn -1.0 0.0 0.0
vn -1.0 0.0 0.0
vn -1.0 0.0 0.0
vn -1.0 0.0 0.0
vn -1.0 0.0 0.0
vn -1.0 0.0 0.0
vn 0.0 -1.0 0.0
vn 0.0 -1.0 -0.0
vn -1.0 0.0 0.0
vn -1.0 0.0 -0.0
vn 0.0 -1.0 0.0
vn 0.0 -1.0 -0.0
vn 1.0 0.0 0.0
vn 1.0 0.0 0.0
vn 0.0 -1.0 0.0
vn 0.0 -1.0 -0.0
vn -1.0 -0.0 -0.0
vn -1.0 0.0 0.0
vn -0.0 -1.0 -0.0
vn 0.0 -1.0 0.0
vn 1.0 -0.0 0.0
vn 1.0 0.0 0.0
vn 0.0 -1.0 0.0
vn 0.0 -1.0 -0.0
vn -1.0 -0.0 -0.0
vn -1.0 0.0 0.0
vn 0.0 -1.0 0.0
vn 0.0 -1.0 -0.0
vn 1.0 0.0 0.0
vn 1.0 0.0 0.0
vn 0.0 -1.0 0.0
vn 0.0 -1.0 -0.0
vn -1.0 -0.0 -0.0
vn -1.0 0.0 0.0
vn 0.0 -1.0 0.0
vn 0.0 -1.0 -0.0
vn 1.0 -0.0 0.0
vn 1.0 0.0 0.0
vn 0.752576 0.658506 0.0
vn 0.752576 0.658506 0.0
vn 1.0 -0.0 0.0
vn 1.0 0.0 0.0
vn -1.0 0.0 0.0
vn -1.0 0.0 -0.0
vn -0.752577 0.658505 0.0
vn -0.752577 0.658505 0.0
vn -0.0 1.0 0.0
vn 0.0 1.0 0.0
vn -1.0 -0.0 -0.0
vn -1.0 0.0 0.0
vn 0.0 -1.0 0.0
vn 0.0 -1.0 0.0
vn 1.0 -0.0 0.0
vn 1.0 0.0 0.0
vn 0.0 0.0 -1.0
vn 0.0 -0.0 -1.0
vn 0.0 0.0 -1.0
vn 0.0 0.0 -1.0
vn 0.0 0.0 -1.0
vn -0.0 0.0 -1.0
vn 0.0 0.0 -1.0
vn 0.0 0.0 -1.0
vn -0.0 -0.0 -1.0
vn 0.0 0.0 -1.0
vn -0.0 0.0 -1.0
vn 0.0 0.0 -1.0
vn -0.0 0.0 -1.0
vn 0.0 -0.0 -1.0
vn -0.0 0.0 -1.0
vn 0.0 0.0 -1.0
vn 0.0 0.0 -1.0
vn 0.0 -0.0 -1.0
vn 0.0 0.0 -1.0
vn -0.0 -0.0 -1.0
vn -0.0 0.0 -1.0
vn 0.0 -0.0 -1.0
vn 0.0 0.0 1.0
vn 0.0 0.0 1.0
vn -0.0 0.0 1.0
vn 0.0 -0.0 1.0
vn 0.0 -0.0 1.0
vn -0.0 0.0 1.0
vn 0.0 -0.0 1.0
vn 0.0 -0.0 1.0
vn 0.0 0.0 1.0
vn 0.0 -0.0 1.0
vn 0.0 -0.0 1.0
vn 0.0 0.0 1.0
vn 0.0 -0.0 1.0
vn 0.0 0.0 1.0
vn 0.0 -0.0 1.0
vn 0.0 -0.0 1.0
vn 0.0 -0.0 1.0
vn 0.0 -0.0 1.0
vn 0.0 -0.0 1.0
vn 0.0 -0.0 1.0
vn 0.0 -0.0 1.0
vn 0.0 0.0 1.0
vn 0.0 -0.0 1.0
vn 0.0 0.0 1.0
vn -1.0 0.0 0.0
vn -1.0 0.0 0.0
vn 0.0 0.0 -1.0
vn 0.0 0.0 -1.0
vn 1.0 -0.0 0.0
vn 1.0 0.0 0.0
vn 0.0 1.0 0.0
vn 0.0 1.0 -0.0
vn 0.0 -1.0 -0.0
vn 0.0 -1.0 0.0
vn 0.0 1.0 0.0
vn -0.0 1.0 0.0
vn 0.0 0.0 -1.0
vn 0.0 0.0 -1.0
vn 0.0 0.023704 -0.999719
vn 0.0 0.07106 -0.997472
vn 0.0 0.023704 -0.999719
vn 0.0 0.118255 -0.992983
vn 0.0 0.07106 -0.997472
vn 0.0 0.165185 -0.986263
vn 0.0 0.118255 -0.992983
vn 0.0 0.165185 -0.986263
vn 0.0 0.211742 -0.977325
vn 0.0 0.211742 -0.977325
vn 0.0 -1.0 0.0
vn 0.0 -1.0 0.0
vn 0.0 0.0 1.0
vn -0.0 0.0 1.0
vn 0.0 -1.0 0.0
vn 0.0 -1.0 0.0
vn 0.0 0.0 1.0
vn -0.0 0.0 1.0
vn 0.0 0.234851 -0.972031
vn 0.0 0.234851 -0.972031
vn 0.0 0.306173 -0.951976
vn 0.0 0.443353 -0.896347
vn 0.0 0.306173 -0.951976
vn 0.0 0.570869 -0.821041
vn 0.0 0.443353 -0.896347
vn 0.0 0.68581 -0.727781
vn 0.0 0.570869 -0.821041
vn 0.0 0.785764 -0.618527
vn 0.0 0.68581 -0.727781
vn 0.0 0.868475 -0.495733
vn 0.0 0.785764 -0.618527
vn 0.0 0.932155 -0.362059
vn 0.0 0.868475 -0.495733
vn 0.0 0.975394 -0.220466
vn 0.0 0.932155 -0.362059
vn 0.0 0.975394 -0.220466
vn 0.0 0.997259 -0.073984
vn 0.0 0.997259 -0.073984
vn 0.0 1.0 0.0
vn -0.0 1.0 0.0
vn 0.0 0.0 -1.0
vn 0.0 0.0 -1.0
vn 0.0 -0.422886 -0.906183
vn 0.0 -0.422886 -0.906183
vn 0.0 0.0 -1.0
vn 0.0 0.0 -1.0
vn 1.0 0.0 0.0
vn 1.0 0.0 0.0
vn 1.0 0.0 0.0
vn 1.0 0.0 0.0
vn 1.0 0.0 0.0
vn 1.0 0.0 0.0
vn 1.0 0.0 0.0
vn 1.0 0.0 0.0
vn 1.0 0.0 0.0
vn 1.0 0.0 0.0
vn 1.0 0.0 0.0
vn 1.0 0.0 0.0
vn 1.0 0.0 0.0
vn 1.0 0.0 0.0
vn 1.0 0.0 0.0
vn 1.0 0.0 0.0
vn 1.0 0.0 0.0
vn 1.0 0.0 0.0
vn 1.0 0.0 0.0
vn 1.0 0.0 0.0
vn 1.0 0.0 0.0
vn 1.0 0.0 0.0
vn 1.0 0.0 0.0
vn -1.0 0.0 0.0
vn -1.0 0.0 0.0
vn -1.0 0.0 -0.0
vn -1.0 0.0 0.0
vn -1.0 0.0 0.0
vn -1.0 0.0 0.0
vn -1.0 0.0 0.0
vn -1.0 0.0 0.0
vn -1.0 0.0 0.0
vn -1.0 0.0 0.0
vn -1.0 0.0 0.0
vn -1.0 0.0 0.0
vn -1.0 0.0 0.0
vn -1.0 0.0 0.0
vn -1.0 0.0 0.0
vn -1.0 0.0 0.0
vn -1.0 0.0 0.0
vn -1.0 0.0 0.0
vn -1.0 0.0 0.0
vn -1.0 0.0 0.0
vn -1.0 0.0 0.0
vn -1.0 0.0 0.0
vn -1.0 0.0 0.0
f 1//1 2//1 3//1 
f 4//2 1//2 3//2 
f 2//3 5//3 6//3 
f 3//4 2//4 6//4 
f 6//5 5//5 7//5 
f 7//6 8//6 9//6 
f 5//7 8//7 7//7 
f 9//8 10//8 11//8 
f 8//9 10//9 9//9 
f 11//10 12//10 13//10 
f 10//11 12//11 11//11 
f 12//12 14//12 13//12 
f 13//13 15//13 16//13 
f 14//14 15//14 13//14 
f 17//15 18//15 19//15 
f 17//16 19//16 20//16 
f 20//17 19//17 21//17 
f 20//18 21//18 22//18 
f 22//19 21//19 23//19 
f 22//20 23//20 24//20 
f 24//21 23//21 1//21 
f 24//22 1//22 4//22 
f 15//23 25//23 26//23 
f 16//24 15//24 26//24 
f 26//25 25//25 27//25 
f 27//26 28//26 29//26 
f 25//27 28//27 27//27 
f 29//28 30//28 31//28 
f 28//29 30//29 29//29 
f 31//30 32//30 33//30 
f 30//31 32//31 31//31 
f 33//32 34//32 35//32 
f 32//33 34//33 33//33 
f 35//34 36//34 37//34 
f 34//35 36//35 35//35 
f 37//36 38//36 39//36 
f 36//37 38//37 37//37 
f 38//38 40//38 39//38 
f 39//39 41//39 42//39 
f 40//40 41//40 39//40 
f 42//41 43//41 44//41 
f 41//42 43//42 42//42 
f 43//43 45//43 46//43 
f 44//44 43//44 46//44 
f 45//45 47//45 48//45 
f 46//46 45//46 48//46 
f 48//47 47//47 49//47 
f 48//48 49//48 50//48 
f 50//49 49//49 18//49 
f 50//50 18//50 17//50 
f 6//51 4//51 3//51 
f 48//52 37//52 39//52 
f 48//53 39//53 42//53 
f 48//54 42//54 44//54 
f 48//55 44//55 46//55 
f 50//56 26//56 27//56 
f 50//57 27//57 29//57 
f 50//58 29//58 31//58 
f 50//59 31//59 33//59 
f 50//60 33//60 35//60 
f 50//61 35//61 37//61 
f 50//62 37//62 48//62 
f 22//63 50//63 17//63 
f 20//64 22//64 17//64 
f 24//65 50//65 22//65 
f 24//66 4//66 6//66 
f 24//67 6//67 7//67 
f 24//68 7//68 9//68 
f 24//69 9//69 11//69 
f 24//70 11//70 13//70 
f 24//71 13//71 16//71 
f 24//72 16//72 26//72 
f 24//73 26//73 50//73 
f 21//74 19//74 18//74 
f 49//75 23//75 21//75 
f 49//76 21//76 18//76 
f 43//77 47//77 45//77 
f 41//78 47//78 43//78 
f 40//79 47//79 41//79 
f 38//80 49//80 47//80 
f 38//81 47//81 40//81 
f 36//82 49//82 38//82 
f 34//83 49//83 36//83 
f 32//84 49//84 34//84 
f 30//85 49//85 32//85 
f 28//86 49//86 30//86 
f 25//87 49//87 28//87 
f 1//88 5//88 2//88 
f 1//89 23//89 5//89 
f 5//90 23//90 8//90 
f 8//91 23//91 10//91 
f 10//92 23//92 12//92 
f 12//93 23//93 14//93 
f 14//94 23//94 15//94 
f 15//95 23//95 25//95 
f 25//96 23//96 49//96 
f 51//97 52//97 53//97 
f 51//98 53//98 54//98 
f 53//99 55//99 56//99 
f 54//100 53//100 56//100 
f 56//101 55//101 57//101 
f 57//102 58//102 59//102 
f 55//103 58//103 57//103 
f 59//104 60//104 61//104 
f 58//105 60//105 59//105 
f 61//106 62//106 63//106 
f 60//107 62//107 61//107 
f 62//108 64//108 63//108 
f 63//109 65//109 66//109 
f 64//110 65//110 63//110 
f 67//111 68//111 69//111 
f 67//112 69//112 70//112 
f 70//113 69//113 71//113 
f 70//114 71//114 72//114 
f 72//115 71//115 73//115 
f 72//116 73//116 74//116 
f 74//117 73//117 52//117 
f 74//118 52//118 51//118 
f 65//119 75//119 76//119 
f 66//120 65//120 76//120 
f 75//121 77//121 76//121 
f 76//122 77//122 78//122 
f 78//123 79//123 80//123 
f 77//124 79//124 78//124 
f 80//125 81//125 82//125 
f 79//126 81//126 80//126 
f 82//127 83//127 84//127 
f 81//128 83//128 82//128 
f 84//129 85//129 86//129 
f 83//130 85//130 84//130 
f 86//131 87//131 88//131 
f 85//132 87//132 86//132 
f 88//133 89//133 90//133 
f 87//134 89//134 88//134 
f 90//135 91//135 92//135 
f 89//136 91//136 90//136 
f 92//137 93//137 94//137 
f 91//138 93//138 92//138 
f 94//139 93//139 95//139 
f 94//140 95//140 96//140 
f 96//141 95//141 97//141 
f 96//142 97//142 98//142 
f 97//143 99//143 100//143 
f 98//144 97//144 100//144 
f 100//145 99//145 68//145 
f 100//146 68//146 67//146 
f 56//147 51//147 54//147 
f 98//148 88//148 90//148 
f 98//149 90//149 92//149 
f 98//150 92//150 94//150 
f 98//151 94//151 96//151 
f 100//152 76//152 78//152 
f 100//153 78//153 80//153 
f 100//154 80//154 82//154 
f 100//155 82//155 84//155 
f 100//156 84//156 86//156 
f 100//157 86//157 88//157 
f 100//158 88//158 98//158 
f 72//159 100//159 67//159 
f 70//160 72//160 67//160 
f 74//161 100//161 72//161 
f 74//162 51//162 56//162 
f 74//163 56//163 57//163 
f 74//164 57//164 59//164 
f 74//165 59//165 61//165 
f 74//166 61//166 63//166 
f 74//167 63//167 66//167 
f 74//168 66//168 76//168 
f 74//169 76//169 100//169 
f 71//170 69//170 68//170 
f 99//171 73//171 71//171 
f 99//172 71//172 68//172 
f 93//173 97//173 95//173 
f 91//174 97//174 93//174 
f 89//175 97//175 91//175 
f 87//176 99//176 97//176 
f 87//177 97//177 89//177 
f 85//178 99//178 87//178 
f 83//179 99//179 85//179 
f 81//180 99//180 83//180 
f 79//181 99//181 81//181 
f 77//182 99//182 79//182 
f 75//183 99//183 77//183 
f 52//184 55//184 53//184 
f 52//185 73//185 55//185 
f 55//186 73//186 58//186 
f 58//187 73//187 60//187 
f 60//188 73//188 62//188 
f 62//189 73//189 64//189 
f 64//190 73//190 65//190 
f 65//191 73//191 75//191 
f 75//192 73//192 99//192 
f 101//193 102//193 103//193 
f 104//194 102//194 101//194 
f 101//195 103//195 105//195 
f 101//196 105//196 106//196 
f 106//197 105//197 107//197 
f 106//198 107//198 108//198 
f 108//199 107//199 109//199 
f 108//200 109//200 110//200 
f 110//201 109//201 111//201 
f 110//202 111//202 112//202 
f 112//203 111//203 113//203 
f 112//204 113//204 114//204 
f 114//205 113//205 115//205 
f 114//206 115//206 116//206 
f 116//207 115//207 117//207 
f 116//208 117//208 118//208 
f 118//209 117//209 119//209 
f 118//210 119//210 120//210 
f 120//211 119//211 121//211 
f 120//212 121//212 122//212 
f 121//213 123//213 124//213 
f 122//214 121//214 124//214 
f 124//215 123//215 125//215 
f 124//216 125//216 126//216 
f 126//217 125//217 127//217 
f 126//218 127//218 128//218 
f 128//219 127//219 129//219 
f 128//220 129//220 130//220 
f 129//221 131//221 132//221 
f 130//222 129//222 132//222 
f 132//223 131//223 133//223 
f 132//224 133//224 134//224 
f 135//225 136//225 137//225 
f 135//226 137//226 138//226 
f 138//227 137//227 139//227 
f 138//228 139//228 140//228 
f 141//229 142//229 143//229 
f 141//230 143//230 144//230 
f 145//231 143//231 146//231 
f 144//232 143//232 145//232 
f 139//233 142//233 141//233 
f 140//234 139//234 141//234 
f 145//235 146//235 102//235 
f 145//236 102//236 104//236 
f 147//237 133//237 148//237 
f 134//238 133//238 147//238 
f 147//239 148//239 136//239 
f 147//240 136//240 135//240 
f 101//241 145//241 104//241 
f 110//242 144//242 145//242 
f 110//243 145//243 101//243 
f 112//244 141//244 144//244 
f 112//245 144//245 110//245 
f 118//246 140//246 141//246 
f 118//247 141//247 112//247 
f 106//248 110//248 101//248 
f 108//249 110//249 106//249 
f 120//250 140//250 118//250 
f 126//251 138//251 140//251 
f 126//252 140//252 120//252 
f 116//253 112//253 114//253 
f 116//254 118//254 112//254 
f 128//255 135//255 138//255 
f 128//256 138//256 126//256 
f 134//257 135//257 128//257 
f 147//258 135//258 134//258 
f 124//259 120//259 122//259 
f 124//260 126//260 120//260 
f 132//261 128//261 130//261 
f 132//262 134//262 128//262 
f 146//263 103//263 102//263 
f 109//264 146//264 143//264 
f 109//265 107//265 105//265 
f 109//266 105//266 103//266 
f 109//267 103//267 146//267 
f 111//268 143//268 142//268 
f 111//269 109//269 143//269 
f 117//270 115//270 113//270 
f 117//271 113//271 111//271 
f 117//272 111//272 142//272 
f 125//273 123//273 121//273 
f 125//274 121//274 119//274 
f 133//275 131//275 129//275 
f 133//276 129//276 127//276 
f 137//277 127//277 125//277 
f 139//278 119//278 117//278 
f 139//279 117//279 142//279 
f 139//280 125//280 119//280 
f 139//281 137//281 125//281 
f 136//282 148//282 133//282 
f 136//283 133//283 127//283 
f 136//284 127//284 137//284 
f 149//285 150//285 151//285 
f 149//286 151//286 152//286 
f 151//287 153//287 154//287 
f 152//288 151//288 154//288 
f 154//289 153//289 155//289 
f 154//290 155//290 156//290 
f 155//291 150//291 149//291 
f 156//292 155//292 149//292 
f 152//293 154//293 156//293 
f 152//294 156//294 149//294 
f 153//295 150//295 155//295 
f 153//296 151//296 150//296 
f 157//297 158//297 159//297 
f 160//298 158//298 157//298 
f 157//299 159//299 161//299 
f 157//300 161//300 162//300 
f 162//301 161//301 163//301 
f 162//302 163//302 164//302 
f 164//303 163//303 165//303 
f 164//304 165//304 166//304 
f 166//305 165//305 167//305 
f 166//306 167//306 168//306 
f 168//307 167//307 169//307 
f 168//308 169//308 170//308 
f 170//309 169//309 171//309 
f 170//310 171//310 172//310 
f 172//311 171//311 173//311 
f 172//312 173//312 174//312 
f 173//313 175//313 176//313 
f 174//314 173//314 176//314 
f 176//315 175//315 177//315 
f 176//316 177//316 178//316 
f 178//317 177//317 179//317 
f 178//318 179//318 180//318 
f 180//319 179//319 181//319 
f 180//320 181//320 182//320 
f 182//321 181//321 183//321 
f 182//322 183//322 184//322 
f 183//323 185//323 186//323 
f 184//324 183//324 186//324 
f 186//325 185//325 187//325 
f 186//326 187//326 188//326 
f 188//327 187//327 189//327 
f 188//328 189//328 190//328 
f 191//329 192//329 193//329 
f 191//330 193//330 194//330 
f 193//331 195//331 196//331 
f 194//332 193//332 196//332 
f 197//333 198//333 199//333 
f 197//334 199//334 200//334 
f 200//335 199//335 201//335 
f 200//336 201//336 202//336 
f 196//337 195//337 198//337 
f 196//338 198//338 197//338 
f 202//339 201//339 158//339 
f 202//340 158//340 160//340 
f 190//341 189//341 203//341 
f 190//342 203//342 204//342 
f 204//343 203//343 192//343 
f 204//344 192//344 191//344 
f 157//345 202//345 160//345 
f 166//346 200//346 202//346 
f 166//347 202//347 157//347 
f 168//348 197//348 200//348 
f 168//349 200//349 166//349 
f 174//350 197//350 168//350 
f 164//351 157//351 162//351 
f 164//352 166//352 157//352 
f 176//353 196//353 197//353 
f 176//354 197//354 174//354 
f 182//355 194//355 196//355 
f 182//356 196//356 176//356 
f 172//357 168//357 170//357 
f 172//358 174//358 168//358 
f 184//359 191//359 194//359 
f 184//360 194//360 182//360 
f 190//361 191//361 184//361 
f 204//362 191//362 190//362 
f 180//363 176//363 178//363 
f 180//364 182//364 176//364 
f 186//365 190//365 184//365 
f 188//366 190//366 186//366 
f 201//367 159//367 158//367 
f 165//368 163//368 161//368 
f 165//369 161//369 159//369 
f 165//370 159//370 201//370 
f 199//371 165//371 201//371 
f 167//372 199//372 198//372 
f 167//373 165//373 199//373 
f 173//374 171//374 169//374 
f 173//375 169//375 167//375 
f 173//376 167//376 198//376 
f 175//377 173//377 198//377 
f 179//378 177//378 175//378 
f 181//379 179//379 175//379 
f 189//380 187//380 185//380 
f 189//381 185//381 183//381 
f 193//382 183//382 181//382 
f 195//383 175//383 198//383 
f 195//384 181//384 175//384 
f 195//385 193//385 181//385 
f 192//386 203//386 189//386 
f 192//387 189//387 183//387 
f 192//388 183//388 193//388 
f 205//389 206//389 207//389 
f 205//390 207//390 208//390 
f 207//391 209//391 210//391 
f 208//392 207//392 210//392 
f 210//393 209//393 211//393 
f 210//394 211//394 212//394 
f 211//395 206//395 205//395 
f 212//396 211//396 205//396 
f 208//397 210//397 212//397 
f 208//398 212//398 205//398 
f 209//399 206//399 211//399 
f 209//400 207//400 206//400 
f 213//401 214//401 215//401 
f 213//402 215//402 216//402 
f 215//403 217//403 218//403 
f 216//404 215//404 218//404 
f 217//405 219//405 218//405 
f 218//406 219//406 220//406 
f 220//407 221//407 222//407 
f 219//408 221//408 220//408 
f 222//409 223//409 224//409 
f 221//410 223//410 222//410 
f 224//411 225//411 226//411 
f 223//412 225//412 224//412 
f 226//413 227//413 228//413 
f 225//414 227//414 226//414 
f 229//415 230//415 231//415 
f 229//416 231//416 232//416 
f 232//417 231//417 233//417 
f 232//418 233//418 234//418 
f 234//419 233//419 235//419 
f 234//420 235//420 236//420 
f 236//421 235//421 214//421 
f 236//422 214//422 213//422 
f 227//423 237//423 238//423 
f 228//424 227//424 238//424 
f 237//425 239//425 238//425 
f 238//426 239//426 240//426 
f 240//427 241//427 242//427 
f 239//428 241//428 240//428 
f 242//429 243//429 244//429 
f 241//430 243//430 242//430 
f 244//431 245//431 246//431 
f 243//432 245//432 244//432 
f 246//433 247//433 248//433 
f 245//434 247//434 246//434 
f 248//435 249//435 250//435 
f 247//436 249//436 248//436 
f 250//437 251//437 252//437 
f 249//438 251//438 250//438 
f 252//439 253//439 254//439 
f 251//440 253//440 252//440 
f 254//441 255//441 256//441 
f 253//442 255//442 254//442 
f 256//443 255//443 257//443 
f 256//444 257//444 258//444 
f 258//445 257//445 259//445 
f 258//446 259//446 260//446 
f 259//447 261//447 262//447 
f 260//448 259//448 262//448 
f 262//449 261//449 230//449 
f 262//450 230//450 229//450 
f 218//451 213//451 216//451 
f 260//452 250//452 252//452 
f 260//453 252//453 254//453 
f 260//454 254//454 256//454 
f 260//455 256//455 258//455 
f 262//456 238//456 240//456 
f 262//457 240//457 242//457 
f 262//458 242//458 244//458 
f 262//459 244//459 246//459 
f 262//460 246//460 248//460 
f 262//461 248//461 250//461 
f 262//462 250//462 260//462 
f 234//463 262//463 229//463 
f 232//464 234//464 229//464 
f 236//465 262//465 234//465 
f 236//466 213//466 218//466 
f 236//467 218//467 220//467 
f 236//468 220//468 222//468 
f 236//469 222//469 224//469 
f 236//470 224//470 226//470 
f 236//471 226//471 228//471 
f 236//472 228//472 238//472 
f 236//473 238//473 262//473 
f 233//474 231//474 230//474 
f 261//475 235//475 233//475 
f 261//476 233//476 230//476 
f 255//477 259//477 257//477 
f 253//478 259//478 255//478 
f 251//479 259//479 253//479 
f 249//480 261//480 259//480 
f 249//481 259//481 251//481 
f 247//482 261//482 249//482 
f 245//483 261//483 247//483 
f 243//484 261//484 245//484 
f 241//485 261//485 243//485 
f 239//486 261//486 241//486 
f 237//487 261//487 239//487 
f 214//488 217//488 215//488 
f 214//489 235//489 217//489 
f 217//490 235//490 219//490 
f 219//491 235//491 221//491 
f 221//492 235//492 223//492 
f 223//493 235//493 225//493 
f 225//494 235//494 227//494 
f 227//495 235//495 237//495 
f 237//496 235//496 261//496 
f 263//497 264//497 265//497 
f 266//498 263//498 265//498 
f 264//499 267//499 268//499 
f 265//500 264//500 268//500 
f 268//501 267//501 269//501 
f 269//502 270//502 271//502 
f 267//503 270//503 269//503 
f 271//504 272//504 273//504 
f 270//505 272//505 271//505 
f 273//506 274//506 275//506 
f 272//507 274//507 273//507 
f 274//508 276//508 275//508 
f 275//509 277//509 278//509 
f 276//510 277//510 275//510 
f 279//511 280//511 281//511 
f 279//512 281//512 282//512 
f 282//513 281//513 283//513 
f 282//514 283//514 284//514 
f 284//515 283//515 285//515 
f 284//516 285//516 286//516 
f 285//517 263//517 266//517 
f 286//518 285//518 266//518 
f 277//519 287//519 288//519 
f 278//520 277//520 288//520 
f 288//521 287//521 289//521 
f 289//522 290//522 291//522 
f 287//523 290//523 289//523 
f 291//524 292//524 293//524 
f 290//525 292//525 291//525 
f 293//526 294//526 295//526 
f 292//527 294//527 293//527 
f 295//528 296//528 297//528 
f 294//529 296//529 295//529 
f 297//530 298//530 299//530 
f 296//531 298//531 297//531 
f 299//532 300//532 301//532 
f 298//533 300//533 299//533 
f 300//534 302//534 301//534 
f 301//535 303//535 304//535 
f 302//536 303//536 301//536 
f 304//537 305//537 306//537 
f 303//538 305//538 304//538 
f 305//539 307//539 308//539 
f 306//540 305//540 308//540 
f 307//541 309//541 310//541 
f 308//542 307//542 310//542 
f 310//543 309//543 311//543 
f 310//544 311//544 312//544 
f 312//545 311//545 280//545 
f 312//546 280//546 279//546 
f 268//547 266//547 265//547 
f 310//548 299//548 301//548 
f 310//549 301//549 304//549 
f 310//550 304//550 306//550 
f 310//551 306//551 308//551 
f 312//552 288//552 289//552 
f 312//553 289//553 291//553 
f 312//554 291//554 293//554 
f 312//555 293//555 295//555 
f 312//556 295//556 297//556 
f 312//557 297//557 299//557 
f 312//558 299//558 310//558 
f 284//559 312//559 279//559 
f 282//560 284//560 279//560 
f 286//561 312//561 284//561 
f 286//562 266//562 268//562 
f 286//563 268//563 269//563 
f 286//564 269//564 271//564 
f 286//565 271//565 273//565 
f 286//566 273//566 275//566 
f 286//567 275//567 278//567 
f 286//568 278//568 288//568 
f 286//569 288//569 312//569 
f 283//570 281//570 280//570 
f 311//571 285//571 283//571 
f 311//572 283//572 280//572 
f 305//573 309//573 307//573 
f 303//574 309//574 305//574 
f 302//575 309//575 303//575 
f 300//576 311//576 309//576 
f 300//577 309//577 302//577 
f 298//578 311//578 300//578 
f 296//579 311//579 298//579 
f 294//580 311//580 296//580 
f 292//581 311//581 294//581 
f 290//582 311//582 292//582 
f 287//583 311//583 290//583 
f 263//584 267//584 264//584 
f 263//585 285//585 267//585 
f 267//586 285//586 270//586 
f 270//587 285//587 272//587 
f 272//588 285//588 274//588 
f 274//589 285//589 276//589 
f 276//590 285//590 277//590 
f 277//591 285//591 287//591 
f 287//592 285//592 311//592 
f 313//593 314//593 315//593 
f 315//594 314//594 316//594 
f 317//595 315//595 318//595 
f 315//596 316//596 318//596 
f 317//597 318//597 319//597 
f 319//598 320//598 321//598 
f 318//599 320//599 319//599 
f 321//600 322//600 323//600 
f 320//601 322//601 321//601 
f 323//602 324//602 325//602 
f 322//603 324//603 323//603 
f 324//604 326//604 325//604 
f 325//605 327//605 328//605 
f 326//606 327//606 325//606 
f 329//607 330//607 331//607 
f 331//608 330//608 332//608 
f 331//609 332//609 333//609 
f 333//610 332//610 334//610 
f 333//611 334//611 335//611 
f 335//612 334//612 336//612 
f 335//613 336//613 313//613 
f 313//614 336//614 314//614 
f 337//615 328//615 338//615 
f 328//616 327//616 338//616 
f 337//617 339//617 340//617 
f 338//618 339//618 337//618 
f 340//619 341//619 342//619 
f 339//620 341//620 340//620 
f 342//621 343//621 344//621 
f 341//622 343//622 342//622 
f 344//623 345//623 346//623 
f 343//624 345//624 344//624 
f 346//625 347//625 348//625 
f 345//626 347//626 346//626 
f 348//627 349//627 350//627 
f 347//628 349//628 348//628 
f 350//629 351//629 352//629 
f 349//630 351//630 350//630 
f 352//631 353//631 354//631 
f 351//632 353//632 352//632 
f 354//633 355//633 356//633 
f 353//634 355//634 354//634 
f 356//635 355//635 357//635 
f 357//636 355//636 358//636 
f 357//637 358//637 359//637 
f 359//638 358//638 360//638 
f 361//639 359//639 362//639 
f 359//640 360//640 362//640 
f 361//641 362//641 329//641 
f 329//642 362//642 330//642 
f 314//643 318//643 316//643 
f 353//644 360//644 355//644 
f 351//645 360//645 353//645 
f 349//646 360//646 351//646 
f 355//647 360//647 358//647 
f 347//648 362//648 349//648 
f 345//649 362//649 347//649 
f 343//650 362//650 345//650 
f 341//651 362//651 343//651 
f 339//652 362//652 341//652 
f 338//653 362//653 339//653 
f 349//654 362//654 360//654 
f 362//655 334//655 330//655 
f 334//656 332//656 330//656 
f 362//657 336//657 334//657 
f 314//658 336//658 318//658 
f 318//659 336//659 320//659 
f 320//660 336//660 322//660 
f 322//661 336//661 324//661 
f 324//662 336//662 326//662 
f 326//663 336//663 327//663 
f 327//664 336//664 338//664 
f 338//665 336//665 362//665 
f 331//666 333//666 329//666 
f 335//667 361//667 333//667 
f 333//668 361//668 329//668 
f 359//669 356//669 357//669 
f 359//670 354//670 356//670 
f 359//671 352//671 354//671 
f 361//672 350//672 359//672 
f 359//673 350//673 352//673 
f 361//674 348//674 350//674 
f 361//675 346//675 348//675 
f 361//676 344//676 346//676 
f 361//677 342//677 344//677 
f 361//678 340//678 342//678 
f 361//679 337//679 340//679 
f 317//680 313//680 315//680 
f 335//681 313//681 317//681 
f 335//682 317//682 319//682 
f 335//683 319//683 321//683 
f 335//684 321//684 323//684 
f 335//685 323//685 325//685 
f 335//686 325//686 328//686 
f 335//687 328//687 337//687 
f 335//688 337//688 361//688 
f 363//689 364//689 365//689 
f 365//690 364//690 366//690 
f 367//691 365//691 368//691 
f 365//692 366//692 368//692 
f 367//693 368//693 369//693 
f 369//694 368//694 370//694 
f 371//695 369//695 372//695 
f 369//696 370//696 372//696 
f 371//697 372//697 373//697 
f 373//698 372//698 374//698 
f 373//699 374//699 375//699 
f 375//700 374//700 376//700 
f 377//701 375//701 378//701 
f 375//702 376//702 378//702 
f 377//703 378//703 379//703 
f 379//704 378//704 380//704 
f 379//705 380//705 381//705 
f 381//706 380//706 382//706 
f 381//707 382//707 383//707 
f 383//708 382//708 384//708 
f 383//709 384//709 385//709 
f 385//710 384//710 386//710 
f 387//711 385//711 388//711 
f 385//712 386//712 388//712 
f 387//713 388//713 389//713 
f 389//714 388//714 390//714 
f 389//715 390//715 391//715 
f 391//716 390//716 392//716 
f 391//717 392//717 393//717 
f 393//718 392//718 394//718 
f 393//719 394//719 395//719 
f 395//720 394//720 396//720 
f 397//721 398//721 399//721 
f 399//722 398//722 400//722 
f 399//723 400//723 401//723 
f 401//724 400//724 402//724 
f 403//725 404//725 405//725 
f 404//726 406//726 405//726 
f 403//727 405//727 407//727 
f 407//728 405//728 408//728 
f 404//729 401//729 406//729 
f 401//730 402//730 406//730 
f 407//731 408//731 363//731 
f 363//732 408//732 364//732 
f 395//733 409//733 410//733 
f 395//734 396//734 409//734 
f 410//735 409//735 397//735 
f 397//736 409//736 398//736 
f 408//737 366//737 364//737 
f 405//738 372//738 408//738 
f 408//739 372//739 366//739 
f 406//740 374//740 405//740 
f 405//741 374//741 372//741 
f 402//742 380//742 406//742 
f 406//743 380//743 374//743 
f 366//744 370//744 368//744 
f 372//745 370//745 366//745 
f 402//746 382//746 380//746 
f 400//747 388//747 402//747 
f 402//748 388//748 382//748 
f 380//749 376//749 374//749 
f 380//750 378//750 376//750 
f 398//751 390//751 400//751 
f 400//752 390//752 388//752 
f 398//753 396//753 390//753 
f 398//754 409//754 396//754 
f 382//755 386//755 384//755 
f 388//756 386//756 382//756 
f 396//757 392//757 390//757 
f 396//758 394//758 392//758 
f 365//759 407//759 363//759 
f 367//760 369//760 365//760 
f 407//761 371//761 403//761 
f 365//762 371//762 407//762 
f 369//763 371//763 365//763 
f 403//764 373//764 404//764 
f 371//765 373//765 403//765 
f 377//766 379//766 375//766 
f 375//767 379//767 373//767 
f 373//768 379//768 404//768 
f 385//769 387//769 383//769 
f 383//770 387//770 381//770 
f 393//771 395//771 391//771 
f 391//772 395//772 389//772 
f 389//773 399//773 387//773 
f 381//774 401//774 379//774 
f 379//775 401//775 404//775 
f 387//776 401//776 381//776 
f 399//777 401//777 387//777 
f 410//778 397//778 395//778 
f 395//779 397//779 389//779 
f 389//780 397//780 399//780 
f 411//781 412//781 413//781 
f 413//782 412//782 414//782 
f 415//783 413//783 416//783 
f 413//784 414//784 416//784 
f 415//785 416//785 417//785 
f 417//786 416//786 418//786 
f 411//787 417//787 412//787 
f 417//788 418//788 412//788 
f 416//789 414//789 418//789 
f 418//790 414//790 412//790 
f 411//791 415//791 417//791 
f 413//792 415//792 411//792 
f 419//793 420//793 421//793 
f 420//794 422//794 421//794 
f 423//795 419//795 424//795 
f 419//796 421//796 424//796 
f 423//797 424//797 425//797 
f 425//798 426//798 427//798 
f 424//799 426//799 425//799 
f 427//800 428//800 429//800 
f 426//801 428//801 427//801 
f 429//802 430//802 431//802 
f 428//803 430//803 429//803 
f 430//804 432//804 431//804 
f 431//805 433//805 434//805 
f 432//806 433//806 431//806 
f 435//807 436//807 437//807 
f 437//808 436//808 438//808 
f 437//809 438//809 439//809 
f 439//810 438//810 440//810 
f 439//811 440//811 441//811 
f 441//812 440//812 442//812 
f 441//813 442//813 420//813 
f 420//814 442//814 422//814 
f 443//815 434//815 444//815 
f 434//816 433//816 444//816 
f 443//817 444//817 445//817 
f 445//818 446//818 447//818 
f 444//819 446//819 445//819 
f 447//820 448//820 449//820 
f 446//821 448//821 447//821 
f 449//822 450//822 451//822 
f 448//823 450//823 449//823 
f 451//824 452//824 453//824 
f 450//825 452//825 451//825 
f 453//826 454//826 455//826 
f 452//827 454//827 453//827 
f 455//828 456//828 457//828 
f 454//829 456//829 455//829 
f 457//830 458//830 459//830 
f 456//831 458//831 457//831 
f 458//832 460//832 459//832 
f 459//833 461//833 462//833 
f 460//834 461//834 459//834 
f 463//835 462//835 464//835 
f 462//836 461//836 464//836 
f 465//837 463//837 466//837 
f 463//838 464//838 466//838 
f 465//839 466//839 467//839 
f 467//840 466//840 468//840 
f 467//841 468//841 435//841 
f 435//842 468//842 436//842 
f 422//843 424//843 421//843 
f 460//844 466//844 461//844 
f 458//845 466//845 460//845 
f 456//846 466//846 458//846 
f 461//847 466//847 464//847 
f 454//848 468//848 456//848 
f 452//849 468//849 454//849 
f 450//850 468//850 452//850 
f 448//851 468//851 450//851 
f 446//852 468//852 448//852 
f 444//853 468//853 446//853 
f 456//854 468//854 466//854 
f 468//855 440//855 436//855 
f 440//856 438//856 436//856 
f 468//857 442//857 440//857 
f 422//858 442//858 424//858 
f 424//859 442//859 426//859 
f 426//860 442//860 428//860 
f 428//861 442//861 430//861 
f 430//862 442//862 432//862 
f 432//863 442//863 433//863 
f 433//864 442//864 444//864 
f 444//865 442//865 468//865 
f 437//866 439//866 435//866 
f 441//867 467//867 439//867 
f 439//868 467//868 435//868 
f 465//869 462//869 463//869 
f 465//870 459//870 462//870 
f 465//871 457//871 459//871 
f 467//872 455//872 465//872 
f 465//873 455//873 457//873 
f 467//874 453//874 455//874 
f 467//875 451//875 453//875 
f 467//876 449//876 451//876 
f 467//877 447//877 449//877 
f 467//878 445//878 447//878 
f 467//879 443//879 445//879 
f 423//880 420//880 419//880 
f 441//881 420//881 423//881 
f 441//882 423//882 425//882 
f 441//883 425//883 427//883 
f 441//884 427//884 429//884 
f 441//885 429//885 431//885 
f 441//886 431//886 434//886 
f 441//887 434//887 443//887 
f 441//888 443//888 467//888 
f 469//889 470//889 471//889 
f 471//890 470//890 472//890 
f 473//891 471//891 474//891 
f 471//892 472//892 474//892 
f 473//893 474//893 475//893 
f 475//894 476//894 477//894 
f 474//895 476//895 475//895 
f 477//896 478//896 479//896 
f 476//897 478//897 477//897 
f 479//898 480//898 481//898 
f 478//899 480//899 479//899 
f 480//900 482//900 481//900 
f 481//901 483//901 484//901 
f 482//902 483//902 481//902 
f 485//903 486//903 487//903 
f 487//904 486//904 488//904 
f 487//905 488//905 489//905 
f 489//906 488//906 490//906 
f 489//907 490//907 491//907 
f 491//908 490//908 492//908 
f 491//909 492//909 469//909 
f 469//910 492//910 470//910 
f 493//911 484//911 494//911 
f 484//912 483//912 494//912 
f 493//913 495//913 496//913 
f 494//914 495//914 493//914 
f 496//915 497//915 498//915 
f 495//916 497//916 496//916 
f 498//917 499//917 500//917 
f 497//918 499//918 498//918 
f 500//919 501//919 502//919 
f 499//920 501//920 500//920 
f 502//921 503//921 504//921 
f 501//922 503//922 502//922 
f 504//923 505//923 506//923 
f 503//924 505//924 504//924 
f 506//925 507//925 508//925 
f 505//926 507//926 506//926 
f 508//927 509//927 510//927 
f 507//928 509//928 508//928 
f 510//929 511//929 512//929 
f 509//930 511//930 510//930 
f 512//931 511//931 513//931 
f 513//932 511//932 514//932 
f 513//933 514//933 515//933 
f 515//934 514//934 516//934 
f 517//935 515//935 518//935 
f 515//936 516//936 518//936 
f 517//937 518//937 485//937 
f 485//938 518//938 486//938 
f 470//939 474//939 472//939 
f 509//940 516//940 511//940 
f 507//941 516//941 509//941 
f 505//942 516//942 507//942 
f 511//943 516//943 514//943 
f 503//944 518//944 505//944 
f 501//945 518//945 503//945 
f 499//946 518//946 501//946 
f 497//947 518//947 499//947 
f 495//948 518//948 497//948 
f 494//949 518//949 495//949 
f 505//950 518//950 516//950 
f 518//951 490//951 486//951 
f 490//952 488//952 486//952 
f 518//953 492//953 490//953 
f 470//954 492//954 474//954 
f 474//955 492//955 476//955 
f 476//956 492//956 478//956 
f 478//957 492//957 480//957 
f 480//958 492//958 482//958 
f 482//959 492//959 483//959 
f 483//960 492//960 494//960 
f 494//961 492//961 518//961 
f 487//962 489//962 485//962 
f 491//963 517//963 489//963 
f 489//964 517//964 485//964 
f 515//965 512//965 513//965 
f 515//966 510//966 512//966 
f 515//967 508//967 510//967 
f 517//968 506//968 515//968 
f 515//969 506//969 508//969 
f 517//970 504//970 506//970 
f 517//971 502//971 504//971 
f 517//972 500//972 502//972 
f 517//973 498//973 500//973 
f 517//974 496//974 498//974 
f 517//975 493//975 496//975 
f 473//976 469//976 471//976 
f 491//977 469//977 473//977 
f 491//978 473//978 475//978 
f 491//979 475//979 477//979 
f 491//980 477//980 479//980 
f 491//981 479//981 481//981 
f 491//982 481//982 484//982 
f 491//983 484//983 493//983 
f 491//984 493//984 517//984 
f 519//985 520//985 521//985 
f 521//986 520//986 522//986 
f 523//987 521//987 524//987 
f 521//988 522//988 524//988 
f 523//989 524//989 525//989 
f 525//990 524//990 526//990 
f 527//991 525//991 528//991 
f 525//992 526//992 528//992 
f 527//993 528//993 529//993 
f 529//994 528//994 530//994 
f 529//995 530//995 531//995 
f 531//996 530//996 532//996 
f 533//997 531//997 534//997 
f 531//998 532//998 534//998 
f 533//999 534//999 535//999 
f 535//1000 534//1000 536//1000 
f 535//1001 536//1001 537//1001 
f 537//1002 536//1002 538//1002 
f 537//1003 538//1003 539//1003 
f 539//1004 538//1004 540//1004 
f 539//1005 540//1005 541//1005 
f 541//1006 540//1006 542//1006 
f 543//1007 541//1007 544//1007 
f 541//1008 542//1008 544//1008 
f 543//1009 544//1009 545//1009 
f 545//1010 544//1010 546//1010 
f 545//1011 546//1011 547//1011 
f 547//1012 546//1012 548//1012 
f 547//1013 548//1013 549//1013 
f 549//1014 548//1014 550//1014 
f 549//1015 550//1015 551//1015 
f 551//1016 550//1016 552//1016 
f 553//1017 554//1017 555//1017 
f 555//1018 554//1018 556//1018 
f 555//1019 556//1019 557//1019 
f 557//1020 556//1020 558//1020 
f 559//1021 560//1021 561//1021 
f 560//1022 562//1022 561//1022 
f 559//1023 561//1023 563//1023 
f 563//1024 561//1024 564//1024 
f 560//1025 557//1025 562//1025 
f 557//1026 558//1026 562//1026 
f 563//1027 564//1027 519//1027 
f 519//1028 564//1028 520//1028 
f 551//1029 565//1029 566//1029 
f 551//1030 552//1030 565//1030 
f 566//1031 565//1031 553//1031 
f 553//1032 565//1032 554//1032 
f 564//1033 522//1033 520//1033 
f 561//1034 528//1034 564//1034 
f 564//1035 528//1035 522//1035 
f 562//1036 530//1036 561//1036 
f 561//1037 530//1037 528//1037 
f 558//1038 536//1038 562//1038 
f 562//1039 536//1039 530//1039 
f 522//1040 526//1040 524//1040 
f 528//1041 526//1041 522//1041 
f 558//1042 538//1042 536//1042 
f 556//1043 544//1043 558//1043 
f 558//1044 544//1044 538//1044 
f 536//1045 532//1045 530//1045 
f 536//1046 534//1046 532//1046 
f 554//1047 546//1047 556//1047 
f 556//1048 546//1048 544//1048 
f 554//1049 552//1049 546//1049 
f 554//1050 565//1050 552//1050 
f 538//1051 542//1051 540//1051 
f 544//1052 542//1052 538//1052 
f 552//1053 548//1053 546//1053 
f 552//1054 550//1054 548//1054 
f 521//1055 563//1055 519//1055 
f 523//1056 525//1056 521//1056 
f 563//1057 527//1057 559//1057 
f 521//1058 527//1058 563//1058 
f 525//1059 527//1059 521//1059 
f 559//1060 529//1060 560//1060 
f 527//1061 529//1061 559//1061 
f 533//1062 535//1062 531//1062 
f 531//1063 535//1063 529//1063 
f 529//1064 535//1064 560//1064 
f 541//1065 543//1065 539//1065 
f 539//1066 543//1066 537//1066 
f 549//1067 551//1067 547//1067 
f 547//1068 551//1068 545//1068 
f 545//1069 555//1069 543//1069 
f 537//1070 557//1070 535//1070 
f 535//1071 557//1071 560//1071 
f 543//1072 557//1072 537//1072 
f 555//1073 557//1073 543//1073 
f 566//1074 553//1074 551//1074 
f 551//1075 553//1075 545//1075 
f 545//1076 553//1076 555//1076 
f 567//1077 568//1077 569//1077 
f 569//1078 568//1078 570//1078 
f 571//1079 569//1079 572//1079 
f 569//1080 570//1080 572//1080 
f 571//1081 572//1081 573//1081 
f 573//1082 572//1082 574//1082 
f 567//1083 573//1083 568//1083 
f 573//1084 574//1084 568//1084 
f 572//1085 570//1085 574//1085 
f 574//1086 570//1086 568//1086 
f 567//1087 571//1087 573//1087 
f 569//1088 571//1088 567//1088 
f 575//1089 576//1089 577//1089 
f 576//1090 578//1090 577//1090 
f 579//1091 575//1091 580//1091 
f 575//1092 577//1092 580//1092 
f 579//1093 580//1093 581//1093 
f 581//1094 582//1094 583//1094 
f 580//1095 582//1095 581//1095 
f 583//1096 584//1096 585//1096 
f 582//1097 584//1097 583//1097 
f 585//1098 586//1098 587//1098 
f 584//1099 586//1099 585//1099 
f 586//1100 588//1100 587//1100 
f 587//1101 589//1101 590//1101 
f 588//1102 589//1102 587//1102 
f 591//1103 592//1103 593//1103 
f 593//1104 592//1104 594//1104 
f 593//1105 594//1105 595//1105 
f 595//1106 594//1106 596//1106 
f 595//1107 596//1107 597//1107 
f 597//1108 596//1108 598//1108 
f 597//1109 598//1109 576//1109 
f 576//1110 598//1110 578//1110 
f 599//1111 590//1111 600//1111 
f 590//1112 589//1112 600//1112 
f 599//1113 600//1113 601//1113 
f 601//1114 602//1114 603//1114 
f 600//1115 602//1115 601//1115 
f 603//1116 604//1116 605//1116 
f 602//1117 604//1117 603//1117 
f 605//1118 606//1118 607//1118 
f 604//1119 606//1119 605//1119 
f 607//1120 608//1120 609//1120 
f 606//1121 608//1121 607//1121 
f 609//1122 610//1122 611//1122 
f 608//1123 610//1123 609//1123 
f 611//1124 612//1124 613//1124 
f 610//1125 612//1125 611//1125 
f 613//1126 614//1126 615//1126 
f 612//1127 614//1127 613//1127 
f 614//1128 616//1128 615//1128 
f 615//1129 617//1129 618//1129 
f 616//1130 617//1130 615//1130 
f 619//1131 618//1131 620//1131 
f 618//1132 617//1132 620//1132 
f 621//1133 619//1133 622//1133 
f 619//1134 620//1134 622//1134 
f 621//1135 622//1135 623//1135 
f 623//1136 622//1136 624//1136 
f 623//1137 624//1137 591//1137 
f 591//1138 624//1138 592//1138 
f 578//1139 580//1139 577//1139 
f 616//1140 622//1140 617//1140 
f 614//1141 622//1141 616//1141 
f 612//1142 622//1142 614//1142 
f 617//1143 622//1143 620//1143 
f 610//1144 624//1144 612//1144 
f 608//1145 624//1145 610//1145 
f 606//1146 624//1146 608//1146 
f 604//1147 624//1147 606//1147 
f 602//1148 624//1148 604//1148 
f 600//1149 624//1149 602//1149 
f 612//1150 624//1150 622//1150 
f 624//1151 596//1151 592//1151 
f 596//1152 594//1152 592//1152 
f 624//1153 598//1153 596//1153 
f 578//1154 598//1154 580//1154 
f 580//1155 598//1155 582//1155 
f 582//1156 598//1156 584//1156 
f 584//1157 598//1157 586//1157 
f 586//1158 598//1158 588//1158 
f 588//1159 598//1159 589//1159 
f 589//1160 598//1160 600//1160 
f 600//1161 598//1161 624//1161 
f 593//1162 595//1162 591//1162 
f 597//1163 623//1163 595//1163 
f 595//1164 623//1164 591//1164 
f 621//1165 618//1165 619//1165 
f 621//1166 615//1166 618//1166 
f 621//1167 613//1167 615//1167 
f 623//1168 611//1168 621//1168 
f 621//1169 611//1169 613//1169 
f 623//1170 609//1170 611//1170 
f 623//1171 607//1171 609//1171 
f 623//1172 605//1172 607//1172 
f 623//1173 603//1173 605//1173 
f 623//1174 601//1174 603//1174 
f 623//1175 599//1175 601//1175 
f 579//1176 576//1176 575//1176 
f 597//1177 576//1177 579//1177 
f 597//1178 579//1178 581//1178 
f 597//1179 581//1179 583//1179 
f 597//1180 583//1180 585//1180 
f 597//1181 585//1181 587//1181 
f 597//1182 587//1182 590//1182 
f 597//1183 590//1183 599//1183 
f 597//1184 599//1184 623//1184 
