# FreeCAD v1.0 build0 Arch module
# https://www.freecad.org
mtllib HOUSE_COVER.mtl
o SCX2000-3_HOUSE_COVER_TW_000_1-HSC_SCX2000-3_HOUSE_COVER003 (Meshed)
usemtl color_cccce6
v -3164.0 825.0 1548.961304
v -3164.0 -795.0 1548.961304
v -2834.0 825.0 1780.029785
v -2834.0 -795.0 1780.029785
v -3164.0 -795.0 1450.0
v -1197.0 -795.0 1450.0
v -1197.0 -795.0 1780.029785
v -3164.0 825.0 1450.0
v -1197.0 825.0 1780.029785
v -1197.0 825.0 1450.0
v -22.0 1085.0 1410.0
v -22.0 1085.0 1450.0
v -22.0 -1085.0 1450.0
v -22.0 -1085.0 1410.0
v -3462.0 -1085.0 1450.0
v -3462.0 -1085.0 1410.0
v -3462.0 1085.0 1450.0
v -3462.0 1085.0 1410.0
v 29.799999 680.0 1420.5
v 29.799999 -680.0 1420.5
v 29.799999 -680.0 1415.0
v 29.799999 680.0 1415.0
v -22.0 -680.0 1420.5
v -22.0 680.0 1420.5
v -22.0 680.0 1415.0
v -22.0 -680.0 1415.0
v 24.299999 -680.0 1420.5
v 24.299999 -680.0 1588.699951
v 24.299999 680.0 1588.699951
v 24.299999 680.0 1420.5
v 829.299988 680.0 1588.699951
v 829.299988 680.0 1420.5
v 829.299988 -680.0 1588.699951
v 829.299988 -680.0 1420.5
vn -0.573576 0.0 0.819152
vn -0.573576 0.0 0.819152
vn 0.0 -1.0 0.0
vn 0.0 -1.0 0.0
vn 0.0 -1.0 0.0
vn -1.0 0.0 0.0
vn -1.0 0.0 0.0
vn -0.0 1.0 0.0
vn 0.0 1.0 0.0
vn 0.0 1.0 0.0
vn 1.0 0.0 -0.0
vn 1.0 0.0 0.0
vn -0.0 0.0 1.0
vn 0.0 0.0 1.0
vn 1.0 0.0 -0.0
vn 1.0 0.0 0.0
vn 0.0 -1.0 0.0
vn 0.0 -1.0 0.0
vn -1.0 0.0 0.0
vn -1.0 0.0 0.0
vn 0.0 1.0 0.0
vn 0.0 1.0 0.0
vn -0.0 0.0 1.0
vn 0.0 0.0 1.0
vn 0.0 0.0 1.0
vn -0.0 0.0 1.0
vn 0.0 -0.0 1.0
vn 0.0 0.0 1.0
vn 0.0 0.0 1.0
vn 0.0 0.0 1.0
vn 0.0 0.0 -1.0
vn 0.0 0.0 -1.0
vn 1.0 0.0 0.0
vn 1.0 0.0 0.0
vn 0.0 0.0 1.0
vn -0.0 0.0 1.0
vn 0.0 0.0 -1.0
vn -0.0 -0.0 -1.0
vn -1.0 0.0 0.0
vn -1.0 0.0 0.0
vn 0.0 1.0 0.0
vn 0.0 1.0 0.0
vn -0.0 -1.0 0.0
vn 0.0 -1.0 0.0
vn -1.0 0.0 0.0
vn -1.0 0.0 0.0
vn 0.0 1.0 0.0
vn 0.0 1.0 0.0
vn 1.0 0.0 -0.0
vn 1.0 0.0 0.0
vn -0.0 -1.0 0.0
vn 0.0 -1.0 0.0
vn 0.0 0.0 -1.0
vn 0.0 0.0 -1.0
vn 0.0 0.0 1.0
vn 0.0 0.0 1.0
f 1//1 2//1 3//1 
f 3//2 2//2 4//2 
f 5//3 4//3 2//3 
f 6//4 7//4 4//4 
f 6//5 4//5 5//5 
f 5//6 1//6 8//6 
f 5//7 2//7 1//7 
f 3//8 9//8 10//8 
f 8//9 1//9 3//9 
f 8//10 3//10 10//10 
f 10//11 9//11 7//11 
f 10//12 7//12 6//12 
f 3//13 7//13 9//13 
f 3//14 4//14 7//14 
f 11//15 12//15 13//15 
f 11//16 13//16 14//16 
f 14//17 13//17 15//17 
f 14//18 15//18 16//18 
f 16//19 15//19 17//19 
f 16//20 17//20 18//20 
f 18//21 17//21 12//21 
f 18//22 12//22 11//22 
f 6//23 13//23 12//23 
f 6//24 12//24 10//24 
f 17//25 8//25 10//25 
f 17//26 10//26 12//26 
f 5//27 8//27 17//27 
f 15//28 6//28 5//28 
f 15//29 5//29 17//29 
f 15//30 13//30 6//30 
f 14//31 16//31 18//31 
f 14//32 18//32 11//32 
f 19//33 20//33 21//33 
f 19//34 21//34 22//34 
f 19//35 23//35 20//35 
f 24//36 23//36 19//36 
f 25//37 21//37 26//37 
f 22//38 21//38 25//38 
f 25//39 26//39 23//39 
f 25//40 23//40 24//40 
f 19//41 22//41 25//41 
f 19//42 25//42 24//42 
f 20//43 23//43 26//43 
f 21//44 20//44 26//44 
f 27//45 28//45 29//45 
f 27//46 29//46 30//46 
f 30//47 29//47 31//47 
f 30//48 31//48 32//48 
f 32//49 31//49 33//49 
f 32//50 33//50 34//50 
f 33//51 28//51 27//51 
f 34//52 33//52 27//52 
f 30//53 32//53 34//53 
f 30//54 34//54 27//54 
f 31//55 28//55 33//55 
f 31//56 29//56 28//56 
