# FreeCAD v1.0 build0 Arch module
# https://www.freecad.org
mtllib WIRE.mtl
o COMPOUND169 (Meshed)
usemtl color_cccce6
v -53.754948 -548.695679 10623.77832
v -5077.480469 -315.0 67646.960938
v -5077.289062 -312.695709 67646.96875
v -53.945988 -551.0 10623.770508
v -53.188709 -546.454224 10623.818359
v -5076.723145 -310.454254 67647.007812
v -52.262718 -544.336792 10623.891602
v -5075.796875 -308.336792 67647.078125
v -51.002232 -542.401123 10623.994141
v -5074.536621 -306.401093 67647.1875
v -49.441635 -540.699951 10624.125
v -5072.976074 -304.699951 67647.3125
v -47.623493 -539.279785 10624.279297
v -5071.157715 -303.279755 67647.46875
v -45.597401 -538.17926 10624.453125
v -5069.131836 -302.179291 67647.640625
v -43.418629 -537.428528 10624.641602
v -5066.953125 -301.428497 67647.828125
v -41.146603 -537.047913 10624.84082
v -5064.681152 -301.047943 67648.03125
v -38.8433 -537.047913 10625.043945
v -5062.377441 -301.047943 67648.234375
v -36.571552 -537.428528 10625.245117
v -5060.105957 -301.428497 67648.4375
v -34.393322 -538.17926 10625.44043
v -5057.927734 -302.179291 67648.632812
v -32.368027 -539.279785 10625.623047
v -5055.902344 -303.279755 67648.8125
v -5054.085449 -304.699951 67648.976562
v -30.550913 -540.699951 10625.789062
v -28.991545 -542.401123 10625.933594
v -5052.525879 -306.401093 67649.125
v -27.73246 -544.336792 10626.052734
v -5051.266602 -308.336792 67649.242188
v -5050.342285 -310.454254 67649.328125
v -26.808001 -546.454224 10626.142578
v -26.243383 -548.695679 10626.202148
v -5049.777832 -312.695709 67649.390625
v -26.054012 -551.0 10626.227539
v -5049.588379 -315.0 67649.414062
v -26.24505 -553.304321 10626.220703
v -5049.779297 -317.304291 67649.40625
v -5050.345703 -319.545746 67649.367188
v -26.811289 -555.545776 10626.179688
v -5051.271484 -321.663208 67649.296875
v -27.73728 -557.663208 10626.107422
v -5052.532227 -323.598907 67649.195312
v -28.997766 -559.598877 10626.003906
v -5054.092773 -325.300049 67649.0625
v -30.558367 -561.300049 10625.874023
v -5055.910645 -326.720245 67648.90625
v -32.376507 -562.720215 10625.719727
v -5057.937012 -327.820709 67648.734375
v -34.402599 -563.82074 10625.545898
v -5060.115723 -328.571503 67648.546875
v -36.581371 -564.571472 10625.356445
v -5062.387695 -328.952057 67648.34375
v -38.853397 -564.952087 10625.158203
v -5064.690918 -328.952057 67648.140625
v -41.1567 -564.952087 10624.955078
v -5066.962891 -328.571503 67647.945312
v -43.428448 -564.571472 10624.753906
v -5069.141113 -327.820709 67647.75
v -45.606678 -563.82074 10624.558594
v -5071.166504 -326.720245 67647.5625
v -47.631973 -562.720215 10624.375
v -5072.983398 -325.300049 67647.398438
v -49.449085 -561.300049 10624.209961
v -5074.542969 -323.598907 67647.257812
v -51.008453 -559.598877 10624.06543
v -5075.801758 -321.663208 67647.132812
v -52.26754 -557.663208 10623.946289
v -5076.726562 -319.545746 67647.046875
v -53.192001 -555.545776 10623.856445
v -5077.291016 -317.304291 67646.984375
v -53.756615 -553.304321 10623.796875
v -5370.169434 435.0 5413.857422
v -5386.544434 417.250732 5415.630859
v -5374.886719 422.893585 5414.441895
v -5373.237793 424.97345 5414.260254
v -5405.402832 432.347198 5417.299805
v -5402.514648 424.97345 5417.097656
v -5394.342773 418.431366 5416.374512
v -5391.811523 417.647247 5416.137207
v -5370.961914 440.246368 5413.878906
v -5371.931641 442.722717 5413.946777
v -5376.854004 448.915833 5414.358887
v -5379.043457 450.414398 5414.555176
v -5381.430664 451.568634 5414.774414
v -5389.228516 452.749268 5415.517578
v -5391.84668 452.352753 5415.775391
v -5394.375977 451.568634 5416.028809
v -5396.760742 450.414398 5416.272461
v -5402.535156 445.02655 5416.888672
v -5398.946777 448.915833 5416.5
v -5400.88623 447.106415 5416.707031
v 261.583008 1050.0 63893.316406
v 261.783569 1047.347168 63893.324219
v 262.375427 1044.753662 63893.292969
v 264.671661 1039.973511 63893.121094
v 266.324738 1037.893555 63892.984375
v 268.2677 1036.084106 63892.816406
v 270.457062 1034.585571 63892.617188
v 272.843994 1033.431396 63892.398438
v 275.375122 1032.647217 63892.164062
v 280.641907 1032.250732 63891.65625
v 283.259918 1032.647217 63891.398438
v 285.789459 1033.431396 63891.144531
v 292.299713 1037.893555 63890.464844
v 295.270264 1042.277344 63890.132812
v 296.235168 1044.753662 63890.011719
v 296.821777 1047.347168 63889.929688
v 296.816437 1052.652832 63889.875
v 296.224579 1055.246338 63889.902344
v 285.756012 1066.568604 63890.800781
v 283.224884 1067.352783 63891.035156
v 280.606079 1067.749268 63891.285156
v 277.958099 1067.749268 63891.542969
v 270.425934 1065.414429 63892.296875
v 268.239594 1063.915894 63892.523438
v 264.651398 1060.026489 63892.914062
v 263.329742 1057.722656 63893.066406
v -5077.289062 304.695709 67646.96875
v -53.945988 585.0 10623.770508
v -53.754799 582.695679 10623.776367
v -5077.480469 307.0 67646.960938
v -5076.722656 302.454254 67647.007812
v -53.188419 580.454285 10623.81543
v -5075.796387 300.336823 67647.078125
v -52.262291 578.336792 10623.886719
v -5074.536133 298.401123 67647.179688
v -51.001678 576.401123 10623.988281
v -5072.975098 296.699982 67647.304688
v -49.440971 574.700012 10624.117188
v -5071.157227 295.279816 67647.460938
v -47.622738 573.279785 10624.270508
v -5069.130859 294.179321 67647.632812
v -45.596577 572.179321 10624.443359
v -5066.952148 293.428558 67647.820312
v -43.417755 571.428528 10624.631836
v -5064.680176 293.047974 67648.023438
v -41.145706 571.047974 10624.830078
v -5062.376953 293.047974 67648.21875
v -38.842403 571.047974 10625.033203
v -5060.10498 293.428558 67648.421875
v -36.570679 571.428528 10625.235352
v -5057.926758 294.179321 67648.617188
v -34.392498 572.179321 10625.430664
v -5055.901367 295.279816 67648.804688
v -32.367271 573.279785 10625.614258
v -5054.084473 296.699982 67648.96875
v -30.550249 574.700012 10625.78125
v -5052.525391 298.401123 67649.117188
v -28.990992 576.401123 10625.926758
v -5051.266113 300.336823 67649.234375
v -27.732031 578.336792 10626.047852
v -5050.341797 302.454254 67649.328125
v -26.807707 580.454285 10626.139648
v -5049.777344 304.695709 67649.390625
v -26.243237 582.695679 10626.200195
v -26.054012 585.0 10626.227539
v -5049.588379 307.0 67649.414062
v -26.245199 587.304321 10626.222656
v -5049.779297 309.304291 67649.414062
v -26.811583 589.545715 10626.183594
v -5050.345703 311.545746 67649.375
v -27.737709 591.663208 10626.112305
v -5051.271973 313.663177 67649.304688
v -28.998322 593.598877 10626.010742
v -5052.532715 315.598877 67649.203125
v -30.559029 595.299988 10625.880859
v -5054.093262 317.300018 67649.070312
v -32.377262 596.720215 10625.727539
v -5055.911621 318.720184 67648.914062
v -34.403423 597.820679 10625.554688
v -5057.937988 319.820679 67648.742188
v -36.582245 598.571472 10625.366211
v -5060.116699 320.571442 67648.554688
v -38.854294 598.952026 10625.167969
v -5062.388672 320.952026 67648.359375
v -41.157597 598.952026 10624.96582
v -5064.691895 320.952026 67648.15625
v -43.429321 598.571472 10624.763672
v -5066.963867 320.571442 67647.953125
v -45.607502 597.820679 10624.567383
v -5069.141602 319.820679 67647.757812
v -47.632729 596.720215 10624.383789
v -5071.166992 318.720184 67647.570312
v -49.449749 595.299988 10624.216797
v -5072.983887 317.300018 67647.40625
v -51.009007 593.598877 10624.071289
v -5074.543457 315.598877 67647.257812
v -52.267971 591.663208 10623.951172
v -5075.802246 313.663177 67647.140625
v -53.192291 589.545715 10623.859375
v -5076.726562 311.545746 67647.046875
v -53.756763 587.304321 10623.798828
v -5077.291016 309.304291 67646.984375
v -5379.012695 419.585602 5414.876465
v -5376.826172 421.084167 5414.648926
v -5370.951172 429.753632 5413.988281
v -5371.916504 427.277283 5414.10791
v -5383.926758 417.647247 5415.373047
v -5381.396973 418.431366 5415.119629
v -5370.364746 432.347198 5413.904297
v -5389.192383 417.250732 5415.887695
v -5396.729492 419.585602 5416.593262
v -5398.918945 421.084167 5416.790039
v -5404.811035 429.753632 5417.269531
v -5403.841309 427.277283 5417.20166
v -5400.861816 422.893585 5416.958984
v -5405.603516 435.0 5417.291504
v -5373.258301 445.02655 5414.05127
v -5370.370117 437.652802 5413.848633
v -5374.911133 447.106415 5414.189453
v -5386.580566 452.749268 5415.26123
v -5383.961426 452.352753 5415.01123
v -5405.408203 437.652802 5417.244629
v -5404.821777 440.246368 5417.160645
v -5403.856934 442.722717 5417.041016
v 263.345337 1042.277344 63893.226562
v 277.993927 1032.250732 63891.914062
v 288.174072 1034.585571 63890.902344
v 290.360413 1036.084106 63890.671875
v 293.948578 1039.973511 63890.285156
v 297.016998 1050.0 63889.882812
v 295.254669 1057.722656 63889.972656
v 293.928345 1060.026489 63890.074219
v 292.275238 1062.106445 63890.214844
v 290.332306 1063.915894 63890.382812
v 288.142944 1065.414429 63890.582031
v 275.340088 1067.352783 63891.800781
v 272.810516 1066.568604 63892.054688
v 266.300293 1062.106445 63892.730469
v 262.364838 1055.246338 63893.183594
v 261.778229 1052.652832 63893.269531
v 46829.304688 -186.535934 90471.148438
v 46824.304688 -169.182205 90484.054688
v 46823.351562 -168.785706 90486.507812
v 46825.222656 -169.96637 90481.6875
v 46826.089844 -171.120682 90479.453125
v 46826.882812 -172.619324 90477.398438
v 46827.585938 -174.428848 90475.585938
v 46828.1875 -176.508835 90474.039062
v 46828.667969 -178.812805 90472.796875
v 46829.019531 -181.289291 90471.890625
v 46829.230469 -183.88298 90471.335938
v 46822.390625 -168.785706 90488.992188
v 46821.441406 -169.182205 90491.445312
v 46820.523438 -169.96637 90493.8125
v 46819.65625 -171.120682 90496.046875
v 46818.863281 -172.619324 90498.09375
v 46818.160156 -174.428848 90499.914062
v 46817.558594 -176.508835 90501.460938
v 46817.078125 -178.812805 90502.703125
v 46816.726562 -181.289291 90503.609375
v 46816.511719 -183.88298 90504.164062
v 46816.441406 -186.535934 90504.34375
v 46829.019531 -191.782578 90471.890625
v 46829.230469 -189.188889 90471.335938
v 46828.667969 -194.259064 90472.796875
v 46828.1875 -196.563019 90474.039062
v 46827.585938 -198.643005 90475.585938
v 46826.882812 -200.45253 90477.398438
v 46826.089844 -201.951187 90479.453125
v 46825.222656 -203.105484 90481.6875
v 46824.304688 -203.889648 90484.054688
v 46823.351562 -204.286163 90486.507812
v 46822.390625 -204.286163 90488.992188
v 46816.511719 -189.188889 90504.164062
v 46821.441406 -203.889648 90491.445312
v 46816.726562 -191.782578 90503.609375
v 46820.523438 -203.105484 90493.8125
v 46817.078125 -194.259064 90502.703125
v 46819.65625 -201.951187 90496.046875
v 46817.558594 -196.563019 90501.460938
v 46818.863281 -200.45253 90498.09375
v 46818.160156 -198.643005 90499.914062
v -523.990051 -186.535934 72161.054688
v -523.918213 -183.88298 72160.867188
v -523.704346 -181.289291 72160.3125
v -523.353149 -178.812805 72159.40625
v -522.872559 -176.508835 72158.171875
v -522.273254 -174.428848 72156.625
v -521.568665 -172.619324 72154.804688
v -520.774475 -171.120682 72152.757812
v -519.908447 -169.96637 72150.515625
v -518.989929 -169.182205 72148.148438
v -518.03949 -168.785706 72145.695312
v -517.078247 -168.785706 72143.21875
v -516.127808 -169.182205 72140.765625
v -515.20929 -169.96637 72138.390625
v -514.343262 -171.120682 72136.15625
v -513.549133 -172.619324 72134.109375
v -512.844482 -174.428848 72132.289062
v -512.245178 -176.508835 72130.742188
v -511.764587 -178.812805 72129.5
v -511.413422 -181.289291 72128.59375
v -511.199524 -183.88298 72128.046875
v -511.127716 -186.535934 72127.859375
v -511.199524 -189.188889 72128.046875
v -511.413422 -191.782578 72128.59375
v -511.764587 -194.259064 72129.5
v -512.245178 -196.563019 72130.742188
v -512.844482 -198.643005 72132.289062
v -513.549133 -200.45253 72134.109375
v -514.343262 -201.951187 72136.15625
v -515.20929 -203.105484 72138.390625
v -516.127808 -203.889648 72140.765625
v -517.078247 -204.286163 72143.21875
v -518.03949 -204.286163 72145.695312
v -518.989929 -203.889648 72148.148438
v -519.908447 -203.105484 72150.515625
v -520.774475 -201.951187 72152.757812
v -521.568665 -200.45253 72154.804688
v -522.273254 -198.643005 72156.625
v -522.872559 -196.563019 72158.171875
v -523.353149 -194.259064 72159.40625
v -523.704346 -191.782578 72160.3125
v -523.918213 -189.188889 72160.867188
v 280.641907 -1032.250732 63891.65625
v 277.993927 -1032.250732 63891.914062
v 288.174072 -1034.585571 63890.902344
v 290.360413 -1036.084106 63890.671875
v 292.299713 -1037.893555 63890.464844
v 293.948578 -1039.973511 63890.285156
v 263.345337 -1042.277344 63893.226562
v 262.375427 -1044.753662 63893.292969
v 296.821777 -1047.347168 63889.929688
v 261.783569 -1047.347168 63893.324219
v 297.016998 -1050.0 63889.882812
v 261.778229 -1052.652832 63893.269531
v 275.340088 -1067.352783 63891.800781
v 277.958099 -1067.749268 63891.542969
v 262.364838 -1055.246338 63893.183594
v 296.224579 -1055.246338 63889.902344
v 263.329742 -1057.722656 63893.066406
v 270.425934 -1065.414429 63892.296875
v 272.810516 -1066.568604 63892.054688
v 293.928345 -1060.026489 63890.074219
v 268.239594 -1063.915894 63892.523438
v -5405.402832 -432.347198 5417.299805
v -5400.861816 -422.893585 5416.958984
v -5396.729492 -419.585602 5416.593262
v -5394.342773 -418.431366 5416.374512
v -5389.192383 -417.250732 5415.887695
v -5386.544434 -417.250732 5415.630859
v -5381.396973 -418.431366 5415.119629
v -5376.826172 -421.084167 5414.648926
v -5373.237793 -424.97345 5414.260254
v -5370.364746 -432.347198 5413.904297
v -5370.370117 -437.652802 5413.848633
v -5370.961914 -440.246368 5413.878906
v -5379.043457 -450.414398 5414.555176
v -5381.430664 -451.568634 5414.774414
v -5383.961426 -452.352753 5415.01123
v -5386.580566 -452.749268 5415.26123
v -5389.228516 -452.749268 5415.517578
v -5394.375977 -451.568634 5416.028809
v -5396.760742 -450.414398 5416.272461
v 283.259918 -1032.647217 63891.398438
v 285.789459 -1033.431396 63891.144531
v 272.843994 -1033.431396 63892.398438
v 275.375122 -1032.647217 63892.164062
v 268.2677 -1036.084106 63892.816406
v 270.457062 -1034.585571 63892.617188
v 266.324738 -1037.893555 63892.984375
v 264.671661 -1039.973511 63893.121094
v 295.270264 -1042.277344 63890.132812
v 296.235168 -1044.753662 63890.011719
v 261.583008 -1050.0 63893.316406
v 288.142944 -1065.414429 63890.582031
v 290.332306 -1063.915894 63890.382812
v 292.275238 -1062.106445 63890.214844
v 285.756012 -1066.568604 63890.800781
v 296.816437 -1052.652832 63889.875
v 283.224884 -1067.352783 63891.035156
v 280.606079 -1067.749268 63891.285156
v 295.254669 -1057.722656 63889.972656
v 266.300293 -1062.106445 63892.730469
v 264.651398 -1060.026489 63892.914062
v -5405.603516 -435.0 5417.291504
v -5404.811035 -429.753632 5417.269531
v -5403.841309 -427.277283 5417.20166
v -5402.514648 -424.97345 5417.097656
v -5398.918945 -421.084167 5416.790039
v -5391.811523 -417.647247 5416.137207
v -5383.926758 -417.647247 5415.373047
v -5379.012695 -419.585602 5414.876465
v -5374.886719 -422.893585 5414.441895
v -5371.916504 -427.277283 5414.10791
v -5370.951172 -429.753632 5413.988281
v -5370.169434 -435.0 5413.857422
v -5371.931641 -442.722717 5413.946777
v -5373.258301 -445.02655 5414.05127
v -5374.911133 -447.106415 5414.189453
v -5376.854004 -448.915833 5414.358887
v -5391.84668 -452.352753 5415.775391
v -5398.946777 -448.915833 5416.5
v -5400.88623 -447.106415 5416.707031
v -5402.535156 -445.02655 5416.888672
v -5403.856934 -442.722717 5417.041016
v -5404.821777 -440.246368 5417.160645
v -5405.408203 -437.652802 5417.244629
v -511.127716 186.535934 72127.859375
v -516.127808 169.182205 72140.765625
v -517.078247 168.785706 72143.21875
v -515.20929 169.96637 72138.390625
v -514.343262 171.120682 72136.15625
v -513.549133 172.619324 72134.109375
v -512.844482 174.428848 72132.289062
v -512.245178 176.508835 72130.742188
v -511.764587 178.812805 72129.5
v -511.413422 181.289291 72128.59375
v -511.199524 183.88298 72128.046875
v -518.03949 168.785706 72145.695312
v -518.989929 169.182205 72148.148438
v -519.908447 169.96637 72150.515625
v -520.774475 171.120682 72152.757812
v -521.568665 172.619324 72154.804688
v -522.273254 174.428848 72156.625
v -522.872559 176.508835 72158.171875
v -523.353149 178.812805 72159.40625
v -523.704346 181.289291 72160.3125
v -523.918213 183.88298 72160.867188
v -523.990051 186.535934 72161.054688
v -511.413422 191.782578 72128.59375
v -511.199524 189.188889 72128.046875
v -511.764587 194.259064 72129.5
v -512.245178 196.563019 72130.742188
v -512.844482 198.643005 72132.289062
v -513.549133 200.45253 72134.109375
v -514.343262 201.951187 72136.15625
v -515.20929 203.105484 72138.390625
v -516.127808 203.889648 72140.765625
v -517.078247 204.286163 72143.21875
v -518.03949 204.286163 72145.695312
v -523.918213 189.188889 72160.867188
v -518.989929 203.889648 72148.148438
v -523.704346 191.782578 72160.3125
v -519.908447 203.105484 72150.515625
v -523.353149 194.259064 72159.40625
v -520.774475 201.951187 72152.757812
v -522.872559 196.563019 72158.171875
v -521.568665 200.45253 72154.804688
v -522.273254 198.643005 72156.625
v 46816.511719 183.88298 90504.164062
v 46816.441406 186.535934 90504.34375
v 46816.726562 181.289291 90503.609375
v 46817.078125 178.812805 90502.703125
v 46817.558594 176.508835 90501.460938
v 46818.160156 174.428848 90499.914062
v 46818.863281 172.619324 90498.09375
v 46819.65625 171.120682 90496.046875
v 46820.523438 169.96637 90493.8125
v 46821.441406 169.182205 90491.445312
v 46822.390625 168.785706 90488.992188
v 46823.351562 168.785706 90486.507812
v 46824.304688 169.182205 90484.054688
v 46825.222656 169.96637 90481.6875
v 46826.089844 171.120682 90479.453125
v 46826.882812 172.619324 90477.398438
v 46827.585938 174.428848 90475.585938
v 46828.1875 176.508835 90474.039062
v 46828.667969 178.812805 90472.796875
v 46829.019531 181.289291 90471.890625
v 46829.230469 183.88298 90471.335938
v 46829.304688 186.535934 90471.148438
v 46829.230469 189.188889 90471.335938
v 46829.019531 191.782578 90471.890625
v 46828.667969 194.259064 90472.796875
v 46828.1875 196.563019 90474.039062
v 46827.585938 198.643005 90475.585938
v 46826.882812 200.45253 90477.398438
v 46826.089844 201.951187 90479.453125
v 46825.222656 203.105484 90481.6875
v 46824.304688 203.889648 90484.054688
v 46823.351562 204.286163 90486.507812
v 46822.390625 204.286163 90488.992188
v 46821.441406 203.889648 90491.445312
v 46820.523438 203.105484 90493.8125
v 46819.65625 201.951187 90496.046875
v 46818.863281 200.45253 90498.09375
v 46818.160156 198.643005 90499.914062
v 46817.558594 196.563019 90501.460938
v 46817.078125 194.259064 90502.703125
v 46816.726562 191.782578 90503.609375
v 46816.511719 189.188889 90504.164062
vn -0.992701 0.082682 -0.087795
vn -0.992708 0.082598 -0.087796
vn -0.965594 0.245393 -0.086081
vn -0.965577 0.245463 -0.08608
vn -0.912054 0.401785 -0.082011
vn -0.912087 0.401709 -0.082014
vn -0.833662 0.547062 -0.075707
vn -0.833744 0.546936 -0.075713
vn -0.732816 0.677085 -0.067361
vn -0.732639 0.677278 -0.067346
vn -0.611453 0.789215 -0.057133
vn -0.611553 0.789138 -0.057142
vn -0.473861 0.879429 -0.045386
vn -0.473807 0.879458 -0.04538
vn -0.323132 0.9458 -0.03238
vn -0.323095 0.945813 -0.032378
vn -0.163577 0.986357 -0.018494
vn -0.163614 0.986351 -0.018496
vn 0.000363 0.999991 -0.004107
vn 0.000362 0.999991 -0.004107
vn 0.164302 0.986355 0.010394
vn 0.164335 0.98635 0.010395
vn 0.323738 0.945827 0.024606
vn 0.323771 0.945815 0.024609
vn 0.61226 0.789032 0.050671
vn 0.47439 0.879488 0.038153
vn 0.474447 0.879457 0.038157
vn 0.612123 0.789138 0.05066
vn 0.733063 0.67735 0.061777
vn 0.733134 0.677272 0.061783
vn 0.912432 0.401586 0.07872
vn 0.834169 0.54689 0.071224
vn 0.834128 0.546954 0.07122
vn 0.912389 0.401684 0.078716
vn 0.965715 0.24562 0.08406
vn 0.965744 0.245503 0.084062
vn 0.992781 0.082443 0.087119
vn 0.992772 0.082547 0.087118
vn 0.965537 -0.245619 0.086076
vn 0.992701 -0.082682 0.087795
vn 0.992711 -0.08256 0.087796
vn 0.912142 -0.401585 0.082019
vn 0.965568 -0.245498 0.086079
vn 0.833666 -0.547055 0.075707
vn 0.912101 -0.401677 0.082015
vn 0.732569 -0.677354 0.06734
vn 0.833726 -0.546962 0.075712
vn 0.61157 -0.789124 0.057144
vn 0.732657 -0.677258 0.067347
vn 0.473761 -0.879484 0.045376
vn 0.611553 -0.789137 0.057142
vn 0.323132 -0.9458 0.03238
vn 0.473807 -0.879458 0.04538
vn 0.163538 -0.986364 0.01849
vn 0.323082 -0.945817 0.032377
vn -0.000363 -0.999991 0.004105
vn 0.163622 -0.98635 0.018497
vn -0.164326 -0.986351 -0.010395
vn -0.000362 -0.999991 0.004107
vn -0.323812 -0.945801 -0.024611
vn -0.164335 -0.98635 -0.010395
vn -0.474301 -0.879536 -0.038144
vn -0.323771 -0.945815 -0.024609
vn -0.612143 -0.789123 -0.050661
vn -0.474433 -0.879464 -0.038156
vn -0.733179 -0.677223 -0.061787
vn -0.61214 -0.789125 -0.050661
vn -0.733134 -0.677272 -0.061783
vn -0.834063 -0.547053 -0.071214
vn -0.912432 -0.401586 -0.078719
vn -0.834127 -0.546955 -0.07122
vn -0.965715 -0.245618 -0.08406
vn -0.912389 -0.401685 -0.078716
vn -0.992781 -0.082442 -0.087119
vn -0.965744 -0.245501 -0.084063
vn -0.992769 -0.082584 -0.087118
vn -0.103867 0.001577 0.99459
vn -0.07984 0.005603 0.996792
vn -0.086819 0.00383 0.996217
vn -0.092859 0.001749 0.995678
vn -0.086354 0.004614 0.996254
vn -0.085686 0.004976 0.99631
vn -0.08816 0.003354 0.996101
vn -0.088563 0.00304 0.996066
vn -0.087832 0.003715 0.996128
vn -0.089385 0.002021 0.995995
vn -0.087337 0.004662 0.996168
vn -0.08718 0.004904 0.996181
vn -0.089653 0.005213 0.995959
vn -0.081695 0.001709 0.996656
vn -0.097221 0.007061 0.995238
vn -0.084229 0.003757 0.996439
vn -0.082573 0.00348 0.996579
vn -0.087612 0.004103 0.996146
vn -0.082365 0.003445 0.996596
vn -0.0843 0.003769 0.996433
vn -0.08715 0.004494 0.996185
vn -0.091153 0.005874 0.99582
vn -0.08969 0.005229 0.995956
vn -0.086359 0.003419 0.996258
vn -0.087072 0.003887 0.996194
vn -0.090085 0.006242 0.995915
vn -0.08785 0.004175 0.996125
vn -0.0854 0.001503 0.996346
vn -0.103867 0.001577 0.99459
vn -0.087754 0.00454 0.996132
vn -0.079773 0.005614 0.996797
vn -0.087612 0.003931 0.996147
vn -0.088836 0.006204 0.996027
vn -0.096894 0.001262 0.995294
vn -0.086354 0.004614 0.996254
vn -0.083405 0.005912 0.996498
vn 0.087492 -0.004307 -0.996156
vn 0.087959 -0.003942 -0.996116
vn 0.087525 -0.004226 -0.996153
vn 0.087838 -0.004056 -0.996127
vn 0.087959 -0.004003 -0.996116
vn 0.08826 -0.003899 -0.99609
vn 0.087355 -0.004129 -0.996169
vn 0.091287 -0.003471 -0.995819
vn 0.087847 -0.003978 -0.996126
vn 0.087984 -0.003829 -0.996114
vn 0.087403 -0.003567 -0.996167
vn 0.087686 -0.004214 -0.996139
vn 0.087093 -0.003266 -0.996195
vn 0.087788 -0.004024 -0.996131
vn 0.087683 -0.00433 -0.996139
vn 0.090195 -0.004995 -0.995912
vn 0.08773 -0.004145 -0.996136
vn 0.08775 -0.003898 -0.996135
vn 0.089972 -0.004505 -0.995934
vn 0.08685 -0.003982 -0.996213
vn 0.088595 -0.004425 -0.996058
vn 0.087213 -0.003949 -0.996182
vn 0.087835 -0.004223 -0.996126
vn 0.087724 -0.004163 -0.996136
vn 0.088144 -0.004438 -0.996098
vn 0.087588 -0.004003 -0.996149
vn 0.087847 -0.004243 -0.996125
vn 0.08775 -0.004187 -0.996134
vn 0.087555 -0.003925 -0.996152
vn 0.087765 -0.004366 -0.996132
vn 0.087839 -0.004291 -0.996125
vn 0.087701 -0.003977 -0.996139
vn 0.087763 -0.004225 -0.996132
vn 0.089887 -0.00073 -0.995952
vn 0.087704 -0.004083 -0.996138
vn 0.087752 -0.004194 -0.996134
vn -0.096438 -0.010474 -0.995284
vn -0.09646 -0.010456 -0.995282
vn -0.096436 -0.010473 -0.995284
vn -0.096371 -0.01051 -0.99529
vn -0.096492 -0.010452 -0.995279
vn -0.096417 -0.010481 -0.995286
vn -0.096552 -0.01044 -0.995273
vn -0.096569 -0.010436 -0.995272
vn -0.09603 -0.010517 -0.995323
vn -0.096582 -0.010421 -0.99527
vn -0.096078 -0.010344 -0.99532
vn -0.095937 -0.010312 -0.995334
vn -0.096822 -0.010586 -0.995245
vn -0.096168 -0.010328 -0.995312
vn -0.096692 -0.010582 -0.995258
vn -0.096203 -0.010299 -0.995308
vn -0.096576 -0.010554 -0.99527
vn -0.096391 -0.010406 -0.995289
vn -0.096536 -0.010541 -0.995274
vn -0.096457 -0.010456 -0.995282
vn -0.097771 -0.010693 -0.995151
vn -0.09646 -0.010495 -0.995282
vn -0.096717 -0.010554 -0.995256
vn -0.096347 -0.010439 -0.995293
vn -0.096616 -0.010545 -0.995266
vn -0.096364 -0.010423 -0.995292
vn -0.096477 -0.010489 -0.99528
vn -0.096359 -0.010408 -0.995292
vn -0.096605 -0.010605 -0.995266
vn -0.096457 -0.010467 -0.995282
vn -0.096354 -0.010579 -0.995291
vn -0.096413 -0.010525 -0.995286
vn -0.09603 -0.010517 -0.995323
vn -0.096472 -0.010477 -0.995281
vn -0.096647 -0.010424 -0.995264
vn -0.096686 -0.010331 -0.995261
vn -0.096476 -0.010463 -0.99528
vn -0.096402 -0.010495 -0.995287
vn -0.096417 -0.010481 -0.995286
vn -0.096492 -0.010452 -0.995279
vn -0.992463 -0.074928 0.096971
vn -0.992476 -0.074748 0.096972
vn -0.97015 -0.222538 0.096362
vn -0.926197 -0.365238 0.093603
vn -0.970146 -0.222556 0.096362
vn -0.926183 -0.365272 0.093602
vn -0.861402 -0.500111 0.088744
vn -0.861461 -0.500009 0.088747
vn -0.777694 -0.623281 0.081927
vn -0.777603 -0.623396 0.081918
vn -0.676293 -0.732981 0.073253
vn -0.676286 -0.732988 0.073251
vn -0.559927 -0.826147 0.062954
vn -0.559799 -0.826235 0.062942
vn -0.430897 -0.900945 0.051234
vn -0.292466 -0.955505 0.038393
vn -0.430937 -0.900926 0.051239
vn -0.147319 -0.988781 0.02468
vn -0.292473 -0.955503 0.038394
vn 0.000998 -0.999945 0.010419
vn -0.147344 -0.988777 0.024679
vn 0.14937 -0.988773 -0.004076
vn 0.001014 -0.999945 0.010418
vn 0.149344 -0.988777 -0.004075
vn 0.294386 -0.955508 -0.018479
vn 0.294363 -0.955515 -0.018479
vn 0.432759 -0.900925 -0.032466
vn 0.432655 -0.900975 -0.032457
vn 0.561497 -0.826214 -0.045727
vn 0.561481 -0.826225 -0.045726
vn 0.677741 -0.733011 -0.057974
vn 0.677674 -0.733074 -0.057967
vn 0.778842 -0.623422 -0.068926
vn 0.778865 -0.623392 -0.068927
vn 0.862592 -0.499798 -0.078341
vn 0.862487 -0.49998 -0.078329
vn 0.926866 -0.365414 -0.085981
vn 0.926883 -0.365368 -0.085986
vn 0.970643 -0.222347 -0.091731
vn 0.992629 -0.074724 -0.095414
vn 0.970622 -0.22244 -0.091728
vn 0.992628 -0.074733 -0.095414
vn 0.992478 0.074724 -0.096974
vn 0.992476 0.074748 -0.096972
vn 0.97015 0.222538 -0.096361
vn 0.970177 0.222418 -0.096364
vn 0.926197 0.365238 -0.093603
vn 0.926133 0.3654 -0.093599
vn 0.861402 0.500111 -0.088743
vn 0.861526 0.499896 -0.088752
vn 0.777595 0.623407 -0.081915
vn 0.777523 0.623497 -0.081911
vn 0.676192 0.733076 -0.073242
vn 0.676292 0.732982 -0.073252
vn 0.559927 0.826147 -0.062954
vn 0.559799 0.826235 -0.062942
vn 0.430817 0.900984 -0.051228
vn 0.430937 0.900926 -0.051239
vn 0.292466 0.955505 -0.038391
vn 0.292473 0.955503 -0.038394
vn 0.147344 0.988777 -0.024679
vn 0.147344 0.988777 -0.024679
vn -0.000998 0.999945 -0.010417
vn -0.001014 0.999945 -0.010418
vn -0.14934 0.988778 0.004074
vn -0.149344 0.988777 0.004075
vn -0.294386 0.955508 0.018482
vn -0.29436 0.955516 0.018479
vn -0.432763 0.900923 0.032466
vn -0.432635 0.900985 0.032456
vn -0.561536 0.826187 0.045732
vn -0.561575 0.826161 0.045739
vn -0.677741 0.733011 0.057974
vn -0.677674 0.733074 0.057969
vn -0.778753 0.623534 0.068916
vn -0.778797 0.623478 0.06892
vn -0.862492 0.499971 0.07833
vn -0.862422 0.500094 0.078322
vn -0.926935 0.365236 0.085991
vn -0.926929 0.36525 0.085992
vn -0.970644 0.222341 0.091729
vn -0.970592 0.222571 0.091724
vn -0.992629 0.074724 0.095414
vn -0.992628 0.074733 0.095414
vn 0.09778 0.010323 0.995155
vn 0.092475 0.00952 0.99567
vn 0.097785 0.010737 0.99515
vn 0.094598 0.009749 0.995468
vn 0.095439 0.010081 0.995384
vn 0.098441 0.011534 0.995076
vn 0.09615 0.010204 0.995315
vn 0.095115 0.009495 0.995421
vn 0.096633 0.010712 0.995263
vn 0.096898 0.01096 0.995234
vn 0.096429 0.010452 0.995285
vn 0.096596 0.010662 0.995267
vn 0.096205 0.010085 0.99531
vn 0.097021 0.011508 0.995216
vn 0.096511 0.01044 0.995277
vn 0.096224 0.009704 0.995312
vn 0.09646 0.010476 0.995282
vn 0.096586 0.011034 0.995264
vn 0.096384 0.00968 0.995297
vn 0.096444 0.010489 0.995283
vn 0.096444 0.010223 0.995286
vn 0.096348 0.011494 0.995281
vn 0.096636 0.00959 0.995274
vn 0.096199 0.011505 0.995296
vn 0.096777 0.009627 0.99526
vn 0.096254 0.010963 0.995296
vn 0.097001 0.009409 0.99524
vn 0.096328 0.010577 0.995293
vn 0.09572 0.011472 0.995342
vn 0.096584 0.010384 0.995271
vn 0.096899 0.010044 0.995244
vn 0.096424 0.010486 0.995285
vn 0.100831 0.010159 0.994852
vn 0.096723 0.010247 0.995259
vn 0.091074 0.011636 0.995776
vn 0.095837 0.010853 0.995338
vn 0.096675 0.010353 0.995262
vn 0.09562 0.010979 0.995357
vn 0.098421 0.009812 0.995097
vn 0.096329 0.010636 0.995293
vn -0.992716 -0.082441 -0.087857
vn -0.99269 -0.082756 -0.087856
vn -0.965577 -0.245399 -0.086261
vn -0.965553 -0.245494 -0.086258
vn -0.912031 -0.401778 -0.082304
vn -0.912059 -0.401713 -0.082308
vn -0.833627 -0.547059 -0.076106
vn -0.833776 -0.546831 -0.076119
vn -0.732643 -0.677223 -0.067845
vn -0.732611 -0.677258 -0.067842
vn -0.61153 -0.789113 -0.057721
vn -0.61152 -0.789121 -0.05772
vn -0.4737 -0.879483 -0.046019
vn -0.473725 -0.879469 -0.046021
vn -0.323063 -0.945799 -0.033072
vn -0.323067 -0.945798 -0.033072
vn -0.163531 -0.986351 -0.019216
vn -0.163509 -0.986355 -0.019213
vn 0.000431 -0.999988 -0.004837
vn 0.00041 -0.999988 -0.004839
vn 0.164408 -0.986345 0.009674
vn 0.164362 -0.986353 0.009671
vn 0.323872 -0.945799 0.023921
vn 0.323845 -0.945808 0.023919
vn 0.474454 -0.879481 0.03751
vn 0.474407 -0.879506 0.037506
vn 0.612208 -0.789109 0.050085
vn 0.612252 -0.789074 0.05009
vn 0.733163 -0.677286 0.061287
vn 0.733219 -0.677224 0.061293
vn 0.834161 -0.546955 0.07082
vn 0.834094 -0.547058 0.070813
vn 0.912373 -0.401779 0.078419
vn 0.912384 -0.401753 0.078419
vn 0.992786 -0.082441 0.087059
vn 0.965786 -0.245398 0.083885
vn 0.965751 -0.245539 0.083882
vn 0.992798 -0.082301 0.087061
vn 0.992716 0.08244 0.087857
vn 0.965577 0.245399 0.086261
vn 0.992732 0.082251 0.087857
vn 0.912031 0.401778 0.082304
vn 0.965553 0.245494 0.086258
vn 0.833627 0.547059 0.076106
vn 0.912059 0.401713 0.082308
vn 0.732643 0.677223 0.067845
vn 0.83368 0.546978 0.076111
vn 0.611409 0.789207 0.05771
vn 0.732561 0.677313 0.067838
vn 0.473806 0.879425 0.046028
vn 0.611418 0.7892 0.057711
vn 0.32307 0.945797 0.033071
vn 0.473725 0.879469 0.046021
vn 0.163484 0.986359 0.019211
vn 0.323067 0.945798 0.033072
vn -0.000431 0.999988 0.004837
vn 0.163573 0.986344 0.019219
vn -0.164401 0.986346 -0.009674
vn -0.000427 0.999988 0.004838
vn -0.323804 0.945822 -0.023915
vn -0.164362 0.986353 -0.009671
vn -0.474454 0.879481 -0.037511
vn -0.323909 0.945786 -0.023924
vn -0.612315 0.789025 -0.050095
vn -0.474407 0.879506 -0.037506
vn -0.733103 0.677352 -0.061282
vn -0.612252 0.789074 -0.05009
vn -0.733059 0.6774 -0.061277
vn -0.834092 0.547061 -0.070813
vn -0.912373 0.401779 -0.078419
vn -0.834257 0.546807 -0.070829
vn -0.965787 0.245396 -0.083885
vn -0.912384 0.401753 -0.078419
vn -0.992786 0.082441 -0.087059
vn -0.965751 0.245539 -0.083882
vn -0.99278 0.082509 -0.087058
vn 0.085993 0.006396 -0.996275
vn 0.08753 0.005143 -0.996149
vn 0.087618 0.004942 -0.996142
vn 0.088125 0.004714 -0.996098
vn 0.088163 0.004701 -0.996095
vn 0.087847 0.004733 -0.996123
vn 0.087864 0.004525 -0.996122
vn 0.087726 0.004939 -0.996132
vn 0.087736 0.004899 -0.996132
vn 0.08782 0.004793 -0.996125
vn 0.087702 0.005012 -0.996134
vn 0.087223 0.004536 -0.996179
vn 0.087916 0.005018 -0.996115
vn 0.087755 0.004892 -0.99613
vn 0.087442 0.004707 -0.996158
vn 0.087761 0.004614 -0.996131
vn 0.087761 0.004816 -0.99613
vn 0.08775 0.004748 -0.996131
vn 0.087593 0.004773 -0.996145
vn 0.087577 0.004768 -0.996146
vn 0.087226 0.004128 -0.99618
vn 0.086963 0.003723 -0.996205
vn 0.087867 0.004896 -0.99612
vn 0.087843 0.004859 -0.996123
vn 0.087711 0.004752 -0.996135
vn 0.08775 0.005037 -0.99613
vn 0.087761 0.005171 -0.996128
vn 0.087761 0.004806 -0.99613
vn 0.087426 0.007255 -0.996145
vn 0.087614 0.004996 -0.996142
vn 0.088126 0.004714 -0.996098
vn 0.087422 0.004956 -0.996159
vn 0.087463 0.005231 -0.996154
vn 0.088517 0.003612 -0.996068
vn 0.087925 0.004709 -0.996116
vn 0.08767 0.004848 -0.996138
vn -0.08832 -0.004382 0.996082
vn -0.087622 -0.004928 0.996142
vn -0.090565 -0.002997 0.995886
vn -0.085454 -0.005774 0.996325
vn -0.091336 -0.003184 0.995815
vn -0.083895 -0.005748 0.996458
vn -0.093282 -0.003362 0.995634
vn -0.103739 -0.001609 0.994603
vn -0.084494 -0.007916 0.996393
vn -0.089465 -0.002499 0.995987
vn -0.082467 -0.003471 0.996588
vn -0.084261 -0.003772 0.996437
vn -0.087236 -0.004528 0.996177
vn -0.083225 -0.003146 0.996526
vn -0.090588 -0.006389 0.995868
vn -0.08687 -0.004368 0.99621
vn -0.087342 -0.004678 0.996167
vn -0.087611 -0.004888 0.996143
vn -0.102069 -0.008457 0.994741
vn -0.0905 -0.00652 0.995875
vn -0.090071 -0.006411 0.995915
vn -0.092722 -0.007324 0.995665
vn -0.090546 -0.006366 0.995872
vn -0.08687 -0.004368 0.99621
vn -0.087342 -0.004678 0.996167
vn -0.086291 -0.003856 0.996263
vn -0.087849 -0.005297 0.99612
vn -0.087611 -0.004936 0.996143
vn -0.088119 -0.005591 0.996094
vn -0.103867 -0.001577 0.99459
vn -0.087648 -0.004907 0.996139
vn -0.093319 -0.003346 0.995631
vn -0.090568 -0.002992 0.995886
vn -0.083963 -0.005724 0.996452
vn -0.085458 -0.005768 0.996325
vn -0.091291 -0.0032 0.995819
vn -0.096184 -0.010785 -0.995305
vn -0.096339 -0.010544 -0.995293
vn -0.096536 -0.010448 -0.995275
vn -0.096407 -0.010504 -0.995287
vn -0.09649 -0.01036 -0.99528
vn -0.096536 -0.010401 -0.995275
vn -0.096434 -0.010503 -0.995284
vn -0.096474 -0.010444 -0.995281
vn -0.096536 -0.01017 -0.995278
vn -0.09702 -0.012005 -0.99521
vn -0.096388 -0.010383 -0.99529
vn -0.096425 -0.010505 -0.995285
vn -0.096514 -0.01032 -0.995278
vn -0.095811 -0.010239 -0.995347
vn -0.097269 -0.010945 -0.995198
vn -0.096122 -0.010279 -0.995316
vn -0.096444 -0.010499 -0.995283
vn -0.096452 -0.010485 -0.995282
vn -0.096452 -0.010391 -0.995283
vn -0.096457 -0.010411 -0.995283
vn -0.09623 -0.01034 -0.995305
vn -0.096945 -0.010686 -0.995232
vn -0.096608 -0.010649 -0.995265
vn -0.095979 -0.009855 -0.995335
vn -0.096377 -0.010398 -0.995291
vn -0.096461 -0.010455 -0.995282
vn -0.09678 -0.011784 -0.995236
vn -0.096484 -0.010474 -0.995279
vn -0.096457 -0.010485 -0.995282
vn -0.096465 -0.010595 -0.99528
vn -0.096466 -0.010454 -0.995281
vn -0.096354 -0.010915 -0.995287
vn -0.096324 -0.010551 -0.995294
vn -0.096722 -0.010359 -0.995258
vn -0.096418 -0.010654 -0.995284
vn -0.0971 -0.009469 -0.99523
vn -0.096463 -0.010457 -0.995282
vn -0.09637 -0.010694 -0.995288
vn -0.096539 -0.010401 -0.995275
vn -0.096423 -0.010476 -0.995285
vn -0.992463 -0.074928 0.096971
vn -0.992476 -0.074748 0.096972
vn -0.97015 -0.222538 0.096362
vn -0.970146 -0.222556 0.096362
vn -0.926197 -0.365238 0.093603
vn -0.926183 -0.365272 0.093602
vn -0.861402 -0.500111 0.088744
vn -0.861461 -0.500009 0.088747
vn -0.777694 -0.623281 0.081927
vn -0.777603 -0.623396 0.081918
vn -0.676293 -0.732981 0.073253
vn -0.676286 -0.732988 0.073251
vn -0.559927 -0.826147 0.062954
vn -0.559799 -0.826235 0.062942
vn -0.430897 -0.900945 0.051234
vn -0.430937 -0.900926 0.051239
vn -0.292466 -0.955505 0.038394
vn -0.147319 -0.988781 0.02468
vn -0.292473 -0.955503 0.038394
vn -0.147344 -0.988777 0.024679
vn 0.000998 -0.999945 0.010419
vn 0.14937 -0.988773 -0.004076
vn 0.001014 -0.999945 0.010418
vn 0.294329 -0.955526 -0.018477
vn 0.149344 -0.988777 -0.004075
vn 0.294363 -0.955515 -0.018479
vn 0.432759 -0.900925 -0.032466
vn 0.432655 -0.900975 -0.032457
vn 0.561497 -0.826214 -0.045727
vn 0.561481 -0.826225 -0.045726
vn 0.677688 -0.733061 -0.057966
vn 0.677741 -0.733011 -0.057974
vn 0.778865 -0.623392 -0.068927
vn 0.778842 -0.623422 -0.068926
vn 0.862592 -0.499798 -0.078341
vn 0.862487 -0.49998 -0.078329
vn 0.926866 -0.365414 -0.085981
vn 0.970644 -0.222341 -0.091729
vn 0.926883 -0.365368 -0.085986
vn 0.992629 -0.074724 -0.095414
vn 0.970622 -0.22244 -0.091728
vn 0.992628 -0.074733 -0.095414
vn 0.992478 0.074724 -0.096974
vn 0.992476 0.074748 -0.096972
vn 0.97015 0.222538 -0.096361
vn 0.970177 0.222418 -0.096364
vn 0.926197 0.365238 -0.093603
vn 0.861402 0.500111 -0.088744
vn 0.926133 0.3654 -0.093599
vn 0.777585 0.623419 -0.081917
vn 0.861526 0.499896 -0.088752
vn 0.676307 0.732969 -0.073252
vn 0.777523 0.623497 -0.081911
vn 0.676292 0.732982 -0.073252
vn 0.559927 0.826147 -0.062954
vn 0.559799 0.826235 -0.062942
vn 0.430817 0.900984 -0.051228
vn 0.430937 0.900926 -0.051239
vn 0.292466 0.955505 -0.038391
vn 0.147344 0.988777 -0.024679
vn 0.292473 0.955503 -0.038394
vn 0.147344 0.988777 -0.024679
vn -0.000998 0.999945 -0.010417
vn -0.14934 0.988778 0.004074
vn -0.001014 0.999945 -0.010418
vn -0.149344 0.988777 0.004075
vn -0.294386 0.955508 0.018482
vn -0.432655 0.900975 0.032457
vn -0.29436 0.955516 0.018479
vn -0.432763 0.900923 0.032466
vn -0.561536 0.826187 0.045732
vn -0.561575 0.826161 0.045739
vn -0.677674 0.733074 0.057969
vn -0.677741 0.733011 0.057974
vn -0.778852 0.623409 0.068924
vn -0.778797 0.623478 0.06892
vn -0.862422 0.500094 0.078322
vn -0.926931 0.365245 0.085993
vn -0.862492 0.499971 0.07833
vn -0.926929 0.36525 0.085992
vn -0.970644 0.222341 0.091729
vn -0.970592 0.222571 0.091724
vn -0.992629 0.074724 0.095414
vn -0.992628 0.074733 0.095414
vn 0.09779 0.006784 0.995184
vn 0.096476 0.010139 0.995284
vn 0.0969 0.008764 0.995256
vn 0.097717 0.018004 0.995051
vn 0.096262 0.011561 0.995289
vn 0.096335 0.010592 0.995293
vn 0.096608 0.012115 0.995249
vn 0.09661 0.010332 0.995269
vn 0.096337 0.00843 0.995313
vn 0.096539 0.011273 0.995265
vn 0.09641 0.009555 0.995296
vn 0.096409 0.010505 0.995286
vn 0.096539 0.011306 0.995265
vn 0.102492 0.013471 0.994643
vn 0.096449 0.011088 0.995276
vn 0.096408 0.010525 0.995286
vn 0.096425 0.009671 0.995293
vn 0.09645 0.010018 0.995287
vn 0.096444 0.010489 0.995283
vn 0.096424 0.010221 0.995288
vn 0.096444 0.010223 0.995286
vn 0.096896 0.01248 0.995216
vn 0.096424 0.010491 0.995285
vn 0.096643 0.009037 0.995278
vn 0.096601 0.011552 0.995256
vn 0.096451 0.009517 0.995292
vn 0.086458 0.013453 0.996165
vn 0.096424 0.010368 0.995286
vn 0.09654 0.011703 0.99526
vn 0.09645 0.010483 0.995283
vn 0.096438 0.008578 0.995302
vn 0.096292 0.010503 0.995298
vn 0.096005 0.012403 0.995304
vn 0.097412 0.008008 0.995212
vn 0.096154 0.010193 0.995314
vn 0.096642 0.009611 0.995273
vn 0.096393 0.009319 0.9953
vn 0.096391 0.011111 0.995282
vn 0.096436 0.010521 0.995284
vn 0.09654 0.011318 0.995265
vn 0.932067 -0.000887 0.362284
vn 0.932312 -0.000349 0.361656
vn 0.932128 -0.000696 0.362129
vn 0.933172 0.000978 0.359428
vn 0.932196 -0.000327 0.361954
vn 0.931525 -0.001054 0.363676
vn 0.932553 -0.000177 0.361032
vn 0.931567 -0.000799 0.363568
vn 0.937064 0.001538 0.349155
vn 0.932663 0.000643 0.360747
vn 0.932593 0.000432 0.36093
vn 0.932384 -0.000295 0.36147
vn 0.932335 -0.000493 0.361596
vn 0.932453 7.4e-05 0.361291
vn 0.932573 0.000764 0.360981
vn 0.932355 -0.000773 0.361543
vn 0.932475 0.000302 0.361234
vn 0.932438 -0.000144 0.361329
vn 0.932448 3.1e-05 0.361304
vn 0.93244 -0.00024 0.361323
vn 0.937064 -0.001538 0.349155
vn 0.931567 0.000799 0.363568
vn 0.932553 0.000177 0.361032
vn 0.931525 0.001054 0.363676
vn 0.932196 0.000327 0.361954
vn 0.933172 -0.000978 0.359428
vn 0.932128 0.000696 0.362129
vn 0.932312 0.000349 0.361656
vn 0.932067 0.000887 0.362284
vn 0.932663 -0.000643 0.360747
vn 0.932441 0.00024 0.361323
vn 0.932593 -0.000432 0.36093
vn 0.932448 -3.1e-05 0.361305
vn 0.932384 0.000295 0.36147
vn 0.932438 0.000144 0.361329
vn 0.932335 0.000493 0.361596
vn 0.932475 -0.000302 0.361234
vn 0.932453 -7.4e-05 0.361291
vn 0.932355 0.000773 0.361543
vn 0.932573 -0.000764 0.360981
vn -0.360351 0.072509 0.929995
vn -0.360271 0.075469 0.92979
vn -0.352155 0.223594 0.908842
vn -0.35217 0.223412 0.90888
vn -0.336328 0.365329 0.867997
vn -0.312839 0.500277 0.807375
vn -0.336328 0.365331 0.867996
vn -0.282464 0.623535 0.728984
vn -0.313224 0.498428 0.808369
vn -0.245667 0.733258 0.634019
vn -0.282465 0.623531 0.728988
vn -0.203745 0.82583 0.525826
vn -0.245632 0.73335 0.633927
vn -0.20369 0.825934 0.525684
vn -0.156794 0.900928 0.404654
vn -0.106625 0.955462 0.275178
vn -0.15641 0.901439 0.403663
vn -0.106613 0.955473 0.275146
vn -0.05387 0.988822 0.139027
vn -0.053845 0.988833 0.138964
vn 0.0 1.0 0.0
vn 0.0 1.0 -0.0
vn 0.053844 0.988833 -0.138962
vn 0.053845 0.988833 -0.138964
vn 0.106625 0.955462 -0.275178
vn 0.156794 0.900928 -0.404654
vn 0.106334 0.955711 -0.274427
vn 0.156796 0.900925 -0.404659
vn 0.203267 0.826732 -0.524592
vn 0.203692 0.825931 -0.525688
vn 0.24618 0.73194 -0.635342
vn 0.24563 0.733354 -0.633923
vn 0.282381 0.623825 -0.728769
vn 0.282465 0.623531 -0.728988
vn 0.312765 0.500632 -0.807184
vn 0.312796 0.500484 -0.807264
vn 0.336328 0.365329 -0.867997
vn 0.336328 0.365328 -0.867997
vn 0.352192 0.223144 -0.908938
vn 0.360262 0.075807 -0.929766
vn 0.352383 0.220813 -0.909433
vn 0.360271 0.075465 -0.92979
vn 0.360262 -0.075807 -0.929766
vn 0.352192 -0.223144 -0.908938
vn 0.360271 -0.075465 -0.92979
vn 0.336328 -0.365329 -0.867997
vn 0.352384 -0.220813 -0.909432
vn 0.312764 -0.500634 -0.807183
vn 0.336328 -0.365328 -0.867997
vn 0.282381 -0.623825 -0.728769
vn 0.312795 -0.500486 -0.807263
vn 0.24618 -0.73194 -0.635342
vn 0.282465 -0.623531 -0.728988
vn 0.203268 -0.826729 -0.524596
vn 0.24563 -0.733354 -0.633923
vn 0.156792 -0.90093 -0.404649
vn 0.203693 -0.825928 -0.525692
vn 0.106625 -0.955462 -0.275178
vn 0.156794 -0.900928 -0.404654
vn 0.053846 -0.988832 -0.138967
vn 0.106334 -0.955711 -0.274427
vn 0.0 -1.0 0.0
vn 0.053847 -0.988832 -0.138969
vn -0.053872 -0.988821 0.139032
vn 0.0 -1.0 0.0
vn -0.106577 -0.955504 0.275053
vn -0.053847 -0.988832 0.138969
vn -0.156792 -0.90093 0.404649
vn -0.106613 -0.955473 0.275146
vn -0.156408 -0.901441 0.403658
vn -0.203746 -0.825827 0.52583
vn -0.203692 -0.825931 0.525688
vn -0.245667 -0.733258 0.634019
vn -0.245632 -0.73335 0.633927
vn -0.28238 -0.623825 0.728769
vn -0.282465 -0.623531 0.728988
vn -0.312764 -0.500634 0.807183
vn -0.336328 -0.365329 0.867997
vn -0.313223 -0.49843 0.808368
vn -0.352155 -0.223594 0.908842
vn -0.336328 -0.365331 0.867996
vn -0.360351 -0.072509 0.929995
vn -0.35217 -0.223412 0.90888
vn -0.360271 -0.075469 0.92979
vn -0.932459 1.9e-05 -0.361275
vn -0.932747 -0.000618 -0.360531
vn -0.932408 2.2e-05 -0.361406
vn -0.932209 0.00034 -0.361919
vn -0.932647 -0.000244 -0.360789
vn -0.932503 -8.7e-05 -0.361161
vn -0.932897 -0.000424 -0.360142
vn -0.932745 -0.000328 -0.360536
vn -0.929996 0.000806 -0.367569
vn -0.932242 0.000577 -0.361836
vn -0.932457 -6.4e-05 -0.361282
vn -0.932323 0.000401 -0.361628
vn -0.932665 -0.000988 -0.360744
vn -0.932379 0.000384 -0.361483
vn -0.93249 -0.000257 -0.361195
vn -0.932456 -1.6e-05 -0.361283
vn -0.932365 0.000798 -0.361517
vn -0.932431 -2e-06 -0.361347
vn -0.932452 -0.00038 -0.361294
vn -0.932449 -0.000286 -0.3613
vn -0.929996 -0.000806 -0.367569
vn -0.932745 0.000328 -0.360536
vn -0.932897 0.000424 -0.360142
vn -0.932503 8.7e-05 -0.361161
vn -0.932647 0.000244 -0.360789
vn -0.932209 -0.00034 -0.361919
vn -0.932408 -2.2e-05 -0.361406
vn -0.932747 0.000618 -0.360531
vn -0.932459 -1.9e-05 -0.361275
vn -0.932241 -0.000577 -0.361836
vn -0.932449 0.000286 -0.3613
vn -0.932457 6.4e-05 -0.361282
vn -0.932452 0.00038 -0.361294
vn -0.932323 -0.000401 -0.361628
vn -0.932431 2e-06 -0.361347
vn -0.932665 0.000989 -0.360743
vn -0.932365 -0.000798 -0.361517
vn -0.932379 -0.000384 -0.361483
vn -0.932456 1.6e-05 -0.361283
vn -0.93249 0.000257 -0.361195
vn 0.096207 -0.011926 0.99529
vn 0.096955 -0.008524 0.995252
vn 0.0969 -0.008887 0.995254
vn 0.097717 -0.018004 0.995051
vn 0.096262 -0.011561 0.995289
vn 0.096335 -0.010592 0.995293
vn 0.103027 -0.01831 0.99451
vn 0.09666 -0.012039 0.995245
vn 0.09654 -0.010408 0.995275
vn 0.096336 -0.009864 0.9953
vn 0.09641 -0.009555 0.995296
vn 0.096539 -0.011306 0.995265
vn 0.09641 -0.009939 0.995292
vn 0.096407 -0.010507 0.995287
vn 0.096449 -0.011088 0.995276
vn 0.096451 -0.009665 0.995291
vn 0.096496 -0.011105 0.995271
vn 0.096424 -0.010491 0.995285
vn 0.096425 -0.010012 0.99529
vn 0.096444 -0.010223 0.995286
vn 0.093877 -0.005457 0.995569
vn 0.096444 -0.010489 0.995283
vn 0.096424 -0.010221 0.995288
vn 0.096641 -0.010768 0.995261
vn 0.096901 -0.007324 0.995267
vn 0.096449 -0.011517 0.995271
vn 0.096423 -0.01117 0.995278
vn 0.096451 -0.009517 0.995292
vn 0.096451 -0.009518 0.995292
vn 0.096337 -0.00843 0.995313
vn 0.097784 -0.006798 0.995184
vn 0.096334 -0.011757 0.99528
vn 0.096642 -0.009716 0.995272
vn 0.09654 -0.011703 0.99526
vn 0.09645 -0.010483 0.995283
vn 0.096437 -0.009778 0.995291
vn 0.096393 -0.009319 0.9953
vn 0.096391 -0.011111 0.995282
vn 0.096436 -0.010521 0.995284
vn 0.09654 -0.011318 0.995265
vn -0.992478 0.074724 0.096974
vn -0.97015 0.222538 0.096362
vn -0.992474 0.074777 0.096972
vn -0.926193 0.365246 0.093602
vn -0.97016 0.222495 0.096363
vn -0.861402 0.500111 0.088744
vn -0.926189 0.365257 0.093603
vn -0.861431 0.500061 0.088745
vn -0.777595 0.623407 0.081918
vn -0.777597 0.623404 0.081917
vn -0.676219 0.733051 0.073241
vn -0.676278 0.732996 0.07325
vn -0.559815 0.826224 0.062943
vn -0.559838 0.826207 0.062946
vn -0.430976 0.900907 0.051244
vn -0.430987 0.900902 0.051244
vn -0.292466 0.955505 0.038393
vn -0.147344 0.988777 0.024679
vn -0.292399 0.955526 0.038387
vn -0.147341 0.988778 0.024679
vn 0.000998 0.999945 0.010417
vn 0.001011 0.999945 0.010419
vn 0.14937 0.988773 -0.004076
vn 0.149374 0.988772 -0.004077
vn 0.294329 0.955526 -0.018477
vn 0.432714 0.900946 -0.032463
vn 0.29432 0.955528 -0.018475
vn 0.432816 0.900897 -0.032471
vn 0.561499 0.826213 -0.045728
vn 0.56148 0.826226 -0.045726
vn 0.677688 0.733061 -0.057968
vn 0.677707 0.733044 -0.05797
vn 0.778852 0.623409 -0.068928
vn 0.778809 0.623463 -0.068921
vn 0.862592 0.499798 -0.078341
vn 0.862551 0.499869 -0.078337
vn 0.926862 0.365422 -0.085983
vn 0.926848 0.365458 -0.085982
vn 0.970644 0.222341 -0.091729
vn 0.970623 0.222436 -0.091728
vn 0.992629 0.074724 -0.095414
vn 0.992626 0.074768 -0.095414
vn 0.992463 -0.074928 -0.096972
vn 0.992475 -0.074759 -0.096972
vn 0.97015 -0.222538 -0.096362
vn 0.97016 -0.222495 -0.096363
vn 0.926124 -0.365424 -0.093597
vn 0.926189 -0.365257 -0.093603
vn 0.861497 -0.499947 -0.088751
vn 0.861423 -0.500075 -0.088744
vn 0.777595 -0.623407 -0.081918
vn 0.777606 -0.623393 -0.081918
vn 0.676321 -0.732956 -0.073254
vn 0.676268 -0.733005 -0.073249
vn 0.559815 -0.826224 -0.062943
vn 0.559848 -0.826201 -0.062947
vn 0.430918 -0.900936 -0.051235
vn 0.430907 -0.90094 -0.051237
vn 0.292523 -0.955487 -0.0384
vn 0.292457 -0.955508 -0.038393
vn 0.147344 -0.988777 -0.024679
vn 0.147337 -0.988778 -0.024678
vn -0.001023 -0.999945 -0.010417
vn -0.001009 -0.999945 -0.010419
vn -0.14934 -0.988778 0.004074
vn -0.149347 -0.988777 0.004075
vn -0.294386 -0.955508 0.018481
vn -0.294371 -0.955512 0.01848
vn -0.432739 -0.900935 0.032464
vn -0.432714 -0.900946 0.032463
vn -0.561583 -0.826155 0.045737
vn -0.561575 -0.826161 0.045736
vn -0.677707 -0.733044 0.05797
vn -0.677688 -0.733061 0.057969
vn -0.778862 -0.623397 0.068925
vn -0.778809 -0.623463 0.068921
vn -0.862473 -0.500006 0.078328
vn -0.862497 -0.499963 0.078332
vn -0.926928 -0.365253 0.085993
vn -0.92691 -0.3653 0.085989
vn -0.9706 -0.222536 0.091725
vn -0.992629 -0.074724 0.095414
vn -0.970623 -0.222436 0.091728
vn -0.992626 -0.074768 0.095414
vn -0.096184 0.010785 -0.995305
vn -0.096253 0.010613 -0.9953
vn -0.096402 0.01051 -0.995287
vn -0.09649 0.01036 -0.99528
vn -0.096823 0.010336 -0.995248
vn -0.096537 0.009822 -0.995281
vn -0.096458 0.010856 -0.995278
vn -0.097905 0.011454 -0.99513
vn -0.096005 0.010152 -0.995329
vn -0.096871 0.010846 -0.995238
vn -0.096139 0.010163 -0.995316
vn -0.096602 0.010641 -0.995266
vn -0.096448 0.010466 -0.995283
vn -0.096449 0.010467 -0.995283
vn -0.096447 0.010452 -0.995283
vn -0.096459 0.010485 -0.995282
vn -0.096436 0.010485 -0.995284
vn -0.096452 0.010391 -0.995283
vn -0.096457 0.010485 -0.995282
vn -0.096452 0.010411 -0.995283
vn -0.095894 0.010076 -0.995341
vn -0.096457 0.01056 -0.995281
vn -0.096219 0.009951 -0.99531
vn -0.096457 0.010594 -0.995281
vn -0.096356 0.008933 -0.995307
vn -0.096466 0.010394 -0.995282
vn -0.096466 0.010484 -0.995281
vn -0.096369 0.010811 -0.995287
vn -0.096452 0.01055 -0.995282
vn -0.096463 0.010398 -0.995282
vn -0.0971 0.009469 -0.99523
vn -0.096457 0.010585 -0.995281
vn -0.09647 0.010499 -0.995281
vn -0.096465 0.010382 -0.995282
vn -0.096345 0.010539 -0.995292
vn -0.096332 0.010548 -0.995293
vn -0.096617 0.010383 -0.995267
vn -0.096465 0.010468 -0.995281
vn -0.096461 0.010458 -0.995282
vn -0.096457 0.010489 -0.995282
vn 0.096901 -0.007324 0.995267
vn 0.096667 -0.010433 0.995262
vn 0.097717 -0.018004 0.995051
vn 0.096405 -0.009669 0.995295
vn 0.096402 -0.012182 0.995268
vn 0.092808 -0.003225 0.995679
vn 0.096608 -0.012115 0.995249
vn 0.09661 -0.010332 0.995269
vn 0.096417 -0.009511 0.995296
vn 0.096539 -0.011273 0.995265
vn 0.09641 -0.009555 0.995296
vn 0.096409 -0.010505 0.995286
vn 0.096539 -0.011306 0.995265
vn 0.102492 -0.013471 0.994643
vn 0.096449 -0.011088 0.995276
vn 0.096408 -0.010525 0.995286
vn 0.096425 -0.009671 0.995293
vn 0.096424 -0.010491 0.995285
vn 0.09645 -0.010018 0.995287
vn 0.096444 -0.010223 0.995286
vn 0.103022 -0.018303 0.994511
vn 0.095454 -0.008751 0.995395
vn 0.096444 -0.010489 0.995283
vn 0.096424 -0.010221 0.995288
vn 0.096637 -0.014469 0.995215
vn 0.096641 -0.010768 0.995261
vn 0.096901 -0.007324 0.995267
vn 0.096449 -0.011517 0.995271
vn 0.096451 -0.009517 0.995292
vn 0.096423 -0.01117 0.995278
vn 0.096449 -0.01165 0.99527
vn 0.096612 -0.009495 0.995277
vn 0.096451 -0.009518 0.995292
vn 0.097412 -0.008008 0.995212
vn 0.096154 -0.010193 0.995314
vn 0.096328 -0.010265 0.995297
vn 0.100553 -0.008104 0.994899
vn 0.096392 -0.010135 0.995292
vn 0.096391 -0.010953 0.995283
vn 0.096261 -0.01071 0.995299
vn -0.992478 0.074724 0.096974
vn -0.992474 0.074777 0.096972
vn -0.97015 0.222538 0.096361
vn -0.926193 0.365246 0.093602
vn -0.97016 0.222495 0.096363
vn -0.926189 0.365257 0.093603
vn -0.861402 0.500111 0.088743
vn -0.777694 0.623281 0.081929
vn -0.861431 0.500061 0.088745
vn -0.777597 0.623404 0.081917
vn -0.676219 0.733051 0.073241
vn -0.676278 0.732996 0.07325
vn -0.559815 0.826224 0.062943
vn -0.559838 0.826207 0.062946
vn -0.430976 0.900907 0.051244
vn -0.292466 0.955505 0.038394
vn -0.430987 0.900902 0.051244
vn -0.292399 0.955526 0.038387
vn -0.147319 0.988781 0.02468
vn -0.147341 0.988778 0.024679
vn 0.000998 0.999945 0.010417
vn 0.001011 0.999945 0.010419
vn 0.14937 0.988773 -0.004076
vn 0.149374 0.988772 -0.004077
vn 0.294329 0.955526 -0.018477
vn 0.29432 0.955528 -0.018475
vn 0.432816 0.900897 -0.032471
vn 0.432794 0.900908 -0.032471
vn 0.56148 0.826226 -0.045726
vn 0.561499 0.826213 -0.045728
vn 0.677707 0.733044 -0.05797
vn 0.677688 0.733061 -0.057969
vn 0.778852 0.623409 -0.068928
vn 0.778809 0.623463 -0.068921
vn 0.862592 0.499798 -0.078341
vn 0.862551 0.499869 -0.078337
vn 0.926862 0.365422 -0.085983
vn 0.926848 0.365458 -0.085982
vn 0.970644 0.222341 -0.091729
vn 0.970623 0.222436 -0.091728
vn 0.992629 0.074724 -0.095414
vn 0.992626 0.074768 -0.095414
vn 0.992463 -0.074928 -0.096972
vn 0.992475 -0.074759 -0.096972
vn 0.97015 -0.222538 -0.096362
vn 0.97016 -0.222495 -0.096363
vn 0.926124 -0.365424 -0.093597
vn 0.926189 -0.365257 -0.093603
vn 0.861497 -0.499947 -0.088751
vn 0.861423 -0.500075 -0.088744
vn 0.777595 -0.623407 -0.081918
vn 0.777606 -0.623393 -0.081918
vn 0.676321 -0.732956 -0.073254
vn 0.676268 -0.733005 -0.073249
vn 0.559815 -0.826224 -0.062943
vn 0.559848 -0.826201 -0.062947
vn 0.430918 -0.900936 -0.051235
vn 0.430907 -0.90094 -0.051237
vn 0.292523 -0.955487 -0.0384
vn 0.292457 -0.955508 -0.038393
vn 0.147344 -0.988777 -0.024679
vn 0.147337 -0.988778 -0.024678
vn -0.001023 -0.999945 -0.010417
vn -0.001009 -0.999945 -0.010419
vn -0.14934 -0.988778 0.004074
vn -0.149347 -0.988777 0.004075
vn -0.294386 -0.955508 0.018481
vn -0.294371 -0.955512 0.01848
vn -0.432739 -0.900935 0.032464
vn -0.432714 -0.900946 0.032463
vn -0.561583 -0.826155 0.045737
vn -0.561575 -0.826161 0.045736
vn -0.677707 -0.733044 0.05797
vn -0.677688 -0.733061 0.057969
vn -0.778862 -0.623397 0.068925
vn -0.778809 -0.623463 0.068921
vn -0.862473 -0.500006 0.078328
vn -0.862497 -0.499963 0.078332
vn -0.926928 -0.365253 0.085993
vn -0.92691 -0.3653 0.085989
vn -0.9706 -0.222536 0.091725
vn -0.970623 -0.222436 0.091728
vn -0.992629 -0.074724 0.095414
vn -0.992626 -0.074768 0.095414
vn -0.096582 0.010421 -0.99527
vn -0.096078 0.010344 -0.99532
vn -0.095937 0.010312 -0.995334
vn -0.096822 0.010586 -0.995245
vn -0.096168 0.010328 -0.995312
vn -0.096692 0.010582 -0.995258
vn -0.096203 0.010299 -0.995308
vn -0.096576 0.010554 -0.99527
vn -0.096391 0.010406 -0.995289
vn -0.096536 0.010541 -0.995274
vn -0.096443 0.01044 -0.995284
vn -0.096459 0.01046 -0.995282
vn -0.096449 0.010445 -0.995283
vn -0.096433 0.010418 -0.995285
vn -0.096464 0.010482 -0.995281
vn -0.096453 0.010453 -0.995283
vn -0.096464 0.01049 -0.995281
vn -0.096461 0.010478 -0.995282
vn -0.096453 0.01042 -0.995283
vn -0.096457 0.010485 -0.995282
vn -0.096457 0.010594 -0.995281
vn -0.096472 0.010396 -0.995281
vn -0.096457 0.010494 -0.995282
vn -0.096476 0.010414 -0.995281
vn -0.096444 0.010517 -0.995283
vn -0.096487 0.010406 -0.99528
vn -0.096431 0.010523 -0.995284
vn -0.096465 0.010464 -0.995281
vn -0.096404 0.010554 -0.995286
vn -0.096567 0.010349 -0.995273
vn -0.096354 0.010579 -0.995291
vn -0.096413 0.010525 -0.995286
vn -0.09603 0.010517 -0.995323
vn -0.096472 0.010477 -0.995281
vn -0.096647 0.010424 -0.995264
vn -0.096686 0.010331 -0.995261
vn -0.096476 0.010463 -0.99528
vn -0.096402 0.010495 -0.995287
vn -0.096417 0.010481 -0.995286
vn -0.096492 0.010452 -0.995279
vn -0.932459 -1.9e-05 -0.361275
vn -0.932747 0.000618 -0.360531
vn -0.932408 -2.2e-05 -0.361406
vn -0.93221 -0.00034 -0.361919
vn -0.932647 0.000244 -0.360789
vn -0.932503 8.7e-05 -0.361161
vn -0.932897 0.000424 -0.360142
vn -0.932745 0.000328 -0.360536
vn -0.929996 -0.000806 -0.367569
vn -0.932241 -0.000577 -0.361836
vn -0.932457 6.4e-05 -0.361282
vn -0.932323 -0.000401 -0.361628
vn -0.932665 0.000989 -0.360744
vn -0.932379 -0.000384 -0.361483
vn -0.93249 0.000257 -0.361195
vn -0.932456 1.7e-05 -0.361283
vn -0.932365 -0.000798 -0.361517
vn -0.932431 2e-06 -0.361347
vn -0.932452 0.000379 -0.361294
vn -0.932449 0.000286 -0.3613
vn -0.929996 0.000806 -0.367569
vn -0.932745 -0.000328 -0.360536
vn -0.932897 -0.000424 -0.360142
vn -0.932503 -8.7e-05 -0.361161
vn -0.932647 -0.000244 -0.360789
vn -0.932209 0.00034 -0.361919
vn -0.932408 2.2e-05 -0.361406
vn -0.932747 -0.000618 -0.360531
vn -0.932459 1.9e-05 -0.361275
vn -0.932241 0.000577 -0.361836
vn -0.932449 -0.000286 -0.3613
vn -0.932457 -6.4e-05 -0.361282
vn -0.932452 -0.000379 -0.361294
vn -0.932323 0.000401 -0.361628
vn -0.932431 -2e-06 -0.361347
vn -0.932665 -0.000989 -0.360743
vn -0.932365 0.000798 -0.361517
vn -0.932379 0.000384 -0.361483
vn -0.932456 -1.7e-05 -0.361283
vn -0.93249 -0.000257 -0.361195
vn -0.360275 -0.075336 0.929799
vn -0.352155 -0.223594 0.908842
vn -0.36035 -0.07254 0.929992
vn -0.352159 -0.223538 0.908853
vn -0.336328 -0.365329 0.867997
vn -0.313209 -0.498498 0.808332
vn -0.336322 -0.365375 0.86798
vn -0.312798 -0.500471 0.807271
vn -0.282547 -0.623246 0.729199
vn -0.282411 -0.623718 0.728848
vn -0.245667 -0.733258 0.634019
vn -0.245667 -0.733258 0.634019
vn -0.203665 -0.825981 0.52562
vn -0.203718 -0.825881 0.525756
vn -0.15646 -0.901373 0.403791
vn -0.106528 -0.955545 0.274929
vn -0.156773 -0.900955 0.404601
vn -0.10662 -0.955466 0.275166
vn -0.053844 -0.988833 0.138962
vn -0.053854 -0.988829 0.138986
vn 0.0 -1.0 0.0
vn 0.05387 -0.988822 -0.139027
vn -0.0 -1.0 0.0
vn 0.106336 -0.955709 -0.274431
vn 0.053826 -0.988841 -0.138914
vn 0.10662 -0.955466 -0.275166
vn 0.156773 -0.900955 -0.404601
vn 0.156794 -0.900928 -0.404654
vn 0.203258 -0.826749 -0.524568
vn 0.203745 -0.82583 -0.525826
vn 0.246161 -0.731988 -0.635293
vn 0.245582 -0.733477 -0.633799
vn 0.282464 -0.623535 -0.728984
vn 0.282411 -0.623718 -0.728848
vn 0.312765 -0.500632 -0.807184
vn 0.336328 -0.365329 -0.867997
vn 0.312798 -0.500471 -0.807271
vn 0.336322 -0.365375 -0.86798
vn 0.352377 -0.220891 -0.909416
vn 0.360288 -0.074865 -0.929832
vn 0.352201 -0.223034 -0.908961
vn 0.360262 -0.075791 -0.929767
vn 0.360275 0.075336 -0.929799
vn 0.360263 0.075791 -0.929767
vn 0.352377 0.220891 -0.909416
vn 0.352201 0.223034 -0.908961
vn 0.336328 0.365329 -0.867997
vn 0.336322 0.365375 -0.86798
vn 0.312764 0.500634 -0.807183
vn 0.312798 0.500474 -0.807269
vn 0.282464 0.623535 -0.728984
vn 0.282411 0.623718 -0.728848
vn 0.245582 0.733477 -0.633799
vn 0.246161 0.731988 -0.635293
vn 0.203667 0.825978 -0.525624
vn 0.203259 0.826747 -0.524572
vn 0.156792 0.90093 -0.404649
vn 0.156772 0.900957 -0.404597
vn 0.106336 0.955709 -0.274431
vn 0.10662 0.955466 -0.275166
vn 0.053872 0.988821 -0.139032
vn 0.053828 0.98884 -0.138919
vn 0.0 1.0 0.0
vn 0.0 1.0 0.0
vn -0.053872 0.988821 0.139032
vn -0.053856 0.988828 0.138992
vn -0.106528 0.955545 0.274929
vn -0.10662 0.955466 0.275166
vn -0.156772 0.900957 0.404597
vn -0.156458 0.901375 0.403787
vn -0.203719 0.825878 0.52576
vn -0.203667 0.825978 0.525624
vn -0.245667 0.733258 0.634019
vn -0.245667 0.733258 0.634019
vn -0.282464 0.623535 0.728984
vn -0.282411 0.623718 0.728848
vn -0.313283 0.498144 0.808521
vn -0.312798 0.500474 0.807269
vn -0.336328 0.365329 0.867997
vn -0.336322 0.365375 0.86798
vn -0.352155 0.223594 0.908842
vn -0.352159 0.223538 0.908853
vn -0.360288 0.074865 0.929832
vn -0.36035 0.07254 0.929992
vn 0.932067 0.000887 0.362284
vn 0.932312 0.000349 0.361656
vn 0.932128 0.000696 0.362129
vn 0.933172 -0.000978 0.359428
vn 0.932196 0.000327 0.361954
vn 0.931525 0.001054 0.363676
vn 0.932553 0.000177 0.361032
vn 0.931567 0.000799 0.363568
vn 0.937064 -0.001538 0.349155
vn 0.932664 -0.000643 0.360747
vn 0.932593 -0.000432 0.36093
vn 0.932384 0.000295 0.36147
vn 0.932335 0.000493 0.361596
vn 0.932453 -7.4e-05 0.361291
vn 0.932573 -0.000764 0.360981
vn 0.932355 0.000773 0.361543
vn 0.932475 -0.000302 0.361234
vn 0.932438 0.000144 0.361329
vn 0.932448 -3.1e-05 0.361304
vn 0.93244 0.00024 0.361323
vn 0.937064 0.001538 0.349155
vn 0.931567 -0.000799 0.363568
vn 0.932553 -0.000177 0.361032
vn 0.931525 -0.001054 0.363676
vn 0.932196 -0.000327 0.361954
vn 0.933172 0.000978 0.359428
vn 0.932128 -0.000696 0.362129
vn 0.932312 -0.000349 0.361656
vn 0.932067 -0.000887 0.362284
vn 0.932663 0.000643 0.360747
vn 0.93244 -0.00024 0.361323
vn 0.932593 0.000432 0.36093
vn 0.932448 3.1e-05 0.361304
vn 0.932384 -0.000295 0.36147
vn 0.932438 -0.000144 0.361329
vn 0.932335 -0.000493 0.361596
vn 0.932475 0.000302 0.361234
vn 0.932453 7.4e-05 0.361291
vn 0.932355 -0.000773 0.361543
vn 0.932573 0.000764 0.360981
f 1//1 2//1 3//1 
f 1//2 4//2 2//2 
f 5//3 3//3 6//3 
f 5//4 1//4 3//4 
f 7//5 6//5 8//5 
f 7//6 5//6 6//6 
f 9//7 8//7 10//7 
f 9//8 7//8 8//8 
f 11//9 10//9 12//9 
f 11//10 9//10 10//10 
f 13//11 12//11 14//11 
f 13//12 11//12 12//12 
f 15//13 14//13 16//13 
f 15//14 13//14 14//14 
f 17//15 16//15 18//15 
f 17//16 15//16 16//16 
f 19//17 18//17 20//17 
f 19//18 17//18 18//18 
f 21//19 20//19 22//19 
f 21//20 19//20 20//20 
f 23//21 22//21 24//21 
f 23//22 21//22 22//22 
f 25//23 24//23 26//23 
f 25//24 23//24 24//24 
f 27//25 28//25 29//25 
f 27//26 26//26 28//26 
f 27//27 25//27 26//27 
f 30//28 27//28 29//28 
f 31//29 29//29 32//29 
f 31//30 30//30 29//30 
f 33//31 34//31 35//31 
f 33//32 32//32 34//32 
f 33//33 31//33 32//33 
f 36//34 33//34 35//34 
f 37//35 35//35 38//35 
f 37//36 36//36 35//36 
f 39//37 38//37 40//37 
f 39//38 37//38 38//38 
f 41//39 42//39 43//39 
f 41//40 40//40 42//40 
f 41//41 39//41 40//41 
f 44//42 43//42 45//42 
f 44//43 41//43 43//43 
f 46//44 45//44 47//44 
f 46//45 44//45 45//45 
f 48//46 47//46 49//46 
f 48//47 46//47 47//47 
f 50//48 49//48 51//48 
f 50//49 48//49 49//49 
f 52//50 51//50 53//50 
f 52//51 50//51 51//51 
f 54//52 53//52 55//52 
f 54//53 52//53 53//53 
f 56//54 55//54 57//54 
f 56//55 54//55 55//55 
f 58//56 57//56 59//56 
f 58//57 56//57 57//57 
f 60//58 59//58 61//58 
f 60//59 58//59 59//59 
f 62//60 61//60 63//60 
f 62//61 60//61 61//61 
f 64//62 63//62 65//62 
f 64//63 62//63 63//63 
f 66//64 65//64 67//64 
f 66//65 64//65 65//65 
f 68//66 67//66 69//66 
f 68//67 66//67 67//67 
f 70//68 68//68 69//68 
f 70//69 69//69 71//69 
f 72//70 71//70 73//70 
f 72//71 70//71 71//71 
f 74//72 73//72 75//72 
f 74//73 72//73 73//73 
f 76//74 75//74 2//74 
f 76//75 74//75 75//75 
f 4//76 76//76 2//76 
f 40//77 38//77 35//77 
f 40//78 35//78 34//78 
f 40//79 34//79 32//79 
f 40//80 32//80 29//80 
f 40//81 29//81 28//81 
f 40//82 28//82 26//82 
f 40//83 26//83 24//83 
f 40//84 24//84 22//84 
f 20//85 40//85 22//85 
f 18//86 40//86 20//86 
f 16//87 40//87 18//87 
f 14//88 40//88 16//88 
f 2//89 14//89 12//89 
f 2//90 12//90 10//90 
f 2//91 10//91 8//91 
f 2//92 8//92 6//92 
f 2//93 6//93 3//93 
f 2//94 40//94 14//94 
f 43//95 42//95 40//95 
f 45//96 43//96 40//96 
f 47//97 45//97 40//97 
f 49//98 47//98 40//98 
f 51//99 49//99 40//99 
f 53//100 51//100 40//100 
f 55//101 53//101 40//101 
f 57//102 55//102 40//102 
f 59//103 57//103 40//103 
f 61//104 59//104 40//104 
f 73//105 2//105 75//105 
f 63//106 61//106 40//106 
f 71//107 2//107 73//107 
f 65//108 40//108 2//108 
f 65//109 63//109 40//109 
f 69//110 2//110 71//110 
f 67//111 65//111 2//111 
f 67//112 2//112 69//112 
f 23//113 39//113 21//113 
f 25//114 39//114 23//114 
f 27//115 39//115 25//115 
f 30//116 39//116 27//116 
f 31//117 39//117 30//117 
f 33//118 39//118 31//118 
f 36//119 39//119 33//119 
f 37//120 39//120 36//120 
f 39//121 19//121 21//121 
f 39//122 17//122 19//122 
f 17//123 13//123 15//123 
f 39//124 13//124 17//124 
f 13//125 9//125 11//125 
f 39//126 9//126 13//126 
f 39//127 7//127 9//127 
f 7//128 1//128 5//128 
f 39//129 1//129 7//129 
f 39//130 4//130 1//130 
f 41//131 44//131 39//131 
f 44//132 46//132 39//132 
f 46//133 48//133 39//133 
f 48//134 50//134 39//134 
f 50//135 52//135 39//135 
f 52//136 54//136 39//136 
f 54//137 56//137 39//137 
f 56//138 58//138 39//138 
f 58//139 60//139 39//139 
f 39//140 76//140 4//140 
f 60//141 62//141 39//141 
f 39//142 74//142 76//142 
f 62//143 64//143 39//143 
f 39//144 72//144 74//144 
f 39//145 70//145 72//145 
f 66//146 68//146 64//146 
f 64//147 68//147 39//147 
f 39//148 68//148 70//148 
f 77//149 203//149 78//149 
f 77//150 204//150 203//150 
f 77//151 199//151 204//151 
f 77//152 200//152 199//152 
f 77//153 79//153 200//153 
f 77//154 80//154 79//154 
f 77//155 202//155 80//155 
f 77//156 201//156 202//156 
f 77//157 205//157 201//157 
f 212//158 209//158 81//158 
f 212//159 210//159 209//159 
f 212//160 82//160 210//160 
f 212//161 211//161 82//161 
f 212//162 208//162 211//162 
f 212//163 207//163 208//163 
f 212//164 83//164 207//164 
f 212//165 84//165 83//165 
f 212//166 206//166 84//166 
f 212//167 78//167 206//167 
f 212//168 77//168 78//168 
f 85//169 214//169 77//169 
f 86//170 85//170 77//170 
f 213//171 86//171 77//171 
f 215//172 213//172 77//172 
f 87//173 215//173 77//173 
f 88//174 87//174 77//174 
f 89//175 88//175 77//175 
f 217//176 89//176 77//176 
f 216//177 217//177 77//177 
f 212//178 216//178 77//178 
f 90//179 216//179 212//179 
f 91//180 90//180 212//180 
f 219//181 212//181 218//181 
f 92//182 91//182 212//182 
f 220//183 212//183 219//183 
f 93//184 92//184 212//184 
f 94//185 212//185 220//185 
f 95//186 93//186 212//186 
f 96//187 212//187 94//187 
f 96//188 95//188 212//188 
f 97//189 212//189 81//189 
f 98//190 97//190 81//190 
f 99//191 81//191 209//191 
f 99//192 209//192 210//192 
f 99//193 98//193 81//193 
f 221//194 99//194 210//194 
f 100//195 210//195 82//195 
f 100//196 221//196 210//196 
f 101//197 82//197 211//197 
f 101//198 100//198 82//198 
f 102//199 211//199 208//199 
f 102//200 101//200 211//200 
f 103//201 208//201 207//201 
f 103//202 102//202 208//202 
f 104//203 207//203 83//203 
f 104//204 83//204 84//204 
f 104//205 103//205 207//205 
f 105//206 84//206 206//206 
f 105//207 104//207 84//207 
f 222//208 206//208 78//208 
f 222//209 105//209 206//209 
f 106//210 78//210 203//210 
f 106//211 222//211 78//211 
f 107//212 106//212 203//212 
f 108//213 203//213 204//213 
f 108//214 107//214 203//214 
f 223//215 108//215 204//215 
f 223//216 204//216 199//216 
f 223//217 199//217 200//217 
f 224//218 223//218 200//218 
f 109//219 224//219 200//219 
f 109//220 200//220 79//220 
f 109//221 79//221 80//221 
f 225//222 109//222 80//222 
f 225//223 80//223 202//223 
f 110//224 225//224 202//224 
f 111//225 202//225 201//225 
f 111//226 110//226 202//226 
f 112//227 201//227 205//227 
f 112//228 205//228 77//228 
f 112//229 111//229 201//229 
f 226//230 112//230 77//230 
f 226//231 77//231 214//231 
f 113//232 226//232 214//232 
f 114//233 214//233 85//233 
f 114//234 113//234 214//234 
f 227//235 85//235 86//235 
f 227//236 114//236 85//236 
f 228//237 86//237 213//237 
f 228//238 227//238 86//238 
f 229//239 213//239 215//239 
f 229//240 228//240 213//240 
f 230//241 215//241 87//241 
f 230//242 229//242 215//242 
f 231//243 87//243 88//243 
f 231//244 230//244 87//244 
f 115//245 88//245 89//245 
f 115//246 231//246 88//246 
f 116//247 89//247 217//247 
f 116//248 115//248 89//248 
f 117//249 217//249 216//249 
f 117//250 116//250 217//250 
f 118//251 216//251 90//251 
f 118//252 117//252 216//252 
f 232//253 90//253 91//253 
f 232//254 118//254 90//254 
f 233//255 91//255 92//255 
f 233//256 232//256 91//256 
f 119//257 233//257 92//257 
f 119//258 92//258 93//258 
f 120//259 119//259 93//259 
f 120//260 93//260 95//260 
f 234//261 120//261 95//261 
f 234//262 95//262 96//262 
f 121//263 96//263 94//263 
f 121//264 234//264 96//264 
f 122//265 121//265 94//265 
f 122//266 94//266 220//266 
f 235//267 220//267 219//267 
f 235//268 122//268 220//268 
f 236//269 219//269 218//269 
f 236//270 235//270 219//270 
f 97//271 218//271 212//271 
f 97//272 236//272 218//272 
f 99//273 97//273 98//273 
f 221//274 97//274 99//274 
f 100//275 97//275 221//275 
f 101//276 97//276 100//276 
f 102//277 97//277 101//277 
f 103//278 97//278 102//278 
f 104//279 97//279 103//279 
f 105//280 97//280 104//280 
f 222//281 97//281 105//281 
f 106//282 97//282 222//282 
f 107//283 97//283 106//283 
f 108//284 97//284 107//284 
f 223//285 97//285 108//285 
f 224//286 97//286 223//286 
f 109//287 97//287 224//287 
f 225//288 97//288 109//288 
f 110//289 97//289 225//289 
f 111//290 97//290 110//290 
f 112//291 97//291 111//291 
f 226//292 97//292 112//292 
f 113//293 97//293 226//293 
f 114//294 97//294 113//294 
f 227//295 97//295 114//295 
f 228//296 97//296 227//296 
f 229//297 97//297 228//297 
f 230//298 97//298 229//298 
f 231//299 97//299 230//299 
f 115//300 97//300 231//300 
f 116//301 97//301 115//301 
f 117//302 97//302 116//302 
f 117//303 118//303 97//303 
f 118//304 232//304 97//304 
f 97//305 235//305 236//305 
f 232//306 233//306 97//306 
f 97//307 122//307 235//307 
f 233//308 119//308 97//308 
f 97//309 121//309 122//309 
f 119//310 120//310 97//310 
f 97//311 234//311 121//311 
f 120//312 234//312 97//312 
f 123//313 124//313 125//313 
f 123//314 126//314 124//314 
f 127//315 125//315 128//315 
f 127//316 123//316 125//316 
f 129//317 128//317 130//317 
f 129//318 127//318 128//318 
f 131//319 130//319 132//319 
f 131//320 129//320 130//320 
f 133//321 132//321 134//321 
f 133//322 131//322 132//322 
f 135//323 134//323 136//323 
f 135//324 133//324 134//324 
f 137//325 136//325 138//325 
f 137//326 135//326 136//326 
f 139//327 138//327 140//327 
f 139//328 137//328 138//328 
f 141//329 140//329 142//329 
f 141//330 139//330 140//330 
f 143//331 142//331 144//331 
f 143//332 141//332 142//332 
f 145//333 144//333 146//333 
f 145//334 143//334 144//334 
f 147//335 146//335 148//335 
f 147//336 145//336 146//336 
f 149//337 148//337 150//337 
f 149//338 147//338 148//338 
f 151//339 150//339 152//339 
f 151//340 149//340 150//340 
f 153//341 151//341 152//341 
f 153//342 152//342 154//342 
f 155//343 153//343 154//343 
f 155//344 154//344 156//344 
f 157//345 156//345 158//345 
f 157//346 155//346 156//346 
f 159//347 160//347 161//347 
f 159//348 158//348 160//348 
f 159//349 157//349 158//349 
f 162//350 159//350 161//350 
f 162//351 161//351 163//351 
f 164//352 163//352 165//352 
f 164//353 162//353 163//353 
f 166//354 165//354 167//354 
f 166//355 164//355 165//355 
f 168//356 167//356 169//356 
f 168//357 166//357 167//357 
f 170//358 169//358 171//358 
f 170//359 168//359 169//359 
f 172//360 171//360 173//360 
f 172//361 170//361 171//361 
f 174//362 173//362 175//362 
f 174//363 172//363 173//363 
f 176//364 175//364 177//364 
f 176//365 174//365 175//365 
f 178//366 177//366 179//366 
f 178//367 176//367 177//367 
f 180//368 179//368 181//368 
f 180//369 178//369 179//369 
f 182//370 181//370 183//370 
f 182//371 180//371 181//371 
f 184//372 183//372 185//372 
f 184//373 182//373 183//373 
f 186//374 185//374 187//374 
f 186//375 184//375 185//375 
f 188//376 187//376 189//376 
f 188//377 186//377 187//377 
f 190//378 189//378 191//378 
f 190//379 188//379 189//379 
f 192//380 190//380 191//380 
f 192//381 191//381 193//381 
f 194//382 193//382 195//382 
f 194//383 192//383 193//383 
f 196//384 195//384 197//384 
f 196//385 194//385 195//385 
f 198//386 197//386 124//386 
f 198//387 196//387 197//387 
f 126//388 198//388 124//388 
f 156//389 154//389 152//389 
f 146//390 152//390 150//390 
f 146//391 150//391 148//391 
f 160//392 158//392 156//392 
f 160//393 156//393 152//393 
f 142//394 146//394 144//394 
f 142//395 152//395 146//395 
f 140//396 160//396 152//396 
f 140//397 152//397 142//397 
f 138//398 160//398 140//398 
f 136//399 160//399 138//399 
f 130//400 134//400 132//400 
f 128//401 136//401 134//401 
f 128//402 160//402 136//402 
f 128//403 134//403 130//403 
f 125//404 161//404 160//404 
f 125//405 160//405 128//405 
f 124//406 161//406 125//406 
f 167//407 165//407 163//407 
f 169//408 167//408 163//408 
f 175//409 173//409 171//409 
f 175//410 171//410 169//410 
f 177//411 169//411 163//411 
f 177//412 175//412 169//412 
f 179//413 177//413 163//413 
f 197//414 161//414 124//414 
f 197//415 163//415 161//415 
f 197//416 179//416 163//416 
f 183//417 181//417 179//417 
f 183//418 179//418 197//418 
f 193//419 197//419 195//419 
f 191//420 197//420 193//420 
f 189//421 187//421 185//421 
f 189//422 185//422 183//422 
f 189//423 183//423 197//423 
f 189//424 197//424 191//424 
f 145//425 162//425 143//425 
f 147//426 162//426 145//426 
f 149//427 162//427 147//427 
f 151//428 162//428 149//428 
f 153//429 162//429 151//429 
f 155//430 162//430 153//430 
f 157//431 162//431 155//431 
f 159//432 162//432 157//432 
f 162//433 141//433 143//433 
f 162//434 139//434 141//434 
f 127//435 126//435 123//435 
f 129//436 126//436 127//436 
f 131//437 126//437 129//437 
f 133//438 126//438 131//438 
f 135//439 126//439 133//439 
f 137//440 126//440 135//440 
f 139//441 126//441 137//441 
f 162//442 126//442 139//442 
f 164//443 166//443 162//443 
f 166//444 168//444 162//444 
f 168//445 170//445 162//445 
f 170//446 172//446 162//446 
f 172//447 174//447 162//447 
f 174//448 176//448 162//448 
f 176//449 178//449 162//449 
f 178//450 180//450 162//450 
f 180//451 182//451 162//451 
f 162//452 184//452 126//452 
f 182//453 184//453 162//453 
f 126//454 196//454 198//454 
f 184//455 186//455 126//455 
f 126//456 194//456 196//456 
f 186//457 188//457 126//457 
f 126//458 192//458 194//458 
f 188//459 190//459 126//459 
f 126//460 190//460 192//460 
f 199//461 79//461 200//461 
f 201//462 80//462 79//462 
f 201//463 202//463 80//463 
f 201//464 79//464 199//464 
f 203//465 199//465 204//465 
f 205//466 201//466 199//466 
f 78//467 199//467 203//467 
f 206//468 205//468 199//468 
f 206//469 199//469 78//469 
f 207//470 84//470 83//470 
f 207//471 206//471 84//471 
f 207//472 205//472 206//472 
f 208//473 205//473 207//473 
f 209//474 82//474 210//474 
f 209//475 211//475 82//475 
f 209//476 208//476 211//476 
f 209//477 205//477 208//477 
f 81//478 77//478 205//478 
f 81//479 205//479 209//479 
f 212//480 77//480 81//480 
f 213//481 85//481 214//481 
f 213//482 86//482 85//482 
f 88//483 215//483 213//483 
f 88//484 87//484 215//484 
f 88//485 213//485 214//485 
f 89//486 88//486 214//486 
f 216//487 217//487 89//487 
f 216//488 89//488 214//488 
f 218//489 77//489 212//489 
f 218//490 214//490 77//490 
f 218//491 216//491 214//491 
f 91//492 90//492 216//492 
f 94//493 219//493 220//493 
f 94//494 218//494 219//494 
f 95//495 92//495 91//495 
f 95//496 93//496 92//496 
f 96//497 216//497 218//497 
f 96//498 91//498 216//498 
f 96//499 95//499 91//499 
f 96//500 218//500 94//500 
f 97//501 212//501 81//501 
f 98//502 97//502 81//502 
f 99//503 81//503 209//503 
f 99//504 98//504 81//504 
f 221//505 209//505 210//505 
f 221//506 99//506 209//506 
f 100//507 210//507 82//507 
f 100//508 221//508 210//508 
f 101//509 82//509 211//509 
f 101//510 100//510 82//510 
f 102//511 211//511 208//511 
f 102//512 101//512 211//512 
f 103//513 208//513 207//513 
f 103//514 102//514 208//514 
f 104//515 207//515 83//515 
f 104//516 103//516 207//516 
f 105//517 83//517 84//517 
f 105//518 84//518 206//518 
f 105//519 104//519 83//519 
f 222//520 105//520 206//520 
f 106//521 206//521 78//521 
f 106//522 78//522 203//522 
f 106//523 222//523 206//523 
f 107//524 203//524 204//524 
f 107//525 106//525 203//525 
f 108//526 107//526 204//526 
f 223//527 108//527 204//527 
f 223//528 204//528 199//528 
f 223//529 199//529 200//529 
f 224//530 223//530 200//530 
f 224//531 200//531 79//531 
f 109//532 224//532 79//532 
f 225//533 109//533 79//533 
f 225//534 79//534 80//534 
f 225//535 80//535 202//535 
f 110//536 225//536 202//536 
f 111//537 202//537 201//537 
f 111//538 201//538 205//538 
f 111//539 110//539 202//539 
f 112//540 205//540 77//540 
f 112//541 111//541 205//541 
f 226//542 112//542 77//542 
f 226//543 77//543 214//543 
f 113//544 226//544 214//544 
f 114//545 214//545 85//545 
f 114//546 113//546 214//546 
f 227//547 85//547 86//547 
f 227//548 86//548 213//548 
f 227//549 114//549 85//549 
f 228//550 213//550 215//550 
f 228//551 227//551 213//551 
f 229//552 215//552 87//552 
f 229//553 228//553 215//553 
f 230//554 229//554 87//554 
f 231//555 87//555 88//555 
f 231//556 230//556 87//556 
f 115//557 88//557 89//557 
f 115//558 231//558 88//558 
f 116//559 89//559 217//559 
f 116//560 217//560 216//560 
f 116//561 115//561 89//561 
f 117//562 116//562 216//562 
f 118//563 216//563 90//563 
f 118//564 90//564 91//564 
f 118//565 117//565 216//565 
f 232//566 118//566 91//566 
f 233//567 91//567 92//567 
f 233//568 92//568 93//568 
f 233//569 232//569 91//569 
f 119//570 233//570 93//570 
f 120//571 119//571 93//571 
f 120//572 93//572 95//572 
f 120//573 95//573 96//573 
f 234//574 120//574 96//574 
f 234//575 96//575 94//575 
f 121//576 234//576 94//576 
f 122//577 94//577 220//577 
f 122//578 220//578 219//578 
f 122//579 121//579 94//579 
f 235//580 122//580 219//580 
f 236//581 219//581 218//581 
f 236//582 235//582 219//582 
f 97//583 218//583 212//583 
f 97//584 236//584 218//584 
f 223//585 107//585 108//585 
f 223//586 106//586 107//586 
f 223//587 222//587 106//587 
f 222//588 104//588 105//588 
f 223//589 104//589 222//589 
f 223//590 103//590 104//590 
f 224//591 102//591 223//591 
f 109//592 102//592 224//592 
f 223//593 102//593 103//593 
f 109//594 101//594 102//594 
f 225//595 100//595 109//595 
f 110//596 100//596 225//596 
f 109//597 100//597 101//597 
f 100//598 99//598 221//598 
f 111//599 99//599 110//599 
f 110//600 99//600 100//600 
f 112//601 98//601 111//601 
f 111//602 98//602 99//602 
f 226//603 97//603 112//603 
f 112//604 97//604 98//604 
f 113//605 97//605 226//605 
f 117//606 118//606 116//606 
f 113//607 236//607 97//607 
f 118//608 232//608 116//608 
f 114//609 122//609 113//609 
f 227//610 122//610 114//610 
f 236//611 122//611 235//611 
f 113//612 122//612 236//612 
f 228//613 121//613 227//613 
f 227//614 121//614 122//614 
f 231//615 120//615 230//615 
f 115//616 120//616 231//616 
f 116//617 120//617 115//617 
f 233//618 120//618 232//618 
f 119//619 120//619 233//619 
f 232//620 120//620 116//620 
f 229//621 234//621 228//621 
f 230//622 234//622 229//622 
f 120//623 234//623 230//623 
f 228//624 234//624 121//624 
f 237//625 238//625 239//625 
f 237//626 240//626 238//626 
f 237//627 241//627 240//627 
f 237//628 242//628 241//628 
f 237//629 243//629 242//629 
f 237//630 244//630 243//630 
f 237//631 245//631 244//631 
f 237//632 246//632 245//632 
f 237//633 247//633 246//633 
f 248//634 237//634 239//634 
f 249//635 237//635 248//635 
f 250//636 237//636 249//636 
f 251//637 237//637 250//637 
f 252//638 237//638 251//638 
f 253//639 237//639 252//639 
f 254//640 237//640 253//640 
f 255//641 237//641 254//641 
f 256//642 237//642 255//642 
f 257//643 237//643 256//643 
f 258//644 237//644 257//644 
f 259//645 260//645 237//645 
f 261//646 259//646 237//646 
f 262//647 261//647 237//647 
f 263//648 262//648 237//648 
f 264//649 263//649 237//649 
f 265//650 264//650 237//650 
f 266//651 265//651 237//651 
f 267//652 266//652 237//652 
f 268//653 267//653 237//653 
f 269//654 268//654 237//654 
f 270//655 237//655 258//655 
f 271//656 269//656 237//656 
f 272//657 237//657 270//657 
f 273//658 271//658 237//658 
f 274//659 237//659 272//659 
f 275//660 273//660 237//660 
f 276//661 237//661 274//661 
f 277//662 275//662 237//662 
f 278//663 237//663 276//663 
f 278//664 277//664 237//664 
f 279//665 258//665 257//665 
f 280//666 279//666 257//666 
f 281//667 257//667 256//667 
f 281//668 280//668 257//668 
f 282//669 256//669 255//669 
f 282//670 255//670 254//670 
f 282//671 281//671 256//671 
f 283//672 254//672 253//672 
f 283//673 282//673 254//673 
f 284//674 253//674 252//674 
f 284//675 283//675 253//675 
f 285//676 252//676 251//676 
f 285//677 284//677 252//677 
f 286//678 285//678 251//678 
f 287//679 251//679 250//679 
f 287//680 250//680 249//680 
f 287//681 286//681 251//681 
f 288//682 287//682 249//682 
f 289//683 249//683 248//683 
f 289//684 288//684 249//684 
f 290//685 248//685 239//685 
f 290//686 289//686 248//686 
f 291//687 239//687 238//687 
f 291//688 290//688 239//688 
f 292//689 238//689 240//689 
f 292//690 240//690 241//690 
f 292//691 291//691 238//691 
f 293//692 292//692 241//692 
f 293//693 241//693 242//693 
f 294//694 293//694 242//694 
f 294//695 242//695 243//695 
f 295//696 294//696 243//696 
f 295//697 243//697 244//697 
f 296//698 295//698 244//698 
f 297//699 244//699 245//699 
f 297//700 296//700 244//700 
f 297//701 245//701 246//701 
f 298//702 297//702 246//702 
f 298//703 246//703 247//703 
f 299//704 247//704 237//704 
f 299//705 298//705 247//705 
f 300//706 299//706 237//706 
f 300//707 237//707 260//707 
f 301//708 260//708 259//708 
f 301//709 300//709 260//709 
f 302//710 259//710 261//710 
f 302//711 301//711 259//711 
f 303//712 261//712 262//712 
f 303//713 302//713 261//713 
f 304//714 262//714 263//714 
f 304//715 303//715 262//715 
f 305//716 263//716 264//716 
f 305//717 304//717 263//717 
f 306//718 264//718 265//718 
f 306//719 305//719 264//719 
f 307//720 265//720 266//720 
f 307//721 306//721 265//721 
f 308//722 266//722 267//722 
f 308//723 307//723 266//723 
f 309//724 267//724 268//724 
f 309//725 308//725 267//725 
f 310//726 268//726 269//726 
f 310//727 309//727 268//727 
f 311//728 269//728 271//728 
f 311//729 310//729 269//729 
f 312//730 271//730 273//730 
f 312//731 311//731 271//731 
f 313//732 273//732 275//732 
f 313//733 312//733 273//733 
f 314//734 313//734 275//734 
f 314//735 275//735 277//735 
f 315//736 314//736 277//736 
f 315//737 277//737 278//737 
f 316//738 315//738 278//738 
f 316//739 278//739 276//739 
f 317//740 316//740 276//740 
f 317//741 276//741 274//741 
f 318//742 274//742 272//742 
f 318//743 317//743 274//743 
f 319//744 272//744 270//744 
f 319//745 318//745 272//745 
f 320//746 270//746 258//746 
f 320//747 319//747 270//747 
f 279//748 320//748 258//748 
f 291//749 300//749 290//749 
f 292//750 300//750 291//750 
f 293//751 300//751 292//751 
f 294//752 300//752 293//752 
f 295//753 300//753 294//753 
f 296//754 300//754 295//754 
f 297//755 300//755 296//755 
f 298//756 300//756 297//756 
f 299//757 300//757 298//757 
f 300//758 289//758 290//758 
f 300//759 288//759 289//759 
f 300//760 287//760 288//760 
f 300//761 286//761 287//761 
f 300//762 285//762 286//762 
f 300//763 284//763 285//763 
f 300//764 283//764 284//764 
f 300//765 282//765 283//765 
f 300//766 281//766 282//766 
f 300//767 280//767 281//767 
f 300//768 279//768 280//768 
f 301//769 302//769 300//769 
f 302//770 303//770 300//770 
f 303//771 304//771 300//771 
f 304//772 305//772 300//772 
f 305//773 306//773 300//773 
f 306//774 307//774 300//774 
f 307//775 308//775 300//775 
f 308//776 309//776 300//776 
f 309//777 310//777 300//777 
f 310//778 311//778 300//778 
f 300//779 320//779 279//779 
f 311//780 312//780 300//780 
f 300//781 319//781 320//781 
f 312//782 313//782 300//782 
f 300//783 318//783 319//783 
f 313//784 314//784 300//784 
f 300//785 317//785 318//785 
f 314//786 315//786 300//786 
f 300//787 316//787 317//787 
f 315//788 316//788 300//788 
f 321//789 362//789 361//789 
f 322//790 323//790 362//790 
f 322//791 362//791 321//791 
f 363//792 322//792 364//792 
f 363//793 323//793 322//793 
f 366//794 323//794 363//794 
f 367//795 366//795 365//795 
f 367//796 324//796 323//796 
f 367//797 325//797 324//797 
f 367//798 323//798 366//798 
f 368//799 326//799 325//799 
f 368//800 325//800 367//800 
f 327//801 326//801 368//801 
f 328//802 369//802 326//802 
f 328//803 370//803 369//803 
f 328//804 329//804 370//804 
f 328//805 326//805 327//805 
f 330//806 331//806 329//806 
f 330//807 329//807 328//807 
f 371//808 331//808 330//808 
f 377//809 375//809 372//809 
f 332//810 331//810 371//810 
f 332//811 376//811 331//811 
f 333//812 378//812 377//812 
f 333//813 334//813 378//813 
f 335//814 336//814 376//814 
f 335//815 376//815 332//815 
f 337//816 379//816 336//816 
f 337//817 336//817 335//817 
f 338//818 372//818 373//818 
f 338//819 339//819 333//819 
f 338//820 377//820 372//820 
f 338//821 333//821 377//821 
f 381//822 340//822 379//822 
f 381//823 379//823 337//823 
f 341//824 338//824 373//824 
f 380//825 374//825 340//825 
f 380//826 373//826 374//826 
f 380//827 341//827 373//827 
f 380//828 340//828 381//828 
f 382//829 371//829 330//829 
f 342//830 330//830 328//830 
f 342//831 382//831 330//831 
f 383//832 328//832 327//832 
f 383//833 342//833 328//833 
f 384//834 327//834 368//834 
f 384//835 383//835 327//835 
f 385//836 384//836 368//836 
f 343//837 368//837 367//837 
f 343//838 385//838 368//838 
f 386//839 367//839 365//839 
f 386//840 343//840 367//840 
f 344//841 365//841 366//841 
f 344//842 386//842 365//842 
f 345//843 366//843 363//843 
f 345//844 344//844 366//844 
f 387//845 363//845 364//845 
f 387//846 364//846 322//846 
f 387//847 345//847 363//847 
f 346//848 387//848 322//848 
f 347//849 322//849 321//849 
f 347//850 346//850 322//850 
f 388//851 321//851 361//851 
f 388//852 347//852 321//852 
f 348//853 361//853 362//853 
f 348//854 362//854 323//854 
f 348//855 388//855 361//855 
f 389//856 348//856 323//856 
f 349//857 389//857 323//857 
f 349//858 323//858 324//858 
f 349//859 324//859 325//859 
f 390//860 349//860 325//860 
f 390//861 325//861 326//861 
f 350//862 390//862 326//862 
f 391//863 326//863 369//863 
f 391//864 350//864 326//864 
f 392//865 369//865 370//865 
f 392//866 391//866 369//866 
f 351//867 370//867 329//867 
f 351//868 392//868 370//868 
f 393//869 329//869 331//869 
f 393//870 351//870 329//870 
f 352//871 331//871 376//871 
f 352//872 393//872 331//872 
f 353//873 376//873 336//873 
f 353//874 352//874 376//874 
f 394//875 336//875 379//875 
f 394//876 353//876 336//876 
f 395//877 379//877 340//877 
f 395//878 394//878 379//878 
f 396//879 340//879 374//879 
f 396//880 395//880 340//880 
f 397//881 374//881 373//881 
f 397//882 396//882 374//882 
f 354//883 373//883 372//883 
f 354//884 397//884 373//884 
f 355//885 372//885 375//885 
f 355//886 354//886 372//886 
f 356//887 375//887 377//887 
f 356//888 355//888 375//888 
f 357//889 377//889 378//889 
f 357//890 356//890 377//890 
f 358//891 378//891 334//891 
f 358//892 357//892 378//892 
f 398//893 334//893 333//893 
f 398//894 358//894 334//894 
f 359//895 333//895 339//895 
f 359//896 398//896 333//896 
f 360//897 359//897 339//897 
f 360//898 339//898 338//898 
f 399//899 360//899 338//899 
f 399//900 338//900 341//900 
f 400//901 399//901 341//901 
f 400//902 341//902 380//902 
f 401//903 380//903 381//903 
f 401//904 400//904 380//904 
f 402//905 401//905 381//905 
f 402//906 381//906 337//906 
f 403//907 337//907 335//907 
f 403//908 402//908 337//908 
f 404//909 335//909 332//909 
f 404//910 332//910 371//910 
f 404//911 403//911 335//911 
f 382//912 404//912 371//912 
f 390//913 389//913 349//913 
f 350//914 391//914 390//914 
f 390//915 391//915 389//915 
f 389//916 388//916 348//916 
f 392//917 351//917 391//917 
f 388//918 346//918 347//918 
f 388//919 387//919 346//919 
f 343//920 384//920 385//920 
f 386//921 384//921 343//921 
f 344//922 384//922 386//922 
f 345//923 384//923 344//923 
f 387//924 383//924 345//924 
f 389//925 383//925 388//925 
f 391//926 383//926 389//926 
f 351//927 383//927 391//927 
f 388//928 383//928 387//928 
f 345//929 383//929 384//929 
f 351//930 342//930 383//930 
f 393//931 382//931 351//931 
f 351//932 382//932 342//932 
f 395//933 396//933 394//933 
f 354//934 356//934 397//934 
f 355//935 356//935 354//935 
f 352//936 382//936 393//936 
f 357//937 358//937 356//937 
f 353//938 404//938 352//938 
f 352//939 404//939 382//939 
f 398//940 359//940 358//940 
f 356//941 359//941 397//941 
f 358//942 359//942 356//942 
f 360//943 399//943 359//943 
f 359//944 399//944 397//944 
f 394//945 400//945 353//945 
f 397//946 400//946 396//946 
f 402//947 400//947 401//947 
f 403//948 400//948 402//948 
f 404//949 400//949 403//949 
f 396//950 400//950 394//950 
f 353//951 400//951 404//951 
f 399//952 400//952 397//952 
f 322//953 361//953 321//953 
f 322//954 362//954 361//954 
f 363//955 322//955 364//955 
f 363//956 323//956 362//956 
f 363//957 362//957 322//957 
f 365//958 363//958 366//958 
f 365//959 324//959 323//959 
f 365//960 325//960 324//960 
f 365//961 323//961 363//961 
f 367//962 325//962 365//962 
f 368//963 326//963 325//963 
f 368//964 369//964 326//964 
f 368//965 325//965 367//965 
f 328//966 368//966 327//966 
f 328//967 370//967 369//967 
f 328//968 369//968 368//968 
f 330//969 329//969 370//969 
f 330//970 331//970 329//970 
f 330//971 370//971 328//971 
f 371//972 331//972 330//972 
f 372//973 373//973 374//973 
f 375//974 372//974 374//974 
f 332//975 331//975 371//975 
f 332//976 376//976 331//976 
f 333//977 377//977 375//977 
f 333//978 378//978 377//978 
f 333//979 334//979 378//979 
f 335//980 336//980 376//980 
f 335//981 379//981 336//981 
f 335//982 376//982 332//982 
f 337//983 340//983 379//983 
f 337//984 374//984 340//984 
f 337//985 379//985 335//985 
f 341//986 339//986 333//986 
f 341//987 338//987 339//987 
f 341//988 333//988 375//988 
f 380//989 337//989 381//989 
f 380//990 375//990 374//990 
f 380//991 374//991 337//991 
f 380//992 341//992 375//992 
f 382//993 371//993 330//993 
f 342//994 382//994 330//994 
f 383//995 330//995 328//995 
f 383//996 328//996 327//996 
f 383//997 342//997 330//997 
f 384//998 383//998 327//998 
f 385//999 327//999 368//999 
f 385//1000 368//1000 367//1000 
f 385//1001 384//1001 327//1001 
f 343//1002 385//1002 367//1002 
f 386//1003 367//1003 365//1003 
f 386//1004 343//1004 367//1004 
f 344//1005 365//1005 366//1005 
f 344//1006 386//1006 365//1006 
f 345//1007 366//1007 363//1007 
f 345//1008 363//1008 364//1008 
f 345//1009 344//1009 366//1009 
f 387//1010 345//1010 364//1010 
f 346//1011 364//1011 322//1011 
f 346//1012 387//1012 364//1012 
f 347//1013 322//1013 321//1013 
f 347//1014 346//1014 322//1014 
f 388//1015 321//1015 361//1015 
f 388//1016 347//1016 321//1016 
f 348//1017 361//1017 362//1017 
f 348//1018 388//1018 361//1018 
f 389//1019 348//1019 362//1019 
f 389//1020 362//1020 323//1020 
f 389//1021 323//1021 324//1021 
f 349//1022 389//1022 324//1022 
f 390//1023 349//1023 324//1023 
f 390//1024 324//1024 325//1024 
f 390//1025 325//1025 326//1025 
f 350//1026 390//1026 326//1026 
f 391//1027 326//1027 369//1027 
f 391//1028 350//1028 326//1028 
f 392//1029 369//1029 370//1029 
f 392//1030 391//1030 369//1030 
f 351//1031 370//1031 329//1031 
f 351//1032 392//1032 370//1032 
f 393//1033 329//1033 331//1033 
f 393//1034 351//1034 329//1034 
f 352//1035 331//1035 376//1035 
f 352//1036 393//1036 331//1036 
f 353//1037 376//1037 336//1037 
f 353//1038 352//1038 376//1038 
f 394//1039 336//1039 379//1039 
f 394//1040 353//1040 336//1040 
f 395//1041 379//1041 340//1041 
f 395//1042 394//1042 379//1042 
f 396//1043 340//1043 374//1043 
f 396//1044 395//1044 340//1044 
f 397//1045 374//1045 373//1045 
f 397//1046 396//1046 374//1046 
f 354//1047 373//1047 372//1047 
f 354//1048 397//1048 373//1048 
f 355//1049 372//1049 375//1049 
f 355//1050 354//1050 372//1050 
f 356//1051 375//1051 377//1051 
f 356//1052 355//1052 375//1052 
f 357//1053 377//1053 378//1053 
f 357//1054 356//1054 377//1054 
f 358//1055 378//1055 334//1055 
f 358//1056 357//1056 378//1056 
f 398//1057 334//1057 333//1057 
f 398//1058 358//1058 334//1058 
f 359//1059 333//1059 339//1059 
f 359//1060 398//1060 333//1060 
f 360//1061 359//1061 339//1061 
f 360//1062 339//1062 338//1062 
f 399//1063 360//1063 338//1063 
f 399//1064 338//1064 341//1064 
f 400//1065 399//1065 341//1065 
f 400//1066 341//1066 380//1066 
f 401//1067 380//1067 381//1067 
f 401//1068 400//1068 380//1068 
f 402//1069 401//1069 381//1069 
f 402//1070 381//1070 337//1070 
f 403//1071 337//1071 335//1071 
f 403//1072 402//1072 337//1072 
f 404//1073 335//1073 332//1073 
f 404//1074 403//1074 335//1074 
f 382//1075 332//1075 371//1075 
f 382//1076 404//1076 332//1076 
f 383//1077 382//1077 342//1077 
f 384//1078 382//1078 383//1078 
f 385//1079 382//1079 384//1079 
f 343//1080 382//1080 385//1080 
f 386//1081 382//1081 343//1081 
f 344//1082 382//1082 386//1082 
f 345//1083 382//1083 344//1083 
f 387//1084 382//1084 345//1084 
f 346//1085 382//1085 387//1085 
f 347//1086 382//1086 346//1086 
f 388//1087 382//1087 347//1087 
f 348//1088 382//1088 388//1088 
f 389//1089 382//1089 348//1089 
f 349//1090 382//1090 389//1090 
f 390//1091 382//1091 349//1091 
f 350//1092 382//1092 390//1092 
f 391//1093 382//1093 350//1093 
f 392//1094 382//1094 391//1094 
f 351//1095 382//1095 392//1095 
f 393//1096 382//1096 351//1096 
f 352//1097 382//1097 393//1097 
f 353//1098 382//1098 352//1098 
f 394//1099 382//1099 353//1099 
f 395//1100 382//1100 394//1100 
f 396//1101 382//1101 395//1101 
f 397//1102 382//1102 396//1102 
f 354//1103 382//1103 397//1103 
f 355//1104 382//1104 354//1104 
f 356//1105 382//1105 355//1105 
f 357//1106 382//1106 356//1106 
f 357//1107 358//1107 382//1107 
f 358//1108 398//1108 382//1108 
f 382//1109 403//1109 404//1109 
f 398//1110 359//1110 382//1110 
f 382//1111 402//1111 403//1111 
f 359//1112 360//1112 382//1112 
f 382//1113 401//1113 402//1113 
f 360//1114 399//1114 382//1114 
f 382//1115 400//1115 401//1115 
f 399//1116 400//1116 382//1116 
f 405//1117 406//1117 407//1117 
f 405//1118 408//1118 406//1118 
f 405//1119 409//1119 408//1119 
f 405//1120 410//1120 409//1120 
f 405//1121 411//1121 410//1121 
f 405//1122 412//1122 411//1122 
f 405//1123 413//1123 412//1123 
f 405//1124 414//1124 413//1124 
f 405//1125 415//1125 414//1125 
f 416//1126 405//1126 407//1126 
f 417//1127 405//1127 416//1127 
f 418//1128 405//1128 417//1128 
f 419//1129 405//1129 418//1129 
f 420//1130 405//1130 419//1130 
f 421//1131 405//1131 420//1131 
f 422//1132 405//1132 421//1132 
f 423//1133 405//1133 422//1133 
f 424//1134 405//1134 423//1134 
f 425//1135 405//1135 424//1135 
f 426//1136 405//1136 425//1136 
f 427//1137 428//1137 405//1137 
f 429//1138 427//1138 405//1138 
f 430//1139 429//1139 405//1139 
f 431//1140 430//1140 405//1140 
f 432//1141 431//1141 405//1141 
f 433//1142 432//1142 405//1142 
f 434//1143 433//1143 405//1143 
f 435//1144 434//1144 405//1144 
f 436//1145 435//1145 405//1145 
f 437//1146 436//1146 405//1146 
f 438//1147 405//1147 426//1147 
f 439//1148 437//1148 405//1148 
f 440//1149 405//1149 438//1149 
f 441//1150 439//1150 405//1150 
f 442//1151 405//1151 440//1151 
f 443//1152 441//1152 405//1152 
f 444//1153 405//1153 442//1153 
f 445//1154 443//1154 405//1154 
f 446//1155 405//1155 444//1155 
f 446//1156 445//1156 405//1156 
f 447//1157 426//1157 425//1157 
f 447//1158 425//1158 424//1158 
f 447//1159 448//1159 426//1159 
f 449//1160 447//1160 424//1160 
f 450//1161 424//1161 423//1161 
f 450//1162 423//1162 422//1162 
f 450//1163 449//1163 424//1163 
f 451//1164 450//1164 422//1164 
f 452//1165 422//1165 421//1165 
f 452//1166 451//1166 422//1166 
f 453//1167 421//1167 420//1167 
f 453//1168 452//1168 421//1168 
f 454//1169 420//1169 419//1169 
f 454//1170 453//1170 420//1170 
f 455//1171 419//1171 418//1171 
f 455//1172 418//1172 417//1172 
f 455//1173 454//1173 419//1173 
f 456//1174 455//1174 417//1174 
f 457//1175 417//1175 416//1175 
f 457//1176 456//1176 417//1176 
f 458//1177 416//1177 407//1177 
f 458//1178 407//1178 406//1178 
f 458//1179 457//1179 416//1179 
f 459//1180 406//1180 408//1180 
f 459//1181 458//1181 406//1181 
f 460//1182 459//1182 408//1182 
f 461//1183 460//1183 408//1183 
f 461//1184 408//1184 409//1184 
f 462//1185 461//1185 409//1185 
f 462//1186 409//1186 410//1186 
f 463//1187 462//1187 410//1187 
f 463//1188 410//1188 411//1188 
f 463//1189 411//1189 412//1189 
f 464//1190 463//1190 412//1190 
f 464//1191 412//1191 413//1191 
f 465//1192 413//1192 414//1192 
f 465//1193 464//1193 413//1193 
f 466//1194 465//1194 414//1194 
f 467//1195 414//1195 415//1195 
f 467//1196 415//1196 405//1196 
f 467//1197 466//1197 414//1197 
f 468//1198 467//1198 405//1198 
f 468//1199 405//1199 428//1199 
f 469//1200 468//1200 428//1200 
f 470//1201 428//1201 427//1201 
f 470//1202 469//1202 428//1202 
f 471//1203 427//1203 429//1203 
f 471//1204 470//1204 427//1204 
f 472//1205 429//1205 430//1205 
f 472//1206 471//1206 429//1206 
f 473//1207 430//1207 431//1207 
f 473//1208 472//1208 430//1208 
f 474//1209 431//1209 432//1209 
f 474//1210 473//1210 431//1210 
f 475//1211 432//1211 433//1211 
f 475//1212 474//1212 432//1212 
f 476//1213 433//1213 434//1213 
f 476//1214 475//1214 433//1214 
f 477//1215 434//1215 435//1215 
f 477//1216 476//1216 434//1216 
f 478//1217 435//1217 436//1217 
f 478//1218 477//1218 435//1218 
f 479//1219 436//1219 437//1219 
f 479//1220 478//1220 436//1220 
f 480//1221 437//1221 439//1221 
f 480//1222 479//1222 437//1222 
f 481//1223 439//1223 441//1223 
f 481//1224 480//1224 439//1224 
f 482//1225 481//1225 441//1225 
f 482//1226 441//1226 443//1226 
f 483//1227 482//1227 443//1227 
f 483//1228 443//1228 445//1228 
f 484//1229 483//1229 445//1229 
f 484//1230 445//1230 446//1230 
f 485//1231 446//1231 444//1231 
f 485//1232 484//1232 446//1232 
f 485//1233 444//1233 442//1233 
f 486//1234 485//1234 442//1234 
f 487//1235 442//1235 440//1235 
f 487//1236 486//1236 442//1236 
f 488//1237 440//1237 438//1237 
f 488//1238 487//1238 440//1238 
f 448//1239 438//1239 426//1239 
f 448//1240 488//1240 438//1240 
f 459//1241 468//1241 458//1241 
f 460//1242 468//1242 459//1242 
f 461//1243 468//1243 460//1243 
f 462//1244 468//1244 461//1244 
f 463//1245 468//1245 462//1245 
f 464//1246 468//1246 463//1246 
f 465//1247 468//1247 464//1247 
f 466//1248 468//1248 465//1248 
f 467//1249 468//1249 466//1249 
f 468//1250 457//1250 458//1250 
f 468//1251 456//1251 457//1251 
f 468//1252 455//1252 456//1252 
f 468//1253 454//1253 455//1253 
f 468//1254 453//1254 454//1254 
f 468//1255 452//1255 453//1255 
f 468//1256 451//1256 452//1256 
f 468//1257 450//1257 451//1257 
f 468//1258 449//1258 450//1258 
f 468//1259 447//1259 449//1259 
f 468//1260 448//1260 447//1260 
f 469//1261 470//1261 468//1261 
f 470//1262 471//1262 468//1262 
f 471//1263 472//1263 468//1263 
f 472//1264 473//1264 468//1264 
f 473//1265 474//1265 468//1265 
f 474//1266 475//1266 468//1266 
f 475//1267 476//1267 468//1267 
f 476//1268 477//1268 468//1268 
f 477//1269 478//1269 468//1269 
f 478//1270 479//1270 468//1270 
f 468//1271 488//1271 448//1271 
f 479//1272 480//1272 468//1272 
f 468//1273 487//1273 488//1273 
f 480//1274 481//1274 468//1274 
f 468//1275 486//1275 487//1275 
f 481//1276 482//1276 468//1276 
f 468//1277 485//1277 486//1277 
f 482//1278 483//1278 468//1278 
f 468//1279 484//1279 485//1279 
f 483//1280 484//1280 468//1280 
